G04 #@! TF.GenerationSoftware,KiCad,Pcbnew,5.0.1-33cea8e~68~ubuntu18.04.1*
G04 #@! TF.CreationDate,2018-11-24T14:12:02-07:00*
G04 #@! TF.ProjectId,adc,6164632E6B696361645F706362000000,rev?*
G04 #@! TF.SameCoordinates,Original*
G04 #@! TF.FileFunction,Paste,Top*
G04 #@! TF.FilePolarity,Positive*
%FSLAX46Y46*%
G04 Gerber Fmt 4.6, Leading zero omitted, Abs format (unit mm)*
G04 Created by KiCad (PCBNEW 5.0.1-33cea8e~68~ubuntu18.04.1) date Sat 24 Nov 2018 02:12:02 PM MST*
%MOMM*%
%LPD*%
G01*
G04 APERTURE LIST*
%ADD10R,1.700000X2.000000*%
%ADD11R,1.500000X0.450000*%
%ADD12R,2.500000X3.200000*%
%ADD13R,2.000000X2.500000*%
G04 APERTURE END LIST*
D10*
G04 #@! TO.C,R1*
X93599000Y-40767000D03*
X93599000Y-44767000D03*
G04 #@! TD*
G04 #@! TO.C,R2*
X89535000Y-44767000D03*
X89535000Y-40767000D03*
G04 #@! TD*
G04 #@! TO.C,R3*
X79375000Y-40576500D03*
X79375000Y-44576500D03*
G04 #@! TD*
G04 #@! TO.C,R5*
X83439000Y-44576500D03*
X83439000Y-40576500D03*
G04 #@! TD*
G04 #@! TO.C,R13*
X58293000Y-44577000D03*
X58293000Y-40577000D03*
G04 #@! TD*
G04 #@! TO.C,R15*
X62230000Y-40577000D03*
X62230000Y-44577000D03*
G04 #@! TD*
G04 #@! TO.C,R20*
X68072000Y-40545000D03*
X68072000Y-44545000D03*
G04 #@! TD*
G04 #@! TO.C,R23*
X72136000Y-44577000D03*
X72136000Y-40577000D03*
G04 #@! TD*
D11*
G04 #@! TO.C,U1*
X91596000Y-63765000D03*
X91596000Y-64415000D03*
X91596000Y-65065000D03*
X91596000Y-65715000D03*
X91596000Y-66365000D03*
X91596000Y-67015000D03*
X91596000Y-67665000D03*
X91596000Y-68315000D03*
X85696000Y-68315000D03*
X85696000Y-67665000D03*
X85696000Y-67015000D03*
X85696000Y-66365000D03*
X85696000Y-65715000D03*
X85696000Y-65065000D03*
X85696000Y-64415000D03*
X85696000Y-63765000D03*
G04 #@! TD*
G04 #@! TO.C,U2*
X56994000Y-64273000D03*
X56994000Y-64923000D03*
X56994000Y-65573000D03*
X56994000Y-66223000D03*
X56994000Y-66873000D03*
X56994000Y-67523000D03*
X56994000Y-68173000D03*
X56994000Y-68823000D03*
X62894000Y-68823000D03*
X62894000Y-68173000D03*
X62894000Y-67523000D03*
X62894000Y-66873000D03*
X62894000Y-66223000D03*
X62894000Y-65573000D03*
X62894000Y-64923000D03*
X62894000Y-64273000D03*
G04 #@! TD*
G04 #@! TO.C,U3*
X70964000Y-64273000D03*
X70964000Y-64923000D03*
X70964000Y-65573000D03*
X70964000Y-66223000D03*
X70964000Y-66873000D03*
X70964000Y-67523000D03*
X70964000Y-68173000D03*
X70964000Y-68823000D03*
X76864000Y-68823000D03*
X76864000Y-68173000D03*
X76864000Y-67523000D03*
X76864000Y-66873000D03*
X76864000Y-66223000D03*
X76864000Y-65573000D03*
X76864000Y-64923000D03*
X76864000Y-64273000D03*
G04 #@! TD*
D12*
G04 #@! TO.C,C1*
X50292000Y-45956001D03*
X50292000Y-41656001D03*
G04 #@! TD*
D13*
G04 #@! TO.C,C2*
X71845999Y-58911999D03*
X75845999Y-58911999D03*
G04 #@! TD*
D12*
G04 #@! TO.C,C3*
X50292000Y-51562001D03*
X50292000Y-55862001D03*
G04 #@! TD*
D13*
G04 #@! TO.C,C4*
X61976000Y-58928000D03*
X57976000Y-58928000D03*
G04 #@! TD*
G04 #@! TO.C,C6*
X75845999Y-54356000D03*
X71845999Y-54356000D03*
G04 #@! TD*
G04 #@! TO.C,C9*
X86900000Y-58928000D03*
X90900000Y-58928000D03*
G04 #@! TD*
G04 #@! TO.C,C10*
X57976000Y-54356000D03*
X61976000Y-54356000D03*
G04 #@! TD*
G04 #@! TO.C,C12*
X90900000Y-54356000D03*
X86900000Y-54356000D03*
G04 #@! TD*
M02*
