G04 #@! TF.GenerationSoftware,KiCad,Pcbnew,5.0.1-33cea8e~68~ubuntu18.04.1*
G04 #@! TF.CreationDate,2018-11-24T14:12:02-07:00*
G04 #@! TF.ProjectId,adc,6164632E6B696361645F706362000000,rev?*
G04 #@! TF.SameCoordinates,Original*
G04 #@! TF.FileFunction,Soldermask,Top*
G04 #@! TF.FilePolarity,Negative*
%FSLAX46Y46*%
G04 Gerber Fmt 4.6, Leading zero omitted, Abs format (unit mm)*
G04 Created by KiCad (PCBNEW 5.0.1-33cea8e~68~ubuntu18.04.1) date Sat 24 Nov 2018 02:12:02 PM MST*
%MOMM*%
%LPD*%
G01*
G04 APERTURE LIST*
%ADD10C,0.100000*%
G04 APERTURE END LIST*
D10*
G36*
X69620862Y-97782545D02*
X69709088Y-97791234D01*
X69822289Y-97825573D01*
X69878890Y-97842743D01*
X70008377Y-97911956D01*
X70035379Y-97926389D01*
X70071109Y-97955712D01*
X70172544Y-98038956D01*
X70255788Y-98140391D01*
X70285111Y-98176121D01*
X70285112Y-98176123D01*
X70368757Y-98332610D01*
X70368757Y-98332611D01*
X70420266Y-98502412D01*
X70437658Y-98679000D01*
X70420266Y-98855588D01*
X70385927Y-98968789D01*
X70368757Y-99025390D01*
X70347561Y-99065044D01*
X70285111Y-99181879D01*
X70255788Y-99217609D01*
X70172544Y-99319044D01*
X70088206Y-99388257D01*
X70035379Y-99431611D01*
X70035377Y-99431612D01*
X69878890Y-99515257D01*
X69822289Y-99532427D01*
X69709088Y-99566766D01*
X69620862Y-99575455D01*
X69576750Y-99579800D01*
X69488250Y-99579800D01*
X69444138Y-99575455D01*
X69355912Y-99566766D01*
X69242711Y-99532427D01*
X69186110Y-99515257D01*
X69029623Y-99431612D01*
X69029621Y-99431611D01*
X68976794Y-99388257D01*
X68892456Y-99319044D01*
X68809212Y-99217609D01*
X68779889Y-99181879D01*
X68717439Y-99065044D01*
X68696243Y-99025390D01*
X68679073Y-98968789D01*
X68644734Y-98855588D01*
X68627342Y-98679000D01*
X68644734Y-98502412D01*
X68696243Y-98332611D01*
X68696243Y-98332610D01*
X68779888Y-98176123D01*
X68779889Y-98176121D01*
X68809212Y-98140391D01*
X68892456Y-98038956D01*
X68993891Y-97955712D01*
X69029621Y-97926389D01*
X69056623Y-97911956D01*
X69186110Y-97842743D01*
X69242711Y-97825573D01*
X69355912Y-97791234D01*
X69444138Y-97782545D01*
X69488250Y-97778200D01*
X69576750Y-97778200D01*
X69620862Y-97782545D01*
X69620862Y-97782545D01*
G37*
G36*
X67080862Y-97782545D02*
X67169088Y-97791234D01*
X67282289Y-97825573D01*
X67338890Y-97842743D01*
X67468377Y-97911956D01*
X67495379Y-97926389D01*
X67531109Y-97955712D01*
X67632544Y-98038956D01*
X67715788Y-98140391D01*
X67745111Y-98176121D01*
X67745112Y-98176123D01*
X67828757Y-98332610D01*
X67828757Y-98332611D01*
X67880266Y-98502412D01*
X67897658Y-98679000D01*
X67880266Y-98855588D01*
X67845927Y-98968789D01*
X67828757Y-99025390D01*
X67807561Y-99065044D01*
X67745111Y-99181879D01*
X67715788Y-99217609D01*
X67632544Y-99319044D01*
X67548206Y-99388257D01*
X67495379Y-99431611D01*
X67495377Y-99431612D01*
X67338890Y-99515257D01*
X67282289Y-99532427D01*
X67169088Y-99566766D01*
X67080862Y-99575455D01*
X67036750Y-99579800D01*
X66948250Y-99579800D01*
X66904138Y-99575455D01*
X66815912Y-99566766D01*
X66702711Y-99532427D01*
X66646110Y-99515257D01*
X66489623Y-99431612D01*
X66489621Y-99431611D01*
X66436794Y-99388257D01*
X66352456Y-99319044D01*
X66269212Y-99217609D01*
X66239889Y-99181879D01*
X66177439Y-99065044D01*
X66156243Y-99025390D01*
X66139073Y-98968789D01*
X66104734Y-98855588D01*
X66087342Y-98679000D01*
X66104734Y-98502412D01*
X66156243Y-98332611D01*
X66156243Y-98332610D01*
X66239888Y-98176123D01*
X66239889Y-98176121D01*
X66269212Y-98140391D01*
X66352456Y-98038956D01*
X66453891Y-97955712D01*
X66489621Y-97926389D01*
X66516623Y-97911956D01*
X66646110Y-97842743D01*
X66702711Y-97825573D01*
X66815912Y-97791234D01*
X66904138Y-97782545D01*
X66948250Y-97778200D01*
X67036750Y-97778200D01*
X67080862Y-97782545D01*
X67080862Y-97782545D01*
G37*
G36*
X48348362Y-97655545D02*
X48436588Y-97664234D01*
X48549789Y-97698573D01*
X48606390Y-97715743D01*
X48723237Y-97778200D01*
X48762879Y-97799389D01*
X48798609Y-97828712D01*
X48900044Y-97911956D01*
X48983288Y-98013391D01*
X49012611Y-98049121D01*
X49012612Y-98049123D01*
X49096257Y-98205610D01*
X49096257Y-98205611D01*
X49147766Y-98375412D01*
X49165158Y-98552000D01*
X49147766Y-98728588D01*
X49134782Y-98771389D01*
X49096257Y-98898390D01*
X49028374Y-99025389D01*
X49012611Y-99054879D01*
X48983288Y-99090609D01*
X48900044Y-99192044D01*
X48815706Y-99261257D01*
X48762879Y-99304611D01*
X48762877Y-99304612D01*
X48606390Y-99388257D01*
X48549789Y-99405427D01*
X48436588Y-99439766D01*
X48348362Y-99448455D01*
X48304250Y-99452800D01*
X48215750Y-99452800D01*
X48171638Y-99448455D01*
X48083412Y-99439766D01*
X47970211Y-99405427D01*
X47913610Y-99388257D01*
X47757123Y-99304612D01*
X47757121Y-99304611D01*
X47704294Y-99261257D01*
X47619956Y-99192044D01*
X47536712Y-99090609D01*
X47507389Y-99054879D01*
X47491626Y-99025389D01*
X47423743Y-98898390D01*
X47385218Y-98771389D01*
X47372234Y-98728588D01*
X47354842Y-98552000D01*
X47372234Y-98375412D01*
X47423743Y-98205611D01*
X47423743Y-98205610D01*
X47507388Y-98049123D01*
X47507389Y-98049121D01*
X47536712Y-98013391D01*
X47619956Y-97911956D01*
X47721391Y-97828712D01*
X47757121Y-97799389D01*
X47796763Y-97778200D01*
X47913610Y-97715743D01*
X47970211Y-97698573D01*
X48083412Y-97664234D01*
X48171638Y-97655545D01*
X48215750Y-97651200D01*
X48304250Y-97651200D01*
X48348362Y-97655545D01*
X48348362Y-97655545D01*
G37*
G36*
X52920362Y-97655545D02*
X53008588Y-97664234D01*
X53121789Y-97698573D01*
X53178390Y-97715743D01*
X53295237Y-97778200D01*
X53334879Y-97799389D01*
X53370609Y-97828712D01*
X53472044Y-97911956D01*
X53555288Y-98013391D01*
X53584611Y-98049121D01*
X53584612Y-98049123D01*
X53668257Y-98205610D01*
X53668257Y-98205611D01*
X53719766Y-98375412D01*
X53737158Y-98552000D01*
X53719766Y-98728588D01*
X53706782Y-98771389D01*
X53668257Y-98898390D01*
X53600374Y-99025389D01*
X53584611Y-99054879D01*
X53555288Y-99090609D01*
X53472044Y-99192044D01*
X53387706Y-99261257D01*
X53334879Y-99304611D01*
X53334877Y-99304612D01*
X53178390Y-99388257D01*
X53121789Y-99405427D01*
X53008588Y-99439766D01*
X52920362Y-99448455D01*
X52876250Y-99452800D01*
X52787750Y-99452800D01*
X52743638Y-99448455D01*
X52655412Y-99439766D01*
X52542211Y-99405427D01*
X52485610Y-99388257D01*
X52329123Y-99304612D01*
X52329121Y-99304611D01*
X52276294Y-99261257D01*
X52191956Y-99192044D01*
X52108712Y-99090609D01*
X52079389Y-99054879D01*
X52063626Y-99025389D01*
X51995743Y-98898390D01*
X51957218Y-98771389D01*
X51944234Y-98728588D01*
X51926842Y-98552000D01*
X51944234Y-98375412D01*
X51995743Y-98205611D01*
X51995743Y-98205610D01*
X52079388Y-98049123D01*
X52079389Y-98049121D01*
X52108712Y-98013391D01*
X52191956Y-97911956D01*
X52293391Y-97828712D01*
X52329121Y-97799389D01*
X52368763Y-97778200D01*
X52485610Y-97715743D01*
X52542211Y-97698573D01*
X52655412Y-97664234D01*
X52743638Y-97655545D01*
X52787750Y-97651200D01*
X52876250Y-97651200D01*
X52920362Y-97655545D01*
X52920362Y-97655545D01*
G37*
G36*
X55460362Y-97655545D02*
X55548588Y-97664234D01*
X55661789Y-97698573D01*
X55718390Y-97715743D01*
X55835237Y-97778200D01*
X55874879Y-97799389D01*
X55910609Y-97828712D01*
X56012044Y-97911956D01*
X56095288Y-98013391D01*
X56124611Y-98049121D01*
X56124612Y-98049123D01*
X56208257Y-98205610D01*
X56208257Y-98205611D01*
X56259766Y-98375412D01*
X56277158Y-98552000D01*
X56259766Y-98728588D01*
X56246782Y-98771389D01*
X56208257Y-98898390D01*
X56140374Y-99025389D01*
X56124611Y-99054879D01*
X56095288Y-99090609D01*
X56012044Y-99192044D01*
X55927706Y-99261257D01*
X55874879Y-99304611D01*
X55874877Y-99304612D01*
X55718390Y-99388257D01*
X55661789Y-99405427D01*
X55548588Y-99439766D01*
X55460362Y-99448455D01*
X55416250Y-99452800D01*
X55327750Y-99452800D01*
X55283638Y-99448455D01*
X55195412Y-99439766D01*
X55082211Y-99405427D01*
X55025610Y-99388257D01*
X54869123Y-99304612D01*
X54869121Y-99304611D01*
X54816294Y-99261257D01*
X54731956Y-99192044D01*
X54648712Y-99090609D01*
X54619389Y-99054879D01*
X54603626Y-99025389D01*
X54535743Y-98898390D01*
X54497218Y-98771389D01*
X54484234Y-98728588D01*
X54466842Y-98552000D01*
X54484234Y-98375412D01*
X54535743Y-98205611D01*
X54535743Y-98205610D01*
X54619388Y-98049123D01*
X54619389Y-98049121D01*
X54648712Y-98013391D01*
X54731956Y-97911956D01*
X54833391Y-97828712D01*
X54869121Y-97799389D01*
X54908763Y-97778200D01*
X55025610Y-97715743D01*
X55082211Y-97698573D01*
X55195412Y-97664234D01*
X55283638Y-97655545D01*
X55327750Y-97651200D01*
X55416250Y-97651200D01*
X55460362Y-97655545D01*
X55460362Y-97655545D01*
G37*
G36*
X96608362Y-97655545D02*
X96696588Y-97664234D01*
X96809789Y-97698573D01*
X96866390Y-97715743D01*
X96983237Y-97778200D01*
X97022879Y-97799389D01*
X97058609Y-97828712D01*
X97160044Y-97911956D01*
X97243288Y-98013391D01*
X97272611Y-98049121D01*
X97272612Y-98049123D01*
X97356257Y-98205610D01*
X97356257Y-98205611D01*
X97407766Y-98375412D01*
X97425158Y-98552000D01*
X97407766Y-98728588D01*
X97394782Y-98771389D01*
X97356257Y-98898390D01*
X97288374Y-99025389D01*
X97272611Y-99054879D01*
X97243288Y-99090609D01*
X97160044Y-99192044D01*
X97075706Y-99261257D01*
X97022879Y-99304611D01*
X97022877Y-99304612D01*
X96866390Y-99388257D01*
X96809789Y-99405427D01*
X96696588Y-99439766D01*
X96608362Y-99448455D01*
X96564250Y-99452800D01*
X96475750Y-99452800D01*
X96431638Y-99448455D01*
X96343412Y-99439766D01*
X96230211Y-99405427D01*
X96173610Y-99388257D01*
X96017123Y-99304612D01*
X96017121Y-99304611D01*
X95964294Y-99261257D01*
X95879956Y-99192044D01*
X95796712Y-99090609D01*
X95767389Y-99054879D01*
X95751626Y-99025389D01*
X95683743Y-98898390D01*
X95645218Y-98771389D01*
X95632234Y-98728588D01*
X95614842Y-98552000D01*
X95632234Y-98375412D01*
X95683743Y-98205611D01*
X95683743Y-98205610D01*
X95767388Y-98049123D01*
X95767389Y-98049121D01*
X95796712Y-98013391D01*
X95879956Y-97911956D01*
X95981391Y-97828712D01*
X96017121Y-97799389D01*
X96056763Y-97778200D01*
X96173610Y-97715743D01*
X96230211Y-97698573D01*
X96343412Y-97664234D01*
X96431638Y-97655545D01*
X96475750Y-97651200D01*
X96564250Y-97651200D01*
X96608362Y-97655545D01*
X96608362Y-97655545D01*
G37*
G36*
X83908362Y-97528545D02*
X83996588Y-97537234D01*
X84109789Y-97571573D01*
X84166390Y-97588743D01*
X84283237Y-97651200D01*
X84322879Y-97672389D01*
X84358609Y-97701712D01*
X84460044Y-97784956D01*
X84543288Y-97886391D01*
X84572611Y-97922121D01*
X84572612Y-97922123D01*
X84656257Y-98078610D01*
X84656257Y-98078611D01*
X84707766Y-98248412D01*
X84725158Y-98425000D01*
X84707766Y-98601588D01*
X84684283Y-98679000D01*
X84656257Y-98771390D01*
X84611253Y-98855586D01*
X84572611Y-98927879D01*
X84543288Y-98963609D01*
X84460044Y-99065044D01*
X84358609Y-99148288D01*
X84322879Y-99177611D01*
X84322877Y-99177612D01*
X84166390Y-99261257D01*
X84109789Y-99278427D01*
X83996588Y-99312766D01*
X83932855Y-99319043D01*
X83864250Y-99325800D01*
X83775750Y-99325800D01*
X83707145Y-99319043D01*
X83643412Y-99312766D01*
X83530211Y-99278427D01*
X83473610Y-99261257D01*
X83317123Y-99177612D01*
X83317121Y-99177611D01*
X83281391Y-99148288D01*
X83179956Y-99065044D01*
X83096712Y-98963609D01*
X83067389Y-98927879D01*
X83028747Y-98855586D01*
X82983743Y-98771390D01*
X82955717Y-98679000D01*
X82932234Y-98601588D01*
X82914842Y-98425000D01*
X82932234Y-98248412D01*
X82983743Y-98078611D01*
X82983743Y-98078610D01*
X83067388Y-97922123D01*
X83067389Y-97922121D01*
X83096712Y-97886391D01*
X83179956Y-97784956D01*
X83281391Y-97701712D01*
X83317121Y-97672389D01*
X83356763Y-97651200D01*
X83473610Y-97588743D01*
X83530211Y-97571573D01*
X83643412Y-97537234D01*
X83731638Y-97528545D01*
X83775750Y-97524200D01*
X83864250Y-97524200D01*
X83908362Y-97528545D01*
X83908362Y-97528545D01*
G37*
G36*
X81368362Y-97528545D02*
X81456588Y-97537234D01*
X81569789Y-97571573D01*
X81626390Y-97588743D01*
X81743237Y-97651200D01*
X81782879Y-97672389D01*
X81818609Y-97701712D01*
X81920044Y-97784956D01*
X82003288Y-97886391D01*
X82032611Y-97922121D01*
X82032612Y-97922123D01*
X82116257Y-98078610D01*
X82116257Y-98078611D01*
X82167766Y-98248412D01*
X82185158Y-98425000D01*
X82167766Y-98601588D01*
X82144283Y-98679000D01*
X82116257Y-98771390D01*
X82071253Y-98855586D01*
X82032611Y-98927879D01*
X82003288Y-98963609D01*
X81920044Y-99065044D01*
X81818609Y-99148288D01*
X81782879Y-99177611D01*
X81782877Y-99177612D01*
X81626390Y-99261257D01*
X81569789Y-99278427D01*
X81456588Y-99312766D01*
X81392855Y-99319043D01*
X81324250Y-99325800D01*
X81235750Y-99325800D01*
X81167145Y-99319043D01*
X81103412Y-99312766D01*
X80990211Y-99278427D01*
X80933610Y-99261257D01*
X80777123Y-99177612D01*
X80777121Y-99177611D01*
X80741391Y-99148288D01*
X80639956Y-99065044D01*
X80556712Y-98963609D01*
X80527389Y-98927879D01*
X80488747Y-98855586D01*
X80443743Y-98771390D01*
X80415717Y-98679000D01*
X80392234Y-98601588D01*
X80374842Y-98425000D01*
X80392234Y-98248412D01*
X80443743Y-98078611D01*
X80443743Y-98078610D01*
X80527388Y-97922123D01*
X80527389Y-97922121D01*
X80556712Y-97886391D01*
X80639956Y-97784956D01*
X80741391Y-97701712D01*
X80777121Y-97672389D01*
X80816763Y-97651200D01*
X80933610Y-97588743D01*
X80990211Y-97571573D01*
X81103412Y-97537234D01*
X81191638Y-97528545D01*
X81235750Y-97524200D01*
X81324250Y-97524200D01*
X81368362Y-97528545D01*
X81368362Y-97528545D01*
G37*
G36*
X69620862Y-95242545D02*
X69709088Y-95251234D01*
X69822289Y-95285573D01*
X69878890Y-95302743D01*
X70008377Y-95371956D01*
X70035379Y-95386389D01*
X70071109Y-95415712D01*
X70172544Y-95498956D01*
X70255788Y-95600391D01*
X70285111Y-95636121D01*
X70285112Y-95636123D01*
X70368757Y-95792610D01*
X70368757Y-95792611D01*
X70420266Y-95962412D01*
X70437658Y-96139000D01*
X70420266Y-96315588D01*
X70385927Y-96428789D01*
X70368757Y-96485390D01*
X70347561Y-96525044D01*
X70285111Y-96641879D01*
X70255788Y-96677609D01*
X70172544Y-96779044D01*
X70088206Y-96848257D01*
X70035379Y-96891611D01*
X70035377Y-96891612D01*
X69878890Y-96975257D01*
X69822289Y-96992427D01*
X69709088Y-97026766D01*
X69620862Y-97035455D01*
X69576750Y-97039800D01*
X69488250Y-97039800D01*
X69444138Y-97035455D01*
X69355912Y-97026766D01*
X69242711Y-96992427D01*
X69186110Y-96975257D01*
X69029623Y-96891612D01*
X69029621Y-96891611D01*
X68976794Y-96848257D01*
X68892456Y-96779044D01*
X68809212Y-96677609D01*
X68779889Y-96641879D01*
X68717439Y-96525044D01*
X68696243Y-96485390D01*
X68679073Y-96428789D01*
X68644734Y-96315588D01*
X68627342Y-96139000D01*
X68644734Y-95962412D01*
X68696243Y-95792611D01*
X68696243Y-95792610D01*
X68779888Y-95636123D01*
X68779889Y-95636121D01*
X68809212Y-95600391D01*
X68892456Y-95498956D01*
X68993891Y-95415712D01*
X69029621Y-95386389D01*
X69056623Y-95371956D01*
X69186110Y-95302743D01*
X69242711Y-95285573D01*
X69355912Y-95251234D01*
X69444138Y-95242545D01*
X69488250Y-95238200D01*
X69576750Y-95238200D01*
X69620862Y-95242545D01*
X69620862Y-95242545D01*
G37*
G36*
X67080862Y-95242545D02*
X67169088Y-95251234D01*
X67282289Y-95285573D01*
X67338890Y-95302743D01*
X67468377Y-95371956D01*
X67495379Y-95386389D01*
X67531109Y-95415712D01*
X67632544Y-95498956D01*
X67715788Y-95600391D01*
X67745111Y-95636121D01*
X67745112Y-95636123D01*
X67828757Y-95792610D01*
X67828757Y-95792611D01*
X67880266Y-95962412D01*
X67897658Y-96139000D01*
X67880266Y-96315588D01*
X67845927Y-96428789D01*
X67828757Y-96485390D01*
X67807561Y-96525044D01*
X67745111Y-96641879D01*
X67715788Y-96677609D01*
X67632544Y-96779044D01*
X67548206Y-96848257D01*
X67495379Y-96891611D01*
X67495377Y-96891612D01*
X67338890Y-96975257D01*
X67282289Y-96992427D01*
X67169088Y-97026766D01*
X67080862Y-97035455D01*
X67036750Y-97039800D01*
X66948250Y-97039800D01*
X66904138Y-97035455D01*
X66815912Y-97026766D01*
X66702711Y-96992427D01*
X66646110Y-96975257D01*
X66489623Y-96891612D01*
X66489621Y-96891611D01*
X66436794Y-96848257D01*
X66352456Y-96779044D01*
X66269212Y-96677609D01*
X66239889Y-96641879D01*
X66177439Y-96525044D01*
X66156243Y-96485390D01*
X66139073Y-96428789D01*
X66104734Y-96315588D01*
X66087342Y-96139000D01*
X66104734Y-95962412D01*
X66156243Y-95792611D01*
X66156243Y-95792610D01*
X66239888Y-95636123D01*
X66239889Y-95636121D01*
X66269212Y-95600391D01*
X66352456Y-95498956D01*
X66453891Y-95415712D01*
X66489621Y-95386389D01*
X66516623Y-95371956D01*
X66646110Y-95302743D01*
X66702711Y-95285573D01*
X66815912Y-95251234D01*
X66904138Y-95242545D01*
X66948250Y-95238200D01*
X67036750Y-95238200D01*
X67080862Y-95242545D01*
X67080862Y-95242545D01*
G37*
G36*
X52920362Y-95115545D02*
X53008588Y-95124234D01*
X53121789Y-95158573D01*
X53178390Y-95175743D01*
X53295237Y-95238200D01*
X53334879Y-95259389D01*
X53370609Y-95288712D01*
X53472044Y-95371956D01*
X53555288Y-95473391D01*
X53584611Y-95509121D01*
X53584612Y-95509123D01*
X53668257Y-95665610D01*
X53668257Y-95665611D01*
X53719766Y-95835412D01*
X53737158Y-96012000D01*
X53719766Y-96188588D01*
X53706782Y-96231389D01*
X53668257Y-96358390D01*
X53600374Y-96485389D01*
X53584611Y-96514879D01*
X53555288Y-96550609D01*
X53472044Y-96652044D01*
X53387706Y-96721257D01*
X53334879Y-96764611D01*
X53334877Y-96764612D01*
X53178390Y-96848257D01*
X53121789Y-96865427D01*
X53008588Y-96899766D01*
X52920362Y-96908455D01*
X52876250Y-96912800D01*
X52787750Y-96912800D01*
X52743638Y-96908455D01*
X52655412Y-96899766D01*
X52542211Y-96865427D01*
X52485610Y-96848257D01*
X52329123Y-96764612D01*
X52329121Y-96764611D01*
X52276294Y-96721257D01*
X52191956Y-96652044D01*
X52108712Y-96550609D01*
X52079389Y-96514879D01*
X52063626Y-96485389D01*
X51995743Y-96358390D01*
X51957218Y-96231389D01*
X51944234Y-96188588D01*
X51926842Y-96012000D01*
X51944234Y-95835412D01*
X51995743Y-95665611D01*
X51995743Y-95665610D01*
X52079388Y-95509123D01*
X52079389Y-95509121D01*
X52108712Y-95473391D01*
X52191956Y-95371956D01*
X52293391Y-95288712D01*
X52329121Y-95259389D01*
X52368763Y-95238200D01*
X52485610Y-95175743D01*
X52542211Y-95158573D01*
X52655412Y-95124234D01*
X52743638Y-95115545D01*
X52787750Y-95111200D01*
X52876250Y-95111200D01*
X52920362Y-95115545D01*
X52920362Y-95115545D01*
G37*
G36*
X48348362Y-95115545D02*
X48436588Y-95124234D01*
X48549789Y-95158573D01*
X48606390Y-95175743D01*
X48723237Y-95238200D01*
X48762879Y-95259389D01*
X48798609Y-95288712D01*
X48900044Y-95371956D01*
X48983288Y-95473391D01*
X49012611Y-95509121D01*
X49012612Y-95509123D01*
X49096257Y-95665610D01*
X49096257Y-95665611D01*
X49147766Y-95835412D01*
X49165158Y-96012000D01*
X49147766Y-96188588D01*
X49134782Y-96231389D01*
X49096257Y-96358390D01*
X49028374Y-96485389D01*
X49012611Y-96514879D01*
X48983288Y-96550609D01*
X48900044Y-96652044D01*
X48815706Y-96721257D01*
X48762879Y-96764611D01*
X48762877Y-96764612D01*
X48606390Y-96848257D01*
X48549789Y-96865427D01*
X48436588Y-96899766D01*
X48348362Y-96908455D01*
X48304250Y-96912800D01*
X48215750Y-96912800D01*
X48171638Y-96908455D01*
X48083412Y-96899766D01*
X47970211Y-96865427D01*
X47913610Y-96848257D01*
X47757123Y-96764612D01*
X47757121Y-96764611D01*
X47704294Y-96721257D01*
X47619956Y-96652044D01*
X47536712Y-96550609D01*
X47507389Y-96514879D01*
X47491626Y-96485389D01*
X47423743Y-96358390D01*
X47385218Y-96231389D01*
X47372234Y-96188588D01*
X47354842Y-96012000D01*
X47372234Y-95835412D01*
X47423743Y-95665611D01*
X47423743Y-95665610D01*
X47507388Y-95509123D01*
X47507389Y-95509121D01*
X47536712Y-95473391D01*
X47619956Y-95371956D01*
X47721391Y-95288712D01*
X47757121Y-95259389D01*
X47796763Y-95238200D01*
X47913610Y-95175743D01*
X47970211Y-95158573D01*
X48083412Y-95124234D01*
X48171638Y-95115545D01*
X48215750Y-95111200D01*
X48304250Y-95111200D01*
X48348362Y-95115545D01*
X48348362Y-95115545D01*
G37*
G36*
X55460362Y-95115545D02*
X55548588Y-95124234D01*
X55661789Y-95158573D01*
X55718390Y-95175743D01*
X55835237Y-95238200D01*
X55874879Y-95259389D01*
X55910609Y-95288712D01*
X56012044Y-95371956D01*
X56095288Y-95473391D01*
X56124611Y-95509121D01*
X56124612Y-95509123D01*
X56208257Y-95665610D01*
X56208257Y-95665611D01*
X56259766Y-95835412D01*
X56277158Y-96012000D01*
X56259766Y-96188588D01*
X56246782Y-96231389D01*
X56208257Y-96358390D01*
X56140374Y-96485389D01*
X56124611Y-96514879D01*
X56095288Y-96550609D01*
X56012044Y-96652044D01*
X55927706Y-96721257D01*
X55874879Y-96764611D01*
X55874877Y-96764612D01*
X55718390Y-96848257D01*
X55661789Y-96865427D01*
X55548588Y-96899766D01*
X55460362Y-96908455D01*
X55416250Y-96912800D01*
X55327750Y-96912800D01*
X55283638Y-96908455D01*
X55195412Y-96899766D01*
X55082211Y-96865427D01*
X55025610Y-96848257D01*
X54869123Y-96764612D01*
X54869121Y-96764611D01*
X54816294Y-96721257D01*
X54731956Y-96652044D01*
X54648712Y-96550609D01*
X54619389Y-96514879D01*
X54603626Y-96485389D01*
X54535743Y-96358390D01*
X54497218Y-96231389D01*
X54484234Y-96188588D01*
X54466842Y-96012000D01*
X54484234Y-95835412D01*
X54535743Y-95665611D01*
X54535743Y-95665610D01*
X54619388Y-95509123D01*
X54619389Y-95509121D01*
X54648712Y-95473391D01*
X54731956Y-95371956D01*
X54833391Y-95288712D01*
X54869121Y-95259389D01*
X54908763Y-95238200D01*
X55025610Y-95175743D01*
X55082211Y-95158573D01*
X55195412Y-95124234D01*
X55283638Y-95115545D01*
X55327750Y-95111200D01*
X55416250Y-95111200D01*
X55460362Y-95115545D01*
X55460362Y-95115545D01*
G37*
G36*
X96608362Y-95115545D02*
X96696588Y-95124234D01*
X96809789Y-95158573D01*
X96866390Y-95175743D01*
X96983237Y-95238200D01*
X97022879Y-95259389D01*
X97058609Y-95288712D01*
X97160044Y-95371956D01*
X97243288Y-95473391D01*
X97272611Y-95509121D01*
X97272612Y-95509123D01*
X97356257Y-95665610D01*
X97356257Y-95665611D01*
X97407766Y-95835412D01*
X97425158Y-96012000D01*
X97407766Y-96188588D01*
X97394782Y-96231389D01*
X97356257Y-96358390D01*
X97288374Y-96485389D01*
X97272611Y-96514879D01*
X97243288Y-96550609D01*
X97160044Y-96652044D01*
X97075706Y-96721257D01*
X97022879Y-96764611D01*
X97022877Y-96764612D01*
X96866390Y-96848257D01*
X96809789Y-96865427D01*
X96696588Y-96899766D01*
X96608362Y-96908455D01*
X96564250Y-96912800D01*
X96475750Y-96912800D01*
X96431638Y-96908455D01*
X96343412Y-96899766D01*
X96230211Y-96865427D01*
X96173610Y-96848257D01*
X96017123Y-96764612D01*
X96017121Y-96764611D01*
X95964294Y-96721257D01*
X95879956Y-96652044D01*
X95796712Y-96550609D01*
X95767389Y-96514879D01*
X95751626Y-96485389D01*
X95683743Y-96358390D01*
X95645218Y-96231389D01*
X95632234Y-96188588D01*
X95614842Y-96012000D01*
X95632234Y-95835412D01*
X95683743Y-95665611D01*
X95683743Y-95665610D01*
X95767388Y-95509123D01*
X95767389Y-95509121D01*
X95796712Y-95473391D01*
X95879956Y-95371956D01*
X95981391Y-95288712D01*
X96017121Y-95259389D01*
X96056763Y-95238200D01*
X96173610Y-95175743D01*
X96230211Y-95158573D01*
X96343412Y-95124234D01*
X96431638Y-95115545D01*
X96475750Y-95111200D01*
X96564250Y-95111200D01*
X96608362Y-95115545D01*
X96608362Y-95115545D01*
G37*
G36*
X81368362Y-94988545D02*
X81456588Y-94997234D01*
X81569789Y-95031573D01*
X81626390Y-95048743D01*
X81743237Y-95111200D01*
X81782879Y-95132389D01*
X81818609Y-95161712D01*
X81920044Y-95244956D01*
X82003288Y-95346391D01*
X82032611Y-95382121D01*
X82032612Y-95382123D01*
X82116257Y-95538610D01*
X82116257Y-95538611D01*
X82167766Y-95708412D01*
X82185158Y-95885000D01*
X82167766Y-96061588D01*
X82144283Y-96139000D01*
X82116257Y-96231390D01*
X82071253Y-96315586D01*
X82032611Y-96387879D01*
X82003288Y-96423609D01*
X81920044Y-96525044D01*
X81818609Y-96608288D01*
X81782879Y-96637611D01*
X81782877Y-96637612D01*
X81626390Y-96721257D01*
X81569789Y-96738427D01*
X81456588Y-96772766D01*
X81392855Y-96779043D01*
X81324250Y-96785800D01*
X81235750Y-96785800D01*
X81167145Y-96779043D01*
X81103412Y-96772766D01*
X80990211Y-96738427D01*
X80933610Y-96721257D01*
X80777123Y-96637612D01*
X80777121Y-96637611D01*
X80741391Y-96608288D01*
X80639956Y-96525044D01*
X80556712Y-96423609D01*
X80527389Y-96387879D01*
X80488747Y-96315586D01*
X80443743Y-96231390D01*
X80415717Y-96139000D01*
X80392234Y-96061588D01*
X80374842Y-95885000D01*
X80392234Y-95708412D01*
X80443743Y-95538611D01*
X80443743Y-95538610D01*
X80527388Y-95382123D01*
X80527389Y-95382121D01*
X80556712Y-95346391D01*
X80639956Y-95244956D01*
X80741391Y-95161712D01*
X80777121Y-95132389D01*
X80816763Y-95111200D01*
X80933610Y-95048743D01*
X80990211Y-95031573D01*
X81103412Y-94997234D01*
X81191638Y-94988545D01*
X81235750Y-94984200D01*
X81324250Y-94984200D01*
X81368362Y-94988545D01*
X81368362Y-94988545D01*
G37*
G36*
X83908362Y-94988545D02*
X83996588Y-94997234D01*
X84109789Y-95031573D01*
X84166390Y-95048743D01*
X84283237Y-95111200D01*
X84322879Y-95132389D01*
X84358609Y-95161712D01*
X84460044Y-95244956D01*
X84543288Y-95346391D01*
X84572611Y-95382121D01*
X84572612Y-95382123D01*
X84656257Y-95538610D01*
X84656257Y-95538611D01*
X84707766Y-95708412D01*
X84725158Y-95885000D01*
X84707766Y-96061588D01*
X84684283Y-96139000D01*
X84656257Y-96231390D01*
X84611253Y-96315586D01*
X84572611Y-96387879D01*
X84543288Y-96423609D01*
X84460044Y-96525044D01*
X84358609Y-96608288D01*
X84322879Y-96637611D01*
X84322877Y-96637612D01*
X84166390Y-96721257D01*
X84109789Y-96738427D01*
X83996588Y-96772766D01*
X83932855Y-96779043D01*
X83864250Y-96785800D01*
X83775750Y-96785800D01*
X83707145Y-96779043D01*
X83643412Y-96772766D01*
X83530211Y-96738427D01*
X83473610Y-96721257D01*
X83317123Y-96637612D01*
X83317121Y-96637611D01*
X83281391Y-96608288D01*
X83179956Y-96525044D01*
X83096712Y-96423609D01*
X83067389Y-96387879D01*
X83028747Y-96315586D01*
X82983743Y-96231390D01*
X82955717Y-96139000D01*
X82932234Y-96061588D01*
X82914842Y-95885000D01*
X82932234Y-95708412D01*
X82983743Y-95538611D01*
X82983743Y-95538610D01*
X83067388Y-95382123D01*
X83067389Y-95382121D01*
X83096712Y-95346391D01*
X83179956Y-95244956D01*
X83281391Y-95161712D01*
X83317121Y-95132389D01*
X83356763Y-95111200D01*
X83473610Y-95048743D01*
X83530211Y-95031573D01*
X83643412Y-94997234D01*
X83731638Y-94988545D01*
X83775750Y-94984200D01*
X83864250Y-94984200D01*
X83908362Y-94988545D01*
X83908362Y-94988545D01*
G37*
G36*
X69620862Y-92702545D02*
X69709088Y-92711234D01*
X69822289Y-92745573D01*
X69878890Y-92762743D01*
X70008377Y-92831956D01*
X70035379Y-92846389D01*
X70071109Y-92875712D01*
X70172544Y-92958956D01*
X70255788Y-93060391D01*
X70285111Y-93096121D01*
X70285112Y-93096123D01*
X70368757Y-93252610D01*
X70368757Y-93252611D01*
X70420266Y-93422412D01*
X70437658Y-93599000D01*
X70420266Y-93775588D01*
X70385927Y-93888789D01*
X70368757Y-93945390D01*
X70347561Y-93985044D01*
X70285111Y-94101879D01*
X70255788Y-94137609D01*
X70172544Y-94239044D01*
X70088206Y-94308257D01*
X70035379Y-94351611D01*
X70035377Y-94351612D01*
X69878890Y-94435257D01*
X69822289Y-94452427D01*
X69709088Y-94486766D01*
X69620862Y-94495455D01*
X69576750Y-94499800D01*
X69488250Y-94499800D01*
X69444138Y-94495455D01*
X69355912Y-94486766D01*
X69242711Y-94452427D01*
X69186110Y-94435257D01*
X69029623Y-94351612D01*
X69029621Y-94351611D01*
X68976794Y-94308257D01*
X68892456Y-94239044D01*
X68809212Y-94137609D01*
X68779889Y-94101879D01*
X68717439Y-93985044D01*
X68696243Y-93945390D01*
X68679073Y-93888789D01*
X68644734Y-93775588D01*
X68627342Y-93599000D01*
X68644734Y-93422412D01*
X68696243Y-93252611D01*
X68696243Y-93252610D01*
X68779888Y-93096123D01*
X68779889Y-93096121D01*
X68809212Y-93060391D01*
X68892456Y-92958956D01*
X68993891Y-92875712D01*
X69029621Y-92846389D01*
X69056623Y-92831956D01*
X69186110Y-92762743D01*
X69242711Y-92745573D01*
X69355912Y-92711234D01*
X69444138Y-92702545D01*
X69488250Y-92698200D01*
X69576750Y-92698200D01*
X69620862Y-92702545D01*
X69620862Y-92702545D01*
G37*
G36*
X67080862Y-92702545D02*
X67169088Y-92711234D01*
X67282289Y-92745573D01*
X67338890Y-92762743D01*
X67468377Y-92831956D01*
X67495379Y-92846389D01*
X67531109Y-92875712D01*
X67632544Y-92958956D01*
X67715788Y-93060391D01*
X67745111Y-93096121D01*
X67745112Y-93096123D01*
X67828757Y-93252610D01*
X67828757Y-93252611D01*
X67880266Y-93422412D01*
X67897658Y-93599000D01*
X67880266Y-93775588D01*
X67845927Y-93888789D01*
X67828757Y-93945390D01*
X67807561Y-93985044D01*
X67745111Y-94101879D01*
X67715788Y-94137609D01*
X67632544Y-94239044D01*
X67548206Y-94308257D01*
X67495379Y-94351611D01*
X67495377Y-94351612D01*
X67338890Y-94435257D01*
X67282289Y-94452427D01*
X67169088Y-94486766D01*
X67080862Y-94495455D01*
X67036750Y-94499800D01*
X66948250Y-94499800D01*
X66904138Y-94495455D01*
X66815912Y-94486766D01*
X66702711Y-94452427D01*
X66646110Y-94435257D01*
X66489623Y-94351612D01*
X66489621Y-94351611D01*
X66436794Y-94308257D01*
X66352456Y-94239044D01*
X66269212Y-94137609D01*
X66239889Y-94101879D01*
X66177439Y-93985044D01*
X66156243Y-93945390D01*
X66139073Y-93888789D01*
X66104734Y-93775588D01*
X66087342Y-93599000D01*
X66104734Y-93422412D01*
X66156243Y-93252611D01*
X66156243Y-93252610D01*
X66239888Y-93096123D01*
X66239889Y-93096121D01*
X66269212Y-93060391D01*
X66352456Y-92958956D01*
X66453891Y-92875712D01*
X66489621Y-92846389D01*
X66516623Y-92831956D01*
X66646110Y-92762743D01*
X66702711Y-92745573D01*
X66815912Y-92711234D01*
X66904138Y-92702545D01*
X66948250Y-92698200D01*
X67036750Y-92698200D01*
X67080862Y-92702545D01*
X67080862Y-92702545D01*
G37*
G36*
X55460362Y-92575545D02*
X55548588Y-92584234D01*
X55661789Y-92618573D01*
X55718390Y-92635743D01*
X55835237Y-92698200D01*
X55874879Y-92719389D01*
X55910609Y-92748712D01*
X56012044Y-92831956D01*
X56095288Y-92933391D01*
X56124611Y-92969121D01*
X56124612Y-92969123D01*
X56208257Y-93125610D01*
X56208257Y-93125611D01*
X56259766Y-93295412D01*
X56277158Y-93472000D01*
X56259766Y-93648588D01*
X56246782Y-93691389D01*
X56208257Y-93818390D01*
X56140374Y-93945389D01*
X56124611Y-93974879D01*
X56095288Y-94010609D01*
X56012044Y-94112044D01*
X55927706Y-94181257D01*
X55874879Y-94224611D01*
X55874877Y-94224612D01*
X55718390Y-94308257D01*
X55661789Y-94325427D01*
X55548588Y-94359766D01*
X55460362Y-94368455D01*
X55416250Y-94372800D01*
X55327750Y-94372800D01*
X55283638Y-94368455D01*
X55195412Y-94359766D01*
X55082211Y-94325427D01*
X55025610Y-94308257D01*
X54869123Y-94224612D01*
X54869121Y-94224611D01*
X54816294Y-94181257D01*
X54731956Y-94112044D01*
X54648712Y-94010609D01*
X54619389Y-93974879D01*
X54603626Y-93945389D01*
X54535743Y-93818390D01*
X54497218Y-93691389D01*
X54484234Y-93648588D01*
X54466842Y-93472000D01*
X54484234Y-93295412D01*
X54535743Y-93125611D01*
X54535743Y-93125610D01*
X54619388Y-92969123D01*
X54619389Y-92969121D01*
X54648712Y-92933391D01*
X54731956Y-92831956D01*
X54833391Y-92748712D01*
X54869121Y-92719389D01*
X54908763Y-92698200D01*
X55025610Y-92635743D01*
X55082211Y-92618573D01*
X55195412Y-92584234D01*
X55283638Y-92575545D01*
X55327750Y-92571200D01*
X55416250Y-92571200D01*
X55460362Y-92575545D01*
X55460362Y-92575545D01*
G37*
G36*
X48348362Y-92575545D02*
X48436588Y-92584234D01*
X48549789Y-92618573D01*
X48606390Y-92635743D01*
X48723237Y-92698200D01*
X48762879Y-92719389D01*
X48798609Y-92748712D01*
X48900044Y-92831956D01*
X48983288Y-92933391D01*
X49012611Y-92969121D01*
X49012612Y-92969123D01*
X49096257Y-93125610D01*
X49096257Y-93125611D01*
X49147766Y-93295412D01*
X49165158Y-93472000D01*
X49147766Y-93648588D01*
X49134782Y-93691389D01*
X49096257Y-93818390D01*
X49028374Y-93945389D01*
X49012611Y-93974879D01*
X48983288Y-94010609D01*
X48900044Y-94112044D01*
X48815706Y-94181257D01*
X48762879Y-94224611D01*
X48762877Y-94224612D01*
X48606390Y-94308257D01*
X48549789Y-94325427D01*
X48436588Y-94359766D01*
X48348362Y-94368455D01*
X48304250Y-94372800D01*
X48215750Y-94372800D01*
X48171638Y-94368455D01*
X48083412Y-94359766D01*
X47970211Y-94325427D01*
X47913610Y-94308257D01*
X47757123Y-94224612D01*
X47757121Y-94224611D01*
X47704294Y-94181257D01*
X47619956Y-94112044D01*
X47536712Y-94010609D01*
X47507389Y-93974879D01*
X47491626Y-93945389D01*
X47423743Y-93818390D01*
X47385218Y-93691389D01*
X47372234Y-93648588D01*
X47354842Y-93472000D01*
X47372234Y-93295412D01*
X47423743Y-93125611D01*
X47423743Y-93125610D01*
X47507388Y-92969123D01*
X47507389Y-92969121D01*
X47536712Y-92933391D01*
X47619956Y-92831956D01*
X47721391Y-92748712D01*
X47757121Y-92719389D01*
X47796763Y-92698200D01*
X47913610Y-92635743D01*
X47970211Y-92618573D01*
X48083412Y-92584234D01*
X48171638Y-92575545D01*
X48215750Y-92571200D01*
X48304250Y-92571200D01*
X48348362Y-92575545D01*
X48348362Y-92575545D01*
G37*
G36*
X52920362Y-92575545D02*
X53008588Y-92584234D01*
X53121789Y-92618573D01*
X53178390Y-92635743D01*
X53295237Y-92698200D01*
X53334879Y-92719389D01*
X53370609Y-92748712D01*
X53472044Y-92831956D01*
X53555288Y-92933391D01*
X53584611Y-92969121D01*
X53584612Y-92969123D01*
X53668257Y-93125610D01*
X53668257Y-93125611D01*
X53719766Y-93295412D01*
X53737158Y-93472000D01*
X53719766Y-93648588D01*
X53706782Y-93691389D01*
X53668257Y-93818390D01*
X53600374Y-93945389D01*
X53584611Y-93974879D01*
X53555288Y-94010609D01*
X53472044Y-94112044D01*
X53387706Y-94181257D01*
X53334879Y-94224611D01*
X53334877Y-94224612D01*
X53178390Y-94308257D01*
X53121789Y-94325427D01*
X53008588Y-94359766D01*
X52920362Y-94368455D01*
X52876250Y-94372800D01*
X52787750Y-94372800D01*
X52743638Y-94368455D01*
X52655412Y-94359766D01*
X52542211Y-94325427D01*
X52485610Y-94308257D01*
X52329123Y-94224612D01*
X52329121Y-94224611D01*
X52276294Y-94181257D01*
X52191956Y-94112044D01*
X52108712Y-94010609D01*
X52079389Y-93974879D01*
X52063626Y-93945389D01*
X51995743Y-93818390D01*
X51957218Y-93691389D01*
X51944234Y-93648588D01*
X51926842Y-93472000D01*
X51944234Y-93295412D01*
X51995743Y-93125611D01*
X51995743Y-93125610D01*
X52079388Y-92969123D01*
X52079389Y-92969121D01*
X52108712Y-92933391D01*
X52191956Y-92831956D01*
X52293391Y-92748712D01*
X52329121Y-92719389D01*
X52368763Y-92698200D01*
X52485610Y-92635743D01*
X52542211Y-92618573D01*
X52655412Y-92584234D01*
X52743638Y-92575545D01*
X52787750Y-92571200D01*
X52876250Y-92571200D01*
X52920362Y-92575545D01*
X52920362Y-92575545D01*
G37*
G36*
X96608362Y-92575545D02*
X96696588Y-92584234D01*
X96809789Y-92618573D01*
X96866390Y-92635743D01*
X96983237Y-92698200D01*
X97022879Y-92719389D01*
X97058609Y-92748712D01*
X97160044Y-92831956D01*
X97243288Y-92933391D01*
X97272611Y-92969121D01*
X97272612Y-92969123D01*
X97356257Y-93125610D01*
X97356257Y-93125611D01*
X97407766Y-93295412D01*
X97425158Y-93472000D01*
X97407766Y-93648588D01*
X97394782Y-93691389D01*
X97356257Y-93818390D01*
X97288374Y-93945389D01*
X97272611Y-93974879D01*
X97243288Y-94010609D01*
X97160044Y-94112044D01*
X97075706Y-94181257D01*
X97022879Y-94224611D01*
X97022877Y-94224612D01*
X96866390Y-94308257D01*
X96809789Y-94325427D01*
X96696588Y-94359766D01*
X96608362Y-94368455D01*
X96564250Y-94372800D01*
X96475750Y-94372800D01*
X96431638Y-94368455D01*
X96343412Y-94359766D01*
X96230211Y-94325427D01*
X96173610Y-94308257D01*
X96017123Y-94224612D01*
X96017121Y-94224611D01*
X95964294Y-94181257D01*
X95879956Y-94112044D01*
X95796712Y-94010609D01*
X95767389Y-93974879D01*
X95751626Y-93945389D01*
X95683743Y-93818390D01*
X95645218Y-93691389D01*
X95632234Y-93648588D01*
X95614842Y-93472000D01*
X95632234Y-93295412D01*
X95683743Y-93125611D01*
X95683743Y-93125610D01*
X95767388Y-92969123D01*
X95767389Y-92969121D01*
X95796712Y-92933391D01*
X95879956Y-92831956D01*
X95981391Y-92748712D01*
X96017121Y-92719389D01*
X96056763Y-92698200D01*
X96173610Y-92635743D01*
X96230211Y-92618573D01*
X96343412Y-92584234D01*
X96431638Y-92575545D01*
X96475750Y-92571200D01*
X96564250Y-92571200D01*
X96608362Y-92575545D01*
X96608362Y-92575545D01*
G37*
G36*
X81368362Y-92448545D02*
X81456588Y-92457234D01*
X81569789Y-92491573D01*
X81626390Y-92508743D01*
X81743237Y-92571200D01*
X81782879Y-92592389D01*
X81818609Y-92621712D01*
X81920044Y-92704956D01*
X82003288Y-92806391D01*
X82032611Y-92842121D01*
X82032612Y-92842123D01*
X82116257Y-92998610D01*
X82116257Y-92998611D01*
X82167766Y-93168412D01*
X82185158Y-93345000D01*
X82167766Y-93521588D01*
X82144283Y-93599000D01*
X82116257Y-93691390D01*
X82071253Y-93775586D01*
X82032611Y-93847879D01*
X82003288Y-93883609D01*
X81920044Y-93985044D01*
X81818609Y-94068288D01*
X81782879Y-94097611D01*
X81782877Y-94097612D01*
X81626390Y-94181257D01*
X81569789Y-94198427D01*
X81456588Y-94232766D01*
X81392855Y-94239043D01*
X81324250Y-94245800D01*
X81235750Y-94245800D01*
X81167145Y-94239043D01*
X81103412Y-94232766D01*
X80990211Y-94198427D01*
X80933610Y-94181257D01*
X80777123Y-94097612D01*
X80777121Y-94097611D01*
X80741391Y-94068288D01*
X80639956Y-93985044D01*
X80556712Y-93883609D01*
X80527389Y-93847879D01*
X80488747Y-93775586D01*
X80443743Y-93691390D01*
X80415717Y-93599000D01*
X80392234Y-93521588D01*
X80374842Y-93345000D01*
X80392234Y-93168412D01*
X80443743Y-92998611D01*
X80443743Y-92998610D01*
X80527388Y-92842123D01*
X80527389Y-92842121D01*
X80556712Y-92806391D01*
X80639956Y-92704956D01*
X80741391Y-92621712D01*
X80777121Y-92592389D01*
X80816763Y-92571200D01*
X80933610Y-92508743D01*
X80990211Y-92491573D01*
X81103412Y-92457234D01*
X81191638Y-92448545D01*
X81235750Y-92444200D01*
X81324250Y-92444200D01*
X81368362Y-92448545D01*
X81368362Y-92448545D01*
G37*
G36*
X83908362Y-92448545D02*
X83996588Y-92457234D01*
X84109789Y-92491573D01*
X84166390Y-92508743D01*
X84283237Y-92571200D01*
X84322879Y-92592389D01*
X84358609Y-92621712D01*
X84460044Y-92704956D01*
X84543288Y-92806391D01*
X84572611Y-92842121D01*
X84572612Y-92842123D01*
X84656257Y-92998610D01*
X84656257Y-92998611D01*
X84707766Y-93168412D01*
X84725158Y-93345000D01*
X84707766Y-93521588D01*
X84684283Y-93599000D01*
X84656257Y-93691390D01*
X84611253Y-93775586D01*
X84572611Y-93847879D01*
X84543288Y-93883609D01*
X84460044Y-93985044D01*
X84358609Y-94068288D01*
X84322879Y-94097611D01*
X84322877Y-94097612D01*
X84166390Y-94181257D01*
X84109789Y-94198427D01*
X83996588Y-94232766D01*
X83932855Y-94239043D01*
X83864250Y-94245800D01*
X83775750Y-94245800D01*
X83707145Y-94239043D01*
X83643412Y-94232766D01*
X83530211Y-94198427D01*
X83473610Y-94181257D01*
X83317123Y-94097612D01*
X83317121Y-94097611D01*
X83281391Y-94068288D01*
X83179956Y-93985044D01*
X83096712Y-93883609D01*
X83067389Y-93847879D01*
X83028747Y-93775586D01*
X82983743Y-93691390D01*
X82955717Y-93599000D01*
X82932234Y-93521588D01*
X82914842Y-93345000D01*
X82932234Y-93168412D01*
X82983743Y-92998611D01*
X82983743Y-92998610D01*
X83067388Y-92842123D01*
X83067389Y-92842121D01*
X83096712Y-92806391D01*
X83179956Y-92704956D01*
X83281391Y-92621712D01*
X83317121Y-92592389D01*
X83356763Y-92571200D01*
X83473610Y-92508743D01*
X83530211Y-92491573D01*
X83643412Y-92457234D01*
X83731638Y-92448545D01*
X83775750Y-92444200D01*
X83864250Y-92444200D01*
X83908362Y-92448545D01*
X83908362Y-92448545D01*
G37*
G36*
X67080862Y-90162545D02*
X67169088Y-90171234D01*
X67282289Y-90205573D01*
X67338890Y-90222743D01*
X67468377Y-90291956D01*
X67495379Y-90306389D01*
X67531109Y-90335712D01*
X67632544Y-90418956D01*
X67715788Y-90520391D01*
X67745111Y-90556121D01*
X67745112Y-90556123D01*
X67828757Y-90712610D01*
X67828757Y-90712611D01*
X67880266Y-90882412D01*
X67897658Y-91059000D01*
X67880266Y-91235588D01*
X67845927Y-91348789D01*
X67828757Y-91405390D01*
X67807561Y-91445044D01*
X67745111Y-91561879D01*
X67715788Y-91597609D01*
X67632544Y-91699044D01*
X67548206Y-91768257D01*
X67495379Y-91811611D01*
X67495377Y-91811612D01*
X67338890Y-91895257D01*
X67282289Y-91912427D01*
X67169088Y-91946766D01*
X67080862Y-91955455D01*
X67036750Y-91959800D01*
X66948250Y-91959800D01*
X66904138Y-91955455D01*
X66815912Y-91946766D01*
X66702711Y-91912427D01*
X66646110Y-91895257D01*
X66489623Y-91811612D01*
X66489621Y-91811611D01*
X66436794Y-91768257D01*
X66352456Y-91699044D01*
X66269212Y-91597609D01*
X66239889Y-91561879D01*
X66177439Y-91445044D01*
X66156243Y-91405390D01*
X66139073Y-91348789D01*
X66104734Y-91235588D01*
X66087342Y-91059000D01*
X66104734Y-90882412D01*
X66156243Y-90712611D01*
X66156243Y-90712610D01*
X66239888Y-90556123D01*
X66239889Y-90556121D01*
X66269212Y-90520391D01*
X66352456Y-90418956D01*
X66453891Y-90335712D01*
X66489621Y-90306389D01*
X66516623Y-90291956D01*
X66646110Y-90222743D01*
X66702711Y-90205573D01*
X66815912Y-90171234D01*
X66904138Y-90162545D01*
X66948250Y-90158200D01*
X67036750Y-90158200D01*
X67080862Y-90162545D01*
X67080862Y-90162545D01*
G37*
G36*
X69620862Y-90162545D02*
X69709088Y-90171234D01*
X69822289Y-90205573D01*
X69878890Y-90222743D01*
X70008377Y-90291956D01*
X70035379Y-90306389D01*
X70071109Y-90335712D01*
X70172544Y-90418956D01*
X70255788Y-90520391D01*
X70285111Y-90556121D01*
X70285112Y-90556123D01*
X70368757Y-90712610D01*
X70368757Y-90712611D01*
X70420266Y-90882412D01*
X70437658Y-91059000D01*
X70420266Y-91235588D01*
X70385927Y-91348789D01*
X70368757Y-91405390D01*
X70347561Y-91445044D01*
X70285111Y-91561879D01*
X70255788Y-91597609D01*
X70172544Y-91699044D01*
X70088206Y-91768257D01*
X70035379Y-91811611D01*
X70035377Y-91811612D01*
X69878890Y-91895257D01*
X69822289Y-91912427D01*
X69709088Y-91946766D01*
X69620862Y-91955455D01*
X69576750Y-91959800D01*
X69488250Y-91959800D01*
X69444138Y-91955455D01*
X69355912Y-91946766D01*
X69242711Y-91912427D01*
X69186110Y-91895257D01*
X69029623Y-91811612D01*
X69029621Y-91811611D01*
X68976794Y-91768257D01*
X68892456Y-91699044D01*
X68809212Y-91597609D01*
X68779889Y-91561879D01*
X68717439Y-91445044D01*
X68696243Y-91405390D01*
X68679073Y-91348789D01*
X68644734Y-91235588D01*
X68627342Y-91059000D01*
X68644734Y-90882412D01*
X68696243Y-90712611D01*
X68696243Y-90712610D01*
X68779888Y-90556123D01*
X68779889Y-90556121D01*
X68809212Y-90520391D01*
X68892456Y-90418956D01*
X68993891Y-90335712D01*
X69029621Y-90306389D01*
X69056623Y-90291956D01*
X69186110Y-90222743D01*
X69242711Y-90205573D01*
X69355912Y-90171234D01*
X69444138Y-90162545D01*
X69488250Y-90158200D01*
X69576750Y-90158200D01*
X69620862Y-90162545D01*
X69620862Y-90162545D01*
G37*
G36*
X52920362Y-90035545D02*
X53008588Y-90044234D01*
X53121789Y-90078573D01*
X53178390Y-90095743D01*
X53295237Y-90158200D01*
X53334879Y-90179389D01*
X53370609Y-90208712D01*
X53472044Y-90291956D01*
X53555288Y-90393391D01*
X53584611Y-90429121D01*
X53584612Y-90429123D01*
X53668257Y-90585610D01*
X53668257Y-90585611D01*
X53719766Y-90755412D01*
X53737158Y-90932000D01*
X53719766Y-91108588D01*
X53706782Y-91151389D01*
X53668257Y-91278390D01*
X53600374Y-91405389D01*
X53584611Y-91434879D01*
X53555288Y-91470609D01*
X53472044Y-91572044D01*
X53387706Y-91641257D01*
X53334879Y-91684611D01*
X53334877Y-91684612D01*
X53178390Y-91768257D01*
X53121789Y-91785427D01*
X53008588Y-91819766D01*
X52920362Y-91828455D01*
X52876250Y-91832800D01*
X52787750Y-91832800D01*
X52743638Y-91828455D01*
X52655412Y-91819766D01*
X52542211Y-91785427D01*
X52485610Y-91768257D01*
X52329123Y-91684612D01*
X52329121Y-91684611D01*
X52276294Y-91641257D01*
X52191956Y-91572044D01*
X52108712Y-91470609D01*
X52079389Y-91434879D01*
X52063626Y-91405389D01*
X51995743Y-91278390D01*
X51957218Y-91151389D01*
X51944234Y-91108588D01*
X51926842Y-90932000D01*
X51944234Y-90755412D01*
X51995743Y-90585611D01*
X51995743Y-90585610D01*
X52079388Y-90429123D01*
X52079389Y-90429121D01*
X52108712Y-90393391D01*
X52191956Y-90291956D01*
X52293391Y-90208712D01*
X52329121Y-90179389D01*
X52368763Y-90158200D01*
X52485610Y-90095743D01*
X52542211Y-90078573D01*
X52655412Y-90044234D01*
X52743638Y-90035545D01*
X52787750Y-90031200D01*
X52876250Y-90031200D01*
X52920362Y-90035545D01*
X52920362Y-90035545D01*
G37*
G36*
X48348362Y-90035545D02*
X48436588Y-90044234D01*
X48549789Y-90078573D01*
X48606390Y-90095743D01*
X48723237Y-90158200D01*
X48762879Y-90179389D01*
X48798609Y-90208712D01*
X48900044Y-90291956D01*
X48983288Y-90393391D01*
X49012611Y-90429121D01*
X49012612Y-90429123D01*
X49096257Y-90585610D01*
X49096257Y-90585611D01*
X49147766Y-90755412D01*
X49165158Y-90932000D01*
X49147766Y-91108588D01*
X49134782Y-91151389D01*
X49096257Y-91278390D01*
X49028374Y-91405389D01*
X49012611Y-91434879D01*
X48983288Y-91470609D01*
X48900044Y-91572044D01*
X48815706Y-91641257D01*
X48762879Y-91684611D01*
X48762877Y-91684612D01*
X48606390Y-91768257D01*
X48549789Y-91785427D01*
X48436588Y-91819766D01*
X48348362Y-91828455D01*
X48304250Y-91832800D01*
X48215750Y-91832800D01*
X48171638Y-91828455D01*
X48083412Y-91819766D01*
X47970211Y-91785427D01*
X47913610Y-91768257D01*
X47757123Y-91684612D01*
X47757121Y-91684611D01*
X47704294Y-91641257D01*
X47619956Y-91572044D01*
X47536712Y-91470609D01*
X47507389Y-91434879D01*
X47491626Y-91405389D01*
X47423743Y-91278390D01*
X47385218Y-91151389D01*
X47372234Y-91108588D01*
X47354842Y-90932000D01*
X47372234Y-90755412D01*
X47423743Y-90585611D01*
X47423743Y-90585610D01*
X47507388Y-90429123D01*
X47507389Y-90429121D01*
X47536712Y-90393391D01*
X47619956Y-90291956D01*
X47721391Y-90208712D01*
X47757121Y-90179389D01*
X47796763Y-90158200D01*
X47913610Y-90095743D01*
X47970211Y-90078573D01*
X48083412Y-90044234D01*
X48171638Y-90035545D01*
X48215750Y-90031200D01*
X48304250Y-90031200D01*
X48348362Y-90035545D01*
X48348362Y-90035545D01*
G37*
G36*
X55460362Y-90035545D02*
X55548588Y-90044234D01*
X55661789Y-90078573D01*
X55718390Y-90095743D01*
X55835237Y-90158200D01*
X55874879Y-90179389D01*
X55910609Y-90208712D01*
X56012044Y-90291956D01*
X56095288Y-90393391D01*
X56124611Y-90429121D01*
X56124612Y-90429123D01*
X56208257Y-90585610D01*
X56208257Y-90585611D01*
X56259766Y-90755412D01*
X56277158Y-90932000D01*
X56259766Y-91108588D01*
X56246782Y-91151389D01*
X56208257Y-91278390D01*
X56140374Y-91405389D01*
X56124611Y-91434879D01*
X56095288Y-91470609D01*
X56012044Y-91572044D01*
X55927706Y-91641257D01*
X55874879Y-91684611D01*
X55874877Y-91684612D01*
X55718390Y-91768257D01*
X55661789Y-91785427D01*
X55548588Y-91819766D01*
X55460362Y-91828455D01*
X55416250Y-91832800D01*
X55327750Y-91832800D01*
X55283638Y-91828455D01*
X55195412Y-91819766D01*
X55082211Y-91785427D01*
X55025610Y-91768257D01*
X54869123Y-91684612D01*
X54869121Y-91684611D01*
X54816294Y-91641257D01*
X54731956Y-91572044D01*
X54648712Y-91470609D01*
X54619389Y-91434879D01*
X54603626Y-91405389D01*
X54535743Y-91278390D01*
X54497218Y-91151389D01*
X54484234Y-91108588D01*
X54466842Y-90932000D01*
X54484234Y-90755412D01*
X54535743Y-90585611D01*
X54535743Y-90585610D01*
X54619388Y-90429123D01*
X54619389Y-90429121D01*
X54648712Y-90393391D01*
X54731956Y-90291956D01*
X54833391Y-90208712D01*
X54869121Y-90179389D01*
X54908763Y-90158200D01*
X55025610Y-90095743D01*
X55082211Y-90078573D01*
X55195412Y-90044234D01*
X55283638Y-90035545D01*
X55327750Y-90031200D01*
X55416250Y-90031200D01*
X55460362Y-90035545D01*
X55460362Y-90035545D01*
G37*
G36*
X96608362Y-90035545D02*
X96696588Y-90044234D01*
X96809789Y-90078573D01*
X96866390Y-90095743D01*
X96983237Y-90158200D01*
X97022879Y-90179389D01*
X97058609Y-90208712D01*
X97160044Y-90291956D01*
X97243288Y-90393391D01*
X97272611Y-90429121D01*
X97272612Y-90429123D01*
X97356257Y-90585610D01*
X97356257Y-90585611D01*
X97407766Y-90755412D01*
X97425158Y-90932000D01*
X97407766Y-91108588D01*
X97394782Y-91151389D01*
X97356257Y-91278390D01*
X97288374Y-91405389D01*
X97272611Y-91434879D01*
X97243288Y-91470609D01*
X97160044Y-91572044D01*
X97075706Y-91641257D01*
X97022879Y-91684611D01*
X97022877Y-91684612D01*
X96866390Y-91768257D01*
X96809789Y-91785427D01*
X96696588Y-91819766D01*
X96608362Y-91828455D01*
X96564250Y-91832800D01*
X96475750Y-91832800D01*
X96431638Y-91828455D01*
X96343412Y-91819766D01*
X96230211Y-91785427D01*
X96173610Y-91768257D01*
X96017123Y-91684612D01*
X96017121Y-91684611D01*
X95964294Y-91641257D01*
X95879956Y-91572044D01*
X95796712Y-91470609D01*
X95767389Y-91434879D01*
X95751626Y-91405389D01*
X95683743Y-91278390D01*
X95645218Y-91151389D01*
X95632234Y-91108588D01*
X95614842Y-90932000D01*
X95632234Y-90755412D01*
X95683743Y-90585611D01*
X95683743Y-90585610D01*
X95767388Y-90429123D01*
X95767389Y-90429121D01*
X95796712Y-90393391D01*
X95879956Y-90291956D01*
X95981391Y-90208712D01*
X96017121Y-90179389D01*
X96056763Y-90158200D01*
X96173610Y-90095743D01*
X96230211Y-90078573D01*
X96343412Y-90044234D01*
X96431638Y-90035545D01*
X96475750Y-90031200D01*
X96564250Y-90031200D01*
X96608362Y-90035545D01*
X96608362Y-90035545D01*
G37*
G36*
X81368362Y-89908545D02*
X81456588Y-89917234D01*
X81569789Y-89951573D01*
X81626390Y-89968743D01*
X81743237Y-90031200D01*
X81782879Y-90052389D01*
X81818609Y-90081712D01*
X81920044Y-90164956D01*
X82003288Y-90266391D01*
X82032611Y-90302121D01*
X82032612Y-90302123D01*
X82116257Y-90458610D01*
X82116257Y-90458611D01*
X82167766Y-90628412D01*
X82185158Y-90805000D01*
X82167766Y-90981588D01*
X82144283Y-91059000D01*
X82116257Y-91151390D01*
X82071253Y-91235586D01*
X82032611Y-91307879D01*
X82003288Y-91343609D01*
X81920044Y-91445044D01*
X81818609Y-91528288D01*
X81782879Y-91557611D01*
X81782877Y-91557612D01*
X81626390Y-91641257D01*
X81569789Y-91658427D01*
X81456588Y-91692766D01*
X81392855Y-91699043D01*
X81324250Y-91705800D01*
X81235750Y-91705800D01*
X81167145Y-91699043D01*
X81103412Y-91692766D01*
X80990211Y-91658427D01*
X80933610Y-91641257D01*
X80777123Y-91557612D01*
X80777121Y-91557611D01*
X80741391Y-91528288D01*
X80639956Y-91445044D01*
X80556712Y-91343609D01*
X80527389Y-91307879D01*
X80488747Y-91235586D01*
X80443743Y-91151390D01*
X80415717Y-91059000D01*
X80392234Y-90981588D01*
X80374842Y-90805000D01*
X80392234Y-90628412D01*
X80443743Y-90458611D01*
X80443743Y-90458610D01*
X80527388Y-90302123D01*
X80527389Y-90302121D01*
X80556712Y-90266391D01*
X80639956Y-90164956D01*
X80741391Y-90081712D01*
X80777121Y-90052389D01*
X80816763Y-90031200D01*
X80933610Y-89968743D01*
X80990211Y-89951573D01*
X81103412Y-89917234D01*
X81191638Y-89908545D01*
X81235750Y-89904200D01*
X81324250Y-89904200D01*
X81368362Y-89908545D01*
X81368362Y-89908545D01*
G37*
G36*
X83908362Y-89908545D02*
X83996588Y-89917234D01*
X84109789Y-89951573D01*
X84166390Y-89968743D01*
X84283237Y-90031200D01*
X84322879Y-90052389D01*
X84358609Y-90081712D01*
X84460044Y-90164956D01*
X84543288Y-90266391D01*
X84572611Y-90302121D01*
X84572612Y-90302123D01*
X84656257Y-90458610D01*
X84656257Y-90458611D01*
X84707766Y-90628412D01*
X84725158Y-90805000D01*
X84707766Y-90981588D01*
X84684283Y-91059000D01*
X84656257Y-91151390D01*
X84611253Y-91235586D01*
X84572611Y-91307879D01*
X84543288Y-91343609D01*
X84460044Y-91445044D01*
X84358609Y-91528288D01*
X84322879Y-91557611D01*
X84322877Y-91557612D01*
X84166390Y-91641257D01*
X84109789Y-91658427D01*
X83996588Y-91692766D01*
X83932855Y-91699043D01*
X83864250Y-91705800D01*
X83775750Y-91705800D01*
X83707145Y-91699043D01*
X83643412Y-91692766D01*
X83530211Y-91658427D01*
X83473610Y-91641257D01*
X83317123Y-91557612D01*
X83317121Y-91557611D01*
X83281391Y-91528288D01*
X83179956Y-91445044D01*
X83096712Y-91343609D01*
X83067389Y-91307879D01*
X83028747Y-91235586D01*
X82983743Y-91151390D01*
X82955717Y-91059000D01*
X82932234Y-90981588D01*
X82914842Y-90805000D01*
X82932234Y-90628412D01*
X82983743Y-90458611D01*
X82983743Y-90458610D01*
X83067388Y-90302123D01*
X83067389Y-90302121D01*
X83096712Y-90266391D01*
X83179956Y-90164956D01*
X83281391Y-90081712D01*
X83317121Y-90052389D01*
X83356763Y-90031200D01*
X83473610Y-89968743D01*
X83530211Y-89951573D01*
X83643412Y-89917234D01*
X83731638Y-89908545D01*
X83775750Y-89904200D01*
X83864250Y-89904200D01*
X83908362Y-89908545D01*
X83908362Y-89908545D01*
G37*
G36*
X67080862Y-87622545D02*
X67169088Y-87631234D01*
X67282289Y-87665573D01*
X67338890Y-87682743D01*
X67468377Y-87751956D01*
X67495379Y-87766389D01*
X67531109Y-87795712D01*
X67632544Y-87878956D01*
X67715788Y-87980391D01*
X67745111Y-88016121D01*
X67745112Y-88016123D01*
X67828757Y-88172610D01*
X67828757Y-88172611D01*
X67880266Y-88342412D01*
X67897658Y-88519000D01*
X67880266Y-88695588D01*
X67845927Y-88808789D01*
X67828757Y-88865390D01*
X67807561Y-88905044D01*
X67745111Y-89021879D01*
X67715788Y-89057609D01*
X67632544Y-89159044D01*
X67548206Y-89228257D01*
X67495379Y-89271611D01*
X67495377Y-89271612D01*
X67338890Y-89355257D01*
X67282289Y-89372427D01*
X67169088Y-89406766D01*
X67080862Y-89415455D01*
X67036750Y-89419800D01*
X66948250Y-89419800D01*
X66904138Y-89415455D01*
X66815912Y-89406766D01*
X66702711Y-89372427D01*
X66646110Y-89355257D01*
X66489623Y-89271612D01*
X66489621Y-89271611D01*
X66436794Y-89228257D01*
X66352456Y-89159044D01*
X66269212Y-89057609D01*
X66239889Y-89021879D01*
X66177439Y-88905044D01*
X66156243Y-88865390D01*
X66139073Y-88808789D01*
X66104734Y-88695588D01*
X66087342Y-88519000D01*
X66104734Y-88342412D01*
X66156243Y-88172611D01*
X66156243Y-88172610D01*
X66239888Y-88016123D01*
X66239889Y-88016121D01*
X66269212Y-87980391D01*
X66352456Y-87878956D01*
X66453891Y-87795712D01*
X66489621Y-87766389D01*
X66516623Y-87751956D01*
X66646110Y-87682743D01*
X66702711Y-87665573D01*
X66815912Y-87631234D01*
X66904138Y-87622545D01*
X66948250Y-87618200D01*
X67036750Y-87618200D01*
X67080862Y-87622545D01*
X67080862Y-87622545D01*
G37*
G36*
X69620862Y-87622545D02*
X69709088Y-87631234D01*
X69822289Y-87665573D01*
X69878890Y-87682743D01*
X70008377Y-87751956D01*
X70035379Y-87766389D01*
X70071109Y-87795712D01*
X70172544Y-87878956D01*
X70255788Y-87980391D01*
X70285111Y-88016121D01*
X70285112Y-88016123D01*
X70368757Y-88172610D01*
X70368757Y-88172611D01*
X70420266Y-88342412D01*
X70437658Y-88519000D01*
X70420266Y-88695588D01*
X70385927Y-88808789D01*
X70368757Y-88865390D01*
X70347561Y-88905044D01*
X70285111Y-89021879D01*
X70255788Y-89057609D01*
X70172544Y-89159044D01*
X70088206Y-89228257D01*
X70035379Y-89271611D01*
X70035377Y-89271612D01*
X69878890Y-89355257D01*
X69822289Y-89372427D01*
X69709088Y-89406766D01*
X69620862Y-89415455D01*
X69576750Y-89419800D01*
X69488250Y-89419800D01*
X69444138Y-89415455D01*
X69355912Y-89406766D01*
X69242711Y-89372427D01*
X69186110Y-89355257D01*
X69029623Y-89271612D01*
X69029621Y-89271611D01*
X68976794Y-89228257D01*
X68892456Y-89159044D01*
X68809212Y-89057609D01*
X68779889Y-89021879D01*
X68717439Y-88905044D01*
X68696243Y-88865390D01*
X68679073Y-88808789D01*
X68644734Y-88695588D01*
X68627342Y-88519000D01*
X68644734Y-88342412D01*
X68696243Y-88172611D01*
X68696243Y-88172610D01*
X68779888Y-88016123D01*
X68779889Y-88016121D01*
X68809212Y-87980391D01*
X68892456Y-87878956D01*
X68993891Y-87795712D01*
X69029621Y-87766389D01*
X69056623Y-87751956D01*
X69186110Y-87682743D01*
X69242711Y-87665573D01*
X69355912Y-87631234D01*
X69444138Y-87622545D01*
X69488250Y-87618200D01*
X69576750Y-87618200D01*
X69620862Y-87622545D01*
X69620862Y-87622545D01*
G37*
G36*
X55460362Y-87495545D02*
X55548588Y-87504234D01*
X55661789Y-87538573D01*
X55718390Y-87555743D01*
X55835237Y-87618200D01*
X55874879Y-87639389D01*
X55910609Y-87668712D01*
X56012044Y-87751956D01*
X56095288Y-87853391D01*
X56124611Y-87889121D01*
X56124612Y-87889123D01*
X56208257Y-88045610D01*
X56208257Y-88045611D01*
X56259766Y-88215412D01*
X56277158Y-88392000D01*
X56259766Y-88568588D01*
X56246782Y-88611389D01*
X56208257Y-88738390D01*
X56140374Y-88865389D01*
X56124611Y-88894879D01*
X56095288Y-88930609D01*
X56012044Y-89032044D01*
X55927706Y-89101257D01*
X55874879Y-89144611D01*
X55874877Y-89144612D01*
X55718390Y-89228257D01*
X55661789Y-89245427D01*
X55548588Y-89279766D01*
X55460362Y-89288455D01*
X55416250Y-89292800D01*
X55327750Y-89292800D01*
X55283638Y-89288455D01*
X55195412Y-89279766D01*
X55082211Y-89245427D01*
X55025610Y-89228257D01*
X54869123Y-89144612D01*
X54869121Y-89144611D01*
X54816294Y-89101257D01*
X54731956Y-89032044D01*
X54648712Y-88930609D01*
X54619389Y-88894879D01*
X54603626Y-88865389D01*
X54535743Y-88738390D01*
X54497218Y-88611389D01*
X54484234Y-88568588D01*
X54466842Y-88392000D01*
X54484234Y-88215412D01*
X54535743Y-88045611D01*
X54535743Y-88045610D01*
X54619388Y-87889123D01*
X54619389Y-87889121D01*
X54648712Y-87853391D01*
X54731956Y-87751956D01*
X54833391Y-87668712D01*
X54869121Y-87639389D01*
X54908763Y-87618200D01*
X55025610Y-87555743D01*
X55082211Y-87538573D01*
X55195412Y-87504234D01*
X55283638Y-87495545D01*
X55327750Y-87491200D01*
X55416250Y-87491200D01*
X55460362Y-87495545D01*
X55460362Y-87495545D01*
G37*
G36*
X52920362Y-87495545D02*
X53008588Y-87504234D01*
X53121789Y-87538573D01*
X53178390Y-87555743D01*
X53295237Y-87618200D01*
X53334879Y-87639389D01*
X53370609Y-87668712D01*
X53472044Y-87751956D01*
X53555288Y-87853391D01*
X53584611Y-87889121D01*
X53584612Y-87889123D01*
X53668257Y-88045610D01*
X53668257Y-88045611D01*
X53719766Y-88215412D01*
X53737158Y-88392000D01*
X53719766Y-88568588D01*
X53706782Y-88611389D01*
X53668257Y-88738390D01*
X53600374Y-88865389D01*
X53584611Y-88894879D01*
X53555288Y-88930609D01*
X53472044Y-89032044D01*
X53387706Y-89101257D01*
X53334879Y-89144611D01*
X53334877Y-89144612D01*
X53178390Y-89228257D01*
X53121789Y-89245427D01*
X53008588Y-89279766D01*
X52920362Y-89288455D01*
X52876250Y-89292800D01*
X52787750Y-89292800D01*
X52743638Y-89288455D01*
X52655412Y-89279766D01*
X52542211Y-89245427D01*
X52485610Y-89228257D01*
X52329123Y-89144612D01*
X52329121Y-89144611D01*
X52276294Y-89101257D01*
X52191956Y-89032044D01*
X52108712Y-88930609D01*
X52079389Y-88894879D01*
X52063626Y-88865389D01*
X51995743Y-88738390D01*
X51957218Y-88611389D01*
X51944234Y-88568588D01*
X51926842Y-88392000D01*
X51944234Y-88215412D01*
X51995743Y-88045611D01*
X51995743Y-88045610D01*
X52079388Y-87889123D01*
X52079389Y-87889121D01*
X52108712Y-87853391D01*
X52191956Y-87751956D01*
X52293391Y-87668712D01*
X52329121Y-87639389D01*
X52368763Y-87618200D01*
X52485610Y-87555743D01*
X52542211Y-87538573D01*
X52655412Y-87504234D01*
X52743638Y-87495545D01*
X52787750Y-87491200D01*
X52876250Y-87491200D01*
X52920362Y-87495545D01*
X52920362Y-87495545D01*
G37*
G36*
X96608362Y-87495545D02*
X96696588Y-87504234D01*
X96809789Y-87538573D01*
X96866390Y-87555743D01*
X96983237Y-87618200D01*
X97022879Y-87639389D01*
X97058609Y-87668712D01*
X97160044Y-87751956D01*
X97243288Y-87853391D01*
X97272611Y-87889121D01*
X97272612Y-87889123D01*
X97356257Y-88045610D01*
X97356257Y-88045611D01*
X97407766Y-88215412D01*
X97425158Y-88392000D01*
X97407766Y-88568588D01*
X97394782Y-88611389D01*
X97356257Y-88738390D01*
X97288374Y-88865389D01*
X97272611Y-88894879D01*
X97243288Y-88930609D01*
X97160044Y-89032044D01*
X97075706Y-89101257D01*
X97022879Y-89144611D01*
X97022877Y-89144612D01*
X96866390Y-89228257D01*
X96809789Y-89245427D01*
X96696588Y-89279766D01*
X96608362Y-89288455D01*
X96564250Y-89292800D01*
X96475750Y-89292800D01*
X96431638Y-89288455D01*
X96343412Y-89279766D01*
X96230211Y-89245427D01*
X96173610Y-89228257D01*
X96017123Y-89144612D01*
X96017121Y-89144611D01*
X95964294Y-89101257D01*
X95879956Y-89032044D01*
X95796712Y-88930609D01*
X95767389Y-88894879D01*
X95751626Y-88865389D01*
X95683743Y-88738390D01*
X95645218Y-88611389D01*
X95632234Y-88568588D01*
X95614842Y-88392000D01*
X95632234Y-88215412D01*
X95683743Y-88045611D01*
X95683743Y-88045610D01*
X95767388Y-87889123D01*
X95767389Y-87889121D01*
X95796712Y-87853391D01*
X95879956Y-87751956D01*
X95981391Y-87668712D01*
X96017121Y-87639389D01*
X96056763Y-87618200D01*
X96173610Y-87555743D01*
X96230211Y-87538573D01*
X96343412Y-87504234D01*
X96431638Y-87495545D01*
X96475750Y-87491200D01*
X96564250Y-87491200D01*
X96608362Y-87495545D01*
X96608362Y-87495545D01*
G37*
G36*
X48348362Y-87495545D02*
X48436588Y-87504234D01*
X48549789Y-87538573D01*
X48606390Y-87555743D01*
X48723237Y-87618200D01*
X48762879Y-87639389D01*
X48798609Y-87668712D01*
X48900044Y-87751956D01*
X48983288Y-87853391D01*
X49012611Y-87889121D01*
X49012612Y-87889123D01*
X49096257Y-88045610D01*
X49096257Y-88045611D01*
X49147766Y-88215412D01*
X49165158Y-88392000D01*
X49147766Y-88568588D01*
X49134782Y-88611389D01*
X49096257Y-88738390D01*
X49028374Y-88865389D01*
X49012611Y-88894879D01*
X48983288Y-88930609D01*
X48900044Y-89032044D01*
X48815706Y-89101257D01*
X48762879Y-89144611D01*
X48762877Y-89144612D01*
X48606390Y-89228257D01*
X48549789Y-89245427D01*
X48436588Y-89279766D01*
X48348362Y-89288455D01*
X48304250Y-89292800D01*
X48215750Y-89292800D01*
X48171638Y-89288455D01*
X48083412Y-89279766D01*
X47970211Y-89245427D01*
X47913610Y-89228257D01*
X47757123Y-89144612D01*
X47757121Y-89144611D01*
X47704294Y-89101257D01*
X47619956Y-89032044D01*
X47536712Y-88930609D01*
X47507389Y-88894879D01*
X47491626Y-88865389D01*
X47423743Y-88738390D01*
X47385218Y-88611389D01*
X47372234Y-88568588D01*
X47354842Y-88392000D01*
X47372234Y-88215412D01*
X47423743Y-88045611D01*
X47423743Y-88045610D01*
X47507388Y-87889123D01*
X47507389Y-87889121D01*
X47536712Y-87853391D01*
X47619956Y-87751956D01*
X47721391Y-87668712D01*
X47757121Y-87639389D01*
X47796763Y-87618200D01*
X47913610Y-87555743D01*
X47970211Y-87538573D01*
X48083412Y-87504234D01*
X48171638Y-87495545D01*
X48215750Y-87491200D01*
X48304250Y-87491200D01*
X48348362Y-87495545D01*
X48348362Y-87495545D01*
G37*
G36*
X83908362Y-87368545D02*
X83996588Y-87377234D01*
X84109789Y-87411573D01*
X84166390Y-87428743D01*
X84283237Y-87491200D01*
X84322879Y-87512389D01*
X84358609Y-87541712D01*
X84460044Y-87624956D01*
X84543288Y-87726391D01*
X84572611Y-87762121D01*
X84572612Y-87762123D01*
X84656257Y-87918610D01*
X84656257Y-87918611D01*
X84707766Y-88088412D01*
X84725158Y-88265000D01*
X84707766Y-88441588D01*
X84684283Y-88519000D01*
X84656257Y-88611390D01*
X84611253Y-88695586D01*
X84572611Y-88767879D01*
X84543288Y-88803609D01*
X84460044Y-88905044D01*
X84358609Y-88988288D01*
X84322879Y-89017611D01*
X84322877Y-89017612D01*
X84166390Y-89101257D01*
X84109789Y-89118427D01*
X83996588Y-89152766D01*
X83932855Y-89159043D01*
X83864250Y-89165800D01*
X83775750Y-89165800D01*
X83707145Y-89159043D01*
X83643412Y-89152766D01*
X83530211Y-89118427D01*
X83473610Y-89101257D01*
X83317123Y-89017612D01*
X83317121Y-89017611D01*
X83281391Y-88988288D01*
X83179956Y-88905044D01*
X83096712Y-88803609D01*
X83067389Y-88767879D01*
X83028747Y-88695586D01*
X82983743Y-88611390D01*
X82955717Y-88519000D01*
X82932234Y-88441588D01*
X82914842Y-88265000D01*
X82932234Y-88088412D01*
X82983743Y-87918611D01*
X82983743Y-87918610D01*
X83067388Y-87762123D01*
X83067389Y-87762121D01*
X83096712Y-87726391D01*
X83179956Y-87624956D01*
X83281391Y-87541712D01*
X83317121Y-87512389D01*
X83356763Y-87491200D01*
X83473610Y-87428743D01*
X83530211Y-87411573D01*
X83643412Y-87377234D01*
X83731638Y-87368545D01*
X83775750Y-87364200D01*
X83864250Y-87364200D01*
X83908362Y-87368545D01*
X83908362Y-87368545D01*
G37*
G36*
X81368362Y-87368545D02*
X81456588Y-87377234D01*
X81569789Y-87411573D01*
X81626390Y-87428743D01*
X81743237Y-87491200D01*
X81782879Y-87512389D01*
X81818609Y-87541712D01*
X81920044Y-87624956D01*
X82003288Y-87726391D01*
X82032611Y-87762121D01*
X82032612Y-87762123D01*
X82116257Y-87918610D01*
X82116257Y-87918611D01*
X82167766Y-88088412D01*
X82185158Y-88265000D01*
X82167766Y-88441588D01*
X82144283Y-88519000D01*
X82116257Y-88611390D01*
X82071253Y-88695586D01*
X82032611Y-88767879D01*
X82003288Y-88803609D01*
X81920044Y-88905044D01*
X81818609Y-88988288D01*
X81782879Y-89017611D01*
X81782877Y-89017612D01*
X81626390Y-89101257D01*
X81569789Y-89118427D01*
X81456588Y-89152766D01*
X81392855Y-89159043D01*
X81324250Y-89165800D01*
X81235750Y-89165800D01*
X81167145Y-89159043D01*
X81103412Y-89152766D01*
X80990211Y-89118427D01*
X80933610Y-89101257D01*
X80777123Y-89017612D01*
X80777121Y-89017611D01*
X80741391Y-88988288D01*
X80639956Y-88905044D01*
X80556712Y-88803609D01*
X80527389Y-88767879D01*
X80488747Y-88695586D01*
X80443743Y-88611390D01*
X80415717Y-88519000D01*
X80392234Y-88441588D01*
X80374842Y-88265000D01*
X80392234Y-88088412D01*
X80443743Y-87918611D01*
X80443743Y-87918610D01*
X80527388Y-87762123D01*
X80527389Y-87762121D01*
X80556712Y-87726391D01*
X80639956Y-87624956D01*
X80741391Y-87541712D01*
X80777121Y-87512389D01*
X80816763Y-87491200D01*
X80933610Y-87428743D01*
X80990211Y-87411573D01*
X81103412Y-87377234D01*
X81191638Y-87368545D01*
X81235750Y-87364200D01*
X81324250Y-87364200D01*
X81368362Y-87368545D01*
X81368362Y-87368545D01*
G37*
G36*
X69620862Y-85082545D02*
X69709088Y-85091234D01*
X69822289Y-85125573D01*
X69878890Y-85142743D01*
X70008377Y-85211956D01*
X70035379Y-85226389D01*
X70071109Y-85255712D01*
X70172544Y-85338956D01*
X70255788Y-85440391D01*
X70285111Y-85476121D01*
X70285112Y-85476123D01*
X70368757Y-85632610D01*
X70368757Y-85632611D01*
X70420266Y-85802412D01*
X70437658Y-85979000D01*
X70420266Y-86155588D01*
X70385927Y-86268789D01*
X70368757Y-86325390D01*
X70347561Y-86365044D01*
X70285111Y-86481879D01*
X70255788Y-86517609D01*
X70172544Y-86619044D01*
X70088206Y-86688257D01*
X70035379Y-86731611D01*
X70035377Y-86731612D01*
X69878890Y-86815257D01*
X69822289Y-86832427D01*
X69709088Y-86866766D01*
X69620862Y-86875455D01*
X69576750Y-86879800D01*
X69488250Y-86879800D01*
X69444138Y-86875455D01*
X69355912Y-86866766D01*
X69242711Y-86832427D01*
X69186110Y-86815257D01*
X69029623Y-86731612D01*
X69029621Y-86731611D01*
X68976794Y-86688257D01*
X68892456Y-86619044D01*
X68809212Y-86517609D01*
X68779889Y-86481879D01*
X68717439Y-86365044D01*
X68696243Y-86325390D01*
X68679073Y-86268789D01*
X68644734Y-86155588D01*
X68627342Y-85979000D01*
X68644734Y-85802412D01*
X68696243Y-85632611D01*
X68696243Y-85632610D01*
X68779888Y-85476123D01*
X68779889Y-85476121D01*
X68809212Y-85440391D01*
X68892456Y-85338956D01*
X68993891Y-85255712D01*
X69029621Y-85226389D01*
X69056623Y-85211956D01*
X69186110Y-85142743D01*
X69242711Y-85125573D01*
X69355912Y-85091234D01*
X69444138Y-85082545D01*
X69488250Y-85078200D01*
X69576750Y-85078200D01*
X69620862Y-85082545D01*
X69620862Y-85082545D01*
G37*
G36*
X67080862Y-85082545D02*
X67169088Y-85091234D01*
X67282289Y-85125573D01*
X67338890Y-85142743D01*
X67468377Y-85211956D01*
X67495379Y-85226389D01*
X67531109Y-85255712D01*
X67632544Y-85338956D01*
X67715788Y-85440391D01*
X67745111Y-85476121D01*
X67745112Y-85476123D01*
X67828757Y-85632610D01*
X67828757Y-85632611D01*
X67880266Y-85802412D01*
X67897658Y-85979000D01*
X67880266Y-86155588D01*
X67845927Y-86268789D01*
X67828757Y-86325390D01*
X67807561Y-86365044D01*
X67745111Y-86481879D01*
X67715788Y-86517609D01*
X67632544Y-86619044D01*
X67548206Y-86688257D01*
X67495379Y-86731611D01*
X67495377Y-86731612D01*
X67338890Y-86815257D01*
X67282289Y-86832427D01*
X67169088Y-86866766D01*
X67080862Y-86875455D01*
X67036750Y-86879800D01*
X66948250Y-86879800D01*
X66904138Y-86875455D01*
X66815912Y-86866766D01*
X66702711Y-86832427D01*
X66646110Y-86815257D01*
X66489623Y-86731612D01*
X66489621Y-86731611D01*
X66436794Y-86688257D01*
X66352456Y-86619044D01*
X66269212Y-86517609D01*
X66239889Y-86481879D01*
X66177439Y-86365044D01*
X66156243Y-86325390D01*
X66139073Y-86268789D01*
X66104734Y-86155588D01*
X66087342Y-85979000D01*
X66104734Y-85802412D01*
X66156243Y-85632611D01*
X66156243Y-85632610D01*
X66239888Y-85476123D01*
X66239889Y-85476121D01*
X66269212Y-85440391D01*
X66352456Y-85338956D01*
X66453891Y-85255712D01*
X66489621Y-85226389D01*
X66516623Y-85211956D01*
X66646110Y-85142743D01*
X66702711Y-85125573D01*
X66815912Y-85091234D01*
X66904138Y-85082545D01*
X66948250Y-85078200D01*
X67036750Y-85078200D01*
X67080862Y-85082545D01*
X67080862Y-85082545D01*
G37*
G36*
X96608362Y-84955545D02*
X96696588Y-84964234D01*
X96809789Y-84998573D01*
X96866390Y-85015743D01*
X96983237Y-85078200D01*
X97022879Y-85099389D01*
X97058609Y-85128712D01*
X97160044Y-85211956D01*
X97243288Y-85313391D01*
X97272611Y-85349121D01*
X97272612Y-85349123D01*
X97356257Y-85505610D01*
X97356257Y-85505611D01*
X97407766Y-85675412D01*
X97425158Y-85852000D01*
X97407766Y-86028588D01*
X97394782Y-86071389D01*
X97356257Y-86198390D01*
X97288374Y-86325389D01*
X97272611Y-86354879D01*
X97243288Y-86390609D01*
X97160044Y-86492044D01*
X97075706Y-86561257D01*
X97022879Y-86604611D01*
X97022877Y-86604612D01*
X96866390Y-86688257D01*
X96809789Y-86705427D01*
X96696588Y-86739766D01*
X96608362Y-86748455D01*
X96564250Y-86752800D01*
X96475750Y-86752800D01*
X96431638Y-86748455D01*
X96343412Y-86739766D01*
X96230211Y-86705427D01*
X96173610Y-86688257D01*
X96017123Y-86604612D01*
X96017121Y-86604611D01*
X95964294Y-86561257D01*
X95879956Y-86492044D01*
X95796712Y-86390609D01*
X95767389Y-86354879D01*
X95751626Y-86325389D01*
X95683743Y-86198390D01*
X95645218Y-86071389D01*
X95632234Y-86028588D01*
X95614842Y-85852000D01*
X95632234Y-85675412D01*
X95683743Y-85505611D01*
X95683743Y-85505610D01*
X95767388Y-85349123D01*
X95767389Y-85349121D01*
X95796712Y-85313391D01*
X95879956Y-85211956D01*
X95981391Y-85128712D01*
X96017121Y-85099389D01*
X96056763Y-85078200D01*
X96173610Y-85015743D01*
X96230211Y-84998573D01*
X96343412Y-84964234D01*
X96431638Y-84955545D01*
X96475750Y-84951200D01*
X96564250Y-84951200D01*
X96608362Y-84955545D01*
X96608362Y-84955545D01*
G37*
G36*
X52920362Y-84955545D02*
X53008588Y-84964234D01*
X53121789Y-84998573D01*
X53178390Y-85015743D01*
X53295237Y-85078200D01*
X53334879Y-85099389D01*
X53370609Y-85128712D01*
X53472044Y-85211956D01*
X53555288Y-85313391D01*
X53584611Y-85349121D01*
X53584612Y-85349123D01*
X53668257Y-85505610D01*
X53668257Y-85505611D01*
X53719766Y-85675412D01*
X53737158Y-85852000D01*
X53719766Y-86028588D01*
X53706782Y-86071389D01*
X53668257Y-86198390D01*
X53600374Y-86325389D01*
X53584611Y-86354879D01*
X53555288Y-86390609D01*
X53472044Y-86492044D01*
X53387706Y-86561257D01*
X53334879Y-86604611D01*
X53334877Y-86604612D01*
X53178390Y-86688257D01*
X53121789Y-86705427D01*
X53008588Y-86739766D01*
X52920362Y-86748455D01*
X52876250Y-86752800D01*
X52787750Y-86752800D01*
X52743638Y-86748455D01*
X52655412Y-86739766D01*
X52542211Y-86705427D01*
X52485610Y-86688257D01*
X52329123Y-86604612D01*
X52329121Y-86604611D01*
X52276294Y-86561257D01*
X52191956Y-86492044D01*
X52108712Y-86390609D01*
X52079389Y-86354879D01*
X52063626Y-86325389D01*
X51995743Y-86198390D01*
X51957218Y-86071389D01*
X51944234Y-86028588D01*
X51926842Y-85852000D01*
X51944234Y-85675412D01*
X51995743Y-85505611D01*
X51995743Y-85505610D01*
X52079388Y-85349123D01*
X52079389Y-85349121D01*
X52108712Y-85313391D01*
X52191956Y-85211956D01*
X52293391Y-85128712D01*
X52329121Y-85099389D01*
X52368763Y-85078200D01*
X52485610Y-85015743D01*
X52542211Y-84998573D01*
X52655412Y-84964234D01*
X52743638Y-84955545D01*
X52787750Y-84951200D01*
X52876250Y-84951200D01*
X52920362Y-84955545D01*
X52920362Y-84955545D01*
G37*
G36*
X49160800Y-86752800D02*
X47359200Y-86752800D01*
X47359200Y-84951200D01*
X49160800Y-84951200D01*
X49160800Y-86752800D01*
X49160800Y-86752800D01*
G37*
G36*
X55460362Y-84955545D02*
X55548588Y-84964234D01*
X55661789Y-84998573D01*
X55718390Y-85015743D01*
X55835237Y-85078200D01*
X55874879Y-85099389D01*
X55910609Y-85128712D01*
X56012044Y-85211956D01*
X56095288Y-85313391D01*
X56124611Y-85349121D01*
X56124612Y-85349123D01*
X56208257Y-85505610D01*
X56208257Y-85505611D01*
X56259766Y-85675412D01*
X56277158Y-85852000D01*
X56259766Y-86028588D01*
X56246782Y-86071389D01*
X56208257Y-86198390D01*
X56140374Y-86325389D01*
X56124611Y-86354879D01*
X56095288Y-86390609D01*
X56012044Y-86492044D01*
X55927706Y-86561257D01*
X55874879Y-86604611D01*
X55874877Y-86604612D01*
X55718390Y-86688257D01*
X55661789Y-86705427D01*
X55548588Y-86739766D01*
X55460362Y-86748455D01*
X55416250Y-86752800D01*
X55327750Y-86752800D01*
X55283638Y-86748455D01*
X55195412Y-86739766D01*
X55082211Y-86705427D01*
X55025610Y-86688257D01*
X54869123Y-86604612D01*
X54869121Y-86604611D01*
X54816294Y-86561257D01*
X54731956Y-86492044D01*
X54648712Y-86390609D01*
X54619389Y-86354879D01*
X54603626Y-86325389D01*
X54535743Y-86198390D01*
X54497218Y-86071389D01*
X54484234Y-86028588D01*
X54466842Y-85852000D01*
X54484234Y-85675412D01*
X54535743Y-85505611D01*
X54535743Y-85505610D01*
X54619388Y-85349123D01*
X54619389Y-85349121D01*
X54648712Y-85313391D01*
X54731956Y-85211956D01*
X54833391Y-85128712D01*
X54869121Y-85099389D01*
X54908763Y-85078200D01*
X55025610Y-85015743D01*
X55082211Y-84998573D01*
X55195412Y-84964234D01*
X55283638Y-84955545D01*
X55327750Y-84951200D01*
X55416250Y-84951200D01*
X55460362Y-84955545D01*
X55460362Y-84955545D01*
G37*
G36*
X83908362Y-84828545D02*
X83996588Y-84837234D01*
X84109789Y-84871573D01*
X84166390Y-84888743D01*
X84283237Y-84951200D01*
X84322879Y-84972389D01*
X84358609Y-85001712D01*
X84460044Y-85084956D01*
X84543288Y-85186391D01*
X84572611Y-85222121D01*
X84572612Y-85222123D01*
X84656257Y-85378610D01*
X84656257Y-85378611D01*
X84707766Y-85548412D01*
X84725158Y-85725000D01*
X84707766Y-85901588D01*
X84684283Y-85979000D01*
X84656257Y-86071390D01*
X84611253Y-86155586D01*
X84572611Y-86227879D01*
X84543288Y-86263609D01*
X84460044Y-86365044D01*
X84358609Y-86448288D01*
X84322879Y-86477611D01*
X84322877Y-86477612D01*
X84166390Y-86561257D01*
X84109789Y-86578427D01*
X83996588Y-86612766D01*
X83932855Y-86619043D01*
X83864250Y-86625800D01*
X83775750Y-86625800D01*
X83707145Y-86619043D01*
X83643412Y-86612766D01*
X83530211Y-86578427D01*
X83473610Y-86561257D01*
X83317123Y-86477612D01*
X83317121Y-86477611D01*
X83281391Y-86448288D01*
X83179956Y-86365044D01*
X83096712Y-86263609D01*
X83067389Y-86227879D01*
X83028747Y-86155586D01*
X82983743Y-86071390D01*
X82955717Y-85979000D01*
X82932234Y-85901588D01*
X82914842Y-85725000D01*
X82932234Y-85548412D01*
X82983743Y-85378611D01*
X82983743Y-85378610D01*
X83067388Y-85222123D01*
X83067389Y-85222121D01*
X83096712Y-85186391D01*
X83179956Y-85084956D01*
X83281391Y-85001712D01*
X83317121Y-84972389D01*
X83356763Y-84951200D01*
X83473610Y-84888743D01*
X83530211Y-84871573D01*
X83643412Y-84837234D01*
X83731638Y-84828545D01*
X83775750Y-84824200D01*
X83864250Y-84824200D01*
X83908362Y-84828545D01*
X83908362Y-84828545D01*
G37*
G36*
X81368362Y-84828545D02*
X81456588Y-84837234D01*
X81569789Y-84871573D01*
X81626390Y-84888743D01*
X81743237Y-84951200D01*
X81782879Y-84972389D01*
X81818609Y-85001712D01*
X81920044Y-85084956D01*
X82003288Y-85186391D01*
X82032611Y-85222121D01*
X82032612Y-85222123D01*
X82116257Y-85378610D01*
X82116257Y-85378611D01*
X82167766Y-85548412D01*
X82185158Y-85725000D01*
X82167766Y-85901588D01*
X82144283Y-85979000D01*
X82116257Y-86071390D01*
X82071253Y-86155586D01*
X82032611Y-86227879D01*
X82003288Y-86263609D01*
X81920044Y-86365044D01*
X81818609Y-86448288D01*
X81782879Y-86477611D01*
X81782877Y-86477612D01*
X81626390Y-86561257D01*
X81569789Y-86578427D01*
X81456588Y-86612766D01*
X81392855Y-86619043D01*
X81324250Y-86625800D01*
X81235750Y-86625800D01*
X81167145Y-86619043D01*
X81103412Y-86612766D01*
X80990211Y-86578427D01*
X80933610Y-86561257D01*
X80777123Y-86477612D01*
X80777121Y-86477611D01*
X80741391Y-86448288D01*
X80639956Y-86365044D01*
X80556712Y-86263609D01*
X80527389Y-86227879D01*
X80488747Y-86155586D01*
X80443743Y-86071390D01*
X80415717Y-85979000D01*
X80392234Y-85901588D01*
X80374842Y-85725000D01*
X80392234Y-85548412D01*
X80443743Y-85378611D01*
X80443743Y-85378610D01*
X80527388Y-85222123D01*
X80527389Y-85222121D01*
X80556712Y-85186391D01*
X80639956Y-85084956D01*
X80741391Y-85001712D01*
X80777121Y-84972389D01*
X80816763Y-84951200D01*
X80933610Y-84888743D01*
X80990211Y-84871573D01*
X81103412Y-84837234D01*
X81191638Y-84828545D01*
X81235750Y-84824200D01*
X81324250Y-84824200D01*
X81368362Y-84828545D01*
X81368362Y-84828545D01*
G37*
G36*
X69620862Y-82542545D02*
X69709088Y-82551234D01*
X69822289Y-82585573D01*
X69878890Y-82602743D01*
X70008377Y-82671956D01*
X70035379Y-82686389D01*
X70071109Y-82715712D01*
X70172544Y-82798956D01*
X70255788Y-82900391D01*
X70285111Y-82936121D01*
X70285112Y-82936123D01*
X70368757Y-83092610D01*
X70368757Y-83092611D01*
X70420266Y-83262412D01*
X70437658Y-83439000D01*
X70420266Y-83615588D01*
X70385927Y-83728789D01*
X70368757Y-83785390D01*
X70347561Y-83825044D01*
X70285111Y-83941879D01*
X70255788Y-83977609D01*
X70172544Y-84079044D01*
X70088206Y-84148257D01*
X70035379Y-84191611D01*
X70035377Y-84191612D01*
X69878890Y-84275257D01*
X69822289Y-84292427D01*
X69709088Y-84326766D01*
X69620862Y-84335455D01*
X69576750Y-84339800D01*
X69488250Y-84339800D01*
X69444138Y-84335455D01*
X69355912Y-84326766D01*
X69242711Y-84292427D01*
X69186110Y-84275257D01*
X69029623Y-84191612D01*
X69029621Y-84191611D01*
X68976794Y-84148257D01*
X68892456Y-84079044D01*
X68809212Y-83977609D01*
X68779889Y-83941879D01*
X68717439Y-83825044D01*
X68696243Y-83785390D01*
X68679073Y-83728789D01*
X68644734Y-83615588D01*
X68627342Y-83439000D01*
X68644734Y-83262412D01*
X68696243Y-83092611D01*
X68696243Y-83092610D01*
X68779888Y-82936123D01*
X68779889Y-82936121D01*
X68809212Y-82900391D01*
X68892456Y-82798956D01*
X68993891Y-82715712D01*
X69029621Y-82686389D01*
X69056623Y-82671956D01*
X69186110Y-82602743D01*
X69242711Y-82585573D01*
X69355912Y-82551234D01*
X69444138Y-82542545D01*
X69488250Y-82538200D01*
X69576750Y-82538200D01*
X69620862Y-82542545D01*
X69620862Y-82542545D01*
G37*
G36*
X67080862Y-82542545D02*
X67169088Y-82551234D01*
X67282289Y-82585573D01*
X67338890Y-82602743D01*
X67468377Y-82671956D01*
X67495379Y-82686389D01*
X67531109Y-82715712D01*
X67632544Y-82798956D01*
X67715788Y-82900391D01*
X67745111Y-82936121D01*
X67745112Y-82936123D01*
X67828757Y-83092610D01*
X67828757Y-83092611D01*
X67880266Y-83262412D01*
X67897658Y-83439000D01*
X67880266Y-83615588D01*
X67845927Y-83728789D01*
X67828757Y-83785390D01*
X67807561Y-83825044D01*
X67745111Y-83941879D01*
X67715788Y-83977609D01*
X67632544Y-84079044D01*
X67548206Y-84148257D01*
X67495379Y-84191611D01*
X67495377Y-84191612D01*
X67338890Y-84275257D01*
X67282289Y-84292427D01*
X67169088Y-84326766D01*
X67080862Y-84335455D01*
X67036750Y-84339800D01*
X66948250Y-84339800D01*
X66904138Y-84335455D01*
X66815912Y-84326766D01*
X66702711Y-84292427D01*
X66646110Y-84275257D01*
X66489623Y-84191612D01*
X66489621Y-84191611D01*
X66436794Y-84148257D01*
X66352456Y-84079044D01*
X66269212Y-83977609D01*
X66239889Y-83941879D01*
X66177439Y-83825044D01*
X66156243Y-83785390D01*
X66139073Y-83728789D01*
X66104734Y-83615588D01*
X66087342Y-83439000D01*
X66104734Y-83262412D01*
X66156243Y-83092611D01*
X66156243Y-83092610D01*
X66239888Y-82936123D01*
X66239889Y-82936121D01*
X66269212Y-82900391D01*
X66352456Y-82798956D01*
X66453891Y-82715712D01*
X66489621Y-82686389D01*
X66516623Y-82671956D01*
X66646110Y-82602743D01*
X66702711Y-82585573D01*
X66815912Y-82551234D01*
X66904138Y-82542545D01*
X66948250Y-82538200D01*
X67036750Y-82538200D01*
X67080862Y-82542545D01*
X67080862Y-82542545D01*
G37*
G36*
X55460362Y-82415545D02*
X55548588Y-82424234D01*
X55661789Y-82458573D01*
X55718390Y-82475743D01*
X55835237Y-82538200D01*
X55874879Y-82559389D01*
X55910609Y-82588712D01*
X56012044Y-82671956D01*
X56095288Y-82773391D01*
X56124611Y-82809121D01*
X56124612Y-82809123D01*
X56208257Y-82965610D01*
X56208257Y-82965611D01*
X56259766Y-83135412D01*
X56277158Y-83312000D01*
X56259766Y-83488588D01*
X56246782Y-83531389D01*
X56208257Y-83658390D01*
X56140374Y-83785389D01*
X56124611Y-83814879D01*
X56095288Y-83850609D01*
X56012044Y-83952044D01*
X55927706Y-84021257D01*
X55874879Y-84064611D01*
X55874877Y-84064612D01*
X55718390Y-84148257D01*
X55661789Y-84165427D01*
X55548588Y-84199766D01*
X55460362Y-84208455D01*
X55416250Y-84212800D01*
X55327750Y-84212800D01*
X55283638Y-84208455D01*
X55195412Y-84199766D01*
X55082211Y-84165427D01*
X55025610Y-84148257D01*
X54869123Y-84064612D01*
X54869121Y-84064611D01*
X54816294Y-84021257D01*
X54731956Y-83952044D01*
X54648712Y-83850609D01*
X54619389Y-83814879D01*
X54603626Y-83785389D01*
X54535743Y-83658390D01*
X54497218Y-83531389D01*
X54484234Y-83488588D01*
X54466842Y-83312000D01*
X54484234Y-83135412D01*
X54535743Y-82965611D01*
X54535743Y-82965610D01*
X54619388Y-82809123D01*
X54619389Y-82809121D01*
X54648712Y-82773391D01*
X54731956Y-82671956D01*
X54833391Y-82588712D01*
X54869121Y-82559389D01*
X54908763Y-82538200D01*
X55025610Y-82475743D01*
X55082211Y-82458573D01*
X55195412Y-82424234D01*
X55283638Y-82415545D01*
X55327750Y-82411200D01*
X55416250Y-82411200D01*
X55460362Y-82415545D01*
X55460362Y-82415545D01*
G37*
G36*
X52920362Y-82415545D02*
X53008588Y-82424234D01*
X53121789Y-82458573D01*
X53178390Y-82475743D01*
X53295237Y-82538200D01*
X53334879Y-82559389D01*
X53370609Y-82588712D01*
X53472044Y-82671956D01*
X53555288Y-82773391D01*
X53584611Y-82809121D01*
X53584612Y-82809123D01*
X53668257Y-82965610D01*
X53668257Y-82965611D01*
X53719766Y-83135412D01*
X53737158Y-83312000D01*
X53719766Y-83488588D01*
X53706782Y-83531389D01*
X53668257Y-83658390D01*
X53600374Y-83785389D01*
X53584611Y-83814879D01*
X53555288Y-83850609D01*
X53472044Y-83952044D01*
X53387706Y-84021257D01*
X53334879Y-84064611D01*
X53334877Y-84064612D01*
X53178390Y-84148257D01*
X53121789Y-84165427D01*
X53008588Y-84199766D01*
X52920362Y-84208455D01*
X52876250Y-84212800D01*
X52787750Y-84212800D01*
X52743638Y-84208455D01*
X52655412Y-84199766D01*
X52542211Y-84165427D01*
X52485610Y-84148257D01*
X52329123Y-84064612D01*
X52329121Y-84064611D01*
X52276294Y-84021257D01*
X52191956Y-83952044D01*
X52108712Y-83850609D01*
X52079389Y-83814879D01*
X52063626Y-83785389D01*
X51995743Y-83658390D01*
X51957218Y-83531389D01*
X51944234Y-83488588D01*
X51926842Y-83312000D01*
X51944234Y-83135412D01*
X51995743Y-82965611D01*
X51995743Y-82965610D01*
X52079388Y-82809123D01*
X52079389Y-82809121D01*
X52108712Y-82773391D01*
X52191956Y-82671956D01*
X52293391Y-82588712D01*
X52329121Y-82559389D01*
X52368763Y-82538200D01*
X52485610Y-82475743D01*
X52542211Y-82458573D01*
X52655412Y-82424234D01*
X52743638Y-82415545D01*
X52787750Y-82411200D01*
X52876250Y-82411200D01*
X52920362Y-82415545D01*
X52920362Y-82415545D01*
G37*
G36*
X96608362Y-82415545D02*
X96696588Y-82424234D01*
X96809789Y-82458573D01*
X96866390Y-82475743D01*
X96983237Y-82538200D01*
X97022879Y-82559389D01*
X97058609Y-82588712D01*
X97160044Y-82671956D01*
X97243288Y-82773391D01*
X97272611Y-82809121D01*
X97272612Y-82809123D01*
X97356257Y-82965610D01*
X97356257Y-82965611D01*
X97407766Y-83135412D01*
X97425158Y-83312000D01*
X97407766Y-83488588D01*
X97394782Y-83531389D01*
X97356257Y-83658390D01*
X97288374Y-83785389D01*
X97272611Y-83814879D01*
X97243288Y-83850609D01*
X97160044Y-83952044D01*
X97075706Y-84021257D01*
X97022879Y-84064611D01*
X97022877Y-84064612D01*
X96866390Y-84148257D01*
X96809789Y-84165427D01*
X96696588Y-84199766D01*
X96608362Y-84208455D01*
X96564250Y-84212800D01*
X96475750Y-84212800D01*
X96431638Y-84208455D01*
X96343412Y-84199766D01*
X96230211Y-84165427D01*
X96173610Y-84148257D01*
X96017123Y-84064612D01*
X96017121Y-84064611D01*
X95964294Y-84021257D01*
X95879956Y-83952044D01*
X95796712Y-83850609D01*
X95767389Y-83814879D01*
X95751626Y-83785389D01*
X95683743Y-83658390D01*
X95645218Y-83531389D01*
X95632234Y-83488588D01*
X95614842Y-83312000D01*
X95632234Y-83135412D01*
X95683743Y-82965611D01*
X95683743Y-82965610D01*
X95767388Y-82809123D01*
X95767389Y-82809121D01*
X95796712Y-82773391D01*
X95879956Y-82671956D01*
X95981391Y-82588712D01*
X96017121Y-82559389D01*
X96056763Y-82538200D01*
X96173610Y-82475743D01*
X96230211Y-82458573D01*
X96343412Y-82424234D01*
X96431638Y-82415545D01*
X96475750Y-82411200D01*
X96564250Y-82411200D01*
X96608362Y-82415545D01*
X96608362Y-82415545D01*
G37*
G36*
X81368362Y-82288545D02*
X81456588Y-82297234D01*
X81569789Y-82331573D01*
X81626390Y-82348743D01*
X81743237Y-82411200D01*
X81782879Y-82432389D01*
X81818609Y-82461712D01*
X81920044Y-82544956D01*
X82003288Y-82646391D01*
X82032611Y-82682121D01*
X82032612Y-82682123D01*
X82116257Y-82838610D01*
X82116257Y-82838611D01*
X82167766Y-83008412D01*
X82185158Y-83185000D01*
X82167766Y-83361588D01*
X82144283Y-83439000D01*
X82116257Y-83531390D01*
X82071253Y-83615586D01*
X82032611Y-83687879D01*
X82003288Y-83723609D01*
X81920044Y-83825044D01*
X81818609Y-83908288D01*
X81782879Y-83937611D01*
X81782877Y-83937612D01*
X81626390Y-84021257D01*
X81569789Y-84038427D01*
X81456588Y-84072766D01*
X81392855Y-84079043D01*
X81324250Y-84085800D01*
X81235750Y-84085800D01*
X81167145Y-84079043D01*
X81103412Y-84072766D01*
X80990211Y-84038427D01*
X80933610Y-84021257D01*
X80777123Y-83937612D01*
X80777121Y-83937611D01*
X80741391Y-83908288D01*
X80639956Y-83825044D01*
X80556712Y-83723609D01*
X80527389Y-83687879D01*
X80488747Y-83615586D01*
X80443743Y-83531390D01*
X80415717Y-83439000D01*
X80392234Y-83361588D01*
X80374842Y-83185000D01*
X80392234Y-83008412D01*
X80443743Y-82838611D01*
X80443743Y-82838610D01*
X80527388Y-82682123D01*
X80527389Y-82682121D01*
X80556712Y-82646391D01*
X80639956Y-82544956D01*
X80741391Y-82461712D01*
X80777121Y-82432389D01*
X80816763Y-82411200D01*
X80933610Y-82348743D01*
X80990211Y-82331573D01*
X81103412Y-82297234D01*
X81191638Y-82288545D01*
X81235750Y-82284200D01*
X81324250Y-82284200D01*
X81368362Y-82288545D01*
X81368362Y-82288545D01*
G37*
G36*
X83908362Y-82288545D02*
X83996588Y-82297234D01*
X84109789Y-82331573D01*
X84166390Y-82348743D01*
X84283237Y-82411200D01*
X84322879Y-82432389D01*
X84358609Y-82461712D01*
X84460044Y-82544956D01*
X84543288Y-82646391D01*
X84572611Y-82682121D01*
X84572612Y-82682123D01*
X84656257Y-82838610D01*
X84656257Y-82838611D01*
X84707766Y-83008412D01*
X84725158Y-83185000D01*
X84707766Y-83361588D01*
X84684283Y-83439000D01*
X84656257Y-83531390D01*
X84611253Y-83615586D01*
X84572611Y-83687879D01*
X84543288Y-83723609D01*
X84460044Y-83825044D01*
X84358609Y-83908288D01*
X84322879Y-83937611D01*
X84322877Y-83937612D01*
X84166390Y-84021257D01*
X84109789Y-84038427D01*
X83996588Y-84072766D01*
X83932855Y-84079043D01*
X83864250Y-84085800D01*
X83775750Y-84085800D01*
X83707145Y-84079043D01*
X83643412Y-84072766D01*
X83530211Y-84038427D01*
X83473610Y-84021257D01*
X83317123Y-83937612D01*
X83317121Y-83937611D01*
X83281391Y-83908288D01*
X83179956Y-83825044D01*
X83096712Y-83723609D01*
X83067389Y-83687879D01*
X83028747Y-83615586D01*
X82983743Y-83531390D01*
X82955717Y-83439000D01*
X82932234Y-83361588D01*
X82914842Y-83185000D01*
X82932234Y-83008412D01*
X82983743Y-82838611D01*
X82983743Y-82838610D01*
X83067388Y-82682123D01*
X83067389Y-82682121D01*
X83096712Y-82646391D01*
X83179956Y-82544956D01*
X83281391Y-82461712D01*
X83317121Y-82432389D01*
X83356763Y-82411200D01*
X83473610Y-82348743D01*
X83530211Y-82331573D01*
X83643412Y-82297234D01*
X83731638Y-82288545D01*
X83775750Y-82284200D01*
X83864250Y-82284200D01*
X83908362Y-82288545D01*
X83908362Y-82288545D01*
G37*
G36*
X70433300Y-81799800D02*
X68631700Y-81799800D01*
X68631700Y-79998200D01*
X70433300Y-79998200D01*
X70433300Y-81799800D01*
X70433300Y-81799800D01*
G37*
G36*
X67080862Y-80002545D02*
X67169088Y-80011234D01*
X67282289Y-80045573D01*
X67338890Y-80062743D01*
X67468377Y-80131956D01*
X67495379Y-80146389D01*
X67531109Y-80175712D01*
X67632544Y-80258956D01*
X67715788Y-80360391D01*
X67745111Y-80396121D01*
X67745112Y-80396123D01*
X67828757Y-80552610D01*
X67828757Y-80552611D01*
X67880266Y-80722412D01*
X67897658Y-80899000D01*
X67880266Y-81075588D01*
X67845927Y-81188789D01*
X67828757Y-81245390D01*
X67807561Y-81285044D01*
X67745111Y-81401879D01*
X67715788Y-81437609D01*
X67632544Y-81539044D01*
X67548206Y-81608257D01*
X67495379Y-81651611D01*
X67495377Y-81651612D01*
X67338890Y-81735257D01*
X67282289Y-81752427D01*
X67169088Y-81786766D01*
X67080862Y-81795455D01*
X67036750Y-81799800D01*
X66948250Y-81799800D01*
X66904138Y-81795455D01*
X66815912Y-81786766D01*
X66702711Y-81752427D01*
X66646110Y-81735257D01*
X66489623Y-81651612D01*
X66489621Y-81651611D01*
X66436794Y-81608257D01*
X66352456Y-81539044D01*
X66269212Y-81437609D01*
X66239889Y-81401879D01*
X66177439Y-81285044D01*
X66156243Y-81245390D01*
X66139073Y-81188789D01*
X66104734Y-81075588D01*
X66087342Y-80899000D01*
X66104734Y-80722412D01*
X66156243Y-80552611D01*
X66156243Y-80552610D01*
X66239888Y-80396123D01*
X66239889Y-80396121D01*
X66269212Y-80360391D01*
X66352456Y-80258956D01*
X66453891Y-80175712D01*
X66489621Y-80146389D01*
X66516623Y-80131956D01*
X66646110Y-80062743D01*
X66702711Y-80045573D01*
X66815912Y-80011234D01*
X66904138Y-80002545D01*
X66948250Y-79998200D01*
X67036750Y-79998200D01*
X67080862Y-80002545D01*
X67080862Y-80002545D01*
G37*
G36*
X48348362Y-79875545D02*
X48436588Y-79884234D01*
X48549789Y-79918573D01*
X48606390Y-79935743D01*
X48723237Y-79998200D01*
X48762879Y-80019389D01*
X48798609Y-80048712D01*
X48900044Y-80131956D01*
X48983288Y-80233391D01*
X49012611Y-80269121D01*
X49012612Y-80269123D01*
X49096257Y-80425610D01*
X49096257Y-80425611D01*
X49147766Y-80595412D01*
X49165158Y-80772000D01*
X49147766Y-80948588D01*
X49134782Y-80991389D01*
X49096257Y-81118390D01*
X49028374Y-81245389D01*
X49012611Y-81274879D01*
X48983288Y-81310609D01*
X48900044Y-81412044D01*
X48815706Y-81481257D01*
X48762879Y-81524611D01*
X48762877Y-81524612D01*
X48606390Y-81608257D01*
X48549789Y-81625427D01*
X48436588Y-81659766D01*
X48348362Y-81668455D01*
X48304250Y-81672800D01*
X48215750Y-81672800D01*
X48171638Y-81668455D01*
X48083412Y-81659766D01*
X47970211Y-81625427D01*
X47913610Y-81608257D01*
X47757123Y-81524612D01*
X47757121Y-81524611D01*
X47704294Y-81481257D01*
X47619956Y-81412044D01*
X47536712Y-81310609D01*
X47507389Y-81274879D01*
X47491626Y-81245389D01*
X47423743Y-81118390D01*
X47385218Y-80991389D01*
X47372234Y-80948588D01*
X47354842Y-80772000D01*
X47372234Y-80595412D01*
X47423743Y-80425611D01*
X47423743Y-80425610D01*
X47507388Y-80269123D01*
X47507389Y-80269121D01*
X47536712Y-80233391D01*
X47619956Y-80131956D01*
X47721391Y-80048712D01*
X47757121Y-80019389D01*
X47796763Y-79998200D01*
X47913610Y-79935743D01*
X47970211Y-79918573D01*
X48083412Y-79884234D01*
X48171638Y-79875545D01*
X48215750Y-79871200D01*
X48304250Y-79871200D01*
X48348362Y-79875545D01*
X48348362Y-79875545D01*
G37*
G36*
X52920362Y-79875545D02*
X53008588Y-79884234D01*
X53121789Y-79918573D01*
X53178390Y-79935743D01*
X53295237Y-79998200D01*
X53334879Y-80019389D01*
X53370609Y-80048712D01*
X53472044Y-80131956D01*
X53555288Y-80233391D01*
X53584611Y-80269121D01*
X53584612Y-80269123D01*
X53668257Y-80425610D01*
X53668257Y-80425611D01*
X53719766Y-80595412D01*
X53737158Y-80772000D01*
X53719766Y-80948588D01*
X53706782Y-80991389D01*
X53668257Y-81118390D01*
X53600374Y-81245389D01*
X53584611Y-81274879D01*
X53555288Y-81310609D01*
X53472044Y-81412044D01*
X53387706Y-81481257D01*
X53334879Y-81524611D01*
X53334877Y-81524612D01*
X53178390Y-81608257D01*
X53121789Y-81625427D01*
X53008588Y-81659766D01*
X52920362Y-81668455D01*
X52876250Y-81672800D01*
X52787750Y-81672800D01*
X52743638Y-81668455D01*
X52655412Y-81659766D01*
X52542211Y-81625427D01*
X52485610Y-81608257D01*
X52329123Y-81524612D01*
X52329121Y-81524611D01*
X52276294Y-81481257D01*
X52191956Y-81412044D01*
X52108712Y-81310609D01*
X52079389Y-81274879D01*
X52063626Y-81245389D01*
X51995743Y-81118390D01*
X51957218Y-80991389D01*
X51944234Y-80948588D01*
X51926842Y-80772000D01*
X51944234Y-80595412D01*
X51995743Y-80425611D01*
X51995743Y-80425610D01*
X52079388Y-80269123D01*
X52079389Y-80269121D01*
X52108712Y-80233391D01*
X52191956Y-80131956D01*
X52293391Y-80048712D01*
X52329121Y-80019389D01*
X52368763Y-79998200D01*
X52485610Y-79935743D01*
X52542211Y-79918573D01*
X52655412Y-79884234D01*
X52743638Y-79875545D01*
X52787750Y-79871200D01*
X52876250Y-79871200D01*
X52920362Y-79875545D01*
X52920362Y-79875545D01*
G37*
G36*
X97420800Y-81672800D02*
X95619200Y-81672800D01*
X95619200Y-79871200D01*
X97420800Y-79871200D01*
X97420800Y-81672800D01*
X97420800Y-81672800D01*
G37*
G36*
X56272800Y-81672800D02*
X54471200Y-81672800D01*
X54471200Y-79871200D01*
X56272800Y-79871200D01*
X56272800Y-81672800D01*
X56272800Y-81672800D01*
G37*
G36*
X84720800Y-81545800D02*
X82919200Y-81545800D01*
X82919200Y-79744200D01*
X84720800Y-79744200D01*
X84720800Y-81545800D01*
X84720800Y-81545800D01*
G37*
G36*
X81368362Y-79748545D02*
X81456588Y-79757234D01*
X81569789Y-79791573D01*
X81626390Y-79808743D01*
X81743237Y-79871200D01*
X81782879Y-79892389D01*
X81818609Y-79921712D01*
X81920044Y-80004956D01*
X82003288Y-80106391D01*
X82032611Y-80142121D01*
X82032612Y-80142123D01*
X82116257Y-80298610D01*
X82116257Y-80298611D01*
X82167766Y-80468412D01*
X82185158Y-80645000D01*
X82167766Y-80821588D01*
X82144283Y-80899000D01*
X82116257Y-80991390D01*
X82071253Y-81075586D01*
X82032611Y-81147879D01*
X82003288Y-81183609D01*
X81920044Y-81285044D01*
X81818609Y-81368288D01*
X81782879Y-81397611D01*
X81782877Y-81397612D01*
X81626390Y-81481257D01*
X81569789Y-81498427D01*
X81456588Y-81532766D01*
X81392855Y-81539043D01*
X81324250Y-81545800D01*
X81235750Y-81545800D01*
X81167145Y-81539043D01*
X81103412Y-81532766D01*
X80990211Y-81498427D01*
X80933610Y-81481257D01*
X80777123Y-81397612D01*
X80777121Y-81397611D01*
X80741391Y-81368288D01*
X80639956Y-81285044D01*
X80556712Y-81183609D01*
X80527389Y-81147879D01*
X80488747Y-81075586D01*
X80443743Y-80991390D01*
X80415717Y-80899000D01*
X80392234Y-80821588D01*
X80374842Y-80645000D01*
X80392234Y-80468412D01*
X80443743Y-80298611D01*
X80443743Y-80298610D01*
X80527388Y-80142123D01*
X80527389Y-80142121D01*
X80556712Y-80106391D01*
X80639956Y-80004956D01*
X80741391Y-79921712D01*
X80777121Y-79892389D01*
X80816763Y-79871200D01*
X80933610Y-79808743D01*
X80990211Y-79791573D01*
X81103412Y-79757234D01*
X81191638Y-79748545D01*
X81235750Y-79744200D01*
X81324250Y-79744200D01*
X81368362Y-79748545D01*
X81368362Y-79748545D01*
G37*
G36*
X48348362Y-77335545D02*
X48436588Y-77344234D01*
X48549789Y-77378573D01*
X48606390Y-77395743D01*
X48735231Y-77464611D01*
X48762879Y-77479389D01*
X48798609Y-77508712D01*
X48900044Y-77591956D01*
X48983288Y-77693391D01*
X49012611Y-77729121D01*
X49012612Y-77729123D01*
X49096257Y-77885610D01*
X49096257Y-77885611D01*
X49147766Y-78055412D01*
X49165158Y-78232000D01*
X49147766Y-78408588D01*
X49113427Y-78521789D01*
X49096257Y-78578390D01*
X49022178Y-78716980D01*
X49012611Y-78734879D01*
X48983288Y-78770609D01*
X48900044Y-78872044D01*
X48798609Y-78955288D01*
X48762879Y-78984611D01*
X48762877Y-78984612D01*
X48606390Y-79068257D01*
X48549789Y-79085427D01*
X48436588Y-79119766D01*
X48348362Y-79128455D01*
X48304250Y-79132800D01*
X48215750Y-79132800D01*
X48171638Y-79128455D01*
X48083412Y-79119766D01*
X47970211Y-79085427D01*
X47913610Y-79068257D01*
X47757123Y-78984612D01*
X47757121Y-78984611D01*
X47721391Y-78955288D01*
X47619956Y-78872044D01*
X47536712Y-78770609D01*
X47507389Y-78734879D01*
X47497822Y-78716980D01*
X47423743Y-78578390D01*
X47406573Y-78521789D01*
X47372234Y-78408588D01*
X47354842Y-78232000D01*
X47372234Y-78055412D01*
X47423743Y-77885611D01*
X47423743Y-77885610D01*
X47507388Y-77729123D01*
X47507389Y-77729121D01*
X47536712Y-77693391D01*
X47619956Y-77591956D01*
X47721391Y-77508712D01*
X47757121Y-77479389D01*
X47784769Y-77464611D01*
X47913610Y-77395743D01*
X47970211Y-77378573D01*
X48083412Y-77344234D01*
X48171638Y-77335545D01*
X48215750Y-77331200D01*
X48304250Y-77331200D01*
X48348362Y-77335545D01*
X48348362Y-77335545D01*
G37*
G36*
X96608362Y-75815545D02*
X96696588Y-75824234D01*
X96809789Y-75858573D01*
X96866390Y-75875743D01*
X97004980Y-75949822D01*
X97022879Y-75959389D01*
X97058609Y-75988712D01*
X97160044Y-76071956D01*
X97243288Y-76173391D01*
X97272611Y-76209121D01*
X97272612Y-76209123D01*
X97356257Y-76365610D01*
X97356257Y-76365611D01*
X97407766Y-76535412D01*
X97425158Y-76712000D01*
X97407766Y-76888588D01*
X97373427Y-77001789D01*
X97356257Y-77058390D01*
X97282178Y-77196980D01*
X97272611Y-77214879D01*
X97243288Y-77250609D01*
X97160044Y-77352044D01*
X97058609Y-77435288D01*
X97022879Y-77464611D01*
X97022877Y-77464612D01*
X96866390Y-77548257D01*
X96809789Y-77565427D01*
X96696588Y-77599766D01*
X96608362Y-77608455D01*
X96564250Y-77612800D01*
X96475750Y-77612800D01*
X96431638Y-77608455D01*
X96343412Y-77599766D01*
X96230211Y-77565427D01*
X96173610Y-77548257D01*
X96017123Y-77464612D01*
X96017121Y-77464611D01*
X95981391Y-77435288D01*
X95879956Y-77352044D01*
X95796712Y-77250609D01*
X95767389Y-77214879D01*
X95757822Y-77196980D01*
X95683743Y-77058390D01*
X95666573Y-77001789D01*
X95632234Y-76888588D01*
X95614842Y-76712000D01*
X95632234Y-76535412D01*
X95683743Y-76365611D01*
X95683743Y-76365610D01*
X95767388Y-76209123D01*
X95767389Y-76209121D01*
X95796712Y-76173391D01*
X95879956Y-76071956D01*
X95981391Y-75988712D01*
X96017121Y-75959389D01*
X96035020Y-75949822D01*
X96173610Y-75875743D01*
X96230211Y-75858573D01*
X96343412Y-75824234D01*
X96431638Y-75815545D01*
X96475750Y-75811200D01*
X96564250Y-75811200D01*
X96608362Y-75815545D01*
X96608362Y-75815545D01*
G37*
G36*
X48348362Y-74795545D02*
X48436588Y-74804234D01*
X48549789Y-74838573D01*
X48606390Y-74855743D01*
X48735231Y-74924611D01*
X48762879Y-74939389D01*
X48798609Y-74968712D01*
X48900044Y-75051956D01*
X48983288Y-75153391D01*
X49012611Y-75189121D01*
X49012612Y-75189123D01*
X49096257Y-75345610D01*
X49096257Y-75345611D01*
X49147766Y-75515412D01*
X49165158Y-75692000D01*
X49147766Y-75868588D01*
X49113427Y-75981789D01*
X49096257Y-76038390D01*
X49022178Y-76176980D01*
X49012611Y-76194879D01*
X49000921Y-76209123D01*
X48900044Y-76332044D01*
X48798609Y-76415288D01*
X48762879Y-76444611D01*
X48762877Y-76444612D01*
X48606390Y-76528257D01*
X48582796Y-76535414D01*
X48436588Y-76579766D01*
X48348362Y-76588455D01*
X48304250Y-76592800D01*
X48215750Y-76592800D01*
X48171638Y-76588455D01*
X48083412Y-76579766D01*
X47937204Y-76535414D01*
X47913610Y-76528257D01*
X47757123Y-76444612D01*
X47757121Y-76444611D01*
X47721391Y-76415288D01*
X47619956Y-76332044D01*
X47519079Y-76209123D01*
X47507389Y-76194879D01*
X47497822Y-76176980D01*
X47423743Y-76038390D01*
X47406573Y-75981789D01*
X47372234Y-75868588D01*
X47354842Y-75692000D01*
X47372234Y-75515412D01*
X47423743Y-75345611D01*
X47423743Y-75345610D01*
X47507388Y-75189123D01*
X47507389Y-75189121D01*
X47536712Y-75153391D01*
X47619956Y-75051956D01*
X47721391Y-74968712D01*
X47757121Y-74939389D01*
X47784769Y-74924611D01*
X47913610Y-74855743D01*
X47970211Y-74838573D01*
X48083412Y-74804234D01*
X48171638Y-74795545D01*
X48215750Y-74791200D01*
X48304250Y-74791200D01*
X48348362Y-74795545D01*
X48348362Y-74795545D01*
G37*
G36*
X96608362Y-73275545D02*
X96696588Y-73284234D01*
X96809789Y-73318573D01*
X96866390Y-73335743D01*
X97004980Y-73409822D01*
X97022879Y-73419389D01*
X97058609Y-73448712D01*
X97160044Y-73531956D01*
X97243288Y-73633391D01*
X97272611Y-73669121D01*
X97272612Y-73669123D01*
X97356257Y-73825610D01*
X97356257Y-73825611D01*
X97407766Y-73995412D01*
X97425158Y-74172000D01*
X97407766Y-74348588D01*
X97373427Y-74461789D01*
X97356257Y-74518390D01*
X97282178Y-74656980D01*
X97272611Y-74674879D01*
X97243288Y-74710609D01*
X97160044Y-74812044D01*
X97058609Y-74895288D01*
X97022879Y-74924611D01*
X97022877Y-74924612D01*
X96866390Y-75008257D01*
X96809789Y-75025427D01*
X96696588Y-75059766D01*
X96608362Y-75068455D01*
X96564250Y-75072800D01*
X96475750Y-75072800D01*
X96431638Y-75068455D01*
X96343412Y-75059766D01*
X96230211Y-75025427D01*
X96173610Y-75008257D01*
X96017123Y-74924612D01*
X96017121Y-74924611D01*
X95981391Y-74895288D01*
X95879956Y-74812044D01*
X95796712Y-74710609D01*
X95767389Y-74674879D01*
X95757822Y-74656980D01*
X95683743Y-74518390D01*
X95666573Y-74461789D01*
X95632234Y-74348588D01*
X95614842Y-74172000D01*
X95632234Y-73995412D01*
X95683743Y-73825611D01*
X95683743Y-73825610D01*
X95767388Y-73669123D01*
X95767389Y-73669121D01*
X95796712Y-73633391D01*
X95879956Y-73531956D01*
X95981391Y-73448712D01*
X96017121Y-73419389D01*
X96035020Y-73409822D01*
X96173610Y-73335743D01*
X96230211Y-73318573D01*
X96343412Y-73284234D01*
X96431638Y-73275545D01*
X96475750Y-73271200D01*
X96564250Y-73271200D01*
X96608362Y-73275545D01*
X96608362Y-73275545D01*
G37*
G36*
X48348362Y-72255545D02*
X48436588Y-72264234D01*
X48549789Y-72298573D01*
X48606390Y-72315743D01*
X48735231Y-72384611D01*
X48762879Y-72399389D01*
X48798609Y-72428712D01*
X48900044Y-72511956D01*
X48983288Y-72613391D01*
X49012611Y-72649121D01*
X49012612Y-72649123D01*
X49096257Y-72805610D01*
X49096257Y-72805611D01*
X49147766Y-72975412D01*
X49165158Y-73152000D01*
X49147766Y-73328588D01*
X49113427Y-73441789D01*
X49096257Y-73498390D01*
X49022178Y-73636980D01*
X49012611Y-73654879D01*
X49000921Y-73669123D01*
X48900044Y-73792044D01*
X48798609Y-73875288D01*
X48762879Y-73904611D01*
X48762877Y-73904612D01*
X48606390Y-73988257D01*
X48582796Y-73995414D01*
X48436588Y-74039766D01*
X48348362Y-74048455D01*
X48304250Y-74052800D01*
X48215750Y-74052800D01*
X48171638Y-74048455D01*
X48083412Y-74039766D01*
X47937204Y-73995414D01*
X47913610Y-73988257D01*
X47757123Y-73904612D01*
X47757121Y-73904611D01*
X47721391Y-73875288D01*
X47619956Y-73792044D01*
X47519079Y-73669123D01*
X47507389Y-73654879D01*
X47497822Y-73636980D01*
X47423743Y-73498390D01*
X47406573Y-73441789D01*
X47372234Y-73328588D01*
X47354842Y-73152000D01*
X47372234Y-72975412D01*
X47423743Y-72805611D01*
X47423743Y-72805610D01*
X47507388Y-72649123D01*
X47507389Y-72649121D01*
X47536712Y-72613391D01*
X47619956Y-72511956D01*
X47721391Y-72428712D01*
X47757121Y-72399389D01*
X47784769Y-72384611D01*
X47913610Y-72315743D01*
X47970211Y-72298573D01*
X48083412Y-72264234D01*
X48171638Y-72255545D01*
X48215750Y-72251200D01*
X48304250Y-72251200D01*
X48348362Y-72255545D01*
X48348362Y-72255545D01*
G37*
G36*
X96608362Y-70735545D02*
X96696588Y-70744234D01*
X96809789Y-70778573D01*
X96866390Y-70795743D01*
X97004980Y-70869822D01*
X97022879Y-70879389D01*
X97058609Y-70908712D01*
X97160044Y-70991956D01*
X97243288Y-71093391D01*
X97272611Y-71129121D01*
X97272612Y-71129123D01*
X97356257Y-71285610D01*
X97356257Y-71285611D01*
X97407766Y-71455412D01*
X97425158Y-71632000D01*
X97407766Y-71808588D01*
X97373427Y-71921789D01*
X97356257Y-71978390D01*
X97282178Y-72116980D01*
X97272611Y-72134879D01*
X97243288Y-72170609D01*
X97160044Y-72272044D01*
X97058609Y-72355288D01*
X97022879Y-72384611D01*
X97022877Y-72384612D01*
X96866390Y-72468257D01*
X96809789Y-72485427D01*
X96696588Y-72519766D01*
X96608362Y-72528455D01*
X96564250Y-72532800D01*
X96475750Y-72532800D01*
X96431638Y-72528455D01*
X96343412Y-72519766D01*
X96230211Y-72485427D01*
X96173610Y-72468257D01*
X96017123Y-72384612D01*
X96017121Y-72384611D01*
X95981391Y-72355288D01*
X95879956Y-72272044D01*
X95796712Y-72170609D01*
X95767389Y-72134879D01*
X95757822Y-72116980D01*
X95683743Y-71978390D01*
X95666573Y-71921789D01*
X95632234Y-71808588D01*
X95614842Y-71632000D01*
X95632234Y-71455412D01*
X95683743Y-71285611D01*
X95683743Y-71285610D01*
X95767388Y-71129123D01*
X95767389Y-71129121D01*
X95796712Y-71093391D01*
X95879956Y-70991956D01*
X95981391Y-70908712D01*
X96017121Y-70879389D01*
X96035020Y-70869822D01*
X96173610Y-70795743D01*
X96230211Y-70778573D01*
X96343412Y-70744234D01*
X96431638Y-70735545D01*
X96475750Y-70731200D01*
X96564250Y-70731200D01*
X96608362Y-70735545D01*
X96608362Y-70735545D01*
G37*
G36*
X48348362Y-69715545D02*
X48436588Y-69724234D01*
X48549789Y-69758573D01*
X48606390Y-69775743D01*
X48735231Y-69844611D01*
X48762879Y-69859389D01*
X48798609Y-69888712D01*
X48900044Y-69971956D01*
X48983288Y-70073391D01*
X49012611Y-70109121D01*
X49012612Y-70109123D01*
X49096257Y-70265610D01*
X49096257Y-70265611D01*
X49147766Y-70435412D01*
X49165158Y-70612000D01*
X49147766Y-70788588D01*
X49113427Y-70901789D01*
X49096257Y-70958390D01*
X49022178Y-71096980D01*
X49012611Y-71114879D01*
X49000921Y-71129123D01*
X48900044Y-71252044D01*
X48798609Y-71335288D01*
X48762879Y-71364611D01*
X48762877Y-71364612D01*
X48606390Y-71448257D01*
X48582796Y-71455414D01*
X48436588Y-71499766D01*
X48348362Y-71508455D01*
X48304250Y-71512800D01*
X48215750Y-71512800D01*
X48171638Y-71508455D01*
X48083412Y-71499766D01*
X47937204Y-71455414D01*
X47913610Y-71448257D01*
X47757123Y-71364612D01*
X47757121Y-71364611D01*
X47721391Y-71335288D01*
X47619956Y-71252044D01*
X47519079Y-71129123D01*
X47507389Y-71114879D01*
X47497822Y-71096980D01*
X47423743Y-70958390D01*
X47406573Y-70901789D01*
X47372234Y-70788588D01*
X47354842Y-70612000D01*
X47372234Y-70435412D01*
X47423743Y-70265611D01*
X47423743Y-70265610D01*
X47507388Y-70109123D01*
X47507389Y-70109121D01*
X47536712Y-70073391D01*
X47619956Y-69971956D01*
X47721391Y-69888712D01*
X47757121Y-69859389D01*
X47784769Y-69844611D01*
X47913610Y-69775743D01*
X47970211Y-69758573D01*
X48083412Y-69724234D01*
X48171638Y-69715545D01*
X48215750Y-69711200D01*
X48304250Y-69711200D01*
X48348362Y-69715545D01*
X48348362Y-69715545D01*
G37*
G36*
X96608362Y-68195545D02*
X96696588Y-68204234D01*
X96809789Y-68238573D01*
X96866390Y-68255743D01*
X97004980Y-68329822D01*
X97022879Y-68339389D01*
X97058609Y-68368712D01*
X97160044Y-68451956D01*
X97238207Y-68547200D01*
X97272611Y-68589121D01*
X97272612Y-68589123D01*
X97356257Y-68745610D01*
X97356257Y-68745611D01*
X97407766Y-68915412D01*
X97425158Y-69092000D01*
X97407766Y-69268588D01*
X97373427Y-69381789D01*
X97356257Y-69438390D01*
X97282178Y-69576980D01*
X97272611Y-69594879D01*
X97243288Y-69630609D01*
X97160044Y-69732044D01*
X97058609Y-69815288D01*
X97022879Y-69844611D01*
X97022877Y-69844612D01*
X96866390Y-69928257D01*
X96809789Y-69945427D01*
X96696588Y-69979766D01*
X96608362Y-69988455D01*
X96564250Y-69992800D01*
X96475750Y-69992800D01*
X96431638Y-69988455D01*
X96343412Y-69979766D01*
X96230211Y-69945427D01*
X96173610Y-69928257D01*
X96017123Y-69844612D01*
X96017121Y-69844611D01*
X95981391Y-69815288D01*
X95879956Y-69732044D01*
X95796712Y-69630609D01*
X95767389Y-69594879D01*
X95757822Y-69576980D01*
X95683743Y-69438390D01*
X95666573Y-69381789D01*
X95632234Y-69268588D01*
X95614842Y-69092000D01*
X95632234Y-68915412D01*
X95683743Y-68745611D01*
X95683743Y-68745610D01*
X95767388Y-68589123D01*
X95767389Y-68589121D01*
X95801793Y-68547200D01*
X95879956Y-68451956D01*
X95981391Y-68368712D01*
X96017121Y-68339389D01*
X96035020Y-68329822D01*
X96173610Y-68255743D01*
X96230211Y-68238573D01*
X96343412Y-68204234D01*
X96431638Y-68195545D01*
X96475750Y-68191200D01*
X96564250Y-68191200D01*
X96608362Y-68195545D01*
X96608362Y-68195545D01*
G37*
G36*
X71764800Y-69098800D02*
X70163200Y-69098800D01*
X70163200Y-63997200D01*
X71764800Y-63997200D01*
X71764800Y-69098800D01*
X71764800Y-69098800D01*
G37*
G36*
X63694800Y-69098800D02*
X62093200Y-69098800D01*
X62093200Y-63997200D01*
X63694800Y-63997200D01*
X63694800Y-69098800D01*
X63694800Y-69098800D01*
G37*
G36*
X57794800Y-69098800D02*
X56193200Y-69098800D01*
X56193200Y-63997200D01*
X57794800Y-63997200D01*
X57794800Y-69098800D01*
X57794800Y-69098800D01*
G37*
G36*
X77664800Y-69098800D02*
X76063200Y-69098800D01*
X76063200Y-63997200D01*
X77664800Y-63997200D01*
X77664800Y-69098800D01*
X77664800Y-69098800D01*
G37*
G36*
X48348362Y-67175545D02*
X48436588Y-67184234D01*
X48549789Y-67218573D01*
X48606390Y-67235743D01*
X48709393Y-67290800D01*
X48762879Y-67319389D01*
X48798609Y-67348712D01*
X48900044Y-67431956D01*
X48983288Y-67533391D01*
X49012611Y-67569121D01*
X49012612Y-67569123D01*
X49096257Y-67725610D01*
X49096257Y-67725611D01*
X49147766Y-67895412D01*
X49165158Y-68072000D01*
X49147766Y-68248588D01*
X49113427Y-68361789D01*
X49096257Y-68418390D01*
X49027406Y-68547200D01*
X49012611Y-68574879D01*
X49000921Y-68589123D01*
X48900044Y-68712044D01*
X48798609Y-68795288D01*
X48762879Y-68824611D01*
X48762877Y-68824612D01*
X48606390Y-68908257D01*
X48582796Y-68915414D01*
X48436588Y-68959766D01*
X48348362Y-68968455D01*
X48304250Y-68972800D01*
X48215750Y-68972800D01*
X48171638Y-68968455D01*
X48083412Y-68959766D01*
X47937204Y-68915414D01*
X47913610Y-68908257D01*
X47757123Y-68824612D01*
X47757121Y-68824611D01*
X47721391Y-68795288D01*
X47619956Y-68712044D01*
X47519079Y-68589123D01*
X47507389Y-68574879D01*
X47492594Y-68547200D01*
X47423743Y-68418390D01*
X47406573Y-68361789D01*
X47372234Y-68248588D01*
X47354842Y-68072000D01*
X47372234Y-67895412D01*
X47423743Y-67725611D01*
X47423743Y-67725610D01*
X47507388Y-67569123D01*
X47507389Y-67569121D01*
X47536712Y-67533391D01*
X47619956Y-67431956D01*
X47721391Y-67348712D01*
X47757121Y-67319389D01*
X47810607Y-67290800D01*
X47913610Y-67235743D01*
X47970211Y-67218573D01*
X48083412Y-67184234D01*
X48171638Y-67175545D01*
X48215750Y-67171200D01*
X48304250Y-67171200D01*
X48348362Y-67175545D01*
X48348362Y-67175545D01*
G37*
G36*
X92396800Y-68590800D02*
X90795200Y-68590800D01*
X90795200Y-63489200D01*
X92396800Y-63489200D01*
X92396800Y-68590800D01*
X92396800Y-68590800D01*
G37*
G36*
X86496800Y-68590800D02*
X84895200Y-68590800D01*
X84895200Y-63489200D01*
X86496800Y-63489200D01*
X86496800Y-68590800D01*
X86496800Y-68590800D01*
G37*
G36*
X96608362Y-65655545D02*
X96696588Y-65664234D01*
X96809789Y-65698573D01*
X96866390Y-65715743D01*
X97004980Y-65789822D01*
X97022879Y-65799389D01*
X97058609Y-65828712D01*
X97160044Y-65911956D01*
X97224748Y-65990800D01*
X97272611Y-66049121D01*
X97272612Y-66049123D01*
X97356257Y-66205610D01*
X97356257Y-66205611D01*
X97407766Y-66375412D01*
X97425158Y-66552000D01*
X97407766Y-66728588D01*
X97373427Y-66841789D01*
X97356257Y-66898390D01*
X97282178Y-67036980D01*
X97272611Y-67054879D01*
X97243288Y-67090609D01*
X97160044Y-67192044D01*
X97058609Y-67275288D01*
X97022879Y-67304611D01*
X97022877Y-67304612D01*
X96866390Y-67388257D01*
X96809789Y-67405427D01*
X96696588Y-67439766D01*
X96608362Y-67448455D01*
X96564250Y-67452800D01*
X96475750Y-67452800D01*
X96431638Y-67448455D01*
X96343412Y-67439766D01*
X96230211Y-67405427D01*
X96173610Y-67388257D01*
X96017123Y-67304612D01*
X96017121Y-67304611D01*
X95981391Y-67275288D01*
X95879956Y-67192044D01*
X95796712Y-67090609D01*
X95767389Y-67054879D01*
X95757822Y-67036980D01*
X95683743Y-66898390D01*
X95666573Y-66841789D01*
X95632234Y-66728588D01*
X95614842Y-66552000D01*
X95632234Y-66375412D01*
X95683743Y-66205611D01*
X95683743Y-66205610D01*
X95767388Y-66049123D01*
X95767389Y-66049121D01*
X95815252Y-65990800D01*
X95879956Y-65911956D01*
X95981391Y-65828712D01*
X96017121Y-65799389D01*
X96035020Y-65789822D01*
X96173610Y-65715743D01*
X96230211Y-65698573D01*
X96343412Y-65664234D01*
X96431638Y-65655545D01*
X96475750Y-65651200D01*
X96564250Y-65651200D01*
X96608362Y-65655545D01*
X96608362Y-65655545D01*
G37*
G36*
X48348362Y-64635545D02*
X48436588Y-64644234D01*
X48549789Y-64678573D01*
X48606390Y-64695743D01*
X48735231Y-64764611D01*
X48762879Y-64779389D01*
X48798609Y-64808712D01*
X48900044Y-64891956D01*
X48983288Y-64993391D01*
X49012611Y-65029121D01*
X49012612Y-65029123D01*
X49096257Y-65185610D01*
X49096257Y-65185611D01*
X49147766Y-65355412D01*
X49165158Y-65532000D01*
X49147766Y-65708588D01*
X49113427Y-65821789D01*
X49096257Y-65878390D01*
X49059477Y-65947200D01*
X49012611Y-66034879D01*
X49000921Y-66049123D01*
X48900044Y-66172044D01*
X48798609Y-66255288D01*
X48762879Y-66284611D01*
X48762877Y-66284612D01*
X48606390Y-66368257D01*
X48582796Y-66375414D01*
X48436588Y-66419766D01*
X48348362Y-66428455D01*
X48304250Y-66432800D01*
X48215750Y-66432800D01*
X48171638Y-66428455D01*
X48083412Y-66419766D01*
X47937204Y-66375414D01*
X47913610Y-66368257D01*
X47757123Y-66284612D01*
X47757121Y-66284611D01*
X47721391Y-66255288D01*
X47619956Y-66172044D01*
X47519079Y-66049123D01*
X47507389Y-66034879D01*
X47460523Y-65947200D01*
X47423743Y-65878390D01*
X47406573Y-65821789D01*
X47372234Y-65708588D01*
X47354842Y-65532000D01*
X47372234Y-65355412D01*
X47423743Y-65185611D01*
X47423743Y-65185610D01*
X47507388Y-65029123D01*
X47507389Y-65029121D01*
X47536712Y-64993391D01*
X47619956Y-64891956D01*
X47721391Y-64808712D01*
X47757121Y-64779389D01*
X47784769Y-64764611D01*
X47913610Y-64695743D01*
X47970211Y-64678573D01*
X48083412Y-64644234D01*
X48171638Y-64635545D01*
X48215750Y-64631200D01*
X48304250Y-64631200D01*
X48348362Y-64635545D01*
X48348362Y-64635545D01*
G37*
G36*
X96608362Y-63115545D02*
X96696588Y-63124234D01*
X96809789Y-63158573D01*
X96866390Y-63175743D01*
X97004980Y-63249822D01*
X97022879Y-63259389D01*
X97058609Y-63288712D01*
X97160044Y-63371956D01*
X97243288Y-63473391D01*
X97272611Y-63509121D01*
X97272612Y-63509123D01*
X97356257Y-63665610D01*
X97356257Y-63665611D01*
X97407766Y-63835412D01*
X97425158Y-64012000D01*
X97407766Y-64188588D01*
X97373427Y-64301789D01*
X97356257Y-64358390D01*
X97282178Y-64496980D01*
X97272611Y-64514879D01*
X97244773Y-64548800D01*
X97160044Y-64652044D01*
X97058609Y-64735288D01*
X97022879Y-64764611D01*
X97022877Y-64764612D01*
X96866390Y-64848257D01*
X96809789Y-64865427D01*
X96696588Y-64899766D01*
X96608362Y-64908455D01*
X96564250Y-64912800D01*
X96475750Y-64912800D01*
X96431638Y-64908455D01*
X96343412Y-64899766D01*
X96230211Y-64865427D01*
X96173610Y-64848257D01*
X96017123Y-64764612D01*
X96017121Y-64764611D01*
X95981391Y-64735288D01*
X95879956Y-64652044D01*
X95795227Y-64548800D01*
X95767389Y-64514879D01*
X95757822Y-64496980D01*
X95683743Y-64358390D01*
X95666573Y-64301789D01*
X95632234Y-64188588D01*
X95614842Y-64012000D01*
X95632234Y-63835412D01*
X95683743Y-63665611D01*
X95683743Y-63665610D01*
X95767388Y-63509123D01*
X95767389Y-63509121D01*
X95796712Y-63473391D01*
X95879956Y-63371956D01*
X95981391Y-63288712D01*
X96017121Y-63259389D01*
X96035020Y-63249822D01*
X96173610Y-63175743D01*
X96230211Y-63158573D01*
X96343412Y-63124234D01*
X96431638Y-63115545D01*
X96475750Y-63111200D01*
X96564250Y-63111200D01*
X96608362Y-63115545D01*
X96608362Y-63115545D01*
G37*
G36*
X49160800Y-63892800D02*
X47359200Y-63892800D01*
X47359200Y-62091200D01*
X49160800Y-62091200D01*
X49160800Y-63892800D01*
X49160800Y-63892800D01*
G37*
G36*
X96608362Y-60575545D02*
X96696588Y-60584234D01*
X96809789Y-60618573D01*
X96866390Y-60635743D01*
X97004980Y-60709822D01*
X97022879Y-60719389D01*
X97058609Y-60748712D01*
X97160044Y-60831956D01*
X97243288Y-60933391D01*
X97272611Y-60969121D01*
X97272612Y-60969123D01*
X97356257Y-61125610D01*
X97356257Y-61125611D01*
X97407766Y-61295412D01*
X97425158Y-61472000D01*
X97407766Y-61648588D01*
X97373427Y-61761789D01*
X97356257Y-61818390D01*
X97282178Y-61956980D01*
X97272611Y-61974879D01*
X97243288Y-62010609D01*
X97160044Y-62112044D01*
X97058609Y-62195288D01*
X97022879Y-62224611D01*
X97022877Y-62224612D01*
X96866390Y-62308257D01*
X96809789Y-62325427D01*
X96696588Y-62359766D01*
X96608362Y-62368455D01*
X96564250Y-62372800D01*
X96475750Y-62372800D01*
X96431638Y-62368455D01*
X96343412Y-62359766D01*
X96230211Y-62325427D01*
X96173610Y-62308257D01*
X96017123Y-62224612D01*
X96017121Y-62224611D01*
X95981391Y-62195288D01*
X95879956Y-62112044D01*
X95796712Y-62010609D01*
X95767389Y-61974879D01*
X95757822Y-61956980D01*
X95683743Y-61818390D01*
X95666573Y-61761789D01*
X95632234Y-61648588D01*
X95614842Y-61472000D01*
X95632234Y-61295412D01*
X95683743Y-61125611D01*
X95683743Y-61125610D01*
X95767388Y-60969123D01*
X95767389Y-60969121D01*
X95796712Y-60933391D01*
X95879956Y-60831956D01*
X95981391Y-60748712D01*
X96017121Y-60719389D01*
X96035020Y-60709822D01*
X96173610Y-60635743D01*
X96230211Y-60618573D01*
X96343412Y-60584234D01*
X96431638Y-60575545D01*
X96475750Y-60571200D01*
X96564250Y-60571200D01*
X96608362Y-60575545D01*
X96608362Y-60575545D01*
G37*
G36*
X63026800Y-60228800D02*
X60925200Y-60228800D01*
X60925200Y-57627200D01*
X63026800Y-57627200D01*
X63026800Y-60228800D01*
X63026800Y-60228800D01*
G37*
G36*
X91950800Y-60228800D02*
X89849200Y-60228800D01*
X89849200Y-57627200D01*
X91950800Y-57627200D01*
X91950800Y-60228800D01*
X91950800Y-60228800D01*
G37*
G36*
X87950800Y-60228800D02*
X85849200Y-60228800D01*
X85849200Y-57627200D01*
X87950800Y-57627200D01*
X87950800Y-60228800D01*
X87950800Y-60228800D01*
G37*
G36*
X59026800Y-60228800D02*
X56925200Y-60228800D01*
X56925200Y-57627200D01*
X59026800Y-57627200D01*
X59026800Y-60228800D01*
X59026800Y-60228800D01*
G37*
G36*
X76896799Y-60212799D02*
X74795199Y-60212799D01*
X74795199Y-57611199D01*
X76896799Y-57611199D01*
X76896799Y-60212799D01*
X76896799Y-60212799D01*
G37*
G36*
X72896799Y-60212799D02*
X70795199Y-60212799D01*
X70795199Y-57611199D01*
X72896799Y-57611199D01*
X72896799Y-60212799D01*
X72896799Y-60212799D01*
G37*
G36*
X96608362Y-58035545D02*
X96696588Y-58044234D01*
X96809789Y-58078573D01*
X96866390Y-58095743D01*
X97004980Y-58169822D01*
X97022879Y-58179389D01*
X97058609Y-58208712D01*
X97160044Y-58291956D01*
X97243288Y-58393391D01*
X97272611Y-58429121D01*
X97272612Y-58429123D01*
X97356257Y-58585610D01*
X97356257Y-58585611D01*
X97407766Y-58755412D01*
X97425158Y-58932000D01*
X97407766Y-59108588D01*
X97373427Y-59221789D01*
X97356257Y-59278390D01*
X97282178Y-59416980D01*
X97272611Y-59434879D01*
X97243288Y-59470609D01*
X97160044Y-59572044D01*
X97058609Y-59655288D01*
X97022879Y-59684611D01*
X97022877Y-59684612D01*
X96866390Y-59768257D01*
X96809789Y-59785427D01*
X96696588Y-59819766D01*
X96608362Y-59828455D01*
X96564250Y-59832800D01*
X96475750Y-59832800D01*
X96431638Y-59828455D01*
X96343412Y-59819766D01*
X96230211Y-59785427D01*
X96173610Y-59768257D01*
X96017123Y-59684612D01*
X96017121Y-59684611D01*
X95981391Y-59655288D01*
X95879956Y-59572044D01*
X95796712Y-59470609D01*
X95767389Y-59434879D01*
X95757822Y-59416980D01*
X95683743Y-59278390D01*
X95666573Y-59221789D01*
X95632234Y-59108588D01*
X95614842Y-58932000D01*
X95632234Y-58755412D01*
X95683743Y-58585611D01*
X95683743Y-58585610D01*
X95767388Y-58429123D01*
X95767389Y-58429121D01*
X95796712Y-58393391D01*
X95879956Y-58291956D01*
X95981391Y-58208712D01*
X96017121Y-58179389D01*
X96035020Y-58169822D01*
X96173610Y-58095743D01*
X96230211Y-58078573D01*
X96343412Y-58044234D01*
X96431638Y-58035545D01*
X96475750Y-58031200D01*
X96564250Y-58031200D01*
X96608362Y-58035545D01*
X96608362Y-58035545D01*
G37*
G36*
X51592800Y-57512801D02*
X48991200Y-57512801D01*
X48991200Y-54211201D01*
X51592800Y-54211201D01*
X51592800Y-57512801D01*
X51592800Y-57512801D01*
G37*
G36*
X96608362Y-55495545D02*
X96696588Y-55504234D01*
X96809789Y-55538573D01*
X96866390Y-55555743D01*
X97004980Y-55629822D01*
X97022879Y-55639389D01*
X97044094Y-55656800D01*
X97160044Y-55751956D01*
X97243288Y-55853391D01*
X97272611Y-55889121D01*
X97272612Y-55889123D01*
X97356257Y-56045610D01*
X97356257Y-56045611D01*
X97407766Y-56215412D01*
X97425158Y-56392000D01*
X97407766Y-56568588D01*
X97373427Y-56681789D01*
X97356257Y-56738390D01*
X97282178Y-56876980D01*
X97272611Y-56894879D01*
X97243288Y-56930609D01*
X97160044Y-57032044D01*
X97058609Y-57115288D01*
X97022879Y-57144611D01*
X97022877Y-57144612D01*
X96866390Y-57228257D01*
X96809789Y-57245427D01*
X96696588Y-57279766D01*
X96608362Y-57288455D01*
X96564250Y-57292800D01*
X96475750Y-57292800D01*
X96431638Y-57288455D01*
X96343412Y-57279766D01*
X96230211Y-57245427D01*
X96173610Y-57228257D01*
X96017123Y-57144612D01*
X96017121Y-57144611D01*
X95981391Y-57115288D01*
X95879956Y-57032044D01*
X95796712Y-56930609D01*
X95767389Y-56894879D01*
X95757822Y-56876980D01*
X95683743Y-56738390D01*
X95666573Y-56681789D01*
X95632234Y-56568588D01*
X95614842Y-56392000D01*
X95632234Y-56215412D01*
X95683743Y-56045611D01*
X95683743Y-56045610D01*
X95767388Y-55889123D01*
X95767389Y-55889121D01*
X95796712Y-55853391D01*
X95879956Y-55751956D01*
X95995906Y-55656800D01*
X96017121Y-55639389D01*
X96035020Y-55629822D01*
X96173610Y-55555743D01*
X96230211Y-55538573D01*
X96343412Y-55504234D01*
X96431638Y-55495545D01*
X96475750Y-55491200D01*
X96564250Y-55491200D01*
X96608362Y-55495545D01*
X96608362Y-55495545D01*
G37*
G36*
X91950800Y-55656800D02*
X89849200Y-55656800D01*
X89849200Y-53055200D01*
X91950800Y-53055200D01*
X91950800Y-55656800D01*
X91950800Y-55656800D01*
G37*
G36*
X87950800Y-55656800D02*
X85849200Y-55656800D01*
X85849200Y-53055200D01*
X87950800Y-53055200D01*
X87950800Y-55656800D01*
X87950800Y-55656800D01*
G37*
G36*
X63026800Y-55656800D02*
X60925200Y-55656800D01*
X60925200Y-53055200D01*
X63026800Y-53055200D01*
X63026800Y-55656800D01*
X63026800Y-55656800D01*
G37*
G36*
X59026800Y-55656800D02*
X56925200Y-55656800D01*
X56925200Y-53055200D01*
X59026800Y-53055200D01*
X59026800Y-55656800D01*
X59026800Y-55656800D01*
G37*
G36*
X72896799Y-55656800D02*
X70795199Y-55656800D01*
X70795199Y-53055200D01*
X72896799Y-53055200D01*
X72896799Y-55656800D01*
X72896799Y-55656800D01*
G37*
G36*
X76896799Y-55656800D02*
X74795199Y-55656800D01*
X74795199Y-53055200D01*
X76896799Y-53055200D01*
X76896799Y-55656800D01*
X76896799Y-55656800D01*
G37*
G36*
X97420800Y-54752800D02*
X95619200Y-54752800D01*
X95619200Y-52951200D01*
X97420800Y-52951200D01*
X97420800Y-54752800D01*
X97420800Y-54752800D01*
G37*
G36*
X51592800Y-53212801D02*
X48991200Y-53212801D01*
X48991200Y-49911201D01*
X51592800Y-49911201D01*
X51592800Y-53212801D01*
X51592800Y-53212801D01*
G37*
G36*
X51592800Y-47606801D02*
X48991200Y-47606801D01*
X48991200Y-44305201D01*
X51592800Y-44305201D01*
X51592800Y-47606801D01*
X51592800Y-47606801D01*
G37*
G36*
X94499800Y-45817800D02*
X92698200Y-45817800D01*
X92698200Y-43716200D01*
X94499800Y-43716200D01*
X94499800Y-45817800D01*
X94499800Y-45817800D01*
G37*
G36*
X90435800Y-45817800D02*
X88634200Y-45817800D01*
X88634200Y-43716200D01*
X90435800Y-43716200D01*
X90435800Y-45817800D01*
X90435800Y-45817800D01*
G37*
G36*
X73036800Y-45627800D02*
X71235200Y-45627800D01*
X71235200Y-43526200D01*
X73036800Y-43526200D01*
X73036800Y-45627800D01*
X73036800Y-45627800D01*
G37*
G36*
X63130800Y-45627800D02*
X61329200Y-45627800D01*
X61329200Y-43526200D01*
X63130800Y-43526200D01*
X63130800Y-45627800D01*
X63130800Y-45627800D01*
G37*
G36*
X59193800Y-45627800D02*
X57392200Y-45627800D01*
X57392200Y-43526200D01*
X59193800Y-43526200D01*
X59193800Y-45627800D01*
X59193800Y-45627800D01*
G37*
G36*
X84339800Y-45627300D02*
X82538200Y-45627300D01*
X82538200Y-43525700D01*
X84339800Y-43525700D01*
X84339800Y-45627300D01*
X84339800Y-45627300D01*
G37*
G36*
X80275800Y-45627300D02*
X78474200Y-45627300D01*
X78474200Y-43525700D01*
X80275800Y-43525700D01*
X80275800Y-45627300D01*
X80275800Y-45627300D01*
G37*
G36*
X68972800Y-45595800D02*
X67171200Y-45595800D01*
X67171200Y-43494200D01*
X68972800Y-43494200D01*
X68972800Y-45595800D01*
X68972800Y-45595800D01*
G37*
G36*
X51592800Y-43306801D02*
X48991200Y-43306801D01*
X48991200Y-40005201D01*
X51592800Y-40005201D01*
X51592800Y-43306801D01*
X51592800Y-43306801D01*
G37*
G36*
X90435800Y-41817800D02*
X88634200Y-41817800D01*
X88634200Y-39716200D01*
X90435800Y-39716200D01*
X90435800Y-41817800D01*
X90435800Y-41817800D01*
G37*
G36*
X94499800Y-41817800D02*
X92698200Y-41817800D01*
X92698200Y-39716200D01*
X94499800Y-39716200D01*
X94499800Y-41817800D01*
X94499800Y-41817800D01*
G37*
G36*
X59193800Y-41627800D02*
X57392200Y-41627800D01*
X57392200Y-39526200D01*
X59193800Y-39526200D01*
X59193800Y-41627800D01*
X59193800Y-41627800D01*
G37*
G36*
X63130800Y-41627800D02*
X61329200Y-41627800D01*
X61329200Y-39526200D01*
X63130800Y-39526200D01*
X63130800Y-41627800D01*
X63130800Y-41627800D01*
G37*
G36*
X73036800Y-41627800D02*
X71235200Y-41627800D01*
X71235200Y-39526200D01*
X73036800Y-39526200D01*
X73036800Y-41627800D01*
X73036800Y-41627800D01*
G37*
G36*
X80275800Y-41627300D02*
X78474200Y-41627300D01*
X78474200Y-39525700D01*
X80275800Y-39525700D01*
X80275800Y-41627300D01*
X80275800Y-41627300D01*
G37*
G36*
X84339800Y-41627300D02*
X82538200Y-41627300D01*
X82538200Y-39525700D01*
X84339800Y-39525700D01*
X84339800Y-41627300D01*
X84339800Y-41627300D01*
G37*
G36*
X68972800Y-41595800D02*
X67171200Y-41595800D01*
X67171200Y-39494200D01*
X68972800Y-39494200D01*
X68972800Y-41595800D01*
X68972800Y-41595800D01*
G37*
M02*
