G04 #@! TF.GenerationSoftware,KiCad,Pcbnew,5.0.1-33cea8e~68~ubuntu18.04.1*
G04 #@! TF.CreationDate,2018-11-24T14:12:02-07:00*
G04 #@! TF.ProjectId,adc,6164632E6B696361645F706362000000,rev?*
G04 #@! TF.SameCoordinates,Original*
G04 #@! TF.FileFunction,Legend,Bot*
G04 #@! TF.FilePolarity,Positive*
%FSLAX46Y46*%
G04 Gerber Fmt 4.6, Leading zero omitted, Abs format (unit mm)*
G04 Created by KiCad (PCBNEW 5.0.1-33cea8e~68~ubuntu18.04.1) date Sat 24 Nov 2018 02:12:02 PM MST*
%MOMM*%
%LPD*%
G01*
G04 APERTURE LIST*
%ADD10C,0.300000*%
%ADD11C,0.120000*%
%ADD12C,0.150000*%
G04 APERTURE END LIST*
D10*
X96198142Y-41054571D02*
X97055285Y-41054571D01*
X96626714Y-41054571D02*
X96626714Y-39554571D01*
X96769571Y-39768857D01*
X96912428Y-39911714D01*
X97055285Y-39983142D01*
X95269571Y-39554571D02*
X95126714Y-39554571D01*
X94983857Y-39626000D01*
X94912428Y-39697428D01*
X94841000Y-39840285D01*
X94769571Y-40126000D01*
X94769571Y-40483142D01*
X94841000Y-40768857D01*
X94912428Y-40911714D01*
X94983857Y-40983142D01*
X95126714Y-41054571D01*
X95269571Y-41054571D01*
X95412428Y-40983142D01*
X95483857Y-40911714D01*
X95555285Y-40768857D01*
X95626714Y-40483142D01*
X95626714Y-40126000D01*
X95555285Y-39840285D01*
X95483857Y-39697428D01*
X95412428Y-39626000D01*
X95269571Y-39554571D01*
X94126714Y-41054571D02*
X94126714Y-39554571D01*
X93269571Y-41054571D02*
X93912428Y-40197428D01*
X93269571Y-39554571D02*
X94126714Y-40411714D01*
X91698142Y-39554571D02*
X90841000Y-39554571D01*
X91269571Y-41054571D02*
X91269571Y-39554571D01*
X90341000Y-41054571D02*
X90341000Y-39554571D01*
X89698142Y-41054571D02*
X89698142Y-40268857D01*
X89769571Y-40126000D01*
X89912428Y-40054571D01*
X90126714Y-40054571D01*
X90269571Y-40126000D01*
X90341000Y-40197428D01*
X88412428Y-40983142D02*
X88555285Y-41054571D01*
X88841000Y-41054571D01*
X88983857Y-40983142D01*
X89055285Y-40840285D01*
X89055285Y-40268857D01*
X88983857Y-40126000D01*
X88841000Y-40054571D01*
X88555285Y-40054571D01*
X88412428Y-40126000D01*
X88341000Y-40268857D01*
X88341000Y-40411714D01*
X89055285Y-40554571D01*
X87698142Y-41054571D02*
X87698142Y-40054571D01*
X87698142Y-40340285D02*
X87626714Y-40197428D01*
X87555285Y-40126000D01*
X87412428Y-40054571D01*
X87269571Y-40054571D01*
X86769571Y-41054571D02*
X86769571Y-40054571D01*
X86769571Y-40197428D02*
X86698142Y-40126000D01*
X86555285Y-40054571D01*
X86341000Y-40054571D01*
X86198142Y-40126000D01*
X86126714Y-40268857D01*
X86126714Y-41054571D01*
X86126714Y-40268857D02*
X86055285Y-40126000D01*
X85912428Y-40054571D01*
X85698142Y-40054571D01*
X85555285Y-40126000D01*
X85483857Y-40268857D01*
X85483857Y-41054571D01*
X84769571Y-41054571D02*
X84769571Y-40054571D01*
X84769571Y-39554571D02*
X84841000Y-39626000D01*
X84769571Y-39697428D01*
X84698142Y-39626000D01*
X84769571Y-39554571D01*
X84769571Y-39697428D01*
X84126714Y-40983142D02*
X83983857Y-41054571D01*
X83698142Y-41054571D01*
X83555285Y-40983142D01*
X83483857Y-40840285D01*
X83483857Y-40768857D01*
X83555285Y-40626000D01*
X83698142Y-40554571D01*
X83912428Y-40554571D01*
X84055285Y-40483142D01*
X84126714Y-40340285D01*
X84126714Y-40268857D01*
X84055285Y-40126000D01*
X83912428Y-40054571D01*
X83698142Y-40054571D01*
X83555285Y-40126000D01*
X83055285Y-40054571D02*
X82483857Y-40054571D01*
X82841000Y-39554571D02*
X82841000Y-40840285D01*
X82769571Y-40983142D01*
X82626714Y-41054571D01*
X82483857Y-41054571D01*
X81769571Y-41054571D02*
X81912428Y-40983142D01*
X81983857Y-40911714D01*
X82055285Y-40768857D01*
X82055285Y-40340285D01*
X81983857Y-40197428D01*
X81912428Y-40126000D01*
X81769571Y-40054571D01*
X81555285Y-40054571D01*
X81412428Y-40126000D01*
X81341000Y-40197428D01*
X81269571Y-40340285D01*
X81269571Y-40768857D01*
X81341000Y-40911714D01*
X81412428Y-40983142D01*
X81555285Y-41054571D01*
X81769571Y-41054571D01*
X80626714Y-41054571D02*
X80626714Y-40054571D01*
X80626714Y-40340285D02*
X80555285Y-40197428D01*
X80483857Y-40126000D01*
X80341000Y-40054571D01*
X80198142Y-40054571D01*
X78626714Y-40626000D02*
X77912428Y-40626000D01*
X78769571Y-41054571D02*
X78269571Y-39554571D01*
X77769571Y-41054571D01*
X77269571Y-41054571D02*
X77269571Y-39554571D01*
X76912428Y-39554571D01*
X76698142Y-39626000D01*
X76555285Y-39768857D01*
X76483857Y-39911714D01*
X76412428Y-40197428D01*
X76412428Y-40411714D01*
X76483857Y-40697428D01*
X76555285Y-40840285D01*
X76698142Y-40983142D01*
X76912428Y-41054571D01*
X77269571Y-41054571D01*
X74912428Y-40911714D02*
X74983857Y-40983142D01*
X75198142Y-41054571D01*
X75341000Y-41054571D01*
X75555285Y-40983142D01*
X75698142Y-40840285D01*
X75769571Y-40697428D01*
X75841000Y-40411714D01*
X75841000Y-40197428D01*
X75769571Y-39911714D01*
X75698142Y-39768857D01*
X75555285Y-39626000D01*
X75341000Y-39554571D01*
X75198142Y-39554571D01*
X74983857Y-39626000D01*
X74912428Y-39697428D01*
X72626714Y-40268857D02*
X72412428Y-40340285D01*
X72341000Y-40411714D01*
X72269571Y-40554571D01*
X72269571Y-40768857D01*
X72341000Y-40911714D01*
X72412428Y-40983142D01*
X72555285Y-41054571D01*
X73126714Y-41054571D01*
X73126714Y-39554571D01*
X72626714Y-39554571D01*
X72483857Y-39626000D01*
X72412428Y-39697428D01*
X72341000Y-39840285D01*
X72341000Y-39983142D01*
X72412428Y-40126000D01*
X72483857Y-40197428D01*
X72626714Y-40268857D01*
X73126714Y-40268857D01*
X71412428Y-41054571D02*
X71555285Y-40983142D01*
X71626714Y-40911714D01*
X71698142Y-40768857D01*
X71698142Y-40340285D01*
X71626714Y-40197428D01*
X71555285Y-40126000D01*
X71412428Y-40054571D01*
X71198142Y-40054571D01*
X71055285Y-40126000D01*
X70983857Y-40197428D01*
X70912428Y-40340285D01*
X70912428Y-40768857D01*
X70983857Y-40911714D01*
X71055285Y-40983142D01*
X71198142Y-41054571D01*
X71412428Y-41054571D01*
X69626714Y-41054571D02*
X69626714Y-40268857D01*
X69698142Y-40126000D01*
X69841000Y-40054571D01*
X70126714Y-40054571D01*
X70269571Y-40126000D01*
X69626714Y-40983142D02*
X69769571Y-41054571D01*
X70126714Y-41054571D01*
X70269571Y-40983142D01*
X70341000Y-40840285D01*
X70341000Y-40697428D01*
X70269571Y-40554571D01*
X70126714Y-40483142D01*
X69769571Y-40483142D01*
X69626714Y-40411714D01*
X68912428Y-41054571D02*
X68912428Y-40054571D01*
X68912428Y-40340285D02*
X68841000Y-40197428D01*
X68769571Y-40126000D01*
X68626714Y-40054571D01*
X68483857Y-40054571D01*
X67341000Y-41054571D02*
X67341000Y-39554571D01*
X67341000Y-40983142D02*
X67483857Y-41054571D01*
X67769571Y-41054571D01*
X67912428Y-40983142D01*
X67983857Y-40911714D01*
X68055285Y-40768857D01*
X68055285Y-40340285D01*
X67983857Y-40197428D01*
X67912428Y-40126000D01*
X67769571Y-40054571D01*
X67483857Y-40054571D01*
X67341000Y-40126000D01*
X96126714Y-43604571D02*
X96626714Y-42890285D01*
X96983857Y-43604571D02*
X96983857Y-42104571D01*
X96412428Y-42104571D01*
X96269571Y-42176000D01*
X96198142Y-42247428D01*
X96126714Y-42390285D01*
X96126714Y-42604571D01*
X96198142Y-42747428D01*
X96269571Y-42818857D01*
X96412428Y-42890285D01*
X96983857Y-42890285D01*
X94912428Y-43533142D02*
X95055285Y-43604571D01*
X95341000Y-43604571D01*
X95483857Y-43533142D01*
X95555285Y-43390285D01*
X95555285Y-42818857D01*
X95483857Y-42676000D01*
X95341000Y-42604571D01*
X95055285Y-42604571D01*
X94912428Y-42676000D01*
X94841000Y-42818857D01*
X94841000Y-42961714D01*
X95555285Y-43104571D01*
X94341000Y-42604571D02*
X93983857Y-43604571D01*
X93626714Y-42604571D01*
X91126714Y-43604571D02*
X91983857Y-43604571D01*
X91555285Y-43604571D02*
X91555285Y-42104571D01*
X91698142Y-42318857D01*
X91841000Y-42461714D01*
X91983857Y-42533142D01*
X96555285Y-44654571D02*
X96555285Y-45726000D01*
X96626714Y-45940285D01*
X96769571Y-46083142D01*
X96983857Y-46154571D01*
X97126714Y-46154571D01*
X95198142Y-46154571D02*
X95198142Y-45368857D01*
X95269571Y-45226000D01*
X95412428Y-45154571D01*
X95698142Y-45154571D01*
X95841000Y-45226000D01*
X95198142Y-46083142D02*
X95341000Y-46154571D01*
X95698142Y-46154571D01*
X95841000Y-46083142D01*
X95912428Y-45940285D01*
X95912428Y-45797428D01*
X95841000Y-45654571D01*
X95698142Y-45583142D01*
X95341000Y-45583142D01*
X95198142Y-45511714D01*
X93841000Y-46083142D02*
X93983857Y-46154571D01*
X94269571Y-46154571D01*
X94412428Y-46083142D01*
X94483857Y-46011714D01*
X94555285Y-45868857D01*
X94555285Y-45440285D01*
X94483857Y-45297428D01*
X94412428Y-45226000D01*
X94269571Y-45154571D01*
X93983857Y-45154571D01*
X93841000Y-45226000D01*
X92983857Y-46154571D02*
X93126714Y-46083142D01*
X93198142Y-46011714D01*
X93269571Y-45868857D01*
X93269571Y-45440285D01*
X93198142Y-45297428D01*
X93126714Y-45226000D01*
X92983857Y-45154571D01*
X92769571Y-45154571D01*
X92626714Y-45226000D01*
X92555285Y-45297428D01*
X92483857Y-45440285D01*
X92483857Y-45868857D01*
X92555285Y-46011714D01*
X92626714Y-46083142D01*
X92769571Y-46154571D01*
X92983857Y-46154571D01*
X91841000Y-46154571D02*
X91841000Y-44654571D01*
X91841000Y-45226000D02*
X91698142Y-45154571D01*
X91412428Y-45154571D01*
X91269571Y-45226000D01*
X91198142Y-45297428D01*
X91126714Y-45440285D01*
X91126714Y-45868857D01*
X91198142Y-46011714D01*
X91269571Y-46083142D01*
X91412428Y-46154571D01*
X91698142Y-46154571D01*
X91841000Y-46083142D01*
X89341000Y-46154571D02*
X89341000Y-44654571D01*
X88483857Y-46154571D02*
X89126714Y-45297428D01*
X88483857Y-44654571D02*
X89341000Y-45511714D01*
X87841000Y-46154571D02*
X87841000Y-45154571D01*
X87841000Y-44654571D02*
X87912428Y-44726000D01*
X87841000Y-44797428D01*
X87769571Y-44726000D01*
X87841000Y-44654571D01*
X87841000Y-44797428D01*
X86912428Y-46154571D02*
X87055285Y-46083142D01*
X87126714Y-45940285D01*
X87126714Y-44654571D01*
X86126714Y-46154571D02*
X86269571Y-46083142D01*
X86341000Y-45940285D01*
X86341000Y-44654571D01*
X84983857Y-46083142D02*
X85126714Y-46154571D01*
X85412428Y-46154571D01*
X85555285Y-46083142D01*
X85626714Y-45940285D01*
X85626714Y-45368857D01*
X85555285Y-45226000D01*
X85412428Y-45154571D01*
X85126714Y-45154571D01*
X84983857Y-45226000D01*
X84912428Y-45368857D01*
X84912428Y-45511714D01*
X85626714Y-45654571D01*
X84055285Y-46154571D02*
X84198142Y-46083142D01*
X84269571Y-45940285D01*
X84269571Y-44654571D01*
X82912428Y-46083142D02*
X83055285Y-46154571D01*
X83341000Y-46154571D01*
X83483857Y-46083142D01*
X83555285Y-45940285D01*
X83555285Y-45368857D01*
X83483857Y-45226000D01*
X83341000Y-45154571D01*
X83055285Y-45154571D01*
X82912428Y-45226000D01*
X82841000Y-45368857D01*
X82841000Y-45511714D01*
X83555285Y-45654571D01*
X81555285Y-46154571D02*
X81555285Y-45368857D01*
X81626714Y-45226000D01*
X81769571Y-45154571D01*
X82055285Y-45154571D01*
X82198142Y-45226000D01*
X81555285Y-46083142D02*
X81698142Y-46154571D01*
X82055285Y-46154571D01*
X82198142Y-46083142D01*
X82269571Y-45940285D01*
X82269571Y-45797428D01*
X82198142Y-45654571D01*
X82055285Y-45583142D01*
X81698142Y-45583142D01*
X81555285Y-45511714D01*
D11*
G04 #@! TO.C,R4*
X90963083Y-72082000D02*
X88963083Y-72082000D01*
X88963083Y-74222000D02*
X90963083Y-74222000D01*
G04 #@! TO.C,R6*
X90963083Y-75747683D02*
X88963083Y-75747683D01*
X88963083Y-77887683D02*
X90963083Y-77887683D01*
G04 #@! TO.C,R7*
X88963083Y-81570683D02*
X90963083Y-81570683D01*
X90963083Y-79430683D02*
X88963083Y-79430683D01*
G04 #@! TO.C,R8*
X90963083Y-83113683D02*
X88963083Y-83113683D01*
X88963083Y-85253683D02*
X90963083Y-85253683D01*
G04 #@! TO.C,R9*
X88836083Y-89063681D02*
X90836083Y-89063681D01*
X90836083Y-86923681D02*
X88836083Y-86923681D01*
G04 #@! TO.C,R10*
X88772083Y-92619682D02*
X90772083Y-92619682D01*
X90772083Y-90479682D02*
X88772083Y-90479682D01*
G04 #@! TO.C,R11*
X90836082Y-94035681D02*
X88836082Y-94035681D01*
X88836082Y-96175681D02*
X90836082Y-96175681D01*
G04 #@! TO.C,R12*
X88963083Y-99731682D02*
X90963083Y-99731682D01*
X90963083Y-97591682D02*
X88963083Y-97591682D01*
G04 #@! TO.C,R14*
X60468000Y-76948957D02*
X62468000Y-76948957D01*
X62468000Y-74808957D02*
X60468000Y-74808957D01*
G04 #@! TO.C,R16*
X62468000Y-78432000D02*
X60468000Y-78432000D01*
X60468000Y-80572000D02*
X62468000Y-80572000D01*
G04 #@! TO.C,R17*
X60468000Y-84060957D02*
X62468000Y-84060957D01*
X62468000Y-81920957D02*
X60468000Y-81920957D01*
G04 #@! TO.C,R18*
X62363624Y-85476957D02*
X60363624Y-85476957D01*
X60363624Y-87616957D02*
X62363624Y-87616957D01*
G04 #@! TO.C,R19*
X62363625Y-89032957D02*
X60363625Y-89032957D01*
X60363625Y-91172957D02*
X62363625Y-91172957D01*
G04 #@! TO.C,R21*
X74455263Y-76595618D02*
X76455263Y-76595618D01*
X76455263Y-74455618D02*
X74455263Y-74455618D01*
G04 #@! TO.C,R22*
X62363126Y-92588957D02*
X60363126Y-92588957D01*
X60363126Y-94728957D02*
X62363126Y-94728957D01*
G04 #@! TO.C,R24*
X74455264Y-80224189D02*
X76455264Y-80224189D01*
X76455264Y-78084189D02*
X74455264Y-78084189D01*
G04 #@! TO.C,R25*
X62363624Y-96144957D02*
X60363624Y-96144957D01*
X60363624Y-98284957D02*
X62363624Y-98284957D01*
G04 #@! TO.C,R26*
X74455263Y-83852760D02*
X76455263Y-83852760D01*
X76455263Y-81712760D02*
X74455263Y-81712760D01*
G04 #@! TO.C,R27*
X60246000Y-102162000D02*
X62246000Y-102162000D01*
X62246000Y-100022000D02*
X60246000Y-100022000D01*
G04 #@! TO.C,R28*
X76470000Y-85341331D02*
X74470000Y-85341331D01*
X74470000Y-87481331D02*
X76470000Y-87481331D01*
G04 #@! TO.C,R29*
X74438000Y-91109902D02*
X76438000Y-91109902D01*
X76438000Y-88969902D02*
X74438000Y-88969902D01*
G04 #@! TO.C,R30*
X76455263Y-92598473D02*
X74455263Y-92598473D01*
X74455263Y-94738473D02*
X76455263Y-94738473D01*
G04 #@! TO.C,R31*
X74519264Y-98367044D02*
X76519264Y-98367044D01*
X76519264Y-96227044D02*
X74519264Y-96227044D01*
G04 #@! TO.C,R32*
X76470000Y-99855618D02*
X74470000Y-99855618D01*
X74470000Y-101995618D02*
X76470000Y-101995618D01*
G04 #@! TO.C,R4*
D12*
X90129749Y-71754380D02*
X90463083Y-71278190D01*
X90701178Y-71754380D02*
X90701178Y-70754380D01*
X90320225Y-70754380D01*
X90224987Y-70802000D01*
X90177368Y-70849619D01*
X90129749Y-70944857D01*
X90129749Y-71087714D01*
X90177368Y-71182952D01*
X90224987Y-71230571D01*
X90320225Y-71278190D01*
X90701178Y-71278190D01*
X89272606Y-71087714D02*
X89272606Y-71754380D01*
X89510702Y-70706761D02*
X89748797Y-71421047D01*
X89129749Y-71421047D01*
G04 #@! TO.C,R6*
X90129749Y-75420063D02*
X90463083Y-74943873D01*
X90701178Y-75420063D02*
X90701178Y-74420063D01*
X90320225Y-74420063D01*
X90224987Y-74467683D01*
X90177368Y-74515302D01*
X90129749Y-74610540D01*
X90129749Y-74753397D01*
X90177368Y-74848635D01*
X90224987Y-74896254D01*
X90320225Y-74943873D01*
X90701178Y-74943873D01*
X89272606Y-74420063D02*
X89463083Y-74420063D01*
X89558321Y-74467683D01*
X89605940Y-74515302D01*
X89701178Y-74658159D01*
X89748797Y-74848635D01*
X89748797Y-75229587D01*
X89701178Y-75324825D01*
X89653559Y-75372444D01*
X89558321Y-75420063D01*
X89367844Y-75420063D01*
X89272606Y-75372444D01*
X89224987Y-75324825D01*
X89177368Y-75229587D01*
X89177368Y-74991492D01*
X89224987Y-74896254D01*
X89272606Y-74848635D01*
X89367844Y-74801016D01*
X89558321Y-74801016D01*
X89653559Y-74848635D01*
X89701178Y-74896254D01*
X89748797Y-74991492D01*
G04 #@! TO.C,R7*
X90129749Y-79103063D02*
X90463083Y-78626873D01*
X90701178Y-79103063D02*
X90701178Y-78103063D01*
X90320225Y-78103063D01*
X90224987Y-78150683D01*
X90177368Y-78198302D01*
X90129749Y-78293540D01*
X90129749Y-78436397D01*
X90177368Y-78531635D01*
X90224987Y-78579254D01*
X90320225Y-78626873D01*
X90701178Y-78626873D01*
X89796416Y-78103063D02*
X89129749Y-78103063D01*
X89558321Y-79103063D01*
G04 #@! TO.C,R8*
X90129749Y-82786063D02*
X90463083Y-82309873D01*
X90701178Y-82786063D02*
X90701178Y-81786063D01*
X90320225Y-81786063D01*
X90224987Y-81833683D01*
X90177368Y-81881302D01*
X90129749Y-81976540D01*
X90129749Y-82119397D01*
X90177368Y-82214635D01*
X90224987Y-82262254D01*
X90320225Y-82309873D01*
X90701178Y-82309873D01*
X89558321Y-82214635D02*
X89653559Y-82167016D01*
X89701178Y-82119397D01*
X89748797Y-82024159D01*
X89748797Y-81976540D01*
X89701178Y-81881302D01*
X89653559Y-81833683D01*
X89558321Y-81786063D01*
X89367844Y-81786063D01*
X89272606Y-81833683D01*
X89224987Y-81881302D01*
X89177368Y-81976540D01*
X89177368Y-82024159D01*
X89224987Y-82119397D01*
X89272606Y-82167016D01*
X89367844Y-82214635D01*
X89558321Y-82214635D01*
X89653559Y-82262254D01*
X89701178Y-82309873D01*
X89748797Y-82405111D01*
X89748797Y-82595587D01*
X89701178Y-82690825D01*
X89653559Y-82738444D01*
X89558321Y-82786063D01*
X89367844Y-82786063D01*
X89272606Y-82738444D01*
X89224987Y-82690825D01*
X89177368Y-82595587D01*
X89177368Y-82405111D01*
X89224987Y-82309873D01*
X89272606Y-82262254D01*
X89367844Y-82214635D01*
G04 #@! TO.C,R9*
X90002749Y-86596061D02*
X90336083Y-86119871D01*
X90574178Y-86596061D02*
X90574178Y-85596061D01*
X90193225Y-85596061D01*
X90097987Y-85643681D01*
X90050368Y-85691300D01*
X90002749Y-85786538D01*
X90002749Y-85929395D01*
X90050368Y-86024633D01*
X90097987Y-86072252D01*
X90193225Y-86119871D01*
X90574178Y-86119871D01*
X89526559Y-86596061D02*
X89336083Y-86596061D01*
X89240844Y-86548442D01*
X89193225Y-86500823D01*
X89097987Y-86357966D01*
X89050368Y-86167490D01*
X89050368Y-85786538D01*
X89097987Y-85691300D01*
X89145606Y-85643681D01*
X89240844Y-85596061D01*
X89431321Y-85596061D01*
X89526559Y-85643681D01*
X89574178Y-85691300D01*
X89621797Y-85786538D01*
X89621797Y-86024633D01*
X89574178Y-86119871D01*
X89526559Y-86167490D01*
X89431321Y-86215109D01*
X89240844Y-86215109D01*
X89145606Y-86167490D01*
X89097987Y-86119871D01*
X89050368Y-86024633D01*
G04 #@! TO.C,R10*
X90414940Y-90152062D02*
X90748273Y-89675872D01*
X90986368Y-90152062D02*
X90986368Y-89152062D01*
X90605416Y-89152062D01*
X90510178Y-89199682D01*
X90462559Y-89247301D01*
X90414940Y-89342539D01*
X90414940Y-89485396D01*
X90462559Y-89580634D01*
X90510178Y-89628253D01*
X90605416Y-89675872D01*
X90986368Y-89675872D01*
X89462559Y-90152062D02*
X90033987Y-90152062D01*
X89748273Y-90152062D02*
X89748273Y-89152062D01*
X89843511Y-89294920D01*
X89938749Y-89390158D01*
X90033987Y-89437777D01*
X88843511Y-89152062D02*
X88748273Y-89152062D01*
X88653035Y-89199682D01*
X88605416Y-89247301D01*
X88557797Y-89342539D01*
X88510178Y-89533015D01*
X88510178Y-89771110D01*
X88557797Y-89961586D01*
X88605416Y-90056824D01*
X88653035Y-90104443D01*
X88748273Y-90152062D01*
X88843511Y-90152062D01*
X88938749Y-90104443D01*
X88986368Y-90056824D01*
X89033987Y-89961586D01*
X89081606Y-89771110D01*
X89081606Y-89533015D01*
X89033987Y-89342539D01*
X88986368Y-89247301D01*
X88938749Y-89199682D01*
X88843511Y-89152062D01*
G04 #@! TO.C,R11*
X90478939Y-93708061D02*
X90812272Y-93231871D01*
X91050367Y-93708061D02*
X91050367Y-92708061D01*
X90669415Y-92708061D01*
X90574177Y-92755681D01*
X90526558Y-92803300D01*
X90478939Y-92898538D01*
X90478939Y-93041395D01*
X90526558Y-93136633D01*
X90574177Y-93184252D01*
X90669415Y-93231871D01*
X91050367Y-93231871D01*
X89526558Y-93708061D02*
X90097986Y-93708061D01*
X89812272Y-93708061D02*
X89812272Y-92708061D01*
X89907510Y-92850919D01*
X90002748Y-92946157D01*
X90097986Y-92993776D01*
X88574177Y-93708061D02*
X89145605Y-93708061D01*
X88859891Y-93708061D02*
X88859891Y-92708061D01*
X88955129Y-92850919D01*
X89050367Y-92946157D01*
X89145605Y-92993776D01*
G04 #@! TO.C,R12*
X90605940Y-97264062D02*
X90939273Y-96787872D01*
X91177368Y-97264062D02*
X91177368Y-96264062D01*
X90796416Y-96264062D01*
X90701178Y-96311682D01*
X90653559Y-96359301D01*
X90605940Y-96454539D01*
X90605940Y-96597396D01*
X90653559Y-96692634D01*
X90701178Y-96740253D01*
X90796416Y-96787872D01*
X91177368Y-96787872D01*
X89653559Y-97264062D02*
X90224987Y-97264062D01*
X89939273Y-97264062D02*
X89939273Y-96264062D01*
X90034511Y-96406920D01*
X90129749Y-96502158D01*
X90224987Y-96549777D01*
X89272606Y-96359301D02*
X89224987Y-96311682D01*
X89129749Y-96264062D01*
X88891654Y-96264062D01*
X88796416Y-96311682D01*
X88748797Y-96359301D01*
X88701178Y-96454539D01*
X88701178Y-96549777D01*
X88748797Y-96692634D01*
X89320225Y-97264062D01*
X88701178Y-97264062D01*
G04 #@! TO.C,R14*
X62110857Y-74481337D02*
X62444190Y-74005147D01*
X62682285Y-74481337D02*
X62682285Y-73481337D01*
X62301333Y-73481337D01*
X62206095Y-73528957D01*
X62158476Y-73576576D01*
X62110857Y-73671814D01*
X62110857Y-73814671D01*
X62158476Y-73909909D01*
X62206095Y-73957528D01*
X62301333Y-74005147D01*
X62682285Y-74005147D01*
X61158476Y-74481337D02*
X61729904Y-74481337D01*
X61444190Y-74481337D02*
X61444190Y-73481337D01*
X61539428Y-73624195D01*
X61634666Y-73719433D01*
X61729904Y-73767052D01*
X60301333Y-73814671D02*
X60301333Y-74481337D01*
X60539428Y-73433718D02*
X60777523Y-74148004D01*
X60158476Y-74148004D01*
G04 #@! TO.C,R16*
X62110857Y-78104380D02*
X62444190Y-77628190D01*
X62682285Y-78104380D02*
X62682285Y-77104380D01*
X62301333Y-77104380D01*
X62206095Y-77152000D01*
X62158476Y-77199619D01*
X62110857Y-77294857D01*
X62110857Y-77437714D01*
X62158476Y-77532952D01*
X62206095Y-77580571D01*
X62301333Y-77628190D01*
X62682285Y-77628190D01*
X61158476Y-78104380D02*
X61729904Y-78104380D01*
X61444190Y-78104380D02*
X61444190Y-77104380D01*
X61539428Y-77247238D01*
X61634666Y-77342476D01*
X61729904Y-77390095D01*
X60301333Y-77104380D02*
X60491809Y-77104380D01*
X60587047Y-77152000D01*
X60634666Y-77199619D01*
X60729904Y-77342476D01*
X60777523Y-77532952D01*
X60777523Y-77913904D01*
X60729904Y-78009142D01*
X60682285Y-78056761D01*
X60587047Y-78104380D01*
X60396571Y-78104380D01*
X60301333Y-78056761D01*
X60253714Y-78009142D01*
X60206095Y-77913904D01*
X60206095Y-77675809D01*
X60253714Y-77580571D01*
X60301333Y-77532952D01*
X60396571Y-77485333D01*
X60587047Y-77485333D01*
X60682285Y-77532952D01*
X60729904Y-77580571D01*
X60777523Y-77675809D01*
G04 #@! TO.C,R17*
X62110857Y-81593337D02*
X62444190Y-81117147D01*
X62682285Y-81593337D02*
X62682285Y-80593337D01*
X62301333Y-80593337D01*
X62206095Y-80640957D01*
X62158476Y-80688576D01*
X62110857Y-80783814D01*
X62110857Y-80926671D01*
X62158476Y-81021909D01*
X62206095Y-81069528D01*
X62301333Y-81117147D01*
X62682285Y-81117147D01*
X61158476Y-81593337D02*
X61729904Y-81593337D01*
X61444190Y-81593337D02*
X61444190Y-80593337D01*
X61539428Y-80736195D01*
X61634666Y-80831433D01*
X61729904Y-80879052D01*
X60825142Y-80593337D02*
X60158476Y-80593337D01*
X60587047Y-81593337D01*
G04 #@! TO.C,R18*
X62006481Y-85149337D02*
X62339814Y-84673147D01*
X62577909Y-85149337D02*
X62577909Y-84149337D01*
X62196957Y-84149337D01*
X62101719Y-84196957D01*
X62054100Y-84244576D01*
X62006481Y-84339814D01*
X62006481Y-84482671D01*
X62054100Y-84577909D01*
X62101719Y-84625528D01*
X62196957Y-84673147D01*
X62577909Y-84673147D01*
X61054100Y-85149337D02*
X61625528Y-85149337D01*
X61339814Y-85149337D02*
X61339814Y-84149337D01*
X61435052Y-84292195D01*
X61530290Y-84387433D01*
X61625528Y-84435052D01*
X60482671Y-84577909D02*
X60577909Y-84530290D01*
X60625528Y-84482671D01*
X60673147Y-84387433D01*
X60673147Y-84339814D01*
X60625528Y-84244576D01*
X60577909Y-84196957D01*
X60482671Y-84149337D01*
X60292195Y-84149337D01*
X60196957Y-84196957D01*
X60149338Y-84244576D01*
X60101719Y-84339814D01*
X60101719Y-84387433D01*
X60149338Y-84482671D01*
X60196957Y-84530290D01*
X60292195Y-84577909D01*
X60482671Y-84577909D01*
X60577909Y-84625528D01*
X60625528Y-84673147D01*
X60673147Y-84768385D01*
X60673147Y-84958861D01*
X60625528Y-85054099D01*
X60577909Y-85101718D01*
X60482671Y-85149337D01*
X60292195Y-85149337D01*
X60196957Y-85101718D01*
X60149338Y-85054099D01*
X60101719Y-84958861D01*
X60101719Y-84768385D01*
X60149338Y-84673147D01*
X60196957Y-84625528D01*
X60292195Y-84577909D01*
G04 #@! TO.C,R19*
X62006482Y-88705337D02*
X62339815Y-88229147D01*
X62577910Y-88705337D02*
X62577910Y-87705337D01*
X62196958Y-87705337D01*
X62101720Y-87752957D01*
X62054101Y-87800576D01*
X62006482Y-87895814D01*
X62006482Y-88038671D01*
X62054101Y-88133909D01*
X62101720Y-88181528D01*
X62196958Y-88229147D01*
X62577910Y-88229147D01*
X61054101Y-88705337D02*
X61625529Y-88705337D01*
X61339815Y-88705337D02*
X61339815Y-87705337D01*
X61435053Y-87848195D01*
X61530291Y-87943433D01*
X61625529Y-87991052D01*
X60577910Y-88705337D02*
X60387434Y-88705337D01*
X60292196Y-88657718D01*
X60244577Y-88610099D01*
X60149339Y-88467242D01*
X60101720Y-88276766D01*
X60101720Y-87895814D01*
X60149339Y-87800576D01*
X60196958Y-87752957D01*
X60292196Y-87705337D01*
X60482672Y-87705337D01*
X60577910Y-87752957D01*
X60625529Y-87800576D01*
X60673148Y-87895814D01*
X60673148Y-88133909D01*
X60625529Y-88229147D01*
X60577910Y-88276766D01*
X60482672Y-88324385D01*
X60292196Y-88324385D01*
X60196958Y-88276766D01*
X60149339Y-88229147D01*
X60101720Y-88133909D01*
G04 #@! TO.C,R21*
X76098120Y-74127998D02*
X76431453Y-73651808D01*
X76669548Y-74127998D02*
X76669548Y-73127998D01*
X76288596Y-73127998D01*
X76193358Y-73175618D01*
X76145739Y-73223237D01*
X76098120Y-73318475D01*
X76098120Y-73461332D01*
X76145739Y-73556570D01*
X76193358Y-73604189D01*
X76288596Y-73651808D01*
X76669548Y-73651808D01*
X75717167Y-73223237D02*
X75669548Y-73175618D01*
X75574310Y-73127998D01*
X75336215Y-73127998D01*
X75240977Y-73175618D01*
X75193358Y-73223237D01*
X75145739Y-73318475D01*
X75145739Y-73413713D01*
X75193358Y-73556570D01*
X75764786Y-74127998D01*
X75145739Y-74127998D01*
X74193358Y-74127998D02*
X74764786Y-74127998D01*
X74479072Y-74127998D02*
X74479072Y-73127998D01*
X74574310Y-73270856D01*
X74669548Y-73366094D01*
X74764786Y-73413713D01*
G04 #@! TO.C,R22*
X62005983Y-92261337D02*
X62339316Y-91785147D01*
X62577411Y-92261337D02*
X62577411Y-91261337D01*
X62196459Y-91261337D01*
X62101221Y-91308957D01*
X62053602Y-91356576D01*
X62005983Y-91451814D01*
X62005983Y-91594671D01*
X62053602Y-91689909D01*
X62101221Y-91737528D01*
X62196459Y-91785147D01*
X62577411Y-91785147D01*
X61625030Y-91356576D02*
X61577411Y-91308957D01*
X61482173Y-91261337D01*
X61244078Y-91261337D01*
X61148840Y-91308957D01*
X61101221Y-91356576D01*
X61053602Y-91451814D01*
X61053602Y-91547052D01*
X61101221Y-91689909D01*
X61672649Y-92261337D01*
X61053602Y-92261337D01*
X60672649Y-91356576D02*
X60625030Y-91308957D01*
X60529792Y-91261337D01*
X60291697Y-91261337D01*
X60196459Y-91308957D01*
X60148840Y-91356576D01*
X60101221Y-91451814D01*
X60101221Y-91547052D01*
X60148840Y-91689909D01*
X60720268Y-92261337D01*
X60101221Y-92261337D01*
G04 #@! TO.C,R24*
X76098121Y-77756569D02*
X76431454Y-77280379D01*
X76669549Y-77756569D02*
X76669549Y-76756569D01*
X76288597Y-76756569D01*
X76193359Y-76804189D01*
X76145740Y-76851808D01*
X76098121Y-76947046D01*
X76098121Y-77089903D01*
X76145740Y-77185141D01*
X76193359Y-77232760D01*
X76288597Y-77280379D01*
X76669549Y-77280379D01*
X75717168Y-76851808D02*
X75669549Y-76804189D01*
X75574311Y-76756569D01*
X75336216Y-76756569D01*
X75240978Y-76804189D01*
X75193359Y-76851808D01*
X75145740Y-76947046D01*
X75145740Y-77042284D01*
X75193359Y-77185141D01*
X75764787Y-77756569D01*
X75145740Y-77756569D01*
X74288597Y-77089903D02*
X74288597Y-77756569D01*
X74526692Y-76708950D02*
X74764787Y-77423236D01*
X74145740Y-77423236D01*
G04 #@! TO.C,R25*
X62006481Y-95817337D02*
X62339814Y-95341147D01*
X62577909Y-95817337D02*
X62577909Y-94817337D01*
X62196957Y-94817337D01*
X62101719Y-94864957D01*
X62054100Y-94912576D01*
X62006481Y-95007814D01*
X62006481Y-95150671D01*
X62054100Y-95245909D01*
X62101719Y-95293528D01*
X62196957Y-95341147D01*
X62577909Y-95341147D01*
X61625528Y-94912576D02*
X61577909Y-94864957D01*
X61482671Y-94817337D01*
X61244576Y-94817337D01*
X61149338Y-94864957D01*
X61101719Y-94912576D01*
X61054100Y-95007814D01*
X61054100Y-95103052D01*
X61101719Y-95245909D01*
X61673147Y-95817337D01*
X61054100Y-95817337D01*
X60149338Y-94817337D02*
X60625528Y-94817337D01*
X60673147Y-95293528D01*
X60625528Y-95245909D01*
X60530290Y-95198290D01*
X60292195Y-95198290D01*
X60196957Y-95245909D01*
X60149338Y-95293528D01*
X60101719Y-95388766D01*
X60101719Y-95626861D01*
X60149338Y-95722099D01*
X60196957Y-95769718D01*
X60292195Y-95817337D01*
X60530290Y-95817337D01*
X60625528Y-95769718D01*
X60673147Y-95722099D01*
G04 #@! TO.C,R26*
X76098120Y-81385140D02*
X76431453Y-80908950D01*
X76669548Y-81385140D02*
X76669548Y-80385140D01*
X76288596Y-80385140D01*
X76193358Y-80432760D01*
X76145739Y-80480379D01*
X76098120Y-80575617D01*
X76098120Y-80718474D01*
X76145739Y-80813712D01*
X76193358Y-80861331D01*
X76288596Y-80908950D01*
X76669548Y-80908950D01*
X75717167Y-80480379D02*
X75669548Y-80432760D01*
X75574310Y-80385140D01*
X75336215Y-80385140D01*
X75240977Y-80432760D01*
X75193358Y-80480379D01*
X75145739Y-80575617D01*
X75145739Y-80670855D01*
X75193358Y-80813712D01*
X75764786Y-81385140D01*
X75145739Y-81385140D01*
X74288596Y-80385140D02*
X74479072Y-80385140D01*
X74574310Y-80432760D01*
X74621929Y-80480379D01*
X74717167Y-80623236D01*
X74764786Y-80813712D01*
X74764786Y-81194664D01*
X74717167Y-81289902D01*
X74669548Y-81337521D01*
X74574310Y-81385140D01*
X74383834Y-81385140D01*
X74288596Y-81337521D01*
X74240977Y-81289902D01*
X74193358Y-81194664D01*
X74193358Y-80956569D01*
X74240977Y-80861331D01*
X74288596Y-80813712D01*
X74383834Y-80766093D01*
X74574310Y-80766093D01*
X74669548Y-80813712D01*
X74717167Y-80861331D01*
X74764786Y-80956569D01*
G04 #@! TO.C,R27*
X61888857Y-99694380D02*
X62222190Y-99218190D01*
X62460285Y-99694380D02*
X62460285Y-98694380D01*
X62079333Y-98694380D01*
X61984095Y-98742000D01*
X61936476Y-98789619D01*
X61888857Y-98884857D01*
X61888857Y-99027714D01*
X61936476Y-99122952D01*
X61984095Y-99170571D01*
X62079333Y-99218190D01*
X62460285Y-99218190D01*
X61507904Y-98789619D02*
X61460285Y-98742000D01*
X61365047Y-98694380D01*
X61126952Y-98694380D01*
X61031714Y-98742000D01*
X60984095Y-98789619D01*
X60936476Y-98884857D01*
X60936476Y-98980095D01*
X60984095Y-99122952D01*
X61555523Y-99694380D01*
X60936476Y-99694380D01*
X60603142Y-98694380D02*
X59936476Y-98694380D01*
X60365047Y-99694380D01*
G04 #@! TO.C,R28*
X76112857Y-85013711D02*
X76446190Y-84537521D01*
X76684285Y-85013711D02*
X76684285Y-84013711D01*
X76303333Y-84013711D01*
X76208095Y-84061331D01*
X76160476Y-84108950D01*
X76112857Y-84204188D01*
X76112857Y-84347045D01*
X76160476Y-84442283D01*
X76208095Y-84489902D01*
X76303333Y-84537521D01*
X76684285Y-84537521D01*
X75731904Y-84108950D02*
X75684285Y-84061331D01*
X75589047Y-84013711D01*
X75350952Y-84013711D01*
X75255714Y-84061331D01*
X75208095Y-84108950D01*
X75160476Y-84204188D01*
X75160476Y-84299426D01*
X75208095Y-84442283D01*
X75779523Y-85013711D01*
X75160476Y-85013711D01*
X74589047Y-84442283D02*
X74684285Y-84394664D01*
X74731904Y-84347045D01*
X74779523Y-84251807D01*
X74779523Y-84204188D01*
X74731904Y-84108950D01*
X74684285Y-84061331D01*
X74589047Y-84013711D01*
X74398571Y-84013711D01*
X74303333Y-84061331D01*
X74255714Y-84108950D01*
X74208095Y-84204188D01*
X74208095Y-84251807D01*
X74255714Y-84347045D01*
X74303333Y-84394664D01*
X74398571Y-84442283D01*
X74589047Y-84442283D01*
X74684285Y-84489902D01*
X74731904Y-84537521D01*
X74779523Y-84632759D01*
X74779523Y-84823235D01*
X74731904Y-84918473D01*
X74684285Y-84966092D01*
X74589047Y-85013711D01*
X74398571Y-85013711D01*
X74303333Y-84966092D01*
X74255714Y-84918473D01*
X74208095Y-84823235D01*
X74208095Y-84632759D01*
X74255714Y-84537521D01*
X74303333Y-84489902D01*
X74398571Y-84442283D01*
G04 #@! TO.C,R29*
X76080857Y-88642282D02*
X76414190Y-88166092D01*
X76652285Y-88642282D02*
X76652285Y-87642282D01*
X76271333Y-87642282D01*
X76176095Y-87689902D01*
X76128476Y-87737521D01*
X76080857Y-87832759D01*
X76080857Y-87975616D01*
X76128476Y-88070854D01*
X76176095Y-88118473D01*
X76271333Y-88166092D01*
X76652285Y-88166092D01*
X75699904Y-87737521D02*
X75652285Y-87689902D01*
X75557047Y-87642282D01*
X75318952Y-87642282D01*
X75223714Y-87689902D01*
X75176095Y-87737521D01*
X75128476Y-87832759D01*
X75128476Y-87927997D01*
X75176095Y-88070854D01*
X75747523Y-88642282D01*
X75128476Y-88642282D01*
X74652285Y-88642282D02*
X74461809Y-88642282D01*
X74366571Y-88594663D01*
X74318952Y-88547044D01*
X74223714Y-88404187D01*
X74176095Y-88213711D01*
X74176095Y-87832759D01*
X74223714Y-87737521D01*
X74271333Y-87689902D01*
X74366571Y-87642282D01*
X74557047Y-87642282D01*
X74652285Y-87689902D01*
X74699904Y-87737521D01*
X74747523Y-87832759D01*
X74747523Y-88070854D01*
X74699904Y-88166092D01*
X74652285Y-88213711D01*
X74557047Y-88261330D01*
X74366571Y-88261330D01*
X74271333Y-88213711D01*
X74223714Y-88166092D01*
X74176095Y-88070854D01*
G04 #@! TO.C,R30*
X76098120Y-92270853D02*
X76431453Y-91794663D01*
X76669548Y-92270853D02*
X76669548Y-91270853D01*
X76288596Y-91270853D01*
X76193358Y-91318473D01*
X76145739Y-91366092D01*
X76098120Y-91461330D01*
X76098120Y-91604187D01*
X76145739Y-91699425D01*
X76193358Y-91747044D01*
X76288596Y-91794663D01*
X76669548Y-91794663D01*
X75764786Y-91270853D02*
X75145739Y-91270853D01*
X75479072Y-91651806D01*
X75336215Y-91651806D01*
X75240977Y-91699425D01*
X75193358Y-91747044D01*
X75145739Y-91842282D01*
X75145739Y-92080377D01*
X75193358Y-92175615D01*
X75240977Y-92223234D01*
X75336215Y-92270853D01*
X75621929Y-92270853D01*
X75717167Y-92223234D01*
X75764786Y-92175615D01*
X74526691Y-91270853D02*
X74431453Y-91270853D01*
X74336215Y-91318473D01*
X74288596Y-91366092D01*
X74240977Y-91461330D01*
X74193358Y-91651806D01*
X74193358Y-91889901D01*
X74240977Y-92080377D01*
X74288596Y-92175615D01*
X74336215Y-92223234D01*
X74431453Y-92270853D01*
X74526691Y-92270853D01*
X74621929Y-92223234D01*
X74669548Y-92175615D01*
X74717167Y-92080377D01*
X74764786Y-91889901D01*
X74764786Y-91651806D01*
X74717167Y-91461330D01*
X74669548Y-91366092D01*
X74621929Y-91318473D01*
X74526691Y-91270853D01*
G04 #@! TO.C,R31*
X76162121Y-95899424D02*
X76495454Y-95423234D01*
X76733549Y-95899424D02*
X76733549Y-94899424D01*
X76352597Y-94899424D01*
X76257359Y-94947044D01*
X76209740Y-94994663D01*
X76162121Y-95089901D01*
X76162121Y-95232758D01*
X76209740Y-95327996D01*
X76257359Y-95375615D01*
X76352597Y-95423234D01*
X76733549Y-95423234D01*
X75828787Y-94899424D02*
X75209740Y-94899424D01*
X75543073Y-95280377D01*
X75400216Y-95280377D01*
X75304978Y-95327996D01*
X75257359Y-95375615D01*
X75209740Y-95470853D01*
X75209740Y-95708948D01*
X75257359Y-95804186D01*
X75304978Y-95851805D01*
X75400216Y-95899424D01*
X75685930Y-95899424D01*
X75781168Y-95851805D01*
X75828787Y-95804186D01*
X74257359Y-95899424D02*
X74828787Y-95899424D01*
X74543073Y-95899424D02*
X74543073Y-94899424D01*
X74638311Y-95042282D01*
X74733549Y-95137520D01*
X74828787Y-95185139D01*
G04 #@! TO.C,R32*
X76112857Y-99527998D02*
X76446190Y-99051808D01*
X76684285Y-99527998D02*
X76684285Y-98527998D01*
X76303333Y-98527998D01*
X76208095Y-98575618D01*
X76160476Y-98623237D01*
X76112857Y-98718475D01*
X76112857Y-98861332D01*
X76160476Y-98956570D01*
X76208095Y-99004189D01*
X76303333Y-99051808D01*
X76684285Y-99051808D01*
X75779523Y-98527998D02*
X75160476Y-98527998D01*
X75493809Y-98908951D01*
X75350952Y-98908951D01*
X75255714Y-98956570D01*
X75208095Y-99004189D01*
X75160476Y-99099427D01*
X75160476Y-99337522D01*
X75208095Y-99432760D01*
X75255714Y-99480379D01*
X75350952Y-99527998D01*
X75636666Y-99527998D01*
X75731904Y-99480379D01*
X75779523Y-99432760D01*
X74779523Y-98623237D02*
X74731904Y-98575618D01*
X74636666Y-98527998D01*
X74398571Y-98527998D01*
X74303333Y-98575618D01*
X74255714Y-98623237D01*
X74208095Y-98718475D01*
X74208095Y-98813713D01*
X74255714Y-98956570D01*
X74827142Y-99527998D01*
X74208095Y-99527998D01*
G04 #@! TD*
M02*
