M48
;DRILL file {KiCad 5.0.1-33cea8e~68~ubuntu18.04.1} date Sat 24 Nov 2018 02:11:19 PM MST
;FORMAT={-:-/ absolute / inch / decimal}
FMAT,2
INCH,TZ
T1C0.0100
T2C0.0394
%
G90
G05
M72
T1
X1.85Y-2.25
X1.95Y-1.45
X2.08Y-3.98
X2.15Y-1.95
X2.15Y-2.9
X2.22Y-2.44
X2.24Y-2.47
X2.3Y-1.45
X2.45Y-1.95
X2.55Y-2.25
X2.64Y-3.98
X2.65Y-2.9
X2.7Y-1.45
X2.7135Y-2.44
X2.74Y-2.47
X2.9Y-1.95
X3.1Y-1.95
X3.1Y-2.25
X3.2Y-2.9
X3.2Y-3.98
X3.29Y-2.44
X3.3Y-2.25
X3.32Y-2.47
X3.35Y-1.95
X3.59Y-1.95
X3.8Y-1.45
T2
X3.2Y-3.175
X3.2Y-3.275
X3.2Y-3.375
X3.2Y-3.475
X3.2Y-3.575
X3.2Y-3.675
X3.2Y-3.775
X3.2Y-3.875
X3.3Y-3.175
X3.3Y-3.275
X3.3Y-3.375
X3.3Y-3.475
X3.3Y-3.575
X3.3Y-3.675
X3.3Y-3.775
X3.3Y-3.875
X3.8Y-3.18
X3.8Y-3.28
X3.8Y-3.38
X3.8Y-3.48
X3.8Y-3.58
X3.8Y-3.68
X3.8Y-3.78
X3.8Y-3.88
X2.08Y-3.18
X2.08Y-3.28
X2.08Y-3.38
X2.08Y-3.48
X2.08Y-3.58
X2.08Y-3.68
X2.08Y-3.78
X2.08Y-3.88
X2.18Y-3.18
X2.18Y-3.28
X2.18Y-3.38
X2.18Y-3.48
X2.18Y-3.58
X2.18Y-3.68
X2.18Y-3.78
X2.18Y-3.88
X3.8Y-2.1202
X3.8Y-2.2202
X3.8Y-2.3202
X3.8Y-2.4202
X3.8Y-2.5202
X3.8Y-2.6202
X3.8Y-2.7202
X3.8Y-2.8202
X3.8Y-2.9202
X3.8Y-3.0202
X1.9Y-2.48
X1.9Y-2.58
X1.9Y-2.68
X1.9Y-2.78
X1.9Y-2.88
X1.9Y-2.98
X1.9Y-3.08
X1.9Y-3.18
X1.9Y-3.38
X1.9Y-3.48
X1.9Y-3.58
X1.9Y-3.68
X1.9Y-3.78
X1.9Y-3.88
X2.6375Y-3.185
X2.6375Y-3.285
X2.6375Y-3.385
X2.6375Y-3.485
X2.6375Y-3.585
X2.6375Y-3.685
X2.6375Y-3.785
X2.6375Y-3.885
X2.7375Y-3.185
X2.7375Y-3.285
X2.7375Y-3.385
X2.7375Y-3.485
X2.7375Y-3.585
X2.7375Y-3.685
X2.7375Y-3.785
X2.7375Y-3.885
T0
M30
