G04 #@! TF.GenerationSoftware,KiCad,Pcbnew,5.0.1-33cea8e~68~ubuntu18.04.1*
G04 #@! TF.CreationDate,2018-11-24T14:12:02-07:00*
G04 #@! TF.ProjectId,adc,6164632E6B696361645F706362000000,rev?*
G04 #@! TF.SameCoordinates,Original*
G04 #@! TF.FileFunction,Copper,L2,Bot,Signal*
G04 #@! TF.FilePolarity,Positive*
%FSLAX46Y46*%
G04 Gerber Fmt 4.6, Leading zero omitted, Abs format (unit mm)*
G04 Created by KiCad (PCBNEW 5.0.1-33cea8e~68~ubuntu18.04.1) date Sat 24 Nov 2018 02:12:02 PM MST*
%MOMM*%
%LPD*%
G01*
G04 APERTURE LIST*
G04 #@! TA.AperFunction,ComponentPad*
%ADD10R,1.700000X1.700000*%
G04 #@! TD*
G04 #@! TA.AperFunction,ComponentPad*
%ADD11O,1.700000X1.700000*%
G04 #@! TD*
G04 #@! TA.AperFunction,SMDPad,CuDef*
%ADD12R,2.000000X1.700000*%
G04 #@! TD*
G04 #@! TA.AperFunction,ViaPad*
%ADD13C,0.508000*%
G04 #@! TD*
G04 #@! TA.AperFunction,Conductor*
%ADD14C,0.381000*%
G04 #@! TD*
G04 #@! TA.AperFunction,Conductor*
%ADD15C,0.254000*%
G04 #@! TD*
G04 APERTURE END LIST*
D10*
G04 #@! TO.P,J1,1*
G04 #@! TO.N,Net-(J1-Pad1)*
X48260000Y-62992000D03*
D11*
G04 #@! TO.P,J1,2*
G04 #@! TO.N,IOREF*
X48260000Y-65532000D03*
G04 #@! TO.P,J1,3*
G04 #@! TO.N,RESET*
X48260000Y-68072000D03*
G04 #@! TO.P,J1,4*
G04 #@! TO.N,3V3*
X48260000Y-70612000D03*
G04 #@! TO.P,J1,5*
G04 #@! TO.N,5V*
X48260000Y-73152000D03*
G04 #@! TO.P,J1,6*
G04 #@! TO.N,GND*
X48260000Y-75692000D03*
G04 #@! TO.P,J1,7*
X48260000Y-78232000D03*
G04 #@! TO.P,J1,8*
G04 #@! TO.N,Net-(J1-Pad8)*
X48260000Y-80772000D03*
G04 #@! TD*
G04 #@! TO.P,J2,6*
G04 #@! TO.N,A5*
X48260000Y-98552000D03*
G04 #@! TO.P,J2,5*
G04 #@! TO.N,A4*
X48260000Y-96012000D03*
G04 #@! TO.P,J2,4*
G04 #@! TO.N,A3*
X48260000Y-93472000D03*
G04 #@! TO.P,J2,3*
G04 #@! TO.N,A2*
X48260000Y-90932000D03*
G04 #@! TO.P,J2,2*
G04 #@! TO.N,A1*
X48260000Y-88392000D03*
D10*
G04 #@! TO.P,J2,1*
G04 #@! TO.N,A0*
X48260000Y-85852000D03*
G04 #@! TD*
D11*
G04 #@! TO.P,J3,8*
G04 #@! TO.N,D0*
X96520000Y-98552000D03*
G04 #@! TO.P,J3,7*
G04 #@! TO.N,D1*
X96520000Y-96012000D03*
G04 #@! TO.P,J3,6*
G04 #@! TO.N,D2*
X96520000Y-93472000D03*
G04 #@! TO.P,J3,5*
G04 #@! TO.N,D3*
X96520000Y-90932000D03*
G04 #@! TO.P,J3,4*
G04 #@! TO.N,D4*
X96520000Y-88392000D03*
G04 #@! TO.P,J3,3*
G04 #@! TO.N,D5*
X96520000Y-85852000D03*
G04 #@! TO.P,J3,2*
G04 #@! TO.N,D6*
X96520000Y-83312000D03*
D10*
G04 #@! TO.P,J3,1*
G04 #@! TO.N,D7*
X96520000Y-80772000D03*
G04 #@! TD*
D11*
G04 #@! TO.P,J4,10*
G04 #@! TO.N,D8*
X96520000Y-76712000D03*
G04 #@! TO.P,J4,9*
G04 #@! TO.N,D9*
X96520000Y-74172000D03*
G04 #@! TO.P,J4,8*
G04 #@! TO.N,D10*
X96520000Y-71632000D03*
G04 #@! TO.P,J4,7*
G04 #@! TO.N,D11*
X96520000Y-69092000D03*
G04 #@! TO.P,J4,6*
G04 #@! TO.N,D12*
X96520000Y-66552000D03*
G04 #@! TO.P,J4,5*
G04 #@! TO.N,D13*
X96520000Y-64012000D03*
G04 #@! TO.P,J4,4*
G04 #@! TO.N,GND*
X96520000Y-61472000D03*
G04 #@! TO.P,J4,3*
G04 #@! TO.N,AREF*
X96520000Y-58932000D03*
G04 #@! TO.P,J4,2*
G04 #@! TO.N,SDA*
X96520000Y-56392000D03*
D10*
G04 #@! TO.P,J4,1*
G04 #@! TO.N,SCL*
X96520000Y-53852000D03*
G04 #@! TD*
D12*
G04 #@! TO.P,R4,2*
G04 #@! TO.N,Net-(J5-Pad1)*
X87963083Y-73152000D03*
G04 #@! TO.P,R4,1*
G04 #@! TO.N,3V3*
X91963083Y-73152000D03*
G04 #@! TD*
G04 #@! TO.P,R6,2*
G04 #@! TO.N,Net-(J5-Pad3)*
X87963083Y-76817683D03*
G04 #@! TO.P,R6,1*
G04 #@! TO.N,3V3*
X91963083Y-76817683D03*
G04 #@! TD*
G04 #@! TO.P,R7,1*
G04 #@! TO.N,3V3*
X91963083Y-80500683D03*
G04 #@! TO.P,R7,2*
G04 #@! TO.N,Net-(J5-Pad5)*
X87963083Y-80500683D03*
G04 #@! TD*
G04 #@! TO.P,R8,2*
G04 #@! TO.N,Net-(J5-Pad7)*
X87963083Y-84183683D03*
G04 #@! TO.P,R8,1*
G04 #@! TO.N,3V3*
X91963083Y-84183683D03*
G04 #@! TD*
G04 #@! TO.P,R9,1*
G04 #@! TO.N,3V3*
X91836083Y-87993681D03*
G04 #@! TO.P,R9,2*
G04 #@! TO.N,Net-(J5-Pad9)*
X87836083Y-87993681D03*
G04 #@! TD*
G04 #@! TO.P,R10,1*
G04 #@! TO.N,3V3*
X91772083Y-91549682D03*
G04 #@! TO.P,R10,2*
G04 #@! TO.N,Net-(J5-Pad11)*
X87772083Y-91549682D03*
G04 #@! TD*
G04 #@! TO.P,R11,2*
G04 #@! TO.N,Net-(J5-Pad13)*
X87836082Y-95105681D03*
G04 #@! TO.P,R11,1*
G04 #@! TO.N,3V3*
X91836082Y-95105681D03*
G04 #@! TD*
G04 #@! TO.P,R12,1*
G04 #@! TO.N,3V3*
X91963083Y-98661682D03*
G04 #@! TO.P,R12,2*
G04 #@! TO.N,Net-(J5-Pad15)*
X87963083Y-98661682D03*
G04 #@! TD*
G04 #@! TO.P,R14,1*
G04 #@! TO.N,3V3*
X63468000Y-75878957D03*
G04 #@! TO.P,R14,2*
G04 #@! TO.N,Net-(J6-Pad1)*
X59468000Y-75878957D03*
G04 #@! TD*
G04 #@! TO.P,R16,2*
G04 #@! TO.N,Net-(J6-Pad3)*
X59468000Y-79502000D03*
G04 #@! TO.P,R16,1*
G04 #@! TO.N,3V3*
X63468000Y-79502000D03*
G04 #@! TD*
G04 #@! TO.P,R17,1*
G04 #@! TO.N,3V3*
X63468000Y-82990957D03*
G04 #@! TO.P,R17,2*
G04 #@! TO.N,Net-(J6-Pad5)*
X59468000Y-82990957D03*
G04 #@! TD*
G04 #@! TO.P,R18,2*
G04 #@! TO.N,Net-(J6-Pad7)*
X59363624Y-86546957D03*
G04 #@! TO.P,R18,1*
G04 #@! TO.N,3V3*
X63363624Y-86546957D03*
G04 #@! TD*
G04 #@! TO.P,R19,2*
G04 #@! TO.N,Net-(J6-Pad9)*
X59363625Y-90102957D03*
G04 #@! TO.P,R19,1*
G04 #@! TO.N,3V3*
X63363625Y-90102957D03*
G04 #@! TD*
G04 #@! TO.P,R21,1*
G04 #@! TO.N,3V3*
X77455263Y-75525618D03*
G04 #@! TO.P,R21,2*
G04 #@! TO.N,Net-(J7-Pad1)*
X73455263Y-75525618D03*
G04 #@! TD*
G04 #@! TO.P,R22,2*
G04 #@! TO.N,Net-(J6-Pad11)*
X59363126Y-93658957D03*
G04 #@! TO.P,R22,1*
G04 #@! TO.N,3V3*
X63363126Y-93658957D03*
G04 #@! TD*
G04 #@! TO.P,R24,1*
G04 #@! TO.N,3V3*
X77455264Y-79154189D03*
G04 #@! TO.P,R24,2*
G04 #@! TO.N,Net-(J7-Pad3)*
X73455264Y-79154189D03*
G04 #@! TD*
G04 #@! TO.P,R25,2*
G04 #@! TO.N,Net-(J6-Pad13)*
X59363624Y-97214957D03*
G04 #@! TO.P,R25,1*
G04 #@! TO.N,3V3*
X63363624Y-97214957D03*
G04 #@! TD*
G04 #@! TO.P,R26,1*
G04 #@! TO.N,3V3*
X77455263Y-82782760D03*
G04 #@! TO.P,R26,2*
G04 #@! TO.N,Net-(J7-Pad5)*
X73455263Y-82782760D03*
G04 #@! TD*
G04 #@! TO.P,R27,1*
G04 #@! TO.N,3V3*
X63246000Y-101092000D03*
G04 #@! TO.P,R27,2*
G04 #@! TO.N,Net-(J6-Pad15)*
X59246000Y-101092000D03*
G04 #@! TD*
G04 #@! TO.P,R28,2*
G04 #@! TO.N,Net-(J7-Pad7)*
X73470000Y-86411331D03*
G04 #@! TO.P,R28,1*
G04 #@! TO.N,3V3*
X77470000Y-86411331D03*
G04 #@! TD*
G04 #@! TO.P,R29,1*
G04 #@! TO.N,3V3*
X77438000Y-90039902D03*
G04 #@! TO.P,R29,2*
G04 #@! TO.N,Net-(J7-Pad9)*
X73438000Y-90039902D03*
G04 #@! TD*
G04 #@! TO.P,R30,2*
G04 #@! TO.N,Net-(J7-Pad11)*
X73455263Y-93668473D03*
G04 #@! TO.P,R30,1*
G04 #@! TO.N,3V3*
X77455263Y-93668473D03*
G04 #@! TD*
G04 #@! TO.P,R31,1*
G04 #@! TO.N,3V3*
X77519264Y-97297044D03*
G04 #@! TO.P,R31,2*
G04 #@! TO.N,Net-(J7-Pad13)*
X73519264Y-97297044D03*
G04 #@! TD*
G04 #@! TO.P,R32,2*
G04 #@! TO.N,Net-(J7-Pad15)*
X73470000Y-100925618D03*
G04 #@! TO.P,R32,1*
G04 #@! TO.N,3V3*
X77470000Y-100925618D03*
G04 #@! TD*
D11*
G04 #@! TO.P,J5,16*
G04 #@! TO.N,GND*
X81280000Y-98425000D03*
G04 #@! TO.P,J5,15*
G04 #@! TO.N,Net-(J5-Pad15)*
X83820000Y-98425000D03*
G04 #@! TO.P,J5,14*
G04 #@! TO.N,GND*
X81280000Y-95885000D03*
G04 #@! TO.P,J5,13*
G04 #@! TO.N,Net-(J5-Pad13)*
X83820000Y-95885000D03*
G04 #@! TO.P,J5,12*
G04 #@! TO.N,GND*
X81280000Y-93345000D03*
G04 #@! TO.P,J5,11*
G04 #@! TO.N,Net-(J5-Pad11)*
X83820000Y-93345000D03*
G04 #@! TO.P,J5,10*
G04 #@! TO.N,GND*
X81280000Y-90805000D03*
G04 #@! TO.P,J5,9*
G04 #@! TO.N,Net-(J5-Pad9)*
X83820000Y-90805000D03*
G04 #@! TO.P,J5,8*
G04 #@! TO.N,GND*
X81280000Y-88265000D03*
G04 #@! TO.P,J5,7*
G04 #@! TO.N,Net-(J5-Pad7)*
X83820000Y-88265000D03*
G04 #@! TO.P,J5,6*
G04 #@! TO.N,GND*
X81280000Y-85725000D03*
G04 #@! TO.P,J5,5*
G04 #@! TO.N,Net-(J5-Pad5)*
X83820000Y-85725000D03*
G04 #@! TO.P,J5,4*
G04 #@! TO.N,GND*
X81280000Y-83185000D03*
G04 #@! TO.P,J5,3*
G04 #@! TO.N,Net-(J5-Pad3)*
X83820000Y-83185000D03*
G04 #@! TO.P,J5,2*
G04 #@! TO.N,GND*
X81280000Y-80645000D03*
D10*
G04 #@! TO.P,J5,1*
G04 #@! TO.N,Net-(J5-Pad1)*
X83820000Y-80645000D03*
G04 #@! TD*
D11*
G04 #@! TO.P,J6,16*
G04 #@! TO.N,GND*
X52832000Y-98552000D03*
G04 #@! TO.P,J6,15*
G04 #@! TO.N,Net-(J6-Pad15)*
X55372000Y-98552000D03*
G04 #@! TO.P,J6,14*
G04 #@! TO.N,GND*
X52832000Y-96012000D03*
G04 #@! TO.P,J6,13*
G04 #@! TO.N,Net-(J6-Pad13)*
X55372000Y-96012000D03*
G04 #@! TO.P,J6,12*
G04 #@! TO.N,GND*
X52832000Y-93472000D03*
G04 #@! TO.P,J6,11*
G04 #@! TO.N,Net-(J6-Pad11)*
X55372000Y-93472000D03*
G04 #@! TO.P,J6,10*
G04 #@! TO.N,GND*
X52832000Y-90932000D03*
G04 #@! TO.P,J6,9*
G04 #@! TO.N,Net-(J6-Pad9)*
X55372000Y-90932000D03*
G04 #@! TO.P,J6,8*
G04 #@! TO.N,GND*
X52832000Y-88392000D03*
G04 #@! TO.P,J6,7*
G04 #@! TO.N,Net-(J6-Pad7)*
X55372000Y-88392000D03*
G04 #@! TO.P,J6,6*
G04 #@! TO.N,GND*
X52832000Y-85852000D03*
G04 #@! TO.P,J6,5*
G04 #@! TO.N,Net-(J6-Pad5)*
X55372000Y-85852000D03*
G04 #@! TO.P,J6,4*
G04 #@! TO.N,GND*
X52832000Y-83312000D03*
G04 #@! TO.P,J6,3*
G04 #@! TO.N,Net-(J6-Pad3)*
X55372000Y-83312000D03*
G04 #@! TO.P,J6,2*
G04 #@! TO.N,GND*
X52832000Y-80772000D03*
D10*
G04 #@! TO.P,J6,1*
G04 #@! TO.N,Net-(J6-Pad1)*
X55372000Y-80772000D03*
G04 #@! TD*
G04 #@! TO.P,J7,1*
G04 #@! TO.N,Net-(J7-Pad1)*
X69532500Y-80899000D03*
D11*
G04 #@! TO.P,J7,2*
G04 #@! TO.N,GND*
X66992500Y-80899000D03*
G04 #@! TO.P,J7,3*
G04 #@! TO.N,Net-(J7-Pad3)*
X69532500Y-83439000D03*
G04 #@! TO.P,J7,4*
G04 #@! TO.N,GND*
X66992500Y-83439000D03*
G04 #@! TO.P,J7,5*
G04 #@! TO.N,Net-(J7-Pad5)*
X69532500Y-85979000D03*
G04 #@! TO.P,J7,6*
G04 #@! TO.N,GND*
X66992500Y-85979000D03*
G04 #@! TO.P,J7,7*
G04 #@! TO.N,Net-(J7-Pad7)*
X69532500Y-88519000D03*
G04 #@! TO.P,J7,8*
G04 #@! TO.N,GND*
X66992500Y-88519000D03*
G04 #@! TO.P,J7,9*
G04 #@! TO.N,Net-(J7-Pad9)*
X69532500Y-91059000D03*
G04 #@! TO.P,J7,10*
G04 #@! TO.N,GND*
X66992500Y-91059000D03*
G04 #@! TO.P,J7,11*
G04 #@! TO.N,Net-(J7-Pad11)*
X69532500Y-93599000D03*
G04 #@! TO.P,J7,12*
G04 #@! TO.N,GND*
X66992500Y-93599000D03*
G04 #@! TO.P,J7,13*
G04 #@! TO.N,Net-(J7-Pad13)*
X69532500Y-96139000D03*
G04 #@! TO.P,J7,14*
G04 #@! TO.N,GND*
X66992500Y-96139000D03*
G04 #@! TO.P,J7,15*
G04 #@! TO.N,Net-(J7-Pad15)*
X69532500Y-98679000D03*
G04 #@! TO.P,J7,16*
G04 #@! TO.N,GND*
X66992500Y-98679000D03*
G04 #@! TD*
D13*
G04 #@! TO.N,GND*
X81280000Y-101092000D03*
X67056000Y-101092000D03*
X52832000Y-101092000D03*
X49530000Y-36830000D03*
X58420000Y-36830000D03*
X68580000Y-36830000D03*
X96520000Y-36830000D03*
X78740000Y-49530000D03*
X73660000Y-49530000D03*
X62230000Y-49530000D03*
X54610000Y-49530000D03*
X85090000Y-49530000D03*
X64770000Y-57150000D03*
X78740000Y-57150000D03*
X83820000Y-57150000D03*
X46990000Y-57150000D03*
X54610000Y-73660000D03*
X67310000Y-73660000D03*
X81280000Y-73660000D03*
X91186000Y-49530000D03*
G04 #@! TO.N,SDA*
X84328000Y-62738000D03*
X69596000Y-62738000D03*
X56895994Y-62738000D03*
G04 #@! TO.N,SCL*
X68922910Y-61976000D03*
X83566062Y-61976000D03*
X56388000Y-61976000D03*
G04 #@! TD*
D14*
G04 #@! TO.N,3V3*
X63468000Y-75878957D02*
X63468000Y-80042000D01*
X63468000Y-80042000D02*
X63468000Y-79502000D01*
X63468000Y-79502000D02*
X63468000Y-82990957D01*
X63468000Y-86442581D02*
X63363624Y-86546957D01*
X63468000Y-82990957D02*
X63468000Y-86442581D01*
X63363624Y-90102956D02*
X63363625Y-90102957D01*
X63363624Y-86546957D02*
X63363624Y-90102956D01*
X63363625Y-93658458D02*
X63363126Y-93658957D01*
X63363625Y-90102957D02*
X63363625Y-93658458D01*
X63363126Y-97214459D02*
X63363624Y-97214957D01*
X63363126Y-93658957D02*
X63363126Y-97214459D01*
X63363624Y-100974376D02*
X63246000Y-101092000D01*
X63363624Y-97214957D02*
X63363624Y-100974376D01*
X77470000Y-97346308D02*
X77519264Y-97297044D01*
X77470000Y-100925618D02*
X77470000Y-97346308D01*
X77455263Y-97233043D02*
X77519264Y-97297044D01*
X77455263Y-93668473D02*
X77455263Y-97233043D01*
X77455263Y-90057165D02*
X77438000Y-90039902D01*
X77455263Y-93668473D02*
X77455263Y-90057165D01*
X77470000Y-90007902D02*
X77438000Y-90039902D01*
X77470000Y-86411331D02*
X77470000Y-90007902D01*
X77455263Y-86396594D02*
X77470000Y-86411331D01*
X77455263Y-82782760D02*
X77455263Y-86396594D01*
X77455264Y-82782759D02*
X77455263Y-82782760D01*
X77455264Y-79154189D02*
X77455264Y-82782759D01*
X77455263Y-79154188D02*
X77455264Y-79154189D01*
X77455263Y-75525618D02*
X77455263Y-79154188D01*
X91963083Y-95232682D02*
X91836082Y-95105681D01*
X91963083Y-98661682D02*
X91963083Y-95232682D01*
X91772083Y-95041682D02*
X91836082Y-95105681D01*
X91772083Y-91549682D02*
X91772083Y-95041682D01*
X91836083Y-91485682D02*
X91772083Y-91549682D01*
X91836083Y-87993681D02*
X91836083Y-91485682D01*
X49462081Y-70612000D02*
X48260000Y-70612000D01*
X63468000Y-72358000D02*
X61722000Y-70612000D01*
X63468000Y-75878957D02*
X63468000Y-72358000D01*
X91963083Y-73152000D02*
X91963083Y-76817683D01*
X91963083Y-76817683D02*
X91963083Y-80500683D01*
X91963083Y-80500683D02*
X91963083Y-84183683D01*
X91963083Y-87866681D02*
X91836083Y-87993681D01*
X91963083Y-84183683D02*
X91963083Y-87866681D01*
X61722000Y-70612000D02*
X61468000Y-70612000D01*
X61468000Y-70612000D02*
X49462081Y-70612000D01*
X63754000Y-102616000D02*
X77216000Y-102616000D01*
X63246000Y-102108000D02*
X63754000Y-102616000D01*
X63246000Y-101092000D02*
X63246000Y-102108000D01*
X91963083Y-98661682D02*
X91963083Y-99892682D01*
X91525765Y-100330000D02*
X85090000Y-100330000D01*
X91963083Y-99892682D02*
X91525765Y-100330000D01*
X85090000Y-100330000D02*
X82804000Y-102616000D01*
X78232000Y-102616000D02*
X77724000Y-102616000D01*
X82804000Y-102616000D02*
X78232000Y-102616000D01*
X77470000Y-100925618D02*
X77470000Y-102156618D01*
X77470000Y-102156618D02*
X77470000Y-102616000D01*
X77470000Y-102616000D02*
X78232000Y-102616000D01*
X77216000Y-102616000D02*
X77470000Y-102616000D01*
D15*
G04 #@! TO.N,SDA*
X69955210Y-62738000D02*
X69596000Y-62738000D01*
X84328000Y-62738000D02*
X69955210Y-62738000D01*
X90174000Y-62738000D02*
X84328000Y-62738000D01*
X96520000Y-56392000D02*
X90174000Y-62738000D01*
X69596000Y-62738000D02*
X56895994Y-62738000D01*
G04 #@! TO.N,SCL*
X68922910Y-61976000D02*
X83566062Y-61976000D01*
X68922910Y-61976000D02*
X56388000Y-61976000D01*
X83566062Y-61976000D02*
X89789000Y-61976000D01*
X89789000Y-61976000D02*
X94361000Y-57404000D01*
X94361000Y-57404000D02*
X94361000Y-54483000D01*
X94992000Y-53852000D02*
X96520000Y-53852000D01*
X94361000Y-54483000D02*
X94992000Y-53852000D01*
G04 #@! TO.N,Net-(J5-Pad7)*
X87376000Y-86106000D02*
X87963083Y-85518917D01*
X83820000Y-88265000D02*
X85217000Y-88265000D01*
X85217000Y-88265000D02*
X85852000Y-87630000D01*
X85852000Y-87630000D02*
X85852000Y-86614000D01*
X87963083Y-85518917D02*
X87963083Y-84183683D01*
X86360000Y-86106000D02*
X87376000Y-86106000D01*
X85852000Y-86614000D02*
X86360000Y-86106000D01*
G04 #@! TO.N,Net-(J5-Pad5)*
X86631317Y-80500683D02*
X87963083Y-80500683D01*
X83820000Y-85725000D02*
X85598000Y-85725000D01*
X86233000Y-85090000D02*
X86233000Y-80899000D01*
X85598000Y-85725000D02*
X86233000Y-85090000D01*
X86233000Y-80899000D02*
X86631317Y-80500683D01*
G04 #@! TO.N,Net-(J5-Pad3)*
X85217000Y-83185000D02*
X83820000Y-83185000D01*
X87963083Y-76817683D02*
X86123317Y-76817683D01*
X85598000Y-82804000D02*
X85217000Y-83185000D01*
X86123317Y-76817683D02*
X85598000Y-77343000D01*
X85598000Y-77343000D02*
X85598000Y-82804000D01*
G04 #@! TO.N,Net-(J5-Pad1)*
X85852000Y-73152000D02*
X87963083Y-73152000D01*
X83820000Y-75184000D02*
X85852000Y-73152000D01*
X83820000Y-80645000D02*
X83820000Y-75184000D01*
G04 #@! TO.N,Net-(J6-Pad7)*
X59363624Y-87956376D02*
X59363624Y-86546957D01*
X58928000Y-88392000D02*
X59363624Y-87956376D01*
X55372000Y-88392000D02*
X58928000Y-88392000D01*
G04 #@! TO.N,Net-(J6-Pad5)*
X55372000Y-85852000D02*
X56769000Y-85852000D01*
X56769000Y-85852000D02*
X57785000Y-84836000D01*
X58928000Y-84836000D02*
X59468000Y-84296000D01*
X59468000Y-84296000D02*
X59468000Y-82990957D01*
X57785000Y-84836000D02*
X58928000Y-84836000D01*
G04 #@! TO.N,Net-(J6-Pad3)*
X59468000Y-80867000D02*
X59468000Y-79502000D01*
X55372000Y-83312000D02*
X55626000Y-83312000D01*
X57404000Y-81534000D02*
X58801000Y-81534000D01*
X55626000Y-83312000D02*
X57404000Y-81534000D01*
X58801000Y-81534000D02*
X59468000Y-80867000D01*
G04 #@! TO.N,Net-(J6-Pad1)*
X57090043Y-75878957D02*
X59468000Y-75878957D01*
X55372000Y-77597000D02*
X57090043Y-75878957D01*
X55372000Y-80772000D02*
X55372000Y-77597000D01*
G04 #@! TO.N,Net-(J7-Pad1)*
X69532500Y-79502000D02*
X69532500Y-80899000D01*
X69532500Y-77787500D02*
X69532500Y-79502000D01*
X71794382Y-75525618D02*
X69532500Y-77787500D01*
X73455263Y-75525618D02*
X71794382Y-75525618D01*
G04 #@! TO.N,Net-(J7-Pad3)*
X70739000Y-83439000D02*
X69532500Y-83439000D01*
X73455264Y-79154189D02*
X71975811Y-79154189D01*
X71975811Y-79154189D02*
X71247000Y-79883000D01*
X71247000Y-79883000D02*
X71247000Y-82931000D01*
X71247000Y-82931000D02*
X70739000Y-83439000D01*
G04 #@! TO.N,Net-(J7-Pad5)*
X72157240Y-82782760D02*
X73455263Y-82782760D01*
X69532500Y-85979000D02*
X71247000Y-85979000D01*
X71755000Y-85471000D02*
X71755000Y-83185000D01*
X71247000Y-85979000D02*
X71755000Y-85471000D01*
X71755000Y-83185000D02*
X72157240Y-82782760D01*
G04 #@! TO.N,Net-(J7-Pad7)*
X70993000Y-88519000D02*
X69532500Y-88519000D01*
X73470000Y-86411331D02*
X72084669Y-86411331D01*
X72084669Y-86411331D02*
X71501000Y-86995000D01*
X71501000Y-86995000D02*
X71501000Y-88011000D01*
X71501000Y-88011000D02*
X70993000Y-88519000D01*
G04 #@! TO.N,Net-(J5-Pad15)*
X87726401Y-98425000D02*
X87963083Y-98661682D01*
X83820000Y-98425000D02*
X87726401Y-98425000D01*
G04 #@! TO.N,Net-(J5-Pad13)*
X86123319Y-95105681D02*
X85344000Y-95885000D01*
X85344000Y-95885000D02*
X83820000Y-95885000D01*
X87836082Y-95105681D02*
X86123319Y-95105681D01*
G04 #@! TO.N,Net-(J5-Pad11)*
X85471000Y-93345000D02*
X83820000Y-93345000D01*
X87772083Y-91549682D02*
X86250318Y-91549682D01*
X86250318Y-91549682D02*
X85852000Y-91948000D01*
X85852000Y-91948000D02*
X85852000Y-92964000D01*
X85852000Y-92964000D02*
X85471000Y-93345000D01*
G04 #@! TO.N,Net-(J5-Pad9)*
X87836083Y-89455917D02*
X87836083Y-87993681D01*
X83820000Y-90805000D02*
X85217000Y-90805000D01*
X86106000Y-89916000D02*
X87376000Y-89916000D01*
X85217000Y-90805000D02*
X86106000Y-89916000D01*
X87376000Y-89916000D02*
X87836083Y-89455917D01*
G04 #@! TO.N,Net-(J6-Pad15)*
X56134000Y-101092000D02*
X59246000Y-101092000D01*
X55372000Y-100330000D02*
X56134000Y-101092000D01*
X55372000Y-98552000D02*
X55372000Y-100330000D01*
G04 #@! TO.N,Net-(J6-Pad13)*
X59363624Y-96110957D02*
X59363624Y-97214957D01*
X56221999Y-95162001D02*
X58459001Y-95162001D01*
X55372000Y-96012000D02*
X56221999Y-95162001D01*
X59363624Y-96066624D02*
X59363624Y-96110957D01*
X58459001Y-95162001D02*
X59363624Y-96066624D01*
G04 #@! TO.N,Net-(J6-Pad11)*
X59176169Y-93472000D02*
X59363126Y-93658957D01*
X55372000Y-93472000D02*
X59176169Y-93472000D01*
G04 #@! TO.N,Net-(J6-Pad9)*
X56896000Y-90932000D02*
X55372000Y-90932000D01*
X57725043Y-90102957D02*
X56896000Y-90932000D01*
X59363625Y-90102957D02*
X57725043Y-90102957D01*
G04 #@! TO.N,Net-(J7-Pad9)*
X70866000Y-91059000D02*
X69532500Y-91059000D01*
X70993000Y-91059000D02*
X70866000Y-91059000D01*
X72012098Y-90039902D02*
X70993000Y-91059000D01*
X73438000Y-90039902D02*
X72012098Y-90039902D01*
G04 #@! TO.N,Net-(J7-Pad11)*
X73385790Y-93599000D02*
X73455263Y-93668473D01*
X69532500Y-93599000D02*
X73385790Y-93599000D01*
G04 #@! TO.N,Net-(J7-Pad13)*
X72024044Y-97297044D02*
X73519264Y-97297044D01*
X70866000Y-96139000D02*
X72024044Y-97297044D01*
X69532500Y-96139000D02*
X70866000Y-96139000D01*
G04 #@! TO.N,Net-(J7-Pad15)*
X70191618Y-100925618D02*
X73470000Y-100925618D01*
X69532500Y-100266500D02*
X70191618Y-100925618D01*
X69532500Y-98679000D02*
X69532500Y-100266500D01*
G04 #@! TD*
G04 #@! TO.N,GND*
G36*
X98604000Y-99273908D02*
X97241910Y-100636000D01*
X92387197Y-100636000D01*
X92489306Y-100533891D01*
X92558235Y-100487834D01*
X92740687Y-100214776D01*
X92751757Y-100159122D01*
X92963083Y-100159122D01*
X93210848Y-100109839D01*
X93420892Y-99969491D01*
X93561240Y-99759447D01*
X93610523Y-99511682D01*
X93610523Y-97811682D01*
X93561240Y-97563917D01*
X93420892Y-97353873D01*
X93210848Y-97213525D01*
X92963083Y-97164242D01*
X92788583Y-97164242D01*
X92788583Y-96603121D01*
X92836082Y-96603121D01*
X93083847Y-96553838D01*
X93293891Y-96413490D01*
X93434239Y-96203446D01*
X93483522Y-95955681D01*
X93483522Y-94255681D01*
X93434239Y-94007916D01*
X93293891Y-93797872D01*
X93083847Y-93657524D01*
X92836082Y-93608241D01*
X92597583Y-93608241D01*
X92597583Y-93047122D01*
X92772083Y-93047122D01*
X93019848Y-92997839D01*
X93229892Y-92857491D01*
X93370240Y-92647447D01*
X93419523Y-92399682D01*
X93419523Y-90699682D01*
X93370240Y-90451917D01*
X93229892Y-90241873D01*
X93019848Y-90101525D01*
X92772083Y-90052242D01*
X92661583Y-90052242D01*
X92661583Y-89491121D01*
X92836083Y-89491121D01*
X93083848Y-89441838D01*
X93293892Y-89301490D01*
X93434240Y-89091446D01*
X93483523Y-88843681D01*
X93483523Y-87143681D01*
X93434240Y-86895916D01*
X93293892Y-86685872D01*
X93083848Y-86545524D01*
X92836083Y-86496241D01*
X92788583Y-86496241D01*
X92788583Y-85681123D01*
X92963083Y-85681123D01*
X93210848Y-85631840D01*
X93420892Y-85491492D01*
X93561240Y-85281448D01*
X93610523Y-85033683D01*
X93610523Y-83333683D01*
X93606211Y-83312000D01*
X95005908Y-83312000D01*
X95121161Y-83891418D01*
X95449375Y-84382625D01*
X95747761Y-84582000D01*
X95449375Y-84781375D01*
X95121161Y-85272582D01*
X95005908Y-85852000D01*
X95121161Y-86431418D01*
X95449375Y-86922625D01*
X95747761Y-87122000D01*
X95449375Y-87321375D01*
X95121161Y-87812582D01*
X95005908Y-88392000D01*
X95121161Y-88971418D01*
X95449375Y-89462625D01*
X95747761Y-89662000D01*
X95449375Y-89861375D01*
X95121161Y-90352582D01*
X95005908Y-90932000D01*
X95121161Y-91511418D01*
X95449375Y-92002625D01*
X95747761Y-92202000D01*
X95449375Y-92401375D01*
X95121161Y-92892582D01*
X95005908Y-93472000D01*
X95121161Y-94051418D01*
X95449375Y-94542625D01*
X95747761Y-94742000D01*
X95449375Y-94941375D01*
X95121161Y-95432582D01*
X95005908Y-96012000D01*
X95121161Y-96591418D01*
X95449375Y-97082625D01*
X95747761Y-97282000D01*
X95449375Y-97481375D01*
X95121161Y-97972582D01*
X95005908Y-98552000D01*
X95121161Y-99131418D01*
X95449375Y-99622625D01*
X95940582Y-99950839D01*
X96373744Y-100037000D01*
X96666256Y-100037000D01*
X97099418Y-99950839D01*
X97590625Y-99622625D01*
X97918839Y-99131418D01*
X98034092Y-98552000D01*
X97918839Y-97972582D01*
X97590625Y-97481375D01*
X97292239Y-97282000D01*
X97590625Y-97082625D01*
X97918839Y-96591418D01*
X98034092Y-96012000D01*
X97918839Y-95432582D01*
X97590625Y-94941375D01*
X97292239Y-94742000D01*
X97590625Y-94542625D01*
X97918839Y-94051418D01*
X98034092Y-93472000D01*
X97918839Y-92892582D01*
X97590625Y-92401375D01*
X97292239Y-92202000D01*
X97590625Y-92002625D01*
X97918839Y-91511418D01*
X98034092Y-90932000D01*
X97918839Y-90352582D01*
X97590625Y-89861375D01*
X97292239Y-89662000D01*
X97590625Y-89462625D01*
X97918839Y-88971418D01*
X98034092Y-88392000D01*
X97918839Y-87812582D01*
X97590625Y-87321375D01*
X97292239Y-87122000D01*
X97590625Y-86922625D01*
X97918839Y-86431418D01*
X98034092Y-85852000D01*
X97918839Y-85272582D01*
X97590625Y-84781375D01*
X97292239Y-84582000D01*
X97590625Y-84382625D01*
X97918839Y-83891418D01*
X98034092Y-83312000D01*
X97918839Y-82732582D01*
X97590625Y-82241375D01*
X97572381Y-82229184D01*
X97617765Y-82220157D01*
X97827809Y-82079809D01*
X97968157Y-81869765D01*
X98017440Y-81622000D01*
X98017440Y-79922000D01*
X97968157Y-79674235D01*
X97827809Y-79464191D01*
X97617765Y-79323843D01*
X97370000Y-79274560D01*
X95670000Y-79274560D01*
X95422235Y-79323843D01*
X95212191Y-79464191D01*
X95071843Y-79674235D01*
X95022560Y-79922000D01*
X95022560Y-81622000D01*
X95071843Y-81869765D01*
X95212191Y-82079809D01*
X95422235Y-82220157D01*
X95467619Y-82229184D01*
X95449375Y-82241375D01*
X95121161Y-82732582D01*
X95005908Y-83312000D01*
X93606211Y-83312000D01*
X93561240Y-83085918D01*
X93420892Y-82875874D01*
X93210848Y-82735526D01*
X92963083Y-82686243D01*
X92788583Y-82686243D01*
X92788583Y-81998123D01*
X92963083Y-81998123D01*
X93210848Y-81948840D01*
X93420892Y-81808492D01*
X93561240Y-81598448D01*
X93610523Y-81350683D01*
X93610523Y-79650683D01*
X93561240Y-79402918D01*
X93420892Y-79192874D01*
X93210848Y-79052526D01*
X92963083Y-79003243D01*
X92788583Y-79003243D01*
X92788583Y-78315123D01*
X92963083Y-78315123D01*
X93210848Y-78265840D01*
X93420892Y-78125492D01*
X93561240Y-77915448D01*
X93610523Y-77667683D01*
X93610523Y-75967683D01*
X93561240Y-75719918D01*
X93420892Y-75509874D01*
X93210848Y-75369526D01*
X92963083Y-75320243D01*
X92788583Y-75320243D01*
X92788583Y-74649440D01*
X92963083Y-74649440D01*
X93210848Y-74600157D01*
X93420892Y-74459809D01*
X93561240Y-74249765D01*
X93610523Y-74002000D01*
X93610523Y-72302000D01*
X93561240Y-72054235D01*
X93420892Y-71844191D01*
X93210848Y-71703843D01*
X92963083Y-71654560D01*
X90963083Y-71654560D01*
X90715318Y-71703843D01*
X90505274Y-71844191D01*
X90364926Y-72054235D01*
X90315643Y-72302000D01*
X90315643Y-74002000D01*
X90364926Y-74249765D01*
X90505274Y-74459809D01*
X90715318Y-74600157D01*
X90963083Y-74649440D01*
X91137583Y-74649440D01*
X91137584Y-75320243D01*
X90963083Y-75320243D01*
X90715318Y-75369526D01*
X90505274Y-75509874D01*
X90364926Y-75719918D01*
X90315643Y-75967683D01*
X90315643Y-77667683D01*
X90364926Y-77915448D01*
X90505274Y-78125492D01*
X90715318Y-78265840D01*
X90963083Y-78315123D01*
X91137583Y-78315123D01*
X91137584Y-79003243D01*
X90963083Y-79003243D01*
X90715318Y-79052526D01*
X90505274Y-79192874D01*
X90364926Y-79402918D01*
X90315643Y-79650683D01*
X90315643Y-81350683D01*
X90364926Y-81598448D01*
X90505274Y-81808492D01*
X90715318Y-81948840D01*
X90963083Y-81998123D01*
X91137583Y-81998123D01*
X91137584Y-82686243D01*
X90963083Y-82686243D01*
X90715318Y-82735526D01*
X90505274Y-82875874D01*
X90364926Y-83085918D01*
X90315643Y-83333683D01*
X90315643Y-85033683D01*
X90364926Y-85281448D01*
X90505274Y-85491492D01*
X90715318Y-85631840D01*
X90963083Y-85681123D01*
X91137583Y-85681123D01*
X91137584Y-86496241D01*
X90836083Y-86496241D01*
X90588318Y-86545524D01*
X90378274Y-86685872D01*
X90237926Y-86895916D01*
X90188643Y-87143681D01*
X90188643Y-88843681D01*
X90237926Y-89091446D01*
X90378274Y-89301490D01*
X90588318Y-89441838D01*
X90836083Y-89491121D01*
X91010583Y-89491121D01*
X91010584Y-90052242D01*
X90772083Y-90052242D01*
X90524318Y-90101525D01*
X90314274Y-90241873D01*
X90173926Y-90451917D01*
X90124643Y-90699682D01*
X90124643Y-92399682D01*
X90173926Y-92647447D01*
X90314274Y-92857491D01*
X90524318Y-92997839D01*
X90772083Y-93047122D01*
X90946583Y-93047122D01*
X90946584Y-93608241D01*
X90836082Y-93608241D01*
X90588317Y-93657524D01*
X90378273Y-93797872D01*
X90237925Y-94007916D01*
X90188642Y-94255681D01*
X90188642Y-95955681D01*
X90237925Y-96203446D01*
X90378273Y-96413490D01*
X90588317Y-96553838D01*
X90836082Y-96603121D01*
X91137584Y-96603121D01*
X91137583Y-97164242D01*
X90963083Y-97164242D01*
X90715318Y-97213525D01*
X90505274Y-97353873D01*
X90364926Y-97563917D01*
X90315643Y-97811682D01*
X90315643Y-99504500D01*
X89610523Y-99504500D01*
X89610523Y-97811682D01*
X89561240Y-97563917D01*
X89420892Y-97353873D01*
X89210848Y-97213525D01*
X88963083Y-97164242D01*
X86963083Y-97164242D01*
X86715318Y-97213525D01*
X86505274Y-97353873D01*
X86364926Y-97563917D01*
X86345217Y-97663000D01*
X85096842Y-97663000D01*
X84890625Y-97354375D01*
X84592239Y-97155000D01*
X84890625Y-96955625D01*
X85096842Y-96647000D01*
X85268957Y-96647000D01*
X85344000Y-96661927D01*
X85419043Y-96647000D01*
X85419048Y-96647000D01*
X85641317Y-96602788D01*
X85893371Y-96434371D01*
X85935884Y-96370746D01*
X86215570Y-96091060D01*
X86237925Y-96203446D01*
X86378273Y-96413490D01*
X86588317Y-96553838D01*
X86836082Y-96603121D01*
X88836082Y-96603121D01*
X89083847Y-96553838D01*
X89293891Y-96413490D01*
X89434239Y-96203446D01*
X89483522Y-95955681D01*
X89483522Y-94255681D01*
X89434239Y-94007916D01*
X89293891Y-93797872D01*
X89083847Y-93657524D01*
X88836082Y-93608241D01*
X86836082Y-93608241D01*
X86588317Y-93657524D01*
X86378273Y-93797872D01*
X86237925Y-94007916D01*
X86188642Y-94255681D01*
X86188642Y-94341748D01*
X86123318Y-94328754D01*
X86048275Y-94343681D01*
X86048271Y-94343681D01*
X85826002Y-94387893D01*
X85826001Y-94387894D01*
X85826000Y-94387894D01*
X85807881Y-94400001D01*
X85573948Y-94556310D01*
X85531435Y-94619935D01*
X85069416Y-95081954D01*
X84890625Y-94814375D01*
X84592239Y-94615000D01*
X84890625Y-94415625D01*
X85096842Y-94107000D01*
X85395957Y-94107000D01*
X85471000Y-94121927D01*
X85546043Y-94107000D01*
X85546048Y-94107000D01*
X85768317Y-94062788D01*
X86020371Y-93894371D01*
X86062884Y-93830746D01*
X86337746Y-93555884D01*
X86401371Y-93513371D01*
X86569788Y-93261317D01*
X86614000Y-93039048D01*
X86614000Y-93039044D01*
X86618471Y-93016567D01*
X86772083Y-93047122D01*
X88772083Y-93047122D01*
X89019848Y-92997839D01*
X89229892Y-92857491D01*
X89370240Y-92647447D01*
X89419523Y-92399682D01*
X89419523Y-90699682D01*
X89370240Y-90451917D01*
X89229892Y-90241873D01*
X89019848Y-90101525D01*
X88772083Y-90052242D01*
X88317388Y-90052242D01*
X88321830Y-90047800D01*
X88385454Y-90005288D01*
X88553871Y-89753234D01*
X88598083Y-89530965D01*
X88598083Y-89530964D01*
X88606008Y-89491121D01*
X88836083Y-89491121D01*
X89083848Y-89441838D01*
X89293892Y-89301490D01*
X89434240Y-89091446D01*
X89483523Y-88843681D01*
X89483523Y-87143681D01*
X89434240Y-86895916D01*
X89293892Y-86685872D01*
X89083848Y-86545524D01*
X88836083Y-86496241D01*
X88063389Y-86496241D01*
X88448833Y-86110798D01*
X88512454Y-86068288D01*
X88680871Y-85816234D01*
X88707746Y-85681123D01*
X88963083Y-85681123D01*
X89210848Y-85631840D01*
X89420892Y-85491492D01*
X89561240Y-85281448D01*
X89610523Y-85033683D01*
X89610523Y-83333683D01*
X89561240Y-83085918D01*
X89420892Y-82875874D01*
X89210848Y-82735526D01*
X88963083Y-82686243D01*
X86995000Y-82686243D01*
X86995000Y-81998123D01*
X88963083Y-81998123D01*
X89210848Y-81948840D01*
X89420892Y-81808492D01*
X89561240Y-81598448D01*
X89610523Y-81350683D01*
X89610523Y-79650683D01*
X89561240Y-79402918D01*
X89420892Y-79192874D01*
X89210848Y-79052526D01*
X88963083Y-79003243D01*
X86963083Y-79003243D01*
X86715318Y-79052526D01*
X86505274Y-79192874D01*
X86364926Y-79402918D01*
X86360000Y-79427683D01*
X86360000Y-77890683D01*
X86364926Y-77915448D01*
X86505274Y-78125492D01*
X86715318Y-78265840D01*
X86963083Y-78315123D01*
X88963083Y-78315123D01*
X89210848Y-78265840D01*
X89420892Y-78125492D01*
X89561240Y-77915448D01*
X89610523Y-77667683D01*
X89610523Y-75967683D01*
X89561240Y-75719918D01*
X89420892Y-75509874D01*
X89210848Y-75369526D01*
X88963083Y-75320243D01*
X86963083Y-75320243D01*
X86715318Y-75369526D01*
X86505274Y-75509874D01*
X86364926Y-75719918D01*
X86315643Y-75967683D01*
X86315643Y-76055683D01*
X86198359Y-76055683D01*
X86123316Y-76040756D01*
X86048273Y-76055683D01*
X86048269Y-76055683D01*
X85826000Y-76099895D01*
X85825999Y-76099896D01*
X85825998Y-76099896D01*
X85674609Y-76201051D01*
X85573946Y-76268312D01*
X85531435Y-76331934D01*
X85112253Y-76751117D01*
X85048629Y-76793629D01*
X84880212Y-77045684D01*
X84836000Y-77267953D01*
X84836000Y-77267957D01*
X84821073Y-77343000D01*
X84836000Y-77418043D01*
X84836000Y-79180579D01*
X84670000Y-79147560D01*
X84582000Y-79147560D01*
X84582000Y-75499630D01*
X86167631Y-73914000D01*
X86315643Y-73914000D01*
X86315643Y-74002000D01*
X86364926Y-74249765D01*
X86505274Y-74459809D01*
X86715318Y-74600157D01*
X86963083Y-74649440D01*
X88963083Y-74649440D01*
X89210848Y-74600157D01*
X89420892Y-74459809D01*
X89561240Y-74249765D01*
X89610523Y-74002000D01*
X89610523Y-72302000D01*
X89561240Y-72054235D01*
X89420892Y-71844191D01*
X89210848Y-71703843D01*
X88963083Y-71654560D01*
X86963083Y-71654560D01*
X86715318Y-71703843D01*
X86505274Y-71844191D01*
X86364926Y-72054235D01*
X86315643Y-72302000D01*
X86315643Y-72390000D01*
X85927043Y-72390000D01*
X85852000Y-72375073D01*
X85776957Y-72390000D01*
X85776952Y-72390000D01*
X85554683Y-72434212D01*
X85302629Y-72602629D01*
X85260118Y-72666251D01*
X83334251Y-74592119D01*
X83270630Y-74634629D01*
X83228119Y-74698251D01*
X83228118Y-74698252D01*
X83102213Y-74886683D01*
X83043073Y-75184000D01*
X83058001Y-75259048D01*
X83058000Y-79147560D01*
X82970000Y-79147560D01*
X82722235Y-79196843D01*
X82512191Y-79337191D01*
X82371843Y-79547235D01*
X82350039Y-79656855D01*
X82161358Y-79449817D01*
X81636892Y-79203514D01*
X81407000Y-79324181D01*
X81407000Y-80518000D01*
X81427000Y-80518000D01*
X81427000Y-80772000D01*
X81407000Y-80772000D01*
X81407000Y-83058000D01*
X81427000Y-83058000D01*
X81427000Y-83312000D01*
X81407000Y-83312000D01*
X81407000Y-85598000D01*
X81427000Y-85598000D01*
X81427000Y-85852000D01*
X81407000Y-85852000D01*
X81407000Y-88138000D01*
X81427000Y-88138000D01*
X81427000Y-88392000D01*
X81407000Y-88392000D01*
X81407000Y-90678000D01*
X81427000Y-90678000D01*
X81427000Y-90932000D01*
X81407000Y-90932000D01*
X81407000Y-93218000D01*
X81427000Y-93218000D01*
X81427000Y-93472000D01*
X81407000Y-93472000D01*
X81407000Y-95758000D01*
X81427000Y-95758000D01*
X81427000Y-96012000D01*
X81407000Y-96012000D01*
X81407000Y-98298000D01*
X81427000Y-98298000D01*
X81427000Y-98552000D01*
X81407000Y-98552000D01*
X81407000Y-99745819D01*
X81636892Y-99866486D01*
X82161358Y-99620183D01*
X82548647Y-99195214D01*
X82749375Y-99495625D01*
X83240582Y-99823839D01*
X83673744Y-99910000D01*
X83966256Y-99910000D01*
X84399418Y-99823839D01*
X84464397Y-99780422D01*
X84448793Y-99803774D01*
X82462068Y-101790500D01*
X79114480Y-101790500D01*
X79117440Y-101775618D01*
X79117440Y-100075618D01*
X79068157Y-99827853D01*
X78927809Y-99617809D01*
X78717765Y-99477461D01*
X78470000Y-99428178D01*
X78295500Y-99428178D01*
X78295500Y-98794484D01*
X78519264Y-98794484D01*
X78582578Y-98781890D01*
X79838524Y-98781890D01*
X80008355Y-99191924D01*
X80398642Y-99620183D01*
X80923108Y-99866486D01*
X81153000Y-99745819D01*
X81153000Y-98552000D01*
X79959845Y-98552000D01*
X79838524Y-98781890D01*
X78582578Y-98781890D01*
X78767029Y-98745201D01*
X78977073Y-98604853D01*
X79117421Y-98394809D01*
X79166704Y-98147044D01*
X79166704Y-96447044D01*
X79125897Y-96241890D01*
X79838524Y-96241890D01*
X80008355Y-96651924D01*
X80398642Y-97080183D01*
X80557954Y-97155000D01*
X80398642Y-97229817D01*
X80008355Y-97658076D01*
X79838524Y-98068110D01*
X79959845Y-98298000D01*
X81153000Y-98298000D01*
X81153000Y-96012000D01*
X79959845Y-96012000D01*
X79838524Y-96241890D01*
X79125897Y-96241890D01*
X79117421Y-96199279D01*
X78977073Y-95989235D01*
X78767029Y-95848887D01*
X78519264Y-95799604D01*
X78280763Y-95799604D01*
X78280763Y-95165913D01*
X78455263Y-95165913D01*
X78703028Y-95116630D01*
X78913072Y-94976282D01*
X79053420Y-94766238D01*
X79102703Y-94518473D01*
X79102703Y-93701890D01*
X79838524Y-93701890D01*
X80008355Y-94111924D01*
X80398642Y-94540183D01*
X80557954Y-94615000D01*
X80398642Y-94689817D01*
X80008355Y-95118076D01*
X79838524Y-95528110D01*
X79959845Y-95758000D01*
X81153000Y-95758000D01*
X81153000Y-93472000D01*
X79959845Y-93472000D01*
X79838524Y-93701890D01*
X79102703Y-93701890D01*
X79102703Y-92818473D01*
X79053420Y-92570708D01*
X78913072Y-92360664D01*
X78703028Y-92220316D01*
X78455263Y-92171033D01*
X78280763Y-92171033D01*
X78280763Y-91537342D01*
X78438000Y-91537342D01*
X78685765Y-91488059D01*
X78895809Y-91347711D01*
X79019971Y-91161890D01*
X79838524Y-91161890D01*
X80008355Y-91571924D01*
X80398642Y-92000183D01*
X80557954Y-92075000D01*
X80398642Y-92149817D01*
X80008355Y-92578076D01*
X79838524Y-92988110D01*
X79959845Y-93218000D01*
X81153000Y-93218000D01*
X81153000Y-90932000D01*
X79959845Y-90932000D01*
X79838524Y-91161890D01*
X79019971Y-91161890D01*
X79036157Y-91137667D01*
X79085440Y-90889902D01*
X79085440Y-89189902D01*
X79036157Y-88942137D01*
X78895809Y-88732093D01*
X78730880Y-88621890D01*
X79838524Y-88621890D01*
X80008355Y-89031924D01*
X80398642Y-89460183D01*
X80557954Y-89535000D01*
X80398642Y-89609817D01*
X80008355Y-90038076D01*
X79838524Y-90448110D01*
X79959845Y-90678000D01*
X81153000Y-90678000D01*
X81153000Y-88392000D01*
X79959845Y-88392000D01*
X79838524Y-88621890D01*
X78730880Y-88621890D01*
X78685765Y-88591745D01*
X78438000Y-88542462D01*
X78295500Y-88542462D01*
X78295500Y-87908771D01*
X78470000Y-87908771D01*
X78717765Y-87859488D01*
X78927809Y-87719140D01*
X79068157Y-87509096D01*
X79117440Y-87261331D01*
X79117440Y-86081890D01*
X79838524Y-86081890D01*
X80008355Y-86491924D01*
X80398642Y-86920183D01*
X80557954Y-86995000D01*
X80398642Y-87069817D01*
X80008355Y-87498076D01*
X79838524Y-87908110D01*
X79959845Y-88138000D01*
X81153000Y-88138000D01*
X81153000Y-85852000D01*
X79959845Y-85852000D01*
X79838524Y-86081890D01*
X79117440Y-86081890D01*
X79117440Y-85561331D01*
X79068157Y-85313566D01*
X78927809Y-85103522D01*
X78717765Y-84963174D01*
X78470000Y-84913891D01*
X78280763Y-84913891D01*
X78280763Y-84280200D01*
X78455263Y-84280200D01*
X78703028Y-84230917D01*
X78913072Y-84090569D01*
X79053420Y-83880525D01*
X79102703Y-83632760D01*
X79102703Y-83541890D01*
X79838524Y-83541890D01*
X80008355Y-83951924D01*
X80398642Y-84380183D01*
X80557954Y-84455000D01*
X80398642Y-84529817D01*
X80008355Y-84958076D01*
X79838524Y-85368110D01*
X79959845Y-85598000D01*
X81153000Y-85598000D01*
X81153000Y-83312000D01*
X79959845Y-83312000D01*
X79838524Y-83541890D01*
X79102703Y-83541890D01*
X79102703Y-81932760D01*
X79053420Y-81684995D01*
X78913072Y-81474951D01*
X78703028Y-81334603D01*
X78455263Y-81285320D01*
X78280764Y-81285320D01*
X78280764Y-81001890D01*
X79838524Y-81001890D01*
X80008355Y-81411924D01*
X80398642Y-81840183D01*
X80557954Y-81915000D01*
X80398642Y-81989817D01*
X80008355Y-82418076D01*
X79838524Y-82828110D01*
X79959845Y-83058000D01*
X81153000Y-83058000D01*
X81153000Y-80772000D01*
X79959845Y-80772000D01*
X79838524Y-81001890D01*
X78280764Y-81001890D01*
X78280764Y-80651629D01*
X78455264Y-80651629D01*
X78703029Y-80602346D01*
X78913073Y-80461998D01*
X79029262Y-80288110D01*
X79838524Y-80288110D01*
X79959845Y-80518000D01*
X81153000Y-80518000D01*
X81153000Y-79324181D01*
X80923108Y-79203514D01*
X80398642Y-79449817D01*
X80008355Y-79878076D01*
X79838524Y-80288110D01*
X79029262Y-80288110D01*
X79053421Y-80251954D01*
X79102704Y-80004189D01*
X79102704Y-78304189D01*
X79053421Y-78056424D01*
X78913073Y-77846380D01*
X78703029Y-77706032D01*
X78455264Y-77656749D01*
X78280763Y-77656749D01*
X78280763Y-77023058D01*
X78455263Y-77023058D01*
X78703028Y-76973775D01*
X78913072Y-76833427D01*
X79053420Y-76623383D01*
X79102703Y-76375618D01*
X79102703Y-74675618D01*
X79053420Y-74427853D01*
X78913072Y-74217809D01*
X78703028Y-74077461D01*
X78455263Y-74028178D01*
X76455263Y-74028178D01*
X76207498Y-74077461D01*
X75997454Y-74217809D01*
X75857106Y-74427853D01*
X75807823Y-74675618D01*
X75807823Y-76375618D01*
X75857106Y-76623383D01*
X75997454Y-76833427D01*
X76207498Y-76973775D01*
X76455263Y-77023058D01*
X76629763Y-77023058D01*
X76629764Y-77656749D01*
X76455264Y-77656749D01*
X76207499Y-77706032D01*
X75997455Y-77846380D01*
X75857107Y-78056424D01*
X75807824Y-78304189D01*
X75807824Y-80004189D01*
X75857107Y-80251954D01*
X75997455Y-80461998D01*
X76207499Y-80602346D01*
X76455264Y-80651629D01*
X76629764Y-80651629D01*
X76629765Y-81285320D01*
X76455263Y-81285320D01*
X76207498Y-81334603D01*
X75997454Y-81474951D01*
X75857106Y-81684995D01*
X75807823Y-81932760D01*
X75807823Y-83632760D01*
X75857106Y-83880525D01*
X75997454Y-84090569D01*
X76207498Y-84230917D01*
X76455263Y-84280200D01*
X76629763Y-84280200D01*
X76629764Y-84913891D01*
X76470000Y-84913891D01*
X76222235Y-84963174D01*
X76012191Y-85103522D01*
X75871843Y-85313566D01*
X75822560Y-85561331D01*
X75822560Y-87261331D01*
X75871843Y-87509096D01*
X76012191Y-87719140D01*
X76222235Y-87859488D01*
X76470000Y-87908771D01*
X76644500Y-87908771D01*
X76644501Y-88542462D01*
X76438000Y-88542462D01*
X76190235Y-88591745D01*
X75980191Y-88732093D01*
X75839843Y-88942137D01*
X75790560Y-89189902D01*
X75790560Y-90889902D01*
X75839843Y-91137667D01*
X75980191Y-91347711D01*
X76190235Y-91488059D01*
X76438000Y-91537342D01*
X76629764Y-91537342D01*
X76629763Y-92171033D01*
X76455263Y-92171033D01*
X76207498Y-92220316D01*
X75997454Y-92360664D01*
X75857106Y-92570708D01*
X75807823Y-92818473D01*
X75807823Y-94518473D01*
X75857106Y-94766238D01*
X75997454Y-94976282D01*
X76207498Y-95116630D01*
X76455263Y-95165913D01*
X76629763Y-95165913D01*
X76629764Y-95799604D01*
X76519264Y-95799604D01*
X76271499Y-95848887D01*
X76061455Y-95989235D01*
X75921107Y-96199279D01*
X75871824Y-96447044D01*
X75871824Y-98147044D01*
X75921107Y-98394809D01*
X76061455Y-98604853D01*
X76271499Y-98745201D01*
X76519264Y-98794484D01*
X76644501Y-98794484D01*
X76644500Y-99428178D01*
X76470000Y-99428178D01*
X76222235Y-99477461D01*
X76012191Y-99617809D01*
X75871843Y-99827853D01*
X75822560Y-100075618D01*
X75822560Y-101775618D01*
X75825520Y-101790500D01*
X75114480Y-101790500D01*
X75117440Y-101775618D01*
X75117440Y-100075618D01*
X75068157Y-99827853D01*
X74927809Y-99617809D01*
X74717765Y-99477461D01*
X74470000Y-99428178D01*
X72470000Y-99428178D01*
X72222235Y-99477461D01*
X72012191Y-99617809D01*
X71871843Y-99827853D01*
X71822560Y-100075618D01*
X71822560Y-100163618D01*
X70507249Y-100163618D01*
X70297480Y-99953850D01*
X70603125Y-99749625D01*
X70931339Y-99258418D01*
X71046592Y-98679000D01*
X70931339Y-98099582D01*
X70603125Y-97608375D01*
X70304739Y-97409000D01*
X70603125Y-97209625D01*
X70705612Y-97056242D01*
X71432162Y-97782793D01*
X71474673Y-97846415D01*
X71538295Y-97888926D01*
X71572942Y-97912076D01*
X71726727Y-98014832D01*
X71871824Y-98043694D01*
X71871824Y-98147044D01*
X71921107Y-98394809D01*
X72061455Y-98604853D01*
X72271499Y-98745201D01*
X72519264Y-98794484D01*
X74519264Y-98794484D01*
X74767029Y-98745201D01*
X74977073Y-98604853D01*
X75117421Y-98394809D01*
X75166704Y-98147044D01*
X75166704Y-96447044D01*
X75117421Y-96199279D01*
X74977073Y-95989235D01*
X74767029Y-95848887D01*
X74519264Y-95799604D01*
X72519264Y-95799604D01*
X72271499Y-95848887D01*
X72061455Y-95989235D01*
X71954273Y-96149643D01*
X71457883Y-95653253D01*
X71415371Y-95589629D01*
X71163317Y-95421212D01*
X70941048Y-95377000D01*
X70941043Y-95377000D01*
X70866000Y-95362073D01*
X70807185Y-95373772D01*
X70603125Y-95068375D01*
X70304739Y-94869000D01*
X70603125Y-94669625D01*
X70809342Y-94361000D01*
X71807823Y-94361000D01*
X71807823Y-94518473D01*
X71857106Y-94766238D01*
X71997454Y-94976282D01*
X72207498Y-95116630D01*
X72455263Y-95165913D01*
X74455263Y-95165913D01*
X74703028Y-95116630D01*
X74913072Y-94976282D01*
X75053420Y-94766238D01*
X75102703Y-94518473D01*
X75102703Y-92818473D01*
X75053420Y-92570708D01*
X74913072Y-92360664D01*
X74703028Y-92220316D01*
X74455263Y-92171033D01*
X72455263Y-92171033D01*
X72207498Y-92220316D01*
X71997454Y-92360664D01*
X71857106Y-92570708D01*
X71807823Y-92818473D01*
X71807823Y-92837000D01*
X70809342Y-92837000D01*
X70603125Y-92528375D01*
X70304739Y-92329000D01*
X70603125Y-92129625D01*
X70809342Y-91821000D01*
X70917957Y-91821000D01*
X70993000Y-91835927D01*
X71068043Y-91821000D01*
X71068048Y-91821000D01*
X71290317Y-91776788D01*
X71542371Y-91608371D01*
X71584883Y-91544747D01*
X71900774Y-91228856D01*
X71980191Y-91347711D01*
X72190235Y-91488059D01*
X72438000Y-91537342D01*
X74438000Y-91537342D01*
X74685765Y-91488059D01*
X74895809Y-91347711D01*
X75036157Y-91137667D01*
X75085440Y-90889902D01*
X75085440Y-89189902D01*
X75036157Y-88942137D01*
X74895809Y-88732093D01*
X74685765Y-88591745D01*
X74438000Y-88542462D01*
X72438000Y-88542462D01*
X72190235Y-88591745D01*
X71980191Y-88732093D01*
X71839843Y-88942137D01*
X71790560Y-89189902D01*
X71790560Y-89307041D01*
X71714781Y-89322114D01*
X71714780Y-89322115D01*
X71714779Y-89322115D01*
X71527876Y-89447000D01*
X71462727Y-89490531D01*
X71420216Y-89554153D01*
X70756481Y-90217889D01*
X70603125Y-89988375D01*
X70304739Y-89789000D01*
X70603125Y-89589625D01*
X70809342Y-89281000D01*
X70917957Y-89281000D01*
X70993000Y-89295927D01*
X71068043Y-89281000D01*
X71068048Y-89281000D01*
X71290317Y-89236788D01*
X71542371Y-89068371D01*
X71584884Y-89004746D01*
X71986746Y-88602884D01*
X72050371Y-88560371D01*
X72218788Y-88308317D01*
X72263000Y-88086048D01*
X72263000Y-88086044D01*
X72277927Y-88011001D01*
X72263000Y-87935958D01*
X72263000Y-87867597D01*
X72470000Y-87908771D01*
X74470000Y-87908771D01*
X74717765Y-87859488D01*
X74927809Y-87719140D01*
X75068157Y-87509096D01*
X75117440Y-87261331D01*
X75117440Y-85561331D01*
X75068157Y-85313566D01*
X74927809Y-85103522D01*
X74717765Y-84963174D01*
X74470000Y-84913891D01*
X72517000Y-84913891D01*
X72517000Y-84280200D01*
X74455263Y-84280200D01*
X74703028Y-84230917D01*
X74913072Y-84090569D01*
X75053420Y-83880525D01*
X75102703Y-83632760D01*
X75102703Y-81932760D01*
X75053420Y-81684995D01*
X74913072Y-81474951D01*
X74703028Y-81334603D01*
X74455263Y-81285320D01*
X72455263Y-81285320D01*
X72207498Y-81334603D01*
X72009000Y-81467236D01*
X72009000Y-80469712D01*
X72207499Y-80602346D01*
X72455264Y-80651629D01*
X74455264Y-80651629D01*
X74703029Y-80602346D01*
X74913073Y-80461998D01*
X75053421Y-80251954D01*
X75102704Y-80004189D01*
X75102704Y-78304189D01*
X75053421Y-78056424D01*
X74913073Y-77846380D01*
X74703029Y-77706032D01*
X74455264Y-77656749D01*
X72455264Y-77656749D01*
X72207499Y-77706032D01*
X71997455Y-77846380D01*
X71857107Y-78056424D01*
X71807824Y-78304189D01*
X71807824Y-78410676D01*
X71678494Y-78436401D01*
X71678493Y-78436402D01*
X71678492Y-78436402D01*
X71563882Y-78512982D01*
X71426440Y-78604818D01*
X71383929Y-78668440D01*
X70761253Y-79291117D01*
X70697629Y-79333629D01*
X70620595Y-79448919D01*
X70382500Y-79401560D01*
X70294500Y-79401560D01*
X70294500Y-78103130D01*
X71843359Y-76554272D01*
X71857106Y-76623383D01*
X71997454Y-76833427D01*
X72207498Y-76973775D01*
X72455263Y-77023058D01*
X74455263Y-77023058D01*
X74703028Y-76973775D01*
X74913072Y-76833427D01*
X75053420Y-76623383D01*
X75102703Y-76375618D01*
X75102703Y-74675618D01*
X75053420Y-74427853D01*
X74913072Y-74217809D01*
X74703028Y-74077461D01*
X74455263Y-74028178D01*
X72455263Y-74028178D01*
X72207498Y-74077461D01*
X71997454Y-74217809D01*
X71857106Y-74427853D01*
X71807823Y-74675618D01*
X71807823Y-74751365D01*
X71794381Y-74748691D01*
X71719338Y-74763618D01*
X71719334Y-74763618D01*
X71497065Y-74807830D01*
X71497064Y-74807831D01*
X71497063Y-74807831D01*
X71379053Y-74886683D01*
X71245011Y-74976247D01*
X71202500Y-75039869D01*
X69046753Y-77195617D01*
X68983129Y-77238129D01*
X68814712Y-77490184D01*
X68770500Y-77712453D01*
X68770500Y-77712457D01*
X68755573Y-77787500D01*
X68770500Y-77862544D01*
X68770501Y-79401560D01*
X68682500Y-79401560D01*
X68434735Y-79450843D01*
X68224691Y-79591191D01*
X68084343Y-79801235D01*
X68062539Y-79910855D01*
X67873858Y-79703817D01*
X67349392Y-79457514D01*
X67119500Y-79578181D01*
X67119500Y-80772000D01*
X67139500Y-80772000D01*
X67139500Y-81026000D01*
X67119500Y-81026000D01*
X67119500Y-83312000D01*
X67139500Y-83312000D01*
X67139500Y-83566000D01*
X67119500Y-83566000D01*
X67119500Y-85852000D01*
X67139500Y-85852000D01*
X67139500Y-86106000D01*
X67119500Y-86106000D01*
X67119500Y-88392000D01*
X67139500Y-88392000D01*
X67139500Y-88646000D01*
X67119500Y-88646000D01*
X67119500Y-90932000D01*
X67139500Y-90932000D01*
X67139500Y-91186000D01*
X67119500Y-91186000D01*
X67119500Y-93472000D01*
X67139500Y-93472000D01*
X67139500Y-93726000D01*
X67119500Y-93726000D01*
X67119500Y-96012000D01*
X67139500Y-96012000D01*
X67139500Y-96266000D01*
X67119500Y-96266000D01*
X67119500Y-98552000D01*
X67139500Y-98552000D01*
X67139500Y-98806000D01*
X67119500Y-98806000D01*
X67119500Y-99999819D01*
X67349392Y-100120486D01*
X67873858Y-99874183D01*
X68261147Y-99449214D01*
X68461875Y-99749625D01*
X68770501Y-99955842D01*
X68770501Y-100191452D01*
X68755573Y-100266500D01*
X68814713Y-100563817D01*
X68890470Y-100677195D01*
X68983130Y-100815871D01*
X69046751Y-100858381D01*
X69599736Y-101411367D01*
X69642247Y-101474989D01*
X69894301Y-101643406D01*
X70116570Y-101687618D01*
X70116571Y-101687618D01*
X70191618Y-101702546D01*
X70266665Y-101687618D01*
X71822560Y-101687618D01*
X71822560Y-101775618D01*
X71825520Y-101790500D01*
X64893440Y-101790500D01*
X64893440Y-100242000D01*
X64844157Y-99994235D01*
X64703809Y-99784191D01*
X64493765Y-99643843D01*
X64246000Y-99594560D01*
X64189124Y-99594560D01*
X64189124Y-99035890D01*
X65551024Y-99035890D01*
X65720855Y-99445924D01*
X66111142Y-99874183D01*
X66635608Y-100120486D01*
X66865500Y-99999819D01*
X66865500Y-98806000D01*
X65672345Y-98806000D01*
X65551024Y-99035890D01*
X64189124Y-99035890D01*
X64189124Y-98712397D01*
X64363624Y-98712397D01*
X64611389Y-98663114D01*
X64821433Y-98522766D01*
X64961781Y-98312722D01*
X65011064Y-98064957D01*
X65011064Y-96495890D01*
X65551024Y-96495890D01*
X65720855Y-96905924D01*
X66111142Y-97334183D01*
X66270454Y-97409000D01*
X66111142Y-97483817D01*
X65720855Y-97912076D01*
X65551024Y-98322110D01*
X65672345Y-98552000D01*
X66865500Y-98552000D01*
X66865500Y-96266000D01*
X65672345Y-96266000D01*
X65551024Y-96495890D01*
X65011064Y-96495890D01*
X65011064Y-96364957D01*
X64961781Y-96117192D01*
X64821433Y-95907148D01*
X64611389Y-95766800D01*
X64363624Y-95717517D01*
X64188626Y-95717517D01*
X64188626Y-95156397D01*
X64363126Y-95156397D01*
X64610891Y-95107114D01*
X64820935Y-94966766D01*
X64961283Y-94756722D01*
X65010566Y-94508957D01*
X65010566Y-93955890D01*
X65551024Y-93955890D01*
X65720855Y-94365924D01*
X66111142Y-94794183D01*
X66270454Y-94869000D01*
X66111142Y-94943817D01*
X65720855Y-95372076D01*
X65551024Y-95782110D01*
X65672345Y-96012000D01*
X66865500Y-96012000D01*
X66865500Y-93726000D01*
X65672345Y-93726000D01*
X65551024Y-93955890D01*
X65010566Y-93955890D01*
X65010566Y-92808957D01*
X64961283Y-92561192D01*
X64820935Y-92351148D01*
X64610891Y-92210800D01*
X64363126Y-92161517D01*
X64189125Y-92161517D01*
X64189125Y-91600397D01*
X64363625Y-91600397D01*
X64611390Y-91551114D01*
X64813765Y-91415890D01*
X65551024Y-91415890D01*
X65720855Y-91825924D01*
X66111142Y-92254183D01*
X66270454Y-92329000D01*
X66111142Y-92403817D01*
X65720855Y-92832076D01*
X65551024Y-93242110D01*
X65672345Y-93472000D01*
X66865500Y-93472000D01*
X66865500Y-91186000D01*
X65672345Y-91186000D01*
X65551024Y-91415890D01*
X64813765Y-91415890D01*
X64821434Y-91410766D01*
X64961782Y-91200722D01*
X65011065Y-90952957D01*
X65011065Y-89252957D01*
X64961782Y-89005192D01*
X64875385Y-88875890D01*
X65551024Y-88875890D01*
X65720855Y-89285924D01*
X66111142Y-89714183D01*
X66270454Y-89789000D01*
X66111142Y-89863817D01*
X65720855Y-90292076D01*
X65551024Y-90702110D01*
X65672345Y-90932000D01*
X66865500Y-90932000D01*
X66865500Y-88646000D01*
X65672345Y-88646000D01*
X65551024Y-88875890D01*
X64875385Y-88875890D01*
X64821434Y-88795148D01*
X64611390Y-88654800D01*
X64363625Y-88605517D01*
X64189124Y-88605517D01*
X64189124Y-88044397D01*
X64363624Y-88044397D01*
X64611389Y-87995114D01*
X64821433Y-87854766D01*
X64961781Y-87644722D01*
X65011064Y-87396957D01*
X65011064Y-86335890D01*
X65551024Y-86335890D01*
X65720855Y-86745924D01*
X66111142Y-87174183D01*
X66270454Y-87249000D01*
X66111142Y-87323817D01*
X65720855Y-87752076D01*
X65551024Y-88162110D01*
X65672345Y-88392000D01*
X66865500Y-88392000D01*
X66865500Y-86106000D01*
X65672345Y-86106000D01*
X65551024Y-86335890D01*
X65011064Y-86335890D01*
X65011064Y-85696957D01*
X64961781Y-85449192D01*
X64821433Y-85239148D01*
X64611389Y-85098800D01*
X64363624Y-85049517D01*
X64293500Y-85049517D01*
X64293500Y-84488397D01*
X64468000Y-84488397D01*
X64715765Y-84439114D01*
X64925809Y-84298766D01*
X65066157Y-84088722D01*
X65115440Y-83840957D01*
X65115440Y-83795890D01*
X65551024Y-83795890D01*
X65720855Y-84205924D01*
X66111142Y-84634183D01*
X66270454Y-84709000D01*
X66111142Y-84783817D01*
X65720855Y-85212076D01*
X65551024Y-85622110D01*
X65672345Y-85852000D01*
X66865500Y-85852000D01*
X66865500Y-83566000D01*
X65672345Y-83566000D01*
X65551024Y-83795890D01*
X65115440Y-83795890D01*
X65115440Y-82140957D01*
X65066157Y-81893192D01*
X64925809Y-81683148D01*
X64715765Y-81542800D01*
X64468000Y-81493517D01*
X64293500Y-81493517D01*
X64293500Y-81255890D01*
X65551024Y-81255890D01*
X65720855Y-81665924D01*
X66111142Y-82094183D01*
X66270454Y-82169000D01*
X66111142Y-82243817D01*
X65720855Y-82672076D01*
X65551024Y-83082110D01*
X65672345Y-83312000D01*
X66865500Y-83312000D01*
X66865500Y-81026000D01*
X65672345Y-81026000D01*
X65551024Y-81255890D01*
X64293500Y-81255890D01*
X64293500Y-80999440D01*
X64468000Y-80999440D01*
X64715765Y-80950157D01*
X64925809Y-80809809D01*
X65066157Y-80599765D01*
X65077625Y-80542110D01*
X65551024Y-80542110D01*
X65672345Y-80772000D01*
X66865500Y-80772000D01*
X66865500Y-79578181D01*
X66635608Y-79457514D01*
X66111142Y-79703817D01*
X65720855Y-80132076D01*
X65551024Y-80542110D01*
X65077625Y-80542110D01*
X65115440Y-80352000D01*
X65115440Y-78652000D01*
X65066157Y-78404235D01*
X64925809Y-78194191D01*
X64715765Y-78053843D01*
X64468000Y-78004560D01*
X64293500Y-78004560D01*
X64293500Y-77376397D01*
X64468000Y-77376397D01*
X64715765Y-77327114D01*
X64925809Y-77186766D01*
X65066157Y-76976722D01*
X65115440Y-76728957D01*
X65115440Y-75028957D01*
X65066157Y-74781192D01*
X64925809Y-74571148D01*
X64715765Y-74430800D01*
X64468000Y-74381517D01*
X64293500Y-74381517D01*
X64293500Y-72439301D01*
X64309672Y-72358000D01*
X64254648Y-72081375D01*
X64245604Y-72035906D01*
X64063152Y-71762848D01*
X63994226Y-71716793D01*
X62363209Y-70085777D01*
X62317152Y-70016848D01*
X62044094Y-69834396D01*
X61803303Y-69786500D01*
X61803301Y-69786500D01*
X61722000Y-69770328D01*
X61640699Y-69786500D01*
X49494412Y-69786500D01*
X49330625Y-69541375D01*
X49032239Y-69342000D01*
X49330625Y-69142625D01*
X49658839Y-68651418D01*
X49774092Y-68072000D01*
X49658839Y-67492582D01*
X49330625Y-67001375D01*
X49032239Y-66802000D01*
X49330625Y-66602625D01*
X49658839Y-66111418D01*
X49774092Y-65532000D01*
X49658839Y-64952582D01*
X49330625Y-64461375D01*
X49312381Y-64449184D01*
X49357765Y-64440157D01*
X49567809Y-64299809D01*
X49708157Y-64089765D01*
X49723625Y-64012000D01*
X95005908Y-64012000D01*
X95121161Y-64591418D01*
X95449375Y-65082625D01*
X95747761Y-65282000D01*
X95449375Y-65481375D01*
X95121161Y-65972582D01*
X95005908Y-66552000D01*
X95121161Y-67131418D01*
X95449375Y-67622625D01*
X95747761Y-67822000D01*
X95449375Y-68021375D01*
X95121161Y-68512582D01*
X95005908Y-69092000D01*
X95121161Y-69671418D01*
X95449375Y-70162625D01*
X95747761Y-70362000D01*
X95449375Y-70561375D01*
X95121161Y-71052582D01*
X95005908Y-71632000D01*
X95121161Y-72211418D01*
X95449375Y-72702625D01*
X95747761Y-72902000D01*
X95449375Y-73101375D01*
X95121161Y-73592582D01*
X95005908Y-74172000D01*
X95121161Y-74751418D01*
X95449375Y-75242625D01*
X95747761Y-75442000D01*
X95449375Y-75641375D01*
X95121161Y-76132582D01*
X95005908Y-76712000D01*
X95121161Y-77291418D01*
X95449375Y-77782625D01*
X95940582Y-78110839D01*
X96373744Y-78197000D01*
X96666256Y-78197000D01*
X97099418Y-78110839D01*
X97590625Y-77782625D01*
X97918839Y-77291418D01*
X98034092Y-76712000D01*
X97918839Y-76132582D01*
X97590625Y-75641375D01*
X97292239Y-75442000D01*
X97590625Y-75242625D01*
X97918839Y-74751418D01*
X98034092Y-74172000D01*
X97918839Y-73592582D01*
X97590625Y-73101375D01*
X97292239Y-72902000D01*
X97590625Y-72702625D01*
X97918839Y-72211418D01*
X98034092Y-71632000D01*
X97918839Y-71052582D01*
X97590625Y-70561375D01*
X97292239Y-70362000D01*
X97590625Y-70162625D01*
X97918839Y-69671418D01*
X98034092Y-69092000D01*
X97918839Y-68512582D01*
X97590625Y-68021375D01*
X97292239Y-67822000D01*
X97590625Y-67622625D01*
X97918839Y-67131418D01*
X98034092Y-66552000D01*
X97918839Y-65972582D01*
X97590625Y-65481375D01*
X97292239Y-65282000D01*
X97590625Y-65082625D01*
X97918839Y-64591418D01*
X98034092Y-64012000D01*
X97918839Y-63432582D01*
X97590625Y-62941375D01*
X97271522Y-62728157D01*
X97401358Y-62667183D01*
X97791645Y-62238924D01*
X97961476Y-61828890D01*
X97840155Y-61599000D01*
X96647000Y-61599000D01*
X96647000Y-61619000D01*
X96393000Y-61619000D01*
X96393000Y-61599000D01*
X95199845Y-61599000D01*
X95078524Y-61828890D01*
X95248355Y-62238924D01*
X95638642Y-62667183D01*
X95768478Y-62728157D01*
X95449375Y-62941375D01*
X95121161Y-63432582D01*
X95005908Y-64012000D01*
X49723625Y-64012000D01*
X49757440Y-63842000D01*
X49757440Y-62142000D01*
X49708157Y-61894235D01*
X49644635Y-61799167D01*
X55499000Y-61799167D01*
X55499000Y-62152833D01*
X55634342Y-62479578D01*
X55884422Y-62729658D01*
X56006994Y-62780429D01*
X56006994Y-62914833D01*
X56142336Y-63241578D01*
X56392416Y-63491658D01*
X56719161Y-63627000D01*
X57072827Y-63627000D01*
X57379433Y-63500000D01*
X69112561Y-63500000D01*
X69419167Y-63627000D01*
X69772833Y-63627000D01*
X70079439Y-63500000D01*
X83844561Y-63500000D01*
X84151167Y-63627000D01*
X84504833Y-63627000D01*
X84811439Y-63500000D01*
X90098957Y-63500000D01*
X90174000Y-63514927D01*
X90249043Y-63500000D01*
X90249048Y-63500000D01*
X90471317Y-63455788D01*
X90723371Y-63287371D01*
X90765883Y-63223747D01*
X95014489Y-58975141D01*
X95121161Y-59511418D01*
X95449375Y-60002625D01*
X95768478Y-60215843D01*
X95638642Y-60276817D01*
X95248355Y-60705076D01*
X95078524Y-61115110D01*
X95199845Y-61345000D01*
X96393000Y-61345000D01*
X96393000Y-61325000D01*
X96647000Y-61325000D01*
X96647000Y-61345000D01*
X97840155Y-61345000D01*
X97961476Y-61115110D01*
X97791645Y-60705076D01*
X97401358Y-60276817D01*
X97271522Y-60215843D01*
X97590625Y-60002625D01*
X97918839Y-59511418D01*
X98034092Y-58932000D01*
X97918839Y-58352582D01*
X97590625Y-57861375D01*
X97292239Y-57662000D01*
X97590625Y-57462625D01*
X97918839Y-56971418D01*
X98034092Y-56392000D01*
X97918839Y-55812582D01*
X97590625Y-55321375D01*
X97572381Y-55309184D01*
X97617765Y-55300157D01*
X97827809Y-55159809D01*
X97968157Y-54949765D01*
X98017440Y-54702000D01*
X98017440Y-53002000D01*
X97968157Y-52754235D01*
X97827809Y-52544191D01*
X97617765Y-52403843D01*
X97370000Y-52354560D01*
X95670000Y-52354560D01*
X95422235Y-52403843D01*
X95212191Y-52544191D01*
X95071843Y-52754235D01*
X95022560Y-53002000D01*
X95022560Y-53081151D01*
X94992000Y-53075072D01*
X94916953Y-53090000D01*
X94916952Y-53090000D01*
X94694683Y-53134212D01*
X94442629Y-53302629D01*
X94400118Y-53366251D01*
X93875251Y-53891119D01*
X93811630Y-53933629D01*
X93769119Y-53997251D01*
X93769118Y-53997252D01*
X93643213Y-54185683D01*
X93584073Y-54483000D01*
X93599001Y-54558048D01*
X93599000Y-57088369D01*
X89473370Y-61214000D01*
X84049501Y-61214000D01*
X83742895Y-61087000D01*
X83389229Y-61087000D01*
X83082623Y-61214000D01*
X69406349Y-61214000D01*
X69099743Y-61087000D01*
X68746077Y-61087000D01*
X68439471Y-61214000D01*
X56871439Y-61214000D01*
X56564833Y-61087000D01*
X56211167Y-61087000D01*
X55884422Y-61222342D01*
X55634342Y-61472422D01*
X55499000Y-61799167D01*
X49644635Y-61799167D01*
X49567809Y-61684191D01*
X49357765Y-61543843D01*
X49110000Y-61494560D01*
X47410000Y-61494560D01*
X47162235Y-61543843D01*
X46952191Y-61684191D01*
X46811843Y-61894235D01*
X46762560Y-62142000D01*
X46762560Y-63842000D01*
X46811843Y-64089765D01*
X46952191Y-64299809D01*
X47162235Y-64440157D01*
X47207619Y-64449184D01*
X47189375Y-64461375D01*
X46861161Y-64952582D01*
X46745908Y-65532000D01*
X46861161Y-66111418D01*
X47189375Y-66602625D01*
X47487761Y-66802000D01*
X47189375Y-67001375D01*
X46861161Y-67492582D01*
X46745908Y-68072000D01*
X46861161Y-68651418D01*
X47189375Y-69142625D01*
X47487761Y-69342000D01*
X47189375Y-69541375D01*
X46861161Y-70032582D01*
X46745908Y-70612000D01*
X46861161Y-71191418D01*
X47189375Y-71682625D01*
X47487761Y-71882000D01*
X47189375Y-72081375D01*
X46861161Y-72572582D01*
X46745908Y-73152000D01*
X46861161Y-73731418D01*
X47189375Y-74222625D01*
X47508478Y-74435843D01*
X47378642Y-74496817D01*
X46988355Y-74925076D01*
X46818524Y-75335110D01*
X46939845Y-75565000D01*
X48133000Y-75565000D01*
X48133000Y-75545000D01*
X48387000Y-75545000D01*
X48387000Y-75565000D01*
X49580155Y-75565000D01*
X49701476Y-75335110D01*
X49531645Y-74925076D01*
X49141358Y-74496817D01*
X49011522Y-74435843D01*
X49330625Y-74222625D01*
X49658839Y-73731418D01*
X49774092Y-73152000D01*
X49658839Y-72572582D01*
X49330625Y-72081375D01*
X49032239Y-71882000D01*
X49330625Y-71682625D01*
X49494412Y-71437500D01*
X61380068Y-71437500D01*
X62642501Y-72699934D01*
X62642500Y-74381517D01*
X62468000Y-74381517D01*
X62220235Y-74430800D01*
X62010191Y-74571148D01*
X61869843Y-74781192D01*
X61820560Y-75028957D01*
X61820560Y-76728957D01*
X61869843Y-76976722D01*
X62010191Y-77186766D01*
X62220235Y-77327114D01*
X62468000Y-77376397D01*
X62642500Y-77376397D01*
X62642501Y-78004560D01*
X62468000Y-78004560D01*
X62220235Y-78053843D01*
X62010191Y-78194191D01*
X61869843Y-78404235D01*
X61820560Y-78652000D01*
X61820560Y-80352000D01*
X61869843Y-80599765D01*
X62010191Y-80809809D01*
X62220235Y-80950157D01*
X62468000Y-80999440D01*
X62642500Y-80999440D01*
X62642501Y-81493517D01*
X62468000Y-81493517D01*
X62220235Y-81542800D01*
X62010191Y-81683148D01*
X61869843Y-81893192D01*
X61820560Y-82140957D01*
X61820560Y-83840957D01*
X61869843Y-84088722D01*
X62010191Y-84298766D01*
X62220235Y-84439114D01*
X62468000Y-84488397D01*
X62642500Y-84488397D01*
X62642501Y-85049517D01*
X62363624Y-85049517D01*
X62115859Y-85098800D01*
X61905815Y-85239148D01*
X61765467Y-85449192D01*
X61716184Y-85696957D01*
X61716184Y-87396957D01*
X61765467Y-87644722D01*
X61905815Y-87854766D01*
X62115859Y-87995114D01*
X62363624Y-88044397D01*
X62538124Y-88044397D01*
X62538125Y-88605517D01*
X62363625Y-88605517D01*
X62115860Y-88654800D01*
X61905816Y-88795148D01*
X61765468Y-89005192D01*
X61716185Y-89252957D01*
X61716185Y-90952957D01*
X61765468Y-91200722D01*
X61905816Y-91410766D01*
X62115860Y-91551114D01*
X62363625Y-91600397D01*
X62538125Y-91600397D01*
X62538126Y-92161517D01*
X62363126Y-92161517D01*
X62115361Y-92210800D01*
X61905317Y-92351148D01*
X61764969Y-92561192D01*
X61715686Y-92808957D01*
X61715686Y-94508957D01*
X61764969Y-94756722D01*
X61905317Y-94966766D01*
X62115361Y-95107114D01*
X62363126Y-95156397D01*
X62537626Y-95156397D01*
X62537627Y-95717517D01*
X62363624Y-95717517D01*
X62115859Y-95766800D01*
X61905815Y-95907148D01*
X61765467Y-96117192D01*
X61716184Y-96364957D01*
X61716184Y-98064957D01*
X61765467Y-98312722D01*
X61905815Y-98522766D01*
X62115859Y-98663114D01*
X62363624Y-98712397D01*
X62538124Y-98712397D01*
X62538125Y-99594560D01*
X62246000Y-99594560D01*
X61998235Y-99643843D01*
X61788191Y-99784191D01*
X61647843Y-99994235D01*
X61598560Y-100242000D01*
X61598560Y-101942000D01*
X61647843Y-102189765D01*
X61788191Y-102399809D01*
X61998235Y-102540157D01*
X62246000Y-102589440D01*
X62574869Y-102589440D01*
X62650849Y-102703152D01*
X62719774Y-102749207D01*
X63112793Y-103142225D01*
X63135360Y-103176000D01*
X51094091Y-103176000D01*
X48811494Y-100893404D01*
X48771881Y-100834119D01*
X48537028Y-100677195D01*
X48329926Y-100636000D01*
X48329924Y-100636000D01*
X48260000Y-100622091D01*
X48190076Y-100636000D01*
X46176000Y-100636000D01*
X46176000Y-88392000D01*
X46745908Y-88392000D01*
X46861161Y-88971418D01*
X47189375Y-89462625D01*
X47487761Y-89662000D01*
X47189375Y-89861375D01*
X46861161Y-90352582D01*
X46745908Y-90932000D01*
X46861161Y-91511418D01*
X47189375Y-92002625D01*
X47487761Y-92202000D01*
X47189375Y-92401375D01*
X46861161Y-92892582D01*
X46745908Y-93472000D01*
X46861161Y-94051418D01*
X47189375Y-94542625D01*
X47487761Y-94742000D01*
X47189375Y-94941375D01*
X46861161Y-95432582D01*
X46745908Y-96012000D01*
X46861161Y-96591418D01*
X47189375Y-97082625D01*
X47487761Y-97282000D01*
X47189375Y-97481375D01*
X46861161Y-97972582D01*
X46745908Y-98552000D01*
X46861161Y-99131418D01*
X47189375Y-99622625D01*
X47680582Y-99950839D01*
X48113744Y-100037000D01*
X48406256Y-100037000D01*
X48839418Y-99950839D01*
X49330625Y-99622625D01*
X49658839Y-99131418D01*
X49703102Y-98908890D01*
X51390524Y-98908890D01*
X51560355Y-99318924D01*
X51950642Y-99747183D01*
X52475108Y-99993486D01*
X52705000Y-99872819D01*
X52705000Y-98679000D01*
X51511845Y-98679000D01*
X51390524Y-98908890D01*
X49703102Y-98908890D01*
X49774092Y-98552000D01*
X49658839Y-97972582D01*
X49330625Y-97481375D01*
X49032239Y-97282000D01*
X49330625Y-97082625D01*
X49658839Y-96591418D01*
X49703102Y-96368890D01*
X51390524Y-96368890D01*
X51560355Y-96778924D01*
X51950642Y-97207183D01*
X52109954Y-97282000D01*
X51950642Y-97356817D01*
X51560355Y-97785076D01*
X51390524Y-98195110D01*
X51511845Y-98425000D01*
X52705000Y-98425000D01*
X52705000Y-96139000D01*
X51511845Y-96139000D01*
X51390524Y-96368890D01*
X49703102Y-96368890D01*
X49774092Y-96012000D01*
X49658839Y-95432582D01*
X49330625Y-94941375D01*
X49032239Y-94742000D01*
X49330625Y-94542625D01*
X49658839Y-94051418D01*
X49703102Y-93828890D01*
X51390524Y-93828890D01*
X51560355Y-94238924D01*
X51950642Y-94667183D01*
X52109954Y-94742000D01*
X51950642Y-94816817D01*
X51560355Y-95245076D01*
X51390524Y-95655110D01*
X51511845Y-95885000D01*
X52705000Y-95885000D01*
X52705000Y-93599000D01*
X51511845Y-93599000D01*
X51390524Y-93828890D01*
X49703102Y-93828890D01*
X49774092Y-93472000D01*
X49658839Y-92892582D01*
X49330625Y-92401375D01*
X49032239Y-92202000D01*
X49330625Y-92002625D01*
X49658839Y-91511418D01*
X49703102Y-91288890D01*
X51390524Y-91288890D01*
X51560355Y-91698924D01*
X51950642Y-92127183D01*
X52109954Y-92202000D01*
X51950642Y-92276817D01*
X51560355Y-92705076D01*
X51390524Y-93115110D01*
X51511845Y-93345000D01*
X52705000Y-93345000D01*
X52705000Y-91059000D01*
X51511845Y-91059000D01*
X51390524Y-91288890D01*
X49703102Y-91288890D01*
X49774092Y-90932000D01*
X49658839Y-90352582D01*
X49330625Y-89861375D01*
X49032239Y-89662000D01*
X49330625Y-89462625D01*
X49658839Y-88971418D01*
X49703102Y-88748890D01*
X51390524Y-88748890D01*
X51560355Y-89158924D01*
X51950642Y-89587183D01*
X52109954Y-89662000D01*
X51950642Y-89736817D01*
X51560355Y-90165076D01*
X51390524Y-90575110D01*
X51511845Y-90805000D01*
X52705000Y-90805000D01*
X52705000Y-88519000D01*
X51511845Y-88519000D01*
X51390524Y-88748890D01*
X49703102Y-88748890D01*
X49774092Y-88392000D01*
X49658839Y-87812582D01*
X49330625Y-87321375D01*
X49312381Y-87309184D01*
X49357765Y-87300157D01*
X49567809Y-87159809D01*
X49708157Y-86949765D01*
X49757440Y-86702000D01*
X49757440Y-86208890D01*
X51390524Y-86208890D01*
X51560355Y-86618924D01*
X51950642Y-87047183D01*
X52109954Y-87122000D01*
X51950642Y-87196817D01*
X51560355Y-87625076D01*
X51390524Y-88035110D01*
X51511845Y-88265000D01*
X52705000Y-88265000D01*
X52705000Y-85979000D01*
X51511845Y-85979000D01*
X51390524Y-86208890D01*
X49757440Y-86208890D01*
X49757440Y-85002000D01*
X49708157Y-84754235D01*
X49567809Y-84544191D01*
X49357765Y-84403843D01*
X49110000Y-84354560D01*
X47410000Y-84354560D01*
X47162235Y-84403843D01*
X46952191Y-84544191D01*
X46811843Y-84754235D01*
X46762560Y-85002000D01*
X46762560Y-86702000D01*
X46811843Y-86949765D01*
X46952191Y-87159809D01*
X47162235Y-87300157D01*
X47207619Y-87309184D01*
X47189375Y-87321375D01*
X46861161Y-87812582D01*
X46745908Y-88392000D01*
X46176000Y-88392000D01*
X46176000Y-83668890D01*
X51390524Y-83668890D01*
X51560355Y-84078924D01*
X51950642Y-84507183D01*
X52109954Y-84582000D01*
X51950642Y-84656817D01*
X51560355Y-85085076D01*
X51390524Y-85495110D01*
X51511845Y-85725000D01*
X52705000Y-85725000D01*
X52705000Y-83439000D01*
X51511845Y-83439000D01*
X51390524Y-83668890D01*
X46176000Y-83668890D01*
X46176000Y-80772000D01*
X46745908Y-80772000D01*
X46861161Y-81351418D01*
X47189375Y-81842625D01*
X47680582Y-82170839D01*
X48113744Y-82257000D01*
X48406256Y-82257000D01*
X48839418Y-82170839D01*
X49330625Y-81842625D01*
X49658839Y-81351418D01*
X49703102Y-81128890D01*
X51390524Y-81128890D01*
X51560355Y-81538924D01*
X51950642Y-81967183D01*
X52109954Y-82042000D01*
X51950642Y-82116817D01*
X51560355Y-82545076D01*
X51390524Y-82955110D01*
X51511845Y-83185000D01*
X52705000Y-83185000D01*
X52705000Y-80899000D01*
X51511845Y-80899000D01*
X51390524Y-81128890D01*
X49703102Y-81128890D01*
X49774092Y-80772000D01*
X49703103Y-80415110D01*
X51390524Y-80415110D01*
X51511845Y-80645000D01*
X52705000Y-80645000D01*
X52705000Y-79451181D01*
X52959000Y-79451181D01*
X52959000Y-80645000D01*
X52979000Y-80645000D01*
X52979000Y-80899000D01*
X52959000Y-80899000D01*
X52959000Y-83185000D01*
X52979000Y-83185000D01*
X52979000Y-83439000D01*
X52959000Y-83439000D01*
X52959000Y-85725000D01*
X52979000Y-85725000D01*
X52979000Y-85979000D01*
X52959000Y-85979000D01*
X52959000Y-88265000D01*
X52979000Y-88265000D01*
X52979000Y-88519000D01*
X52959000Y-88519000D01*
X52959000Y-90805000D01*
X52979000Y-90805000D01*
X52979000Y-91059000D01*
X52959000Y-91059000D01*
X52959000Y-93345000D01*
X52979000Y-93345000D01*
X52979000Y-93599000D01*
X52959000Y-93599000D01*
X52959000Y-95885000D01*
X52979000Y-95885000D01*
X52979000Y-96139000D01*
X52959000Y-96139000D01*
X52959000Y-98425000D01*
X52979000Y-98425000D01*
X52979000Y-98679000D01*
X52959000Y-98679000D01*
X52959000Y-99872819D01*
X53188892Y-99993486D01*
X53713358Y-99747183D01*
X54100647Y-99322214D01*
X54301375Y-99622625D01*
X54610001Y-99828842D01*
X54610001Y-100254952D01*
X54595073Y-100330000D01*
X54654213Y-100627317D01*
X54766043Y-100794682D01*
X54822630Y-100879371D01*
X54886251Y-100921881D01*
X55542118Y-101577749D01*
X55584629Y-101641371D01*
X55648251Y-101683882D01*
X55710459Y-101725448D01*
X55836683Y-101809788D01*
X56058952Y-101854000D01*
X56058953Y-101854000D01*
X56134000Y-101868928D01*
X56209047Y-101854000D01*
X57598560Y-101854000D01*
X57598560Y-101942000D01*
X57647843Y-102189765D01*
X57788191Y-102399809D01*
X57998235Y-102540157D01*
X58246000Y-102589440D01*
X60246000Y-102589440D01*
X60493765Y-102540157D01*
X60703809Y-102399809D01*
X60844157Y-102189765D01*
X60893440Y-101942000D01*
X60893440Y-100242000D01*
X60844157Y-99994235D01*
X60703809Y-99784191D01*
X60493765Y-99643843D01*
X60246000Y-99594560D01*
X58246000Y-99594560D01*
X57998235Y-99643843D01*
X57788191Y-99784191D01*
X57647843Y-99994235D01*
X57598560Y-100242000D01*
X57598560Y-100330000D01*
X56449631Y-100330000D01*
X56134000Y-100014370D01*
X56134000Y-99828842D01*
X56442625Y-99622625D01*
X56770839Y-99131418D01*
X56886092Y-98552000D01*
X56770839Y-97972582D01*
X56442625Y-97481375D01*
X56144239Y-97282000D01*
X56442625Y-97082625D01*
X56770839Y-96591418D01*
X56886092Y-96012000D01*
X56868588Y-95924001D01*
X57894554Y-95924001D01*
X57765467Y-96117192D01*
X57716184Y-96364957D01*
X57716184Y-98064957D01*
X57765467Y-98312722D01*
X57905815Y-98522766D01*
X58115859Y-98663114D01*
X58363624Y-98712397D01*
X60363624Y-98712397D01*
X60611389Y-98663114D01*
X60821433Y-98522766D01*
X60961781Y-98312722D01*
X61011064Y-98064957D01*
X61011064Y-96364957D01*
X60961781Y-96117192D01*
X60821433Y-95907148D01*
X60611389Y-95766800D01*
X60363624Y-95717517D01*
X60046807Y-95717517D01*
X59989604Y-95631907D01*
X59955506Y-95580875D01*
X59912995Y-95517253D01*
X59849374Y-95474743D01*
X59531028Y-95156397D01*
X60363126Y-95156397D01*
X60610891Y-95107114D01*
X60820935Y-94966766D01*
X60961283Y-94756722D01*
X61010566Y-94508957D01*
X61010566Y-92808957D01*
X60961283Y-92561192D01*
X60820935Y-92351148D01*
X60610891Y-92210800D01*
X60363126Y-92161517D01*
X58363126Y-92161517D01*
X58115361Y-92210800D01*
X57905317Y-92351148D01*
X57764969Y-92561192D01*
X57735370Y-92710000D01*
X56648842Y-92710000D01*
X56442625Y-92401375D01*
X56144239Y-92202000D01*
X56442625Y-92002625D01*
X56648842Y-91694000D01*
X56820957Y-91694000D01*
X56896000Y-91708927D01*
X56971043Y-91694000D01*
X56971048Y-91694000D01*
X57193317Y-91649788D01*
X57445371Y-91481371D01*
X57487883Y-91417747D01*
X57755421Y-91150210D01*
X57765468Y-91200722D01*
X57905816Y-91410766D01*
X58115860Y-91551114D01*
X58363625Y-91600397D01*
X60363625Y-91600397D01*
X60611390Y-91551114D01*
X60821434Y-91410766D01*
X60961782Y-91200722D01*
X61011065Y-90952957D01*
X61011065Y-89252957D01*
X60961782Y-89005192D01*
X60821434Y-88795148D01*
X60611390Y-88654800D01*
X60363625Y-88605517D01*
X59792113Y-88605517D01*
X59849371Y-88548259D01*
X59912995Y-88505747D01*
X60044912Y-88308319D01*
X60081411Y-88253695D01*
X60081411Y-88253694D01*
X60081412Y-88253693D01*
X60123044Y-88044397D01*
X60363624Y-88044397D01*
X60611389Y-87995114D01*
X60821433Y-87854766D01*
X60961781Y-87644722D01*
X61011064Y-87396957D01*
X61011064Y-85696957D01*
X60961781Y-85449192D01*
X60821433Y-85239148D01*
X60611389Y-85098800D01*
X60363624Y-85049517D01*
X59792114Y-85049517D01*
X59953750Y-84887881D01*
X60017371Y-84845371D01*
X60086449Y-84741989D01*
X60185787Y-84593319D01*
X60185787Y-84593318D01*
X60185788Y-84593317D01*
X60206658Y-84488397D01*
X60468000Y-84488397D01*
X60715765Y-84439114D01*
X60925809Y-84298766D01*
X61066157Y-84088722D01*
X61115440Y-83840957D01*
X61115440Y-82140957D01*
X61066157Y-81893192D01*
X60925809Y-81683148D01*
X60715765Y-81542800D01*
X60468000Y-81493517D01*
X59919114Y-81493517D01*
X59953750Y-81458881D01*
X60017371Y-81416371D01*
X60080848Y-81321371D01*
X60185787Y-81164319D01*
X60185787Y-81164318D01*
X60185788Y-81164317D01*
X60218584Y-80999440D01*
X60468000Y-80999440D01*
X60715765Y-80950157D01*
X60925809Y-80809809D01*
X61066157Y-80599765D01*
X61115440Y-80352000D01*
X61115440Y-78652000D01*
X61066157Y-78404235D01*
X60925809Y-78194191D01*
X60715765Y-78053843D01*
X60468000Y-78004560D01*
X58468000Y-78004560D01*
X58220235Y-78053843D01*
X58010191Y-78194191D01*
X57869843Y-78404235D01*
X57820560Y-78652000D01*
X57820560Y-80352000D01*
X57869843Y-80599765D01*
X57984928Y-80772000D01*
X57479047Y-80772000D01*
X57404000Y-80757072D01*
X57328953Y-80772000D01*
X57328952Y-80772000D01*
X57106683Y-80816212D01*
X57060535Y-80847047D01*
X56918358Y-80942047D01*
X56869440Y-80974733D01*
X56869440Y-79922000D01*
X56820157Y-79674235D01*
X56679809Y-79464191D01*
X56469765Y-79323843D01*
X56222000Y-79274560D01*
X56134000Y-79274560D01*
X56134000Y-77912630D01*
X57405674Y-76640957D01*
X57820560Y-76640957D01*
X57820560Y-76728957D01*
X57869843Y-76976722D01*
X58010191Y-77186766D01*
X58220235Y-77327114D01*
X58468000Y-77376397D01*
X60468000Y-77376397D01*
X60715765Y-77327114D01*
X60925809Y-77186766D01*
X61066157Y-76976722D01*
X61115440Y-76728957D01*
X61115440Y-75028957D01*
X61066157Y-74781192D01*
X60925809Y-74571148D01*
X60715765Y-74430800D01*
X60468000Y-74381517D01*
X58468000Y-74381517D01*
X58220235Y-74430800D01*
X58010191Y-74571148D01*
X57869843Y-74781192D01*
X57820560Y-75028957D01*
X57820560Y-75116957D01*
X57165090Y-75116957D01*
X57090043Y-75102029D01*
X57014996Y-75116957D01*
X57014995Y-75116957D01*
X56792726Y-75161169D01*
X56540672Y-75329586D01*
X56498161Y-75393208D01*
X54886251Y-77005119D01*
X54822630Y-77047629D01*
X54780119Y-77111251D01*
X54780118Y-77111252D01*
X54654213Y-77299683D01*
X54595073Y-77597000D01*
X54610001Y-77672048D01*
X54610000Y-79274560D01*
X54522000Y-79274560D01*
X54274235Y-79323843D01*
X54064191Y-79464191D01*
X53923843Y-79674235D01*
X53902039Y-79783855D01*
X53713358Y-79576817D01*
X53188892Y-79330514D01*
X52959000Y-79451181D01*
X52705000Y-79451181D01*
X52475108Y-79330514D01*
X51950642Y-79576817D01*
X51560355Y-80005076D01*
X51390524Y-80415110D01*
X49703103Y-80415110D01*
X49658839Y-80192582D01*
X49330625Y-79701375D01*
X49011522Y-79488157D01*
X49141358Y-79427183D01*
X49531645Y-78998924D01*
X49701476Y-78588890D01*
X49580155Y-78359000D01*
X48387000Y-78359000D01*
X48387000Y-78379000D01*
X48133000Y-78379000D01*
X48133000Y-78359000D01*
X46939845Y-78359000D01*
X46818524Y-78588890D01*
X46988355Y-78998924D01*
X47378642Y-79427183D01*
X47508478Y-79488157D01*
X47189375Y-79701375D01*
X46861161Y-80192582D01*
X46745908Y-80772000D01*
X46176000Y-80772000D01*
X46176000Y-76048890D01*
X46818524Y-76048890D01*
X46988355Y-76458924D01*
X47378642Y-76887183D01*
X47537954Y-76962000D01*
X47378642Y-77036817D01*
X46988355Y-77465076D01*
X46818524Y-77875110D01*
X46939845Y-78105000D01*
X48133000Y-78105000D01*
X48133000Y-75819000D01*
X48387000Y-75819000D01*
X48387000Y-78105000D01*
X49580155Y-78105000D01*
X49701476Y-77875110D01*
X49531645Y-77465076D01*
X49141358Y-77036817D01*
X48982046Y-76962000D01*
X49141358Y-76887183D01*
X49531645Y-76458924D01*
X49701476Y-76048890D01*
X49580155Y-75819000D01*
X48387000Y-75819000D01*
X48133000Y-75819000D01*
X46939845Y-75819000D01*
X46818524Y-76048890D01*
X46176000Y-76048890D01*
X46176000Y-35508000D01*
X98604001Y-35508000D01*
X98604000Y-99273908D01*
X98604000Y-99273908D01*
G37*
X98604000Y-99273908D02*
X97241910Y-100636000D01*
X92387197Y-100636000D01*
X92489306Y-100533891D01*
X92558235Y-100487834D01*
X92740687Y-100214776D01*
X92751757Y-100159122D01*
X92963083Y-100159122D01*
X93210848Y-100109839D01*
X93420892Y-99969491D01*
X93561240Y-99759447D01*
X93610523Y-99511682D01*
X93610523Y-97811682D01*
X93561240Y-97563917D01*
X93420892Y-97353873D01*
X93210848Y-97213525D01*
X92963083Y-97164242D01*
X92788583Y-97164242D01*
X92788583Y-96603121D01*
X92836082Y-96603121D01*
X93083847Y-96553838D01*
X93293891Y-96413490D01*
X93434239Y-96203446D01*
X93483522Y-95955681D01*
X93483522Y-94255681D01*
X93434239Y-94007916D01*
X93293891Y-93797872D01*
X93083847Y-93657524D01*
X92836082Y-93608241D01*
X92597583Y-93608241D01*
X92597583Y-93047122D01*
X92772083Y-93047122D01*
X93019848Y-92997839D01*
X93229892Y-92857491D01*
X93370240Y-92647447D01*
X93419523Y-92399682D01*
X93419523Y-90699682D01*
X93370240Y-90451917D01*
X93229892Y-90241873D01*
X93019848Y-90101525D01*
X92772083Y-90052242D01*
X92661583Y-90052242D01*
X92661583Y-89491121D01*
X92836083Y-89491121D01*
X93083848Y-89441838D01*
X93293892Y-89301490D01*
X93434240Y-89091446D01*
X93483523Y-88843681D01*
X93483523Y-87143681D01*
X93434240Y-86895916D01*
X93293892Y-86685872D01*
X93083848Y-86545524D01*
X92836083Y-86496241D01*
X92788583Y-86496241D01*
X92788583Y-85681123D01*
X92963083Y-85681123D01*
X93210848Y-85631840D01*
X93420892Y-85491492D01*
X93561240Y-85281448D01*
X93610523Y-85033683D01*
X93610523Y-83333683D01*
X93606211Y-83312000D01*
X95005908Y-83312000D01*
X95121161Y-83891418D01*
X95449375Y-84382625D01*
X95747761Y-84582000D01*
X95449375Y-84781375D01*
X95121161Y-85272582D01*
X95005908Y-85852000D01*
X95121161Y-86431418D01*
X95449375Y-86922625D01*
X95747761Y-87122000D01*
X95449375Y-87321375D01*
X95121161Y-87812582D01*
X95005908Y-88392000D01*
X95121161Y-88971418D01*
X95449375Y-89462625D01*
X95747761Y-89662000D01*
X95449375Y-89861375D01*
X95121161Y-90352582D01*
X95005908Y-90932000D01*
X95121161Y-91511418D01*
X95449375Y-92002625D01*
X95747761Y-92202000D01*
X95449375Y-92401375D01*
X95121161Y-92892582D01*
X95005908Y-93472000D01*
X95121161Y-94051418D01*
X95449375Y-94542625D01*
X95747761Y-94742000D01*
X95449375Y-94941375D01*
X95121161Y-95432582D01*
X95005908Y-96012000D01*
X95121161Y-96591418D01*
X95449375Y-97082625D01*
X95747761Y-97282000D01*
X95449375Y-97481375D01*
X95121161Y-97972582D01*
X95005908Y-98552000D01*
X95121161Y-99131418D01*
X95449375Y-99622625D01*
X95940582Y-99950839D01*
X96373744Y-100037000D01*
X96666256Y-100037000D01*
X97099418Y-99950839D01*
X97590625Y-99622625D01*
X97918839Y-99131418D01*
X98034092Y-98552000D01*
X97918839Y-97972582D01*
X97590625Y-97481375D01*
X97292239Y-97282000D01*
X97590625Y-97082625D01*
X97918839Y-96591418D01*
X98034092Y-96012000D01*
X97918839Y-95432582D01*
X97590625Y-94941375D01*
X97292239Y-94742000D01*
X97590625Y-94542625D01*
X97918839Y-94051418D01*
X98034092Y-93472000D01*
X97918839Y-92892582D01*
X97590625Y-92401375D01*
X97292239Y-92202000D01*
X97590625Y-92002625D01*
X97918839Y-91511418D01*
X98034092Y-90932000D01*
X97918839Y-90352582D01*
X97590625Y-89861375D01*
X97292239Y-89662000D01*
X97590625Y-89462625D01*
X97918839Y-88971418D01*
X98034092Y-88392000D01*
X97918839Y-87812582D01*
X97590625Y-87321375D01*
X97292239Y-87122000D01*
X97590625Y-86922625D01*
X97918839Y-86431418D01*
X98034092Y-85852000D01*
X97918839Y-85272582D01*
X97590625Y-84781375D01*
X97292239Y-84582000D01*
X97590625Y-84382625D01*
X97918839Y-83891418D01*
X98034092Y-83312000D01*
X97918839Y-82732582D01*
X97590625Y-82241375D01*
X97572381Y-82229184D01*
X97617765Y-82220157D01*
X97827809Y-82079809D01*
X97968157Y-81869765D01*
X98017440Y-81622000D01*
X98017440Y-79922000D01*
X97968157Y-79674235D01*
X97827809Y-79464191D01*
X97617765Y-79323843D01*
X97370000Y-79274560D01*
X95670000Y-79274560D01*
X95422235Y-79323843D01*
X95212191Y-79464191D01*
X95071843Y-79674235D01*
X95022560Y-79922000D01*
X95022560Y-81622000D01*
X95071843Y-81869765D01*
X95212191Y-82079809D01*
X95422235Y-82220157D01*
X95467619Y-82229184D01*
X95449375Y-82241375D01*
X95121161Y-82732582D01*
X95005908Y-83312000D01*
X93606211Y-83312000D01*
X93561240Y-83085918D01*
X93420892Y-82875874D01*
X93210848Y-82735526D01*
X92963083Y-82686243D01*
X92788583Y-82686243D01*
X92788583Y-81998123D01*
X92963083Y-81998123D01*
X93210848Y-81948840D01*
X93420892Y-81808492D01*
X93561240Y-81598448D01*
X93610523Y-81350683D01*
X93610523Y-79650683D01*
X93561240Y-79402918D01*
X93420892Y-79192874D01*
X93210848Y-79052526D01*
X92963083Y-79003243D01*
X92788583Y-79003243D01*
X92788583Y-78315123D01*
X92963083Y-78315123D01*
X93210848Y-78265840D01*
X93420892Y-78125492D01*
X93561240Y-77915448D01*
X93610523Y-77667683D01*
X93610523Y-75967683D01*
X93561240Y-75719918D01*
X93420892Y-75509874D01*
X93210848Y-75369526D01*
X92963083Y-75320243D01*
X92788583Y-75320243D01*
X92788583Y-74649440D01*
X92963083Y-74649440D01*
X93210848Y-74600157D01*
X93420892Y-74459809D01*
X93561240Y-74249765D01*
X93610523Y-74002000D01*
X93610523Y-72302000D01*
X93561240Y-72054235D01*
X93420892Y-71844191D01*
X93210848Y-71703843D01*
X92963083Y-71654560D01*
X90963083Y-71654560D01*
X90715318Y-71703843D01*
X90505274Y-71844191D01*
X90364926Y-72054235D01*
X90315643Y-72302000D01*
X90315643Y-74002000D01*
X90364926Y-74249765D01*
X90505274Y-74459809D01*
X90715318Y-74600157D01*
X90963083Y-74649440D01*
X91137583Y-74649440D01*
X91137584Y-75320243D01*
X90963083Y-75320243D01*
X90715318Y-75369526D01*
X90505274Y-75509874D01*
X90364926Y-75719918D01*
X90315643Y-75967683D01*
X90315643Y-77667683D01*
X90364926Y-77915448D01*
X90505274Y-78125492D01*
X90715318Y-78265840D01*
X90963083Y-78315123D01*
X91137583Y-78315123D01*
X91137584Y-79003243D01*
X90963083Y-79003243D01*
X90715318Y-79052526D01*
X90505274Y-79192874D01*
X90364926Y-79402918D01*
X90315643Y-79650683D01*
X90315643Y-81350683D01*
X90364926Y-81598448D01*
X90505274Y-81808492D01*
X90715318Y-81948840D01*
X90963083Y-81998123D01*
X91137583Y-81998123D01*
X91137584Y-82686243D01*
X90963083Y-82686243D01*
X90715318Y-82735526D01*
X90505274Y-82875874D01*
X90364926Y-83085918D01*
X90315643Y-83333683D01*
X90315643Y-85033683D01*
X90364926Y-85281448D01*
X90505274Y-85491492D01*
X90715318Y-85631840D01*
X90963083Y-85681123D01*
X91137583Y-85681123D01*
X91137584Y-86496241D01*
X90836083Y-86496241D01*
X90588318Y-86545524D01*
X90378274Y-86685872D01*
X90237926Y-86895916D01*
X90188643Y-87143681D01*
X90188643Y-88843681D01*
X90237926Y-89091446D01*
X90378274Y-89301490D01*
X90588318Y-89441838D01*
X90836083Y-89491121D01*
X91010583Y-89491121D01*
X91010584Y-90052242D01*
X90772083Y-90052242D01*
X90524318Y-90101525D01*
X90314274Y-90241873D01*
X90173926Y-90451917D01*
X90124643Y-90699682D01*
X90124643Y-92399682D01*
X90173926Y-92647447D01*
X90314274Y-92857491D01*
X90524318Y-92997839D01*
X90772083Y-93047122D01*
X90946583Y-93047122D01*
X90946584Y-93608241D01*
X90836082Y-93608241D01*
X90588317Y-93657524D01*
X90378273Y-93797872D01*
X90237925Y-94007916D01*
X90188642Y-94255681D01*
X90188642Y-95955681D01*
X90237925Y-96203446D01*
X90378273Y-96413490D01*
X90588317Y-96553838D01*
X90836082Y-96603121D01*
X91137584Y-96603121D01*
X91137583Y-97164242D01*
X90963083Y-97164242D01*
X90715318Y-97213525D01*
X90505274Y-97353873D01*
X90364926Y-97563917D01*
X90315643Y-97811682D01*
X90315643Y-99504500D01*
X89610523Y-99504500D01*
X89610523Y-97811682D01*
X89561240Y-97563917D01*
X89420892Y-97353873D01*
X89210848Y-97213525D01*
X88963083Y-97164242D01*
X86963083Y-97164242D01*
X86715318Y-97213525D01*
X86505274Y-97353873D01*
X86364926Y-97563917D01*
X86345217Y-97663000D01*
X85096842Y-97663000D01*
X84890625Y-97354375D01*
X84592239Y-97155000D01*
X84890625Y-96955625D01*
X85096842Y-96647000D01*
X85268957Y-96647000D01*
X85344000Y-96661927D01*
X85419043Y-96647000D01*
X85419048Y-96647000D01*
X85641317Y-96602788D01*
X85893371Y-96434371D01*
X85935884Y-96370746D01*
X86215570Y-96091060D01*
X86237925Y-96203446D01*
X86378273Y-96413490D01*
X86588317Y-96553838D01*
X86836082Y-96603121D01*
X88836082Y-96603121D01*
X89083847Y-96553838D01*
X89293891Y-96413490D01*
X89434239Y-96203446D01*
X89483522Y-95955681D01*
X89483522Y-94255681D01*
X89434239Y-94007916D01*
X89293891Y-93797872D01*
X89083847Y-93657524D01*
X88836082Y-93608241D01*
X86836082Y-93608241D01*
X86588317Y-93657524D01*
X86378273Y-93797872D01*
X86237925Y-94007916D01*
X86188642Y-94255681D01*
X86188642Y-94341748D01*
X86123318Y-94328754D01*
X86048275Y-94343681D01*
X86048271Y-94343681D01*
X85826002Y-94387893D01*
X85826001Y-94387894D01*
X85826000Y-94387894D01*
X85807881Y-94400001D01*
X85573948Y-94556310D01*
X85531435Y-94619935D01*
X85069416Y-95081954D01*
X84890625Y-94814375D01*
X84592239Y-94615000D01*
X84890625Y-94415625D01*
X85096842Y-94107000D01*
X85395957Y-94107000D01*
X85471000Y-94121927D01*
X85546043Y-94107000D01*
X85546048Y-94107000D01*
X85768317Y-94062788D01*
X86020371Y-93894371D01*
X86062884Y-93830746D01*
X86337746Y-93555884D01*
X86401371Y-93513371D01*
X86569788Y-93261317D01*
X86614000Y-93039048D01*
X86614000Y-93039044D01*
X86618471Y-93016567D01*
X86772083Y-93047122D01*
X88772083Y-93047122D01*
X89019848Y-92997839D01*
X89229892Y-92857491D01*
X89370240Y-92647447D01*
X89419523Y-92399682D01*
X89419523Y-90699682D01*
X89370240Y-90451917D01*
X89229892Y-90241873D01*
X89019848Y-90101525D01*
X88772083Y-90052242D01*
X88317388Y-90052242D01*
X88321830Y-90047800D01*
X88385454Y-90005288D01*
X88553871Y-89753234D01*
X88598083Y-89530965D01*
X88598083Y-89530964D01*
X88606008Y-89491121D01*
X88836083Y-89491121D01*
X89083848Y-89441838D01*
X89293892Y-89301490D01*
X89434240Y-89091446D01*
X89483523Y-88843681D01*
X89483523Y-87143681D01*
X89434240Y-86895916D01*
X89293892Y-86685872D01*
X89083848Y-86545524D01*
X88836083Y-86496241D01*
X88063389Y-86496241D01*
X88448833Y-86110798D01*
X88512454Y-86068288D01*
X88680871Y-85816234D01*
X88707746Y-85681123D01*
X88963083Y-85681123D01*
X89210848Y-85631840D01*
X89420892Y-85491492D01*
X89561240Y-85281448D01*
X89610523Y-85033683D01*
X89610523Y-83333683D01*
X89561240Y-83085918D01*
X89420892Y-82875874D01*
X89210848Y-82735526D01*
X88963083Y-82686243D01*
X86995000Y-82686243D01*
X86995000Y-81998123D01*
X88963083Y-81998123D01*
X89210848Y-81948840D01*
X89420892Y-81808492D01*
X89561240Y-81598448D01*
X89610523Y-81350683D01*
X89610523Y-79650683D01*
X89561240Y-79402918D01*
X89420892Y-79192874D01*
X89210848Y-79052526D01*
X88963083Y-79003243D01*
X86963083Y-79003243D01*
X86715318Y-79052526D01*
X86505274Y-79192874D01*
X86364926Y-79402918D01*
X86360000Y-79427683D01*
X86360000Y-77890683D01*
X86364926Y-77915448D01*
X86505274Y-78125492D01*
X86715318Y-78265840D01*
X86963083Y-78315123D01*
X88963083Y-78315123D01*
X89210848Y-78265840D01*
X89420892Y-78125492D01*
X89561240Y-77915448D01*
X89610523Y-77667683D01*
X89610523Y-75967683D01*
X89561240Y-75719918D01*
X89420892Y-75509874D01*
X89210848Y-75369526D01*
X88963083Y-75320243D01*
X86963083Y-75320243D01*
X86715318Y-75369526D01*
X86505274Y-75509874D01*
X86364926Y-75719918D01*
X86315643Y-75967683D01*
X86315643Y-76055683D01*
X86198359Y-76055683D01*
X86123316Y-76040756D01*
X86048273Y-76055683D01*
X86048269Y-76055683D01*
X85826000Y-76099895D01*
X85825999Y-76099896D01*
X85825998Y-76099896D01*
X85674609Y-76201051D01*
X85573946Y-76268312D01*
X85531435Y-76331934D01*
X85112253Y-76751117D01*
X85048629Y-76793629D01*
X84880212Y-77045684D01*
X84836000Y-77267953D01*
X84836000Y-77267957D01*
X84821073Y-77343000D01*
X84836000Y-77418043D01*
X84836000Y-79180579D01*
X84670000Y-79147560D01*
X84582000Y-79147560D01*
X84582000Y-75499630D01*
X86167631Y-73914000D01*
X86315643Y-73914000D01*
X86315643Y-74002000D01*
X86364926Y-74249765D01*
X86505274Y-74459809D01*
X86715318Y-74600157D01*
X86963083Y-74649440D01*
X88963083Y-74649440D01*
X89210848Y-74600157D01*
X89420892Y-74459809D01*
X89561240Y-74249765D01*
X89610523Y-74002000D01*
X89610523Y-72302000D01*
X89561240Y-72054235D01*
X89420892Y-71844191D01*
X89210848Y-71703843D01*
X88963083Y-71654560D01*
X86963083Y-71654560D01*
X86715318Y-71703843D01*
X86505274Y-71844191D01*
X86364926Y-72054235D01*
X86315643Y-72302000D01*
X86315643Y-72390000D01*
X85927043Y-72390000D01*
X85852000Y-72375073D01*
X85776957Y-72390000D01*
X85776952Y-72390000D01*
X85554683Y-72434212D01*
X85302629Y-72602629D01*
X85260118Y-72666251D01*
X83334251Y-74592119D01*
X83270630Y-74634629D01*
X83228119Y-74698251D01*
X83228118Y-74698252D01*
X83102213Y-74886683D01*
X83043073Y-75184000D01*
X83058001Y-75259048D01*
X83058000Y-79147560D01*
X82970000Y-79147560D01*
X82722235Y-79196843D01*
X82512191Y-79337191D01*
X82371843Y-79547235D01*
X82350039Y-79656855D01*
X82161358Y-79449817D01*
X81636892Y-79203514D01*
X81407000Y-79324181D01*
X81407000Y-80518000D01*
X81427000Y-80518000D01*
X81427000Y-80772000D01*
X81407000Y-80772000D01*
X81407000Y-83058000D01*
X81427000Y-83058000D01*
X81427000Y-83312000D01*
X81407000Y-83312000D01*
X81407000Y-85598000D01*
X81427000Y-85598000D01*
X81427000Y-85852000D01*
X81407000Y-85852000D01*
X81407000Y-88138000D01*
X81427000Y-88138000D01*
X81427000Y-88392000D01*
X81407000Y-88392000D01*
X81407000Y-90678000D01*
X81427000Y-90678000D01*
X81427000Y-90932000D01*
X81407000Y-90932000D01*
X81407000Y-93218000D01*
X81427000Y-93218000D01*
X81427000Y-93472000D01*
X81407000Y-93472000D01*
X81407000Y-95758000D01*
X81427000Y-95758000D01*
X81427000Y-96012000D01*
X81407000Y-96012000D01*
X81407000Y-98298000D01*
X81427000Y-98298000D01*
X81427000Y-98552000D01*
X81407000Y-98552000D01*
X81407000Y-99745819D01*
X81636892Y-99866486D01*
X82161358Y-99620183D01*
X82548647Y-99195214D01*
X82749375Y-99495625D01*
X83240582Y-99823839D01*
X83673744Y-99910000D01*
X83966256Y-99910000D01*
X84399418Y-99823839D01*
X84464397Y-99780422D01*
X84448793Y-99803774D01*
X82462068Y-101790500D01*
X79114480Y-101790500D01*
X79117440Y-101775618D01*
X79117440Y-100075618D01*
X79068157Y-99827853D01*
X78927809Y-99617809D01*
X78717765Y-99477461D01*
X78470000Y-99428178D01*
X78295500Y-99428178D01*
X78295500Y-98794484D01*
X78519264Y-98794484D01*
X78582578Y-98781890D01*
X79838524Y-98781890D01*
X80008355Y-99191924D01*
X80398642Y-99620183D01*
X80923108Y-99866486D01*
X81153000Y-99745819D01*
X81153000Y-98552000D01*
X79959845Y-98552000D01*
X79838524Y-98781890D01*
X78582578Y-98781890D01*
X78767029Y-98745201D01*
X78977073Y-98604853D01*
X79117421Y-98394809D01*
X79166704Y-98147044D01*
X79166704Y-96447044D01*
X79125897Y-96241890D01*
X79838524Y-96241890D01*
X80008355Y-96651924D01*
X80398642Y-97080183D01*
X80557954Y-97155000D01*
X80398642Y-97229817D01*
X80008355Y-97658076D01*
X79838524Y-98068110D01*
X79959845Y-98298000D01*
X81153000Y-98298000D01*
X81153000Y-96012000D01*
X79959845Y-96012000D01*
X79838524Y-96241890D01*
X79125897Y-96241890D01*
X79117421Y-96199279D01*
X78977073Y-95989235D01*
X78767029Y-95848887D01*
X78519264Y-95799604D01*
X78280763Y-95799604D01*
X78280763Y-95165913D01*
X78455263Y-95165913D01*
X78703028Y-95116630D01*
X78913072Y-94976282D01*
X79053420Y-94766238D01*
X79102703Y-94518473D01*
X79102703Y-93701890D01*
X79838524Y-93701890D01*
X80008355Y-94111924D01*
X80398642Y-94540183D01*
X80557954Y-94615000D01*
X80398642Y-94689817D01*
X80008355Y-95118076D01*
X79838524Y-95528110D01*
X79959845Y-95758000D01*
X81153000Y-95758000D01*
X81153000Y-93472000D01*
X79959845Y-93472000D01*
X79838524Y-93701890D01*
X79102703Y-93701890D01*
X79102703Y-92818473D01*
X79053420Y-92570708D01*
X78913072Y-92360664D01*
X78703028Y-92220316D01*
X78455263Y-92171033D01*
X78280763Y-92171033D01*
X78280763Y-91537342D01*
X78438000Y-91537342D01*
X78685765Y-91488059D01*
X78895809Y-91347711D01*
X79019971Y-91161890D01*
X79838524Y-91161890D01*
X80008355Y-91571924D01*
X80398642Y-92000183D01*
X80557954Y-92075000D01*
X80398642Y-92149817D01*
X80008355Y-92578076D01*
X79838524Y-92988110D01*
X79959845Y-93218000D01*
X81153000Y-93218000D01*
X81153000Y-90932000D01*
X79959845Y-90932000D01*
X79838524Y-91161890D01*
X79019971Y-91161890D01*
X79036157Y-91137667D01*
X79085440Y-90889902D01*
X79085440Y-89189902D01*
X79036157Y-88942137D01*
X78895809Y-88732093D01*
X78730880Y-88621890D01*
X79838524Y-88621890D01*
X80008355Y-89031924D01*
X80398642Y-89460183D01*
X80557954Y-89535000D01*
X80398642Y-89609817D01*
X80008355Y-90038076D01*
X79838524Y-90448110D01*
X79959845Y-90678000D01*
X81153000Y-90678000D01*
X81153000Y-88392000D01*
X79959845Y-88392000D01*
X79838524Y-88621890D01*
X78730880Y-88621890D01*
X78685765Y-88591745D01*
X78438000Y-88542462D01*
X78295500Y-88542462D01*
X78295500Y-87908771D01*
X78470000Y-87908771D01*
X78717765Y-87859488D01*
X78927809Y-87719140D01*
X79068157Y-87509096D01*
X79117440Y-87261331D01*
X79117440Y-86081890D01*
X79838524Y-86081890D01*
X80008355Y-86491924D01*
X80398642Y-86920183D01*
X80557954Y-86995000D01*
X80398642Y-87069817D01*
X80008355Y-87498076D01*
X79838524Y-87908110D01*
X79959845Y-88138000D01*
X81153000Y-88138000D01*
X81153000Y-85852000D01*
X79959845Y-85852000D01*
X79838524Y-86081890D01*
X79117440Y-86081890D01*
X79117440Y-85561331D01*
X79068157Y-85313566D01*
X78927809Y-85103522D01*
X78717765Y-84963174D01*
X78470000Y-84913891D01*
X78280763Y-84913891D01*
X78280763Y-84280200D01*
X78455263Y-84280200D01*
X78703028Y-84230917D01*
X78913072Y-84090569D01*
X79053420Y-83880525D01*
X79102703Y-83632760D01*
X79102703Y-83541890D01*
X79838524Y-83541890D01*
X80008355Y-83951924D01*
X80398642Y-84380183D01*
X80557954Y-84455000D01*
X80398642Y-84529817D01*
X80008355Y-84958076D01*
X79838524Y-85368110D01*
X79959845Y-85598000D01*
X81153000Y-85598000D01*
X81153000Y-83312000D01*
X79959845Y-83312000D01*
X79838524Y-83541890D01*
X79102703Y-83541890D01*
X79102703Y-81932760D01*
X79053420Y-81684995D01*
X78913072Y-81474951D01*
X78703028Y-81334603D01*
X78455263Y-81285320D01*
X78280764Y-81285320D01*
X78280764Y-81001890D01*
X79838524Y-81001890D01*
X80008355Y-81411924D01*
X80398642Y-81840183D01*
X80557954Y-81915000D01*
X80398642Y-81989817D01*
X80008355Y-82418076D01*
X79838524Y-82828110D01*
X79959845Y-83058000D01*
X81153000Y-83058000D01*
X81153000Y-80772000D01*
X79959845Y-80772000D01*
X79838524Y-81001890D01*
X78280764Y-81001890D01*
X78280764Y-80651629D01*
X78455264Y-80651629D01*
X78703029Y-80602346D01*
X78913073Y-80461998D01*
X79029262Y-80288110D01*
X79838524Y-80288110D01*
X79959845Y-80518000D01*
X81153000Y-80518000D01*
X81153000Y-79324181D01*
X80923108Y-79203514D01*
X80398642Y-79449817D01*
X80008355Y-79878076D01*
X79838524Y-80288110D01*
X79029262Y-80288110D01*
X79053421Y-80251954D01*
X79102704Y-80004189D01*
X79102704Y-78304189D01*
X79053421Y-78056424D01*
X78913073Y-77846380D01*
X78703029Y-77706032D01*
X78455264Y-77656749D01*
X78280763Y-77656749D01*
X78280763Y-77023058D01*
X78455263Y-77023058D01*
X78703028Y-76973775D01*
X78913072Y-76833427D01*
X79053420Y-76623383D01*
X79102703Y-76375618D01*
X79102703Y-74675618D01*
X79053420Y-74427853D01*
X78913072Y-74217809D01*
X78703028Y-74077461D01*
X78455263Y-74028178D01*
X76455263Y-74028178D01*
X76207498Y-74077461D01*
X75997454Y-74217809D01*
X75857106Y-74427853D01*
X75807823Y-74675618D01*
X75807823Y-76375618D01*
X75857106Y-76623383D01*
X75997454Y-76833427D01*
X76207498Y-76973775D01*
X76455263Y-77023058D01*
X76629763Y-77023058D01*
X76629764Y-77656749D01*
X76455264Y-77656749D01*
X76207499Y-77706032D01*
X75997455Y-77846380D01*
X75857107Y-78056424D01*
X75807824Y-78304189D01*
X75807824Y-80004189D01*
X75857107Y-80251954D01*
X75997455Y-80461998D01*
X76207499Y-80602346D01*
X76455264Y-80651629D01*
X76629764Y-80651629D01*
X76629765Y-81285320D01*
X76455263Y-81285320D01*
X76207498Y-81334603D01*
X75997454Y-81474951D01*
X75857106Y-81684995D01*
X75807823Y-81932760D01*
X75807823Y-83632760D01*
X75857106Y-83880525D01*
X75997454Y-84090569D01*
X76207498Y-84230917D01*
X76455263Y-84280200D01*
X76629763Y-84280200D01*
X76629764Y-84913891D01*
X76470000Y-84913891D01*
X76222235Y-84963174D01*
X76012191Y-85103522D01*
X75871843Y-85313566D01*
X75822560Y-85561331D01*
X75822560Y-87261331D01*
X75871843Y-87509096D01*
X76012191Y-87719140D01*
X76222235Y-87859488D01*
X76470000Y-87908771D01*
X76644500Y-87908771D01*
X76644501Y-88542462D01*
X76438000Y-88542462D01*
X76190235Y-88591745D01*
X75980191Y-88732093D01*
X75839843Y-88942137D01*
X75790560Y-89189902D01*
X75790560Y-90889902D01*
X75839843Y-91137667D01*
X75980191Y-91347711D01*
X76190235Y-91488059D01*
X76438000Y-91537342D01*
X76629764Y-91537342D01*
X76629763Y-92171033D01*
X76455263Y-92171033D01*
X76207498Y-92220316D01*
X75997454Y-92360664D01*
X75857106Y-92570708D01*
X75807823Y-92818473D01*
X75807823Y-94518473D01*
X75857106Y-94766238D01*
X75997454Y-94976282D01*
X76207498Y-95116630D01*
X76455263Y-95165913D01*
X76629763Y-95165913D01*
X76629764Y-95799604D01*
X76519264Y-95799604D01*
X76271499Y-95848887D01*
X76061455Y-95989235D01*
X75921107Y-96199279D01*
X75871824Y-96447044D01*
X75871824Y-98147044D01*
X75921107Y-98394809D01*
X76061455Y-98604853D01*
X76271499Y-98745201D01*
X76519264Y-98794484D01*
X76644501Y-98794484D01*
X76644500Y-99428178D01*
X76470000Y-99428178D01*
X76222235Y-99477461D01*
X76012191Y-99617809D01*
X75871843Y-99827853D01*
X75822560Y-100075618D01*
X75822560Y-101775618D01*
X75825520Y-101790500D01*
X75114480Y-101790500D01*
X75117440Y-101775618D01*
X75117440Y-100075618D01*
X75068157Y-99827853D01*
X74927809Y-99617809D01*
X74717765Y-99477461D01*
X74470000Y-99428178D01*
X72470000Y-99428178D01*
X72222235Y-99477461D01*
X72012191Y-99617809D01*
X71871843Y-99827853D01*
X71822560Y-100075618D01*
X71822560Y-100163618D01*
X70507249Y-100163618D01*
X70297480Y-99953850D01*
X70603125Y-99749625D01*
X70931339Y-99258418D01*
X71046592Y-98679000D01*
X70931339Y-98099582D01*
X70603125Y-97608375D01*
X70304739Y-97409000D01*
X70603125Y-97209625D01*
X70705612Y-97056242D01*
X71432162Y-97782793D01*
X71474673Y-97846415D01*
X71538295Y-97888926D01*
X71572942Y-97912076D01*
X71726727Y-98014832D01*
X71871824Y-98043694D01*
X71871824Y-98147044D01*
X71921107Y-98394809D01*
X72061455Y-98604853D01*
X72271499Y-98745201D01*
X72519264Y-98794484D01*
X74519264Y-98794484D01*
X74767029Y-98745201D01*
X74977073Y-98604853D01*
X75117421Y-98394809D01*
X75166704Y-98147044D01*
X75166704Y-96447044D01*
X75117421Y-96199279D01*
X74977073Y-95989235D01*
X74767029Y-95848887D01*
X74519264Y-95799604D01*
X72519264Y-95799604D01*
X72271499Y-95848887D01*
X72061455Y-95989235D01*
X71954273Y-96149643D01*
X71457883Y-95653253D01*
X71415371Y-95589629D01*
X71163317Y-95421212D01*
X70941048Y-95377000D01*
X70941043Y-95377000D01*
X70866000Y-95362073D01*
X70807185Y-95373772D01*
X70603125Y-95068375D01*
X70304739Y-94869000D01*
X70603125Y-94669625D01*
X70809342Y-94361000D01*
X71807823Y-94361000D01*
X71807823Y-94518473D01*
X71857106Y-94766238D01*
X71997454Y-94976282D01*
X72207498Y-95116630D01*
X72455263Y-95165913D01*
X74455263Y-95165913D01*
X74703028Y-95116630D01*
X74913072Y-94976282D01*
X75053420Y-94766238D01*
X75102703Y-94518473D01*
X75102703Y-92818473D01*
X75053420Y-92570708D01*
X74913072Y-92360664D01*
X74703028Y-92220316D01*
X74455263Y-92171033D01*
X72455263Y-92171033D01*
X72207498Y-92220316D01*
X71997454Y-92360664D01*
X71857106Y-92570708D01*
X71807823Y-92818473D01*
X71807823Y-92837000D01*
X70809342Y-92837000D01*
X70603125Y-92528375D01*
X70304739Y-92329000D01*
X70603125Y-92129625D01*
X70809342Y-91821000D01*
X70917957Y-91821000D01*
X70993000Y-91835927D01*
X71068043Y-91821000D01*
X71068048Y-91821000D01*
X71290317Y-91776788D01*
X71542371Y-91608371D01*
X71584883Y-91544747D01*
X71900774Y-91228856D01*
X71980191Y-91347711D01*
X72190235Y-91488059D01*
X72438000Y-91537342D01*
X74438000Y-91537342D01*
X74685765Y-91488059D01*
X74895809Y-91347711D01*
X75036157Y-91137667D01*
X75085440Y-90889902D01*
X75085440Y-89189902D01*
X75036157Y-88942137D01*
X74895809Y-88732093D01*
X74685765Y-88591745D01*
X74438000Y-88542462D01*
X72438000Y-88542462D01*
X72190235Y-88591745D01*
X71980191Y-88732093D01*
X71839843Y-88942137D01*
X71790560Y-89189902D01*
X71790560Y-89307041D01*
X71714781Y-89322114D01*
X71714780Y-89322115D01*
X71714779Y-89322115D01*
X71527876Y-89447000D01*
X71462727Y-89490531D01*
X71420216Y-89554153D01*
X70756481Y-90217889D01*
X70603125Y-89988375D01*
X70304739Y-89789000D01*
X70603125Y-89589625D01*
X70809342Y-89281000D01*
X70917957Y-89281000D01*
X70993000Y-89295927D01*
X71068043Y-89281000D01*
X71068048Y-89281000D01*
X71290317Y-89236788D01*
X71542371Y-89068371D01*
X71584884Y-89004746D01*
X71986746Y-88602884D01*
X72050371Y-88560371D01*
X72218788Y-88308317D01*
X72263000Y-88086048D01*
X72263000Y-88086044D01*
X72277927Y-88011001D01*
X72263000Y-87935958D01*
X72263000Y-87867597D01*
X72470000Y-87908771D01*
X74470000Y-87908771D01*
X74717765Y-87859488D01*
X74927809Y-87719140D01*
X75068157Y-87509096D01*
X75117440Y-87261331D01*
X75117440Y-85561331D01*
X75068157Y-85313566D01*
X74927809Y-85103522D01*
X74717765Y-84963174D01*
X74470000Y-84913891D01*
X72517000Y-84913891D01*
X72517000Y-84280200D01*
X74455263Y-84280200D01*
X74703028Y-84230917D01*
X74913072Y-84090569D01*
X75053420Y-83880525D01*
X75102703Y-83632760D01*
X75102703Y-81932760D01*
X75053420Y-81684995D01*
X74913072Y-81474951D01*
X74703028Y-81334603D01*
X74455263Y-81285320D01*
X72455263Y-81285320D01*
X72207498Y-81334603D01*
X72009000Y-81467236D01*
X72009000Y-80469712D01*
X72207499Y-80602346D01*
X72455264Y-80651629D01*
X74455264Y-80651629D01*
X74703029Y-80602346D01*
X74913073Y-80461998D01*
X75053421Y-80251954D01*
X75102704Y-80004189D01*
X75102704Y-78304189D01*
X75053421Y-78056424D01*
X74913073Y-77846380D01*
X74703029Y-77706032D01*
X74455264Y-77656749D01*
X72455264Y-77656749D01*
X72207499Y-77706032D01*
X71997455Y-77846380D01*
X71857107Y-78056424D01*
X71807824Y-78304189D01*
X71807824Y-78410676D01*
X71678494Y-78436401D01*
X71678493Y-78436402D01*
X71678492Y-78436402D01*
X71563882Y-78512982D01*
X71426440Y-78604818D01*
X71383929Y-78668440D01*
X70761253Y-79291117D01*
X70697629Y-79333629D01*
X70620595Y-79448919D01*
X70382500Y-79401560D01*
X70294500Y-79401560D01*
X70294500Y-78103130D01*
X71843359Y-76554272D01*
X71857106Y-76623383D01*
X71997454Y-76833427D01*
X72207498Y-76973775D01*
X72455263Y-77023058D01*
X74455263Y-77023058D01*
X74703028Y-76973775D01*
X74913072Y-76833427D01*
X75053420Y-76623383D01*
X75102703Y-76375618D01*
X75102703Y-74675618D01*
X75053420Y-74427853D01*
X74913072Y-74217809D01*
X74703028Y-74077461D01*
X74455263Y-74028178D01*
X72455263Y-74028178D01*
X72207498Y-74077461D01*
X71997454Y-74217809D01*
X71857106Y-74427853D01*
X71807823Y-74675618D01*
X71807823Y-74751365D01*
X71794381Y-74748691D01*
X71719338Y-74763618D01*
X71719334Y-74763618D01*
X71497065Y-74807830D01*
X71497064Y-74807831D01*
X71497063Y-74807831D01*
X71379053Y-74886683D01*
X71245011Y-74976247D01*
X71202500Y-75039869D01*
X69046753Y-77195617D01*
X68983129Y-77238129D01*
X68814712Y-77490184D01*
X68770500Y-77712453D01*
X68770500Y-77712457D01*
X68755573Y-77787500D01*
X68770500Y-77862544D01*
X68770501Y-79401560D01*
X68682500Y-79401560D01*
X68434735Y-79450843D01*
X68224691Y-79591191D01*
X68084343Y-79801235D01*
X68062539Y-79910855D01*
X67873858Y-79703817D01*
X67349392Y-79457514D01*
X67119500Y-79578181D01*
X67119500Y-80772000D01*
X67139500Y-80772000D01*
X67139500Y-81026000D01*
X67119500Y-81026000D01*
X67119500Y-83312000D01*
X67139500Y-83312000D01*
X67139500Y-83566000D01*
X67119500Y-83566000D01*
X67119500Y-85852000D01*
X67139500Y-85852000D01*
X67139500Y-86106000D01*
X67119500Y-86106000D01*
X67119500Y-88392000D01*
X67139500Y-88392000D01*
X67139500Y-88646000D01*
X67119500Y-88646000D01*
X67119500Y-90932000D01*
X67139500Y-90932000D01*
X67139500Y-91186000D01*
X67119500Y-91186000D01*
X67119500Y-93472000D01*
X67139500Y-93472000D01*
X67139500Y-93726000D01*
X67119500Y-93726000D01*
X67119500Y-96012000D01*
X67139500Y-96012000D01*
X67139500Y-96266000D01*
X67119500Y-96266000D01*
X67119500Y-98552000D01*
X67139500Y-98552000D01*
X67139500Y-98806000D01*
X67119500Y-98806000D01*
X67119500Y-99999819D01*
X67349392Y-100120486D01*
X67873858Y-99874183D01*
X68261147Y-99449214D01*
X68461875Y-99749625D01*
X68770501Y-99955842D01*
X68770501Y-100191452D01*
X68755573Y-100266500D01*
X68814713Y-100563817D01*
X68890470Y-100677195D01*
X68983130Y-100815871D01*
X69046751Y-100858381D01*
X69599736Y-101411367D01*
X69642247Y-101474989D01*
X69894301Y-101643406D01*
X70116570Y-101687618D01*
X70116571Y-101687618D01*
X70191618Y-101702546D01*
X70266665Y-101687618D01*
X71822560Y-101687618D01*
X71822560Y-101775618D01*
X71825520Y-101790500D01*
X64893440Y-101790500D01*
X64893440Y-100242000D01*
X64844157Y-99994235D01*
X64703809Y-99784191D01*
X64493765Y-99643843D01*
X64246000Y-99594560D01*
X64189124Y-99594560D01*
X64189124Y-99035890D01*
X65551024Y-99035890D01*
X65720855Y-99445924D01*
X66111142Y-99874183D01*
X66635608Y-100120486D01*
X66865500Y-99999819D01*
X66865500Y-98806000D01*
X65672345Y-98806000D01*
X65551024Y-99035890D01*
X64189124Y-99035890D01*
X64189124Y-98712397D01*
X64363624Y-98712397D01*
X64611389Y-98663114D01*
X64821433Y-98522766D01*
X64961781Y-98312722D01*
X65011064Y-98064957D01*
X65011064Y-96495890D01*
X65551024Y-96495890D01*
X65720855Y-96905924D01*
X66111142Y-97334183D01*
X66270454Y-97409000D01*
X66111142Y-97483817D01*
X65720855Y-97912076D01*
X65551024Y-98322110D01*
X65672345Y-98552000D01*
X66865500Y-98552000D01*
X66865500Y-96266000D01*
X65672345Y-96266000D01*
X65551024Y-96495890D01*
X65011064Y-96495890D01*
X65011064Y-96364957D01*
X64961781Y-96117192D01*
X64821433Y-95907148D01*
X64611389Y-95766800D01*
X64363624Y-95717517D01*
X64188626Y-95717517D01*
X64188626Y-95156397D01*
X64363126Y-95156397D01*
X64610891Y-95107114D01*
X64820935Y-94966766D01*
X64961283Y-94756722D01*
X65010566Y-94508957D01*
X65010566Y-93955890D01*
X65551024Y-93955890D01*
X65720855Y-94365924D01*
X66111142Y-94794183D01*
X66270454Y-94869000D01*
X66111142Y-94943817D01*
X65720855Y-95372076D01*
X65551024Y-95782110D01*
X65672345Y-96012000D01*
X66865500Y-96012000D01*
X66865500Y-93726000D01*
X65672345Y-93726000D01*
X65551024Y-93955890D01*
X65010566Y-93955890D01*
X65010566Y-92808957D01*
X64961283Y-92561192D01*
X64820935Y-92351148D01*
X64610891Y-92210800D01*
X64363126Y-92161517D01*
X64189125Y-92161517D01*
X64189125Y-91600397D01*
X64363625Y-91600397D01*
X64611390Y-91551114D01*
X64813765Y-91415890D01*
X65551024Y-91415890D01*
X65720855Y-91825924D01*
X66111142Y-92254183D01*
X66270454Y-92329000D01*
X66111142Y-92403817D01*
X65720855Y-92832076D01*
X65551024Y-93242110D01*
X65672345Y-93472000D01*
X66865500Y-93472000D01*
X66865500Y-91186000D01*
X65672345Y-91186000D01*
X65551024Y-91415890D01*
X64813765Y-91415890D01*
X64821434Y-91410766D01*
X64961782Y-91200722D01*
X65011065Y-90952957D01*
X65011065Y-89252957D01*
X64961782Y-89005192D01*
X64875385Y-88875890D01*
X65551024Y-88875890D01*
X65720855Y-89285924D01*
X66111142Y-89714183D01*
X66270454Y-89789000D01*
X66111142Y-89863817D01*
X65720855Y-90292076D01*
X65551024Y-90702110D01*
X65672345Y-90932000D01*
X66865500Y-90932000D01*
X66865500Y-88646000D01*
X65672345Y-88646000D01*
X65551024Y-88875890D01*
X64875385Y-88875890D01*
X64821434Y-88795148D01*
X64611390Y-88654800D01*
X64363625Y-88605517D01*
X64189124Y-88605517D01*
X64189124Y-88044397D01*
X64363624Y-88044397D01*
X64611389Y-87995114D01*
X64821433Y-87854766D01*
X64961781Y-87644722D01*
X65011064Y-87396957D01*
X65011064Y-86335890D01*
X65551024Y-86335890D01*
X65720855Y-86745924D01*
X66111142Y-87174183D01*
X66270454Y-87249000D01*
X66111142Y-87323817D01*
X65720855Y-87752076D01*
X65551024Y-88162110D01*
X65672345Y-88392000D01*
X66865500Y-88392000D01*
X66865500Y-86106000D01*
X65672345Y-86106000D01*
X65551024Y-86335890D01*
X65011064Y-86335890D01*
X65011064Y-85696957D01*
X64961781Y-85449192D01*
X64821433Y-85239148D01*
X64611389Y-85098800D01*
X64363624Y-85049517D01*
X64293500Y-85049517D01*
X64293500Y-84488397D01*
X64468000Y-84488397D01*
X64715765Y-84439114D01*
X64925809Y-84298766D01*
X65066157Y-84088722D01*
X65115440Y-83840957D01*
X65115440Y-83795890D01*
X65551024Y-83795890D01*
X65720855Y-84205924D01*
X66111142Y-84634183D01*
X66270454Y-84709000D01*
X66111142Y-84783817D01*
X65720855Y-85212076D01*
X65551024Y-85622110D01*
X65672345Y-85852000D01*
X66865500Y-85852000D01*
X66865500Y-83566000D01*
X65672345Y-83566000D01*
X65551024Y-83795890D01*
X65115440Y-83795890D01*
X65115440Y-82140957D01*
X65066157Y-81893192D01*
X64925809Y-81683148D01*
X64715765Y-81542800D01*
X64468000Y-81493517D01*
X64293500Y-81493517D01*
X64293500Y-81255890D01*
X65551024Y-81255890D01*
X65720855Y-81665924D01*
X66111142Y-82094183D01*
X66270454Y-82169000D01*
X66111142Y-82243817D01*
X65720855Y-82672076D01*
X65551024Y-83082110D01*
X65672345Y-83312000D01*
X66865500Y-83312000D01*
X66865500Y-81026000D01*
X65672345Y-81026000D01*
X65551024Y-81255890D01*
X64293500Y-81255890D01*
X64293500Y-80999440D01*
X64468000Y-80999440D01*
X64715765Y-80950157D01*
X64925809Y-80809809D01*
X65066157Y-80599765D01*
X65077625Y-80542110D01*
X65551024Y-80542110D01*
X65672345Y-80772000D01*
X66865500Y-80772000D01*
X66865500Y-79578181D01*
X66635608Y-79457514D01*
X66111142Y-79703817D01*
X65720855Y-80132076D01*
X65551024Y-80542110D01*
X65077625Y-80542110D01*
X65115440Y-80352000D01*
X65115440Y-78652000D01*
X65066157Y-78404235D01*
X64925809Y-78194191D01*
X64715765Y-78053843D01*
X64468000Y-78004560D01*
X64293500Y-78004560D01*
X64293500Y-77376397D01*
X64468000Y-77376397D01*
X64715765Y-77327114D01*
X64925809Y-77186766D01*
X65066157Y-76976722D01*
X65115440Y-76728957D01*
X65115440Y-75028957D01*
X65066157Y-74781192D01*
X64925809Y-74571148D01*
X64715765Y-74430800D01*
X64468000Y-74381517D01*
X64293500Y-74381517D01*
X64293500Y-72439301D01*
X64309672Y-72358000D01*
X64254648Y-72081375D01*
X64245604Y-72035906D01*
X64063152Y-71762848D01*
X63994226Y-71716793D01*
X62363209Y-70085777D01*
X62317152Y-70016848D01*
X62044094Y-69834396D01*
X61803303Y-69786500D01*
X61803301Y-69786500D01*
X61722000Y-69770328D01*
X61640699Y-69786500D01*
X49494412Y-69786500D01*
X49330625Y-69541375D01*
X49032239Y-69342000D01*
X49330625Y-69142625D01*
X49658839Y-68651418D01*
X49774092Y-68072000D01*
X49658839Y-67492582D01*
X49330625Y-67001375D01*
X49032239Y-66802000D01*
X49330625Y-66602625D01*
X49658839Y-66111418D01*
X49774092Y-65532000D01*
X49658839Y-64952582D01*
X49330625Y-64461375D01*
X49312381Y-64449184D01*
X49357765Y-64440157D01*
X49567809Y-64299809D01*
X49708157Y-64089765D01*
X49723625Y-64012000D01*
X95005908Y-64012000D01*
X95121161Y-64591418D01*
X95449375Y-65082625D01*
X95747761Y-65282000D01*
X95449375Y-65481375D01*
X95121161Y-65972582D01*
X95005908Y-66552000D01*
X95121161Y-67131418D01*
X95449375Y-67622625D01*
X95747761Y-67822000D01*
X95449375Y-68021375D01*
X95121161Y-68512582D01*
X95005908Y-69092000D01*
X95121161Y-69671418D01*
X95449375Y-70162625D01*
X95747761Y-70362000D01*
X95449375Y-70561375D01*
X95121161Y-71052582D01*
X95005908Y-71632000D01*
X95121161Y-72211418D01*
X95449375Y-72702625D01*
X95747761Y-72902000D01*
X95449375Y-73101375D01*
X95121161Y-73592582D01*
X95005908Y-74172000D01*
X95121161Y-74751418D01*
X95449375Y-75242625D01*
X95747761Y-75442000D01*
X95449375Y-75641375D01*
X95121161Y-76132582D01*
X95005908Y-76712000D01*
X95121161Y-77291418D01*
X95449375Y-77782625D01*
X95940582Y-78110839D01*
X96373744Y-78197000D01*
X96666256Y-78197000D01*
X97099418Y-78110839D01*
X97590625Y-77782625D01*
X97918839Y-77291418D01*
X98034092Y-76712000D01*
X97918839Y-76132582D01*
X97590625Y-75641375D01*
X97292239Y-75442000D01*
X97590625Y-75242625D01*
X97918839Y-74751418D01*
X98034092Y-74172000D01*
X97918839Y-73592582D01*
X97590625Y-73101375D01*
X97292239Y-72902000D01*
X97590625Y-72702625D01*
X97918839Y-72211418D01*
X98034092Y-71632000D01*
X97918839Y-71052582D01*
X97590625Y-70561375D01*
X97292239Y-70362000D01*
X97590625Y-70162625D01*
X97918839Y-69671418D01*
X98034092Y-69092000D01*
X97918839Y-68512582D01*
X97590625Y-68021375D01*
X97292239Y-67822000D01*
X97590625Y-67622625D01*
X97918839Y-67131418D01*
X98034092Y-66552000D01*
X97918839Y-65972582D01*
X97590625Y-65481375D01*
X97292239Y-65282000D01*
X97590625Y-65082625D01*
X97918839Y-64591418D01*
X98034092Y-64012000D01*
X97918839Y-63432582D01*
X97590625Y-62941375D01*
X97271522Y-62728157D01*
X97401358Y-62667183D01*
X97791645Y-62238924D01*
X97961476Y-61828890D01*
X97840155Y-61599000D01*
X96647000Y-61599000D01*
X96647000Y-61619000D01*
X96393000Y-61619000D01*
X96393000Y-61599000D01*
X95199845Y-61599000D01*
X95078524Y-61828890D01*
X95248355Y-62238924D01*
X95638642Y-62667183D01*
X95768478Y-62728157D01*
X95449375Y-62941375D01*
X95121161Y-63432582D01*
X95005908Y-64012000D01*
X49723625Y-64012000D01*
X49757440Y-63842000D01*
X49757440Y-62142000D01*
X49708157Y-61894235D01*
X49644635Y-61799167D01*
X55499000Y-61799167D01*
X55499000Y-62152833D01*
X55634342Y-62479578D01*
X55884422Y-62729658D01*
X56006994Y-62780429D01*
X56006994Y-62914833D01*
X56142336Y-63241578D01*
X56392416Y-63491658D01*
X56719161Y-63627000D01*
X57072827Y-63627000D01*
X57379433Y-63500000D01*
X69112561Y-63500000D01*
X69419167Y-63627000D01*
X69772833Y-63627000D01*
X70079439Y-63500000D01*
X83844561Y-63500000D01*
X84151167Y-63627000D01*
X84504833Y-63627000D01*
X84811439Y-63500000D01*
X90098957Y-63500000D01*
X90174000Y-63514927D01*
X90249043Y-63500000D01*
X90249048Y-63500000D01*
X90471317Y-63455788D01*
X90723371Y-63287371D01*
X90765883Y-63223747D01*
X95014489Y-58975141D01*
X95121161Y-59511418D01*
X95449375Y-60002625D01*
X95768478Y-60215843D01*
X95638642Y-60276817D01*
X95248355Y-60705076D01*
X95078524Y-61115110D01*
X95199845Y-61345000D01*
X96393000Y-61345000D01*
X96393000Y-61325000D01*
X96647000Y-61325000D01*
X96647000Y-61345000D01*
X97840155Y-61345000D01*
X97961476Y-61115110D01*
X97791645Y-60705076D01*
X97401358Y-60276817D01*
X97271522Y-60215843D01*
X97590625Y-60002625D01*
X97918839Y-59511418D01*
X98034092Y-58932000D01*
X97918839Y-58352582D01*
X97590625Y-57861375D01*
X97292239Y-57662000D01*
X97590625Y-57462625D01*
X97918839Y-56971418D01*
X98034092Y-56392000D01*
X97918839Y-55812582D01*
X97590625Y-55321375D01*
X97572381Y-55309184D01*
X97617765Y-55300157D01*
X97827809Y-55159809D01*
X97968157Y-54949765D01*
X98017440Y-54702000D01*
X98017440Y-53002000D01*
X97968157Y-52754235D01*
X97827809Y-52544191D01*
X97617765Y-52403843D01*
X97370000Y-52354560D01*
X95670000Y-52354560D01*
X95422235Y-52403843D01*
X95212191Y-52544191D01*
X95071843Y-52754235D01*
X95022560Y-53002000D01*
X95022560Y-53081151D01*
X94992000Y-53075072D01*
X94916953Y-53090000D01*
X94916952Y-53090000D01*
X94694683Y-53134212D01*
X94442629Y-53302629D01*
X94400118Y-53366251D01*
X93875251Y-53891119D01*
X93811630Y-53933629D01*
X93769119Y-53997251D01*
X93769118Y-53997252D01*
X93643213Y-54185683D01*
X93584073Y-54483000D01*
X93599001Y-54558048D01*
X93599000Y-57088369D01*
X89473370Y-61214000D01*
X84049501Y-61214000D01*
X83742895Y-61087000D01*
X83389229Y-61087000D01*
X83082623Y-61214000D01*
X69406349Y-61214000D01*
X69099743Y-61087000D01*
X68746077Y-61087000D01*
X68439471Y-61214000D01*
X56871439Y-61214000D01*
X56564833Y-61087000D01*
X56211167Y-61087000D01*
X55884422Y-61222342D01*
X55634342Y-61472422D01*
X55499000Y-61799167D01*
X49644635Y-61799167D01*
X49567809Y-61684191D01*
X49357765Y-61543843D01*
X49110000Y-61494560D01*
X47410000Y-61494560D01*
X47162235Y-61543843D01*
X46952191Y-61684191D01*
X46811843Y-61894235D01*
X46762560Y-62142000D01*
X46762560Y-63842000D01*
X46811843Y-64089765D01*
X46952191Y-64299809D01*
X47162235Y-64440157D01*
X47207619Y-64449184D01*
X47189375Y-64461375D01*
X46861161Y-64952582D01*
X46745908Y-65532000D01*
X46861161Y-66111418D01*
X47189375Y-66602625D01*
X47487761Y-66802000D01*
X47189375Y-67001375D01*
X46861161Y-67492582D01*
X46745908Y-68072000D01*
X46861161Y-68651418D01*
X47189375Y-69142625D01*
X47487761Y-69342000D01*
X47189375Y-69541375D01*
X46861161Y-70032582D01*
X46745908Y-70612000D01*
X46861161Y-71191418D01*
X47189375Y-71682625D01*
X47487761Y-71882000D01*
X47189375Y-72081375D01*
X46861161Y-72572582D01*
X46745908Y-73152000D01*
X46861161Y-73731418D01*
X47189375Y-74222625D01*
X47508478Y-74435843D01*
X47378642Y-74496817D01*
X46988355Y-74925076D01*
X46818524Y-75335110D01*
X46939845Y-75565000D01*
X48133000Y-75565000D01*
X48133000Y-75545000D01*
X48387000Y-75545000D01*
X48387000Y-75565000D01*
X49580155Y-75565000D01*
X49701476Y-75335110D01*
X49531645Y-74925076D01*
X49141358Y-74496817D01*
X49011522Y-74435843D01*
X49330625Y-74222625D01*
X49658839Y-73731418D01*
X49774092Y-73152000D01*
X49658839Y-72572582D01*
X49330625Y-72081375D01*
X49032239Y-71882000D01*
X49330625Y-71682625D01*
X49494412Y-71437500D01*
X61380068Y-71437500D01*
X62642501Y-72699934D01*
X62642500Y-74381517D01*
X62468000Y-74381517D01*
X62220235Y-74430800D01*
X62010191Y-74571148D01*
X61869843Y-74781192D01*
X61820560Y-75028957D01*
X61820560Y-76728957D01*
X61869843Y-76976722D01*
X62010191Y-77186766D01*
X62220235Y-77327114D01*
X62468000Y-77376397D01*
X62642500Y-77376397D01*
X62642501Y-78004560D01*
X62468000Y-78004560D01*
X62220235Y-78053843D01*
X62010191Y-78194191D01*
X61869843Y-78404235D01*
X61820560Y-78652000D01*
X61820560Y-80352000D01*
X61869843Y-80599765D01*
X62010191Y-80809809D01*
X62220235Y-80950157D01*
X62468000Y-80999440D01*
X62642500Y-80999440D01*
X62642501Y-81493517D01*
X62468000Y-81493517D01*
X62220235Y-81542800D01*
X62010191Y-81683148D01*
X61869843Y-81893192D01*
X61820560Y-82140957D01*
X61820560Y-83840957D01*
X61869843Y-84088722D01*
X62010191Y-84298766D01*
X62220235Y-84439114D01*
X62468000Y-84488397D01*
X62642500Y-84488397D01*
X62642501Y-85049517D01*
X62363624Y-85049517D01*
X62115859Y-85098800D01*
X61905815Y-85239148D01*
X61765467Y-85449192D01*
X61716184Y-85696957D01*
X61716184Y-87396957D01*
X61765467Y-87644722D01*
X61905815Y-87854766D01*
X62115859Y-87995114D01*
X62363624Y-88044397D01*
X62538124Y-88044397D01*
X62538125Y-88605517D01*
X62363625Y-88605517D01*
X62115860Y-88654800D01*
X61905816Y-88795148D01*
X61765468Y-89005192D01*
X61716185Y-89252957D01*
X61716185Y-90952957D01*
X61765468Y-91200722D01*
X61905816Y-91410766D01*
X62115860Y-91551114D01*
X62363625Y-91600397D01*
X62538125Y-91600397D01*
X62538126Y-92161517D01*
X62363126Y-92161517D01*
X62115361Y-92210800D01*
X61905317Y-92351148D01*
X61764969Y-92561192D01*
X61715686Y-92808957D01*
X61715686Y-94508957D01*
X61764969Y-94756722D01*
X61905317Y-94966766D01*
X62115361Y-95107114D01*
X62363126Y-95156397D01*
X62537626Y-95156397D01*
X62537627Y-95717517D01*
X62363624Y-95717517D01*
X62115859Y-95766800D01*
X61905815Y-95907148D01*
X61765467Y-96117192D01*
X61716184Y-96364957D01*
X61716184Y-98064957D01*
X61765467Y-98312722D01*
X61905815Y-98522766D01*
X62115859Y-98663114D01*
X62363624Y-98712397D01*
X62538124Y-98712397D01*
X62538125Y-99594560D01*
X62246000Y-99594560D01*
X61998235Y-99643843D01*
X61788191Y-99784191D01*
X61647843Y-99994235D01*
X61598560Y-100242000D01*
X61598560Y-101942000D01*
X61647843Y-102189765D01*
X61788191Y-102399809D01*
X61998235Y-102540157D01*
X62246000Y-102589440D01*
X62574869Y-102589440D01*
X62650849Y-102703152D01*
X62719774Y-102749207D01*
X63112793Y-103142225D01*
X63135360Y-103176000D01*
X51094091Y-103176000D01*
X48811494Y-100893404D01*
X48771881Y-100834119D01*
X48537028Y-100677195D01*
X48329926Y-100636000D01*
X48329924Y-100636000D01*
X48260000Y-100622091D01*
X48190076Y-100636000D01*
X46176000Y-100636000D01*
X46176000Y-88392000D01*
X46745908Y-88392000D01*
X46861161Y-88971418D01*
X47189375Y-89462625D01*
X47487761Y-89662000D01*
X47189375Y-89861375D01*
X46861161Y-90352582D01*
X46745908Y-90932000D01*
X46861161Y-91511418D01*
X47189375Y-92002625D01*
X47487761Y-92202000D01*
X47189375Y-92401375D01*
X46861161Y-92892582D01*
X46745908Y-93472000D01*
X46861161Y-94051418D01*
X47189375Y-94542625D01*
X47487761Y-94742000D01*
X47189375Y-94941375D01*
X46861161Y-95432582D01*
X46745908Y-96012000D01*
X46861161Y-96591418D01*
X47189375Y-97082625D01*
X47487761Y-97282000D01*
X47189375Y-97481375D01*
X46861161Y-97972582D01*
X46745908Y-98552000D01*
X46861161Y-99131418D01*
X47189375Y-99622625D01*
X47680582Y-99950839D01*
X48113744Y-100037000D01*
X48406256Y-100037000D01*
X48839418Y-99950839D01*
X49330625Y-99622625D01*
X49658839Y-99131418D01*
X49703102Y-98908890D01*
X51390524Y-98908890D01*
X51560355Y-99318924D01*
X51950642Y-99747183D01*
X52475108Y-99993486D01*
X52705000Y-99872819D01*
X52705000Y-98679000D01*
X51511845Y-98679000D01*
X51390524Y-98908890D01*
X49703102Y-98908890D01*
X49774092Y-98552000D01*
X49658839Y-97972582D01*
X49330625Y-97481375D01*
X49032239Y-97282000D01*
X49330625Y-97082625D01*
X49658839Y-96591418D01*
X49703102Y-96368890D01*
X51390524Y-96368890D01*
X51560355Y-96778924D01*
X51950642Y-97207183D01*
X52109954Y-97282000D01*
X51950642Y-97356817D01*
X51560355Y-97785076D01*
X51390524Y-98195110D01*
X51511845Y-98425000D01*
X52705000Y-98425000D01*
X52705000Y-96139000D01*
X51511845Y-96139000D01*
X51390524Y-96368890D01*
X49703102Y-96368890D01*
X49774092Y-96012000D01*
X49658839Y-95432582D01*
X49330625Y-94941375D01*
X49032239Y-94742000D01*
X49330625Y-94542625D01*
X49658839Y-94051418D01*
X49703102Y-93828890D01*
X51390524Y-93828890D01*
X51560355Y-94238924D01*
X51950642Y-94667183D01*
X52109954Y-94742000D01*
X51950642Y-94816817D01*
X51560355Y-95245076D01*
X51390524Y-95655110D01*
X51511845Y-95885000D01*
X52705000Y-95885000D01*
X52705000Y-93599000D01*
X51511845Y-93599000D01*
X51390524Y-93828890D01*
X49703102Y-93828890D01*
X49774092Y-93472000D01*
X49658839Y-92892582D01*
X49330625Y-92401375D01*
X49032239Y-92202000D01*
X49330625Y-92002625D01*
X49658839Y-91511418D01*
X49703102Y-91288890D01*
X51390524Y-91288890D01*
X51560355Y-91698924D01*
X51950642Y-92127183D01*
X52109954Y-92202000D01*
X51950642Y-92276817D01*
X51560355Y-92705076D01*
X51390524Y-93115110D01*
X51511845Y-93345000D01*
X52705000Y-93345000D01*
X52705000Y-91059000D01*
X51511845Y-91059000D01*
X51390524Y-91288890D01*
X49703102Y-91288890D01*
X49774092Y-90932000D01*
X49658839Y-90352582D01*
X49330625Y-89861375D01*
X49032239Y-89662000D01*
X49330625Y-89462625D01*
X49658839Y-88971418D01*
X49703102Y-88748890D01*
X51390524Y-88748890D01*
X51560355Y-89158924D01*
X51950642Y-89587183D01*
X52109954Y-89662000D01*
X51950642Y-89736817D01*
X51560355Y-90165076D01*
X51390524Y-90575110D01*
X51511845Y-90805000D01*
X52705000Y-90805000D01*
X52705000Y-88519000D01*
X51511845Y-88519000D01*
X51390524Y-88748890D01*
X49703102Y-88748890D01*
X49774092Y-88392000D01*
X49658839Y-87812582D01*
X49330625Y-87321375D01*
X49312381Y-87309184D01*
X49357765Y-87300157D01*
X49567809Y-87159809D01*
X49708157Y-86949765D01*
X49757440Y-86702000D01*
X49757440Y-86208890D01*
X51390524Y-86208890D01*
X51560355Y-86618924D01*
X51950642Y-87047183D01*
X52109954Y-87122000D01*
X51950642Y-87196817D01*
X51560355Y-87625076D01*
X51390524Y-88035110D01*
X51511845Y-88265000D01*
X52705000Y-88265000D01*
X52705000Y-85979000D01*
X51511845Y-85979000D01*
X51390524Y-86208890D01*
X49757440Y-86208890D01*
X49757440Y-85002000D01*
X49708157Y-84754235D01*
X49567809Y-84544191D01*
X49357765Y-84403843D01*
X49110000Y-84354560D01*
X47410000Y-84354560D01*
X47162235Y-84403843D01*
X46952191Y-84544191D01*
X46811843Y-84754235D01*
X46762560Y-85002000D01*
X46762560Y-86702000D01*
X46811843Y-86949765D01*
X46952191Y-87159809D01*
X47162235Y-87300157D01*
X47207619Y-87309184D01*
X47189375Y-87321375D01*
X46861161Y-87812582D01*
X46745908Y-88392000D01*
X46176000Y-88392000D01*
X46176000Y-83668890D01*
X51390524Y-83668890D01*
X51560355Y-84078924D01*
X51950642Y-84507183D01*
X52109954Y-84582000D01*
X51950642Y-84656817D01*
X51560355Y-85085076D01*
X51390524Y-85495110D01*
X51511845Y-85725000D01*
X52705000Y-85725000D01*
X52705000Y-83439000D01*
X51511845Y-83439000D01*
X51390524Y-83668890D01*
X46176000Y-83668890D01*
X46176000Y-80772000D01*
X46745908Y-80772000D01*
X46861161Y-81351418D01*
X47189375Y-81842625D01*
X47680582Y-82170839D01*
X48113744Y-82257000D01*
X48406256Y-82257000D01*
X48839418Y-82170839D01*
X49330625Y-81842625D01*
X49658839Y-81351418D01*
X49703102Y-81128890D01*
X51390524Y-81128890D01*
X51560355Y-81538924D01*
X51950642Y-81967183D01*
X52109954Y-82042000D01*
X51950642Y-82116817D01*
X51560355Y-82545076D01*
X51390524Y-82955110D01*
X51511845Y-83185000D01*
X52705000Y-83185000D01*
X52705000Y-80899000D01*
X51511845Y-80899000D01*
X51390524Y-81128890D01*
X49703102Y-81128890D01*
X49774092Y-80772000D01*
X49703103Y-80415110D01*
X51390524Y-80415110D01*
X51511845Y-80645000D01*
X52705000Y-80645000D01*
X52705000Y-79451181D01*
X52959000Y-79451181D01*
X52959000Y-80645000D01*
X52979000Y-80645000D01*
X52979000Y-80899000D01*
X52959000Y-80899000D01*
X52959000Y-83185000D01*
X52979000Y-83185000D01*
X52979000Y-83439000D01*
X52959000Y-83439000D01*
X52959000Y-85725000D01*
X52979000Y-85725000D01*
X52979000Y-85979000D01*
X52959000Y-85979000D01*
X52959000Y-88265000D01*
X52979000Y-88265000D01*
X52979000Y-88519000D01*
X52959000Y-88519000D01*
X52959000Y-90805000D01*
X52979000Y-90805000D01*
X52979000Y-91059000D01*
X52959000Y-91059000D01*
X52959000Y-93345000D01*
X52979000Y-93345000D01*
X52979000Y-93599000D01*
X52959000Y-93599000D01*
X52959000Y-95885000D01*
X52979000Y-95885000D01*
X52979000Y-96139000D01*
X52959000Y-96139000D01*
X52959000Y-98425000D01*
X52979000Y-98425000D01*
X52979000Y-98679000D01*
X52959000Y-98679000D01*
X52959000Y-99872819D01*
X53188892Y-99993486D01*
X53713358Y-99747183D01*
X54100647Y-99322214D01*
X54301375Y-99622625D01*
X54610001Y-99828842D01*
X54610001Y-100254952D01*
X54595073Y-100330000D01*
X54654213Y-100627317D01*
X54766043Y-100794682D01*
X54822630Y-100879371D01*
X54886251Y-100921881D01*
X55542118Y-101577749D01*
X55584629Y-101641371D01*
X55648251Y-101683882D01*
X55710459Y-101725448D01*
X55836683Y-101809788D01*
X56058952Y-101854000D01*
X56058953Y-101854000D01*
X56134000Y-101868928D01*
X56209047Y-101854000D01*
X57598560Y-101854000D01*
X57598560Y-101942000D01*
X57647843Y-102189765D01*
X57788191Y-102399809D01*
X57998235Y-102540157D01*
X58246000Y-102589440D01*
X60246000Y-102589440D01*
X60493765Y-102540157D01*
X60703809Y-102399809D01*
X60844157Y-102189765D01*
X60893440Y-101942000D01*
X60893440Y-100242000D01*
X60844157Y-99994235D01*
X60703809Y-99784191D01*
X60493765Y-99643843D01*
X60246000Y-99594560D01*
X58246000Y-99594560D01*
X57998235Y-99643843D01*
X57788191Y-99784191D01*
X57647843Y-99994235D01*
X57598560Y-100242000D01*
X57598560Y-100330000D01*
X56449631Y-100330000D01*
X56134000Y-100014370D01*
X56134000Y-99828842D01*
X56442625Y-99622625D01*
X56770839Y-99131418D01*
X56886092Y-98552000D01*
X56770839Y-97972582D01*
X56442625Y-97481375D01*
X56144239Y-97282000D01*
X56442625Y-97082625D01*
X56770839Y-96591418D01*
X56886092Y-96012000D01*
X56868588Y-95924001D01*
X57894554Y-95924001D01*
X57765467Y-96117192D01*
X57716184Y-96364957D01*
X57716184Y-98064957D01*
X57765467Y-98312722D01*
X57905815Y-98522766D01*
X58115859Y-98663114D01*
X58363624Y-98712397D01*
X60363624Y-98712397D01*
X60611389Y-98663114D01*
X60821433Y-98522766D01*
X60961781Y-98312722D01*
X61011064Y-98064957D01*
X61011064Y-96364957D01*
X60961781Y-96117192D01*
X60821433Y-95907148D01*
X60611389Y-95766800D01*
X60363624Y-95717517D01*
X60046807Y-95717517D01*
X59989604Y-95631907D01*
X59955506Y-95580875D01*
X59912995Y-95517253D01*
X59849374Y-95474743D01*
X59531028Y-95156397D01*
X60363126Y-95156397D01*
X60610891Y-95107114D01*
X60820935Y-94966766D01*
X60961283Y-94756722D01*
X61010566Y-94508957D01*
X61010566Y-92808957D01*
X60961283Y-92561192D01*
X60820935Y-92351148D01*
X60610891Y-92210800D01*
X60363126Y-92161517D01*
X58363126Y-92161517D01*
X58115361Y-92210800D01*
X57905317Y-92351148D01*
X57764969Y-92561192D01*
X57735370Y-92710000D01*
X56648842Y-92710000D01*
X56442625Y-92401375D01*
X56144239Y-92202000D01*
X56442625Y-92002625D01*
X56648842Y-91694000D01*
X56820957Y-91694000D01*
X56896000Y-91708927D01*
X56971043Y-91694000D01*
X56971048Y-91694000D01*
X57193317Y-91649788D01*
X57445371Y-91481371D01*
X57487883Y-91417747D01*
X57755421Y-91150210D01*
X57765468Y-91200722D01*
X57905816Y-91410766D01*
X58115860Y-91551114D01*
X58363625Y-91600397D01*
X60363625Y-91600397D01*
X60611390Y-91551114D01*
X60821434Y-91410766D01*
X60961782Y-91200722D01*
X61011065Y-90952957D01*
X61011065Y-89252957D01*
X60961782Y-89005192D01*
X60821434Y-88795148D01*
X60611390Y-88654800D01*
X60363625Y-88605517D01*
X59792113Y-88605517D01*
X59849371Y-88548259D01*
X59912995Y-88505747D01*
X60044912Y-88308319D01*
X60081411Y-88253695D01*
X60081411Y-88253694D01*
X60081412Y-88253693D01*
X60123044Y-88044397D01*
X60363624Y-88044397D01*
X60611389Y-87995114D01*
X60821433Y-87854766D01*
X60961781Y-87644722D01*
X61011064Y-87396957D01*
X61011064Y-85696957D01*
X60961781Y-85449192D01*
X60821433Y-85239148D01*
X60611389Y-85098800D01*
X60363624Y-85049517D01*
X59792114Y-85049517D01*
X59953750Y-84887881D01*
X60017371Y-84845371D01*
X60086449Y-84741989D01*
X60185787Y-84593319D01*
X60185787Y-84593318D01*
X60185788Y-84593317D01*
X60206658Y-84488397D01*
X60468000Y-84488397D01*
X60715765Y-84439114D01*
X60925809Y-84298766D01*
X61066157Y-84088722D01*
X61115440Y-83840957D01*
X61115440Y-82140957D01*
X61066157Y-81893192D01*
X60925809Y-81683148D01*
X60715765Y-81542800D01*
X60468000Y-81493517D01*
X59919114Y-81493517D01*
X59953750Y-81458881D01*
X60017371Y-81416371D01*
X60080848Y-81321371D01*
X60185787Y-81164319D01*
X60185787Y-81164318D01*
X60185788Y-81164317D01*
X60218584Y-80999440D01*
X60468000Y-80999440D01*
X60715765Y-80950157D01*
X60925809Y-80809809D01*
X61066157Y-80599765D01*
X61115440Y-80352000D01*
X61115440Y-78652000D01*
X61066157Y-78404235D01*
X60925809Y-78194191D01*
X60715765Y-78053843D01*
X60468000Y-78004560D01*
X58468000Y-78004560D01*
X58220235Y-78053843D01*
X58010191Y-78194191D01*
X57869843Y-78404235D01*
X57820560Y-78652000D01*
X57820560Y-80352000D01*
X57869843Y-80599765D01*
X57984928Y-80772000D01*
X57479047Y-80772000D01*
X57404000Y-80757072D01*
X57328953Y-80772000D01*
X57328952Y-80772000D01*
X57106683Y-80816212D01*
X57060535Y-80847047D01*
X56918358Y-80942047D01*
X56869440Y-80974733D01*
X56869440Y-79922000D01*
X56820157Y-79674235D01*
X56679809Y-79464191D01*
X56469765Y-79323843D01*
X56222000Y-79274560D01*
X56134000Y-79274560D01*
X56134000Y-77912630D01*
X57405674Y-76640957D01*
X57820560Y-76640957D01*
X57820560Y-76728957D01*
X57869843Y-76976722D01*
X58010191Y-77186766D01*
X58220235Y-77327114D01*
X58468000Y-77376397D01*
X60468000Y-77376397D01*
X60715765Y-77327114D01*
X60925809Y-77186766D01*
X61066157Y-76976722D01*
X61115440Y-76728957D01*
X61115440Y-75028957D01*
X61066157Y-74781192D01*
X60925809Y-74571148D01*
X60715765Y-74430800D01*
X60468000Y-74381517D01*
X58468000Y-74381517D01*
X58220235Y-74430800D01*
X58010191Y-74571148D01*
X57869843Y-74781192D01*
X57820560Y-75028957D01*
X57820560Y-75116957D01*
X57165090Y-75116957D01*
X57090043Y-75102029D01*
X57014996Y-75116957D01*
X57014995Y-75116957D01*
X56792726Y-75161169D01*
X56540672Y-75329586D01*
X56498161Y-75393208D01*
X54886251Y-77005119D01*
X54822630Y-77047629D01*
X54780119Y-77111251D01*
X54780118Y-77111252D01*
X54654213Y-77299683D01*
X54595073Y-77597000D01*
X54610001Y-77672048D01*
X54610000Y-79274560D01*
X54522000Y-79274560D01*
X54274235Y-79323843D01*
X54064191Y-79464191D01*
X53923843Y-79674235D01*
X53902039Y-79783855D01*
X53713358Y-79576817D01*
X53188892Y-79330514D01*
X52959000Y-79451181D01*
X52705000Y-79451181D01*
X52475108Y-79330514D01*
X51950642Y-79576817D01*
X51560355Y-80005076D01*
X51390524Y-80415110D01*
X49703103Y-80415110D01*
X49658839Y-80192582D01*
X49330625Y-79701375D01*
X49011522Y-79488157D01*
X49141358Y-79427183D01*
X49531645Y-78998924D01*
X49701476Y-78588890D01*
X49580155Y-78359000D01*
X48387000Y-78359000D01*
X48387000Y-78379000D01*
X48133000Y-78379000D01*
X48133000Y-78359000D01*
X46939845Y-78359000D01*
X46818524Y-78588890D01*
X46988355Y-78998924D01*
X47378642Y-79427183D01*
X47508478Y-79488157D01*
X47189375Y-79701375D01*
X46861161Y-80192582D01*
X46745908Y-80772000D01*
X46176000Y-80772000D01*
X46176000Y-76048890D01*
X46818524Y-76048890D01*
X46988355Y-76458924D01*
X47378642Y-76887183D01*
X47537954Y-76962000D01*
X47378642Y-77036817D01*
X46988355Y-77465076D01*
X46818524Y-77875110D01*
X46939845Y-78105000D01*
X48133000Y-78105000D01*
X48133000Y-75819000D01*
X48387000Y-75819000D01*
X48387000Y-78105000D01*
X49580155Y-78105000D01*
X49701476Y-77875110D01*
X49531645Y-77465076D01*
X49141358Y-77036817D01*
X48982046Y-76962000D01*
X49141358Y-76887183D01*
X49531645Y-76458924D01*
X49701476Y-76048890D01*
X49580155Y-75819000D01*
X48387000Y-75819000D01*
X48133000Y-75819000D01*
X46939845Y-75819000D01*
X46818524Y-76048890D01*
X46176000Y-76048890D01*
X46176000Y-35508000D01*
X98604001Y-35508000D01*
X98604000Y-99273908D01*
G04 #@! TD*
M02*
