G04 #@! TF.GenerationSoftware,KiCad,Pcbnew,5.0.1-33cea8e~68~ubuntu18.04.1*
G04 #@! TF.CreationDate,2018-11-24T14:12:02-07:00*
G04 #@! TF.ProjectId,adc,6164632E6B696361645F706362000000,rev?*
G04 #@! TF.SameCoordinates,Original*
G04 #@! TF.FileFunction,Copper,L1,Top,Signal*
G04 #@! TF.FilePolarity,Positive*
%FSLAX46Y46*%
G04 Gerber Fmt 4.6, Leading zero omitted, Abs format (unit mm)*
G04 Created by KiCad (PCBNEW 5.0.1-33cea8e~68~ubuntu18.04.1) date Sat 24 Nov 2018 02:12:02 PM MST*
%MOMM*%
%LPD*%
G01*
G04 APERTURE LIST*
G04 #@! TA.AperFunction,ComponentPad*
%ADD10R,1.700000X1.700000*%
G04 #@! TD*
G04 #@! TA.AperFunction,ComponentPad*
%ADD11O,1.700000X1.700000*%
G04 #@! TD*
G04 #@! TA.AperFunction,SMDPad,CuDef*
%ADD12R,1.700000X2.000000*%
G04 #@! TD*
G04 #@! TA.AperFunction,SMDPad,CuDef*
%ADD13R,1.500000X0.450000*%
G04 #@! TD*
G04 #@! TA.AperFunction,SMDPad,CuDef*
%ADD14R,2.500000X3.200000*%
G04 #@! TD*
G04 #@! TA.AperFunction,SMDPad,CuDef*
%ADD15R,2.000000X2.500000*%
G04 #@! TD*
G04 #@! TA.AperFunction,ViaPad*
%ADD16C,0.508000*%
G04 #@! TD*
G04 #@! TA.AperFunction,Conductor*
%ADD17C,0.381000*%
G04 #@! TD*
G04 #@! TA.AperFunction,Conductor*
%ADD18C,0.254000*%
G04 #@! TD*
G04 APERTURE END LIST*
D10*
G04 #@! TO.P,J1,1*
G04 #@! TO.N,Net-(J1-Pad1)*
X48260000Y-62992000D03*
D11*
G04 #@! TO.P,J1,2*
G04 #@! TO.N,IOREF*
X48260000Y-65532000D03*
G04 #@! TO.P,J1,3*
G04 #@! TO.N,RESET*
X48260000Y-68072000D03*
G04 #@! TO.P,J1,4*
G04 #@! TO.N,3V3*
X48260000Y-70612000D03*
G04 #@! TO.P,J1,5*
G04 #@! TO.N,5V*
X48260000Y-73152000D03*
G04 #@! TO.P,J1,6*
G04 #@! TO.N,GND*
X48260000Y-75692000D03*
G04 #@! TO.P,J1,7*
X48260000Y-78232000D03*
G04 #@! TO.P,J1,8*
G04 #@! TO.N,Net-(J1-Pad8)*
X48260000Y-80772000D03*
G04 #@! TD*
G04 #@! TO.P,J2,6*
G04 #@! TO.N,A5*
X48260000Y-98552000D03*
G04 #@! TO.P,J2,5*
G04 #@! TO.N,A4*
X48260000Y-96012000D03*
G04 #@! TO.P,J2,4*
G04 #@! TO.N,A3*
X48260000Y-93472000D03*
G04 #@! TO.P,J2,3*
G04 #@! TO.N,A2*
X48260000Y-90932000D03*
G04 #@! TO.P,J2,2*
G04 #@! TO.N,A1*
X48260000Y-88392000D03*
D10*
G04 #@! TO.P,J2,1*
G04 #@! TO.N,A0*
X48260000Y-85852000D03*
G04 #@! TD*
D11*
G04 #@! TO.P,J3,8*
G04 #@! TO.N,D0*
X96520000Y-98552000D03*
G04 #@! TO.P,J3,7*
G04 #@! TO.N,D1*
X96520000Y-96012000D03*
G04 #@! TO.P,J3,6*
G04 #@! TO.N,D2*
X96520000Y-93472000D03*
G04 #@! TO.P,J3,5*
G04 #@! TO.N,D3*
X96520000Y-90932000D03*
G04 #@! TO.P,J3,4*
G04 #@! TO.N,D4*
X96520000Y-88392000D03*
G04 #@! TO.P,J3,3*
G04 #@! TO.N,D5*
X96520000Y-85852000D03*
G04 #@! TO.P,J3,2*
G04 #@! TO.N,D6*
X96520000Y-83312000D03*
D10*
G04 #@! TO.P,J3,1*
G04 #@! TO.N,D7*
X96520000Y-80772000D03*
G04 #@! TD*
D11*
G04 #@! TO.P,J4,10*
G04 #@! TO.N,D8*
X96520000Y-76712000D03*
G04 #@! TO.P,J4,9*
G04 #@! TO.N,D9*
X96520000Y-74172000D03*
G04 #@! TO.P,J4,8*
G04 #@! TO.N,D10*
X96520000Y-71632000D03*
G04 #@! TO.P,J4,7*
G04 #@! TO.N,D11*
X96520000Y-69092000D03*
G04 #@! TO.P,J4,6*
G04 #@! TO.N,D12*
X96520000Y-66552000D03*
G04 #@! TO.P,J4,5*
G04 #@! TO.N,D13*
X96520000Y-64012000D03*
G04 #@! TO.P,J4,4*
G04 #@! TO.N,GND*
X96520000Y-61472000D03*
G04 #@! TO.P,J4,3*
G04 #@! TO.N,AREF*
X96520000Y-58932000D03*
G04 #@! TO.P,J4,2*
G04 #@! TO.N,SDA*
X96520000Y-56392000D03*
D10*
G04 #@! TO.P,J4,1*
G04 #@! TO.N,SCL*
X96520000Y-53852000D03*
G04 #@! TD*
D12*
G04 #@! TO.P,R1,1*
G04 #@! TO.N,3V3*
X93599000Y-40767000D03*
G04 #@! TO.P,R1,2*
G04 #@! TO.N,SCL*
X93599000Y-44767000D03*
G04 #@! TD*
G04 #@! TO.P,R2,2*
G04 #@! TO.N,SDA*
X89535000Y-44767000D03*
G04 #@! TO.P,R2,1*
G04 #@! TO.N,3V3*
X89535000Y-40767000D03*
G04 #@! TD*
G04 #@! TO.P,R3,2*
G04 #@! TO.N,GND*
X79375000Y-40576500D03*
G04 #@! TO.P,R3,1*
G04 #@! TO.N,Net-(R3-Pad1)*
X79375000Y-44576500D03*
G04 #@! TD*
G04 #@! TO.P,R5,1*
G04 #@! TO.N,Net-(R5-Pad1)*
X83439000Y-44576500D03*
G04 #@! TO.P,R5,2*
G04 #@! TO.N,GND*
X83439000Y-40576500D03*
G04 #@! TD*
G04 #@! TO.P,R13,1*
G04 #@! TO.N,Net-(R13-Pad1)*
X58293000Y-44577000D03*
G04 #@! TO.P,R13,2*
G04 #@! TO.N,3V3*
X58293000Y-40577000D03*
G04 #@! TD*
G04 #@! TO.P,R15,2*
G04 #@! TO.N,3V3*
X62230000Y-40577000D03*
G04 #@! TO.P,R15,1*
G04 #@! TO.N,Net-(R15-Pad1)*
X62230000Y-44577000D03*
G04 #@! TD*
G04 #@! TO.P,R20,2*
G04 #@! TO.N,3V3*
X68072000Y-40545000D03*
G04 #@! TO.P,R20,1*
G04 #@! TO.N,Net-(R20-Pad1)*
X68072000Y-44545000D03*
G04 #@! TD*
G04 #@! TO.P,R23,1*
G04 #@! TO.N,Net-(R23-Pad1)*
X72136000Y-44577000D03*
G04 #@! TO.P,R23,2*
G04 #@! TO.N,GND*
X72136000Y-40577000D03*
G04 #@! TD*
D13*
G04 #@! TO.P,U1,16*
G04 #@! TO.N,Net-(J5-Pad1)*
X91596000Y-63765000D03*
G04 #@! TO.P,U1,15*
G04 #@! TO.N,Net-(J5-Pad3)*
X91596000Y-64415000D03*
G04 #@! TO.P,U1,14*
G04 #@! TO.N,Net-(J5-Pad5)*
X91596000Y-65065000D03*
G04 #@! TO.P,U1,13*
G04 #@! TO.N,Net-(J5-Pad7)*
X91596000Y-65715000D03*
G04 #@! TO.P,U1,12*
G04 #@! TO.N,Net-(J5-Pad9)*
X91596000Y-66365000D03*
G04 #@! TO.P,U1,11*
G04 #@! TO.N,Net-(J5-Pad11)*
X91596000Y-67015000D03*
G04 #@! TO.P,U1,10*
G04 #@! TO.N,Net-(J5-Pad13)*
X91596000Y-67665000D03*
G04 #@! TO.P,U1,9*
G04 #@! TO.N,Net-(J5-Pad15)*
X91596000Y-68315000D03*
G04 #@! TO.P,U1,8*
G04 #@! TO.N,Net-(R3-Pad1)*
X85696000Y-68315000D03*
G04 #@! TO.P,U1,7*
G04 #@! TO.N,Net-(R5-Pad1)*
X85696000Y-67665000D03*
G04 #@! TO.P,U1,6*
G04 #@! TO.N,Net-(U1-Pad6)*
X85696000Y-67015000D03*
G04 #@! TO.P,U1,5*
G04 #@! TO.N,3V3*
X85696000Y-66365000D03*
G04 #@! TO.P,U1,4*
G04 #@! TO.N,GND*
X85696000Y-65715000D03*
G04 #@! TO.P,U1,3*
G04 #@! TO.N,SCL*
X85696000Y-65065000D03*
G04 #@! TO.P,U1,2*
G04 #@! TO.N,SDA*
X85696000Y-64415000D03*
G04 #@! TO.P,U1,1*
G04 #@! TO.N,3V3*
X85696000Y-63765000D03*
G04 #@! TD*
G04 #@! TO.P,U2,1*
G04 #@! TO.N,3V3*
X56994000Y-64273000D03*
G04 #@! TO.P,U2,2*
G04 #@! TO.N,SDA*
X56994000Y-64923000D03*
G04 #@! TO.P,U2,3*
G04 #@! TO.N,SCL*
X56994000Y-65573000D03*
G04 #@! TO.P,U2,4*
G04 #@! TO.N,GND*
X56994000Y-66223000D03*
G04 #@! TO.P,U2,5*
G04 #@! TO.N,3V3*
X56994000Y-66873000D03*
G04 #@! TO.P,U2,6*
G04 #@! TO.N,Net-(U2-Pad6)*
X56994000Y-67523000D03*
G04 #@! TO.P,U2,7*
G04 #@! TO.N,Net-(R15-Pad1)*
X56994000Y-68173000D03*
G04 #@! TO.P,U2,8*
G04 #@! TO.N,Net-(R13-Pad1)*
X56994000Y-68823000D03*
G04 #@! TO.P,U2,9*
G04 #@! TO.N,Net-(J6-Pad15)*
X62894000Y-68823000D03*
G04 #@! TO.P,U2,10*
G04 #@! TO.N,Net-(J6-Pad13)*
X62894000Y-68173000D03*
G04 #@! TO.P,U2,11*
G04 #@! TO.N,Net-(J6-Pad11)*
X62894000Y-67523000D03*
G04 #@! TO.P,U2,12*
G04 #@! TO.N,Net-(J6-Pad9)*
X62894000Y-66873000D03*
G04 #@! TO.P,U2,13*
G04 #@! TO.N,Net-(J6-Pad7)*
X62894000Y-66223000D03*
G04 #@! TO.P,U2,14*
G04 #@! TO.N,Net-(J6-Pad5)*
X62894000Y-65573000D03*
G04 #@! TO.P,U2,15*
G04 #@! TO.N,Net-(J6-Pad3)*
X62894000Y-64923000D03*
G04 #@! TO.P,U2,16*
G04 #@! TO.N,Net-(J6-Pad1)*
X62894000Y-64273000D03*
G04 #@! TD*
G04 #@! TO.P,U3,1*
G04 #@! TO.N,3V3*
X70964000Y-64273000D03*
G04 #@! TO.P,U3,2*
G04 #@! TO.N,SDA*
X70964000Y-64923000D03*
G04 #@! TO.P,U3,3*
G04 #@! TO.N,SCL*
X70964000Y-65573000D03*
G04 #@! TO.P,U3,4*
G04 #@! TO.N,GND*
X70964000Y-66223000D03*
G04 #@! TO.P,U3,5*
G04 #@! TO.N,3V3*
X70964000Y-66873000D03*
G04 #@! TO.P,U3,6*
G04 #@! TO.N,Net-(U3-Pad6)*
X70964000Y-67523000D03*
G04 #@! TO.P,U3,7*
G04 #@! TO.N,Net-(R23-Pad1)*
X70964000Y-68173000D03*
G04 #@! TO.P,U3,8*
G04 #@! TO.N,Net-(R20-Pad1)*
X70964000Y-68823000D03*
G04 #@! TO.P,U3,9*
G04 #@! TO.N,Net-(J7-Pad15)*
X76864000Y-68823000D03*
G04 #@! TO.P,U3,10*
G04 #@! TO.N,Net-(J7-Pad13)*
X76864000Y-68173000D03*
G04 #@! TO.P,U3,11*
G04 #@! TO.N,Net-(J7-Pad11)*
X76864000Y-67523000D03*
G04 #@! TO.P,U3,12*
G04 #@! TO.N,Net-(J7-Pad9)*
X76864000Y-66873000D03*
G04 #@! TO.P,U3,13*
G04 #@! TO.N,Net-(J7-Pad7)*
X76864000Y-66223000D03*
G04 #@! TO.P,U3,14*
G04 #@! TO.N,Net-(J7-Pad5)*
X76864000Y-65573000D03*
G04 #@! TO.P,U3,15*
G04 #@! TO.N,Net-(J7-Pad3)*
X76864000Y-64923000D03*
G04 #@! TO.P,U3,16*
G04 #@! TO.N,Net-(J7-Pad1)*
X76864000Y-64273000D03*
G04 #@! TD*
D11*
G04 #@! TO.P,J5,16*
G04 #@! TO.N,GND*
X81280000Y-98425000D03*
G04 #@! TO.P,J5,15*
G04 #@! TO.N,Net-(J5-Pad15)*
X83820000Y-98425000D03*
G04 #@! TO.P,J5,14*
G04 #@! TO.N,GND*
X81280000Y-95885000D03*
G04 #@! TO.P,J5,13*
G04 #@! TO.N,Net-(J5-Pad13)*
X83820000Y-95885000D03*
G04 #@! TO.P,J5,12*
G04 #@! TO.N,GND*
X81280000Y-93345000D03*
G04 #@! TO.P,J5,11*
G04 #@! TO.N,Net-(J5-Pad11)*
X83820000Y-93345000D03*
G04 #@! TO.P,J5,10*
G04 #@! TO.N,GND*
X81280000Y-90805000D03*
G04 #@! TO.P,J5,9*
G04 #@! TO.N,Net-(J5-Pad9)*
X83820000Y-90805000D03*
G04 #@! TO.P,J5,8*
G04 #@! TO.N,GND*
X81280000Y-88265000D03*
G04 #@! TO.P,J5,7*
G04 #@! TO.N,Net-(J5-Pad7)*
X83820000Y-88265000D03*
G04 #@! TO.P,J5,6*
G04 #@! TO.N,GND*
X81280000Y-85725000D03*
G04 #@! TO.P,J5,5*
G04 #@! TO.N,Net-(J5-Pad5)*
X83820000Y-85725000D03*
G04 #@! TO.P,J5,4*
G04 #@! TO.N,GND*
X81280000Y-83185000D03*
G04 #@! TO.P,J5,3*
G04 #@! TO.N,Net-(J5-Pad3)*
X83820000Y-83185000D03*
G04 #@! TO.P,J5,2*
G04 #@! TO.N,GND*
X81280000Y-80645000D03*
D10*
G04 #@! TO.P,J5,1*
G04 #@! TO.N,Net-(J5-Pad1)*
X83820000Y-80645000D03*
G04 #@! TD*
D11*
G04 #@! TO.P,J6,16*
G04 #@! TO.N,GND*
X52832000Y-98552000D03*
G04 #@! TO.P,J6,15*
G04 #@! TO.N,Net-(J6-Pad15)*
X55372000Y-98552000D03*
G04 #@! TO.P,J6,14*
G04 #@! TO.N,GND*
X52832000Y-96012000D03*
G04 #@! TO.P,J6,13*
G04 #@! TO.N,Net-(J6-Pad13)*
X55372000Y-96012000D03*
G04 #@! TO.P,J6,12*
G04 #@! TO.N,GND*
X52832000Y-93472000D03*
G04 #@! TO.P,J6,11*
G04 #@! TO.N,Net-(J6-Pad11)*
X55372000Y-93472000D03*
G04 #@! TO.P,J6,10*
G04 #@! TO.N,GND*
X52832000Y-90932000D03*
G04 #@! TO.P,J6,9*
G04 #@! TO.N,Net-(J6-Pad9)*
X55372000Y-90932000D03*
G04 #@! TO.P,J6,8*
G04 #@! TO.N,GND*
X52832000Y-88392000D03*
G04 #@! TO.P,J6,7*
G04 #@! TO.N,Net-(J6-Pad7)*
X55372000Y-88392000D03*
G04 #@! TO.P,J6,6*
G04 #@! TO.N,GND*
X52832000Y-85852000D03*
G04 #@! TO.P,J6,5*
G04 #@! TO.N,Net-(J6-Pad5)*
X55372000Y-85852000D03*
G04 #@! TO.P,J6,4*
G04 #@! TO.N,GND*
X52832000Y-83312000D03*
G04 #@! TO.P,J6,3*
G04 #@! TO.N,Net-(J6-Pad3)*
X55372000Y-83312000D03*
G04 #@! TO.P,J6,2*
G04 #@! TO.N,GND*
X52832000Y-80772000D03*
D10*
G04 #@! TO.P,J6,1*
G04 #@! TO.N,Net-(J6-Pad1)*
X55372000Y-80772000D03*
G04 #@! TD*
G04 #@! TO.P,J7,1*
G04 #@! TO.N,Net-(J7-Pad1)*
X69532500Y-80899000D03*
D11*
G04 #@! TO.P,J7,2*
G04 #@! TO.N,GND*
X66992500Y-80899000D03*
G04 #@! TO.P,J7,3*
G04 #@! TO.N,Net-(J7-Pad3)*
X69532500Y-83439000D03*
G04 #@! TO.P,J7,4*
G04 #@! TO.N,GND*
X66992500Y-83439000D03*
G04 #@! TO.P,J7,5*
G04 #@! TO.N,Net-(J7-Pad5)*
X69532500Y-85979000D03*
G04 #@! TO.P,J7,6*
G04 #@! TO.N,GND*
X66992500Y-85979000D03*
G04 #@! TO.P,J7,7*
G04 #@! TO.N,Net-(J7-Pad7)*
X69532500Y-88519000D03*
G04 #@! TO.P,J7,8*
G04 #@! TO.N,GND*
X66992500Y-88519000D03*
G04 #@! TO.P,J7,9*
G04 #@! TO.N,Net-(J7-Pad9)*
X69532500Y-91059000D03*
G04 #@! TO.P,J7,10*
G04 #@! TO.N,GND*
X66992500Y-91059000D03*
G04 #@! TO.P,J7,11*
G04 #@! TO.N,Net-(J7-Pad11)*
X69532500Y-93599000D03*
G04 #@! TO.P,J7,12*
G04 #@! TO.N,GND*
X66992500Y-93599000D03*
G04 #@! TO.P,J7,13*
G04 #@! TO.N,Net-(J7-Pad13)*
X69532500Y-96139000D03*
G04 #@! TO.P,J7,14*
G04 #@! TO.N,GND*
X66992500Y-96139000D03*
G04 #@! TO.P,J7,15*
G04 #@! TO.N,Net-(J7-Pad15)*
X69532500Y-98679000D03*
G04 #@! TO.P,J7,16*
G04 #@! TO.N,GND*
X66992500Y-98679000D03*
G04 #@! TD*
D14*
G04 #@! TO.P,C1,1*
G04 #@! TO.N,3V3*
X50292000Y-45956001D03*
G04 #@! TO.P,C1,2*
G04 #@! TO.N,GND*
X50292000Y-41656001D03*
G04 #@! TD*
D15*
G04 #@! TO.P,C2,2*
G04 #@! TO.N,GND*
X71845999Y-58911999D03*
G04 #@! TO.P,C2,1*
G04 #@! TO.N,3V3*
X75845999Y-58911999D03*
G04 #@! TD*
D14*
G04 #@! TO.P,C3,2*
G04 #@! TO.N,GND*
X50292000Y-51562001D03*
G04 #@! TO.P,C3,1*
G04 #@! TO.N,3V3*
X50292000Y-55862001D03*
G04 #@! TD*
D15*
G04 #@! TO.P,C4,1*
G04 #@! TO.N,3V3*
X61976000Y-58928000D03*
G04 #@! TO.P,C4,2*
G04 #@! TO.N,GND*
X57976000Y-58928000D03*
G04 #@! TD*
G04 #@! TO.P,C6,1*
G04 #@! TO.N,3V3*
X75845999Y-54356000D03*
G04 #@! TO.P,C6,2*
G04 #@! TO.N,GND*
X71845999Y-54356000D03*
G04 #@! TD*
G04 #@! TO.P,C9,2*
G04 #@! TO.N,GND*
X86900000Y-58928000D03*
G04 #@! TO.P,C9,1*
G04 #@! TO.N,3V3*
X90900000Y-58928000D03*
G04 #@! TD*
G04 #@! TO.P,C10,2*
G04 #@! TO.N,GND*
X57976000Y-54356000D03*
G04 #@! TO.P,C10,1*
G04 #@! TO.N,3V3*
X61976000Y-54356000D03*
G04 #@! TD*
G04 #@! TO.P,C12,1*
G04 #@! TO.N,3V3*
X90900000Y-54356000D03*
G04 #@! TO.P,C12,2*
G04 #@! TO.N,GND*
X86900000Y-54356000D03*
G04 #@! TD*
D16*
G04 #@! TO.N,GND*
X81280000Y-101092000D03*
X67056000Y-101092000D03*
X52832000Y-101092000D03*
X49530000Y-36830000D03*
X58420000Y-36830000D03*
X68580000Y-36830000D03*
X96520000Y-36830000D03*
X78740000Y-49530000D03*
X73660000Y-49530000D03*
X62230000Y-49530000D03*
X54610000Y-49530000D03*
X85090000Y-49530000D03*
X64770000Y-57150000D03*
X78740000Y-57150000D03*
X83820000Y-57150000D03*
X46990000Y-57150000D03*
X54610000Y-73660000D03*
X67310000Y-73660000D03*
X81280000Y-73660000D03*
X91186000Y-49530000D03*
G04 #@! TO.N,SDA*
X84328000Y-62738000D03*
X69596000Y-62738000D03*
X56895994Y-62738000D03*
G04 #@! TO.N,SCL*
X68922910Y-61976000D03*
X83566062Y-61976000D03*
X56388000Y-61976000D03*
G04 #@! TD*
D17*
G04 #@! TO.N,3V3*
X70964000Y-66873000D02*
X72095000Y-66873000D01*
X72114000Y-64292000D02*
X74676000Y-64292000D01*
X72095000Y-64273000D02*
X72114000Y-64292000D01*
X70964000Y-64273000D02*
X72095000Y-64273000D01*
X72095000Y-66873000D02*
X74676000Y-64292000D01*
X56994000Y-66873000D02*
X58125000Y-66873000D01*
X56994000Y-64273000D02*
X60687000Y-64273000D01*
X60687000Y-64273000D02*
X60706000Y-64292000D01*
X58125000Y-66873000D02*
X60706000Y-64292000D01*
X89389000Y-63765000D02*
X89408000Y-63784000D01*
X85696000Y-63765000D02*
X89389000Y-63765000D01*
X86827000Y-66365000D02*
X89408000Y-63784000D01*
X75845999Y-63122001D02*
X75845999Y-58911999D01*
X74676000Y-64292000D02*
X75845999Y-63122001D01*
X75845999Y-57280999D02*
X75845999Y-54356000D01*
X75845999Y-58911999D02*
X75845999Y-57280999D01*
X61976000Y-63022000D02*
X61976000Y-58928000D01*
X60706000Y-64292000D02*
X61976000Y-63022000D01*
X61976000Y-57297000D02*
X61976000Y-54356000D01*
X61976000Y-58928000D02*
X61976000Y-57297000D01*
X90900000Y-62254000D02*
X90900000Y-58928000D01*
X89389000Y-63765000D02*
X90900000Y-62254000D01*
X90900000Y-57297000D02*
X90900000Y-54356000D01*
X90900000Y-58928000D02*
X90900000Y-57297000D01*
X48661000Y-45956001D02*
X50292000Y-45956001D01*
X48661000Y-55862001D02*
X48006000Y-55207001D01*
X50292000Y-55862001D02*
X48661000Y-55862001D01*
X48006000Y-55207001D02*
X48006000Y-46611001D01*
X48006000Y-46611001D02*
X48661000Y-45956001D01*
X59524000Y-40577000D02*
X62230000Y-40577000D01*
X58293000Y-40577000D02*
X59524000Y-40577000D01*
X68040000Y-40577000D02*
X68072000Y-40545000D01*
X92368000Y-40767000D02*
X89535000Y-40767000D01*
X93599000Y-40767000D02*
X92368000Y-40767000D01*
X61976000Y-52725000D02*
X64897000Y-49804000D01*
X64897000Y-49804000D02*
X64897000Y-40577000D01*
X61976000Y-54356000D02*
X61976000Y-52725000D01*
X62230000Y-40577000D02*
X64897000Y-40577000D01*
X64897000Y-40577000D02*
X68040000Y-40577000D01*
X75819000Y-52698001D02*
X75819000Y-38100000D01*
X75845999Y-52725000D02*
X75819000Y-52698001D01*
X75845999Y-54356000D02*
X75845999Y-52725000D01*
X86106000Y-38100000D02*
X75819000Y-38100000D01*
X56197000Y-40577000D02*
X58293000Y-40577000D01*
X50292000Y-45956001D02*
X53063999Y-45956001D01*
X53063999Y-45956001D02*
X54356000Y-44664000D01*
X54356000Y-44664000D02*
X54356000Y-42418000D01*
X54356000Y-42418000D02*
X56197000Y-40577000D01*
X85696000Y-66365000D02*
X86827000Y-66365000D01*
X50292000Y-57843001D02*
X50292000Y-55862001D01*
X50292000Y-70104000D02*
X50292000Y-57843001D01*
X49784000Y-70612000D02*
X50292000Y-70104000D01*
X48260000Y-70612000D02*
X49784000Y-70612000D01*
X72009000Y-38100000D02*
X75819000Y-38100000D01*
X68834000Y-38100000D02*
X72009000Y-38100000D01*
X68072000Y-38862000D02*
X68834000Y-38100000D01*
X68072000Y-40545000D02*
X68072000Y-38862000D01*
X88646000Y-38100000D02*
X86106000Y-38100000D01*
X89535000Y-38989000D02*
X88646000Y-38100000D01*
X89535000Y-40767000D02*
X89535000Y-38989000D01*
X86360000Y-46736000D02*
X86360000Y-38354000D01*
X90900000Y-54356000D02*
X89519000Y-54356000D01*
X88900000Y-53737000D02*
X88900000Y-49276000D01*
X86360000Y-38354000D02*
X86106000Y-38100000D01*
X88900000Y-49276000D02*
X86360000Y-46736000D01*
X89519000Y-54356000D02*
X88900000Y-53737000D01*
G04 #@! TO.N,GND*
X82296000Y-58928000D02*
X86900000Y-58928000D01*
X82296000Y-65659000D02*
X82296000Y-58928000D01*
X82352000Y-65715000D02*
X82296000Y-65659000D01*
X85696000Y-65715000D02*
X82352000Y-65715000D01*
X70464999Y-58911999D02*
X71845999Y-58911999D01*
X67818000Y-66223000D02*
X67818000Y-58911999D01*
X67818000Y-58911999D02*
X70464999Y-58911999D01*
X70964000Y-66223000D02*
X67818000Y-66223000D01*
X54610000Y-58928000D02*
X57976000Y-58928000D01*
X54610000Y-66223000D02*
X54610000Y-58928000D01*
X56994000Y-66223000D02*
X54610000Y-66223000D01*
D18*
G04 #@! TO.N,SDA*
X84328000Y-64051000D02*
X84328000Y-62738000D01*
X84692000Y-64415000D02*
X84328000Y-64051000D01*
X69596000Y-64557917D02*
X69596000Y-63097210D01*
X69596000Y-63097210D02*
X69596000Y-62738000D01*
X69961082Y-64923000D02*
X69596000Y-64557917D01*
X70964000Y-64923000D02*
X69961082Y-64923000D01*
X85696000Y-64415000D02*
X84692000Y-64415000D01*
X55990000Y-64923000D02*
X56994000Y-64923000D01*
X55803822Y-64736822D02*
X55990000Y-64923000D01*
X55803822Y-62992000D02*
X55803822Y-64736822D01*
X56057822Y-62738000D02*
X55803822Y-62992000D01*
X56895994Y-62738000D02*
X56057822Y-62738000D01*
X89535000Y-46021000D02*
X89535000Y-44767000D01*
X96520000Y-56392000D02*
X95254000Y-56392000D01*
X94615000Y-55753000D02*
X94615000Y-51101000D01*
X95254000Y-56392000D02*
X94615000Y-55753000D01*
X94615000Y-51101000D02*
X89535000Y-46021000D01*
G04 #@! TO.N,SCL*
X96520000Y-50419000D02*
X96520000Y-53852000D01*
X93599000Y-47498000D02*
X96520000Y-50419000D01*
X93599000Y-44767000D02*
X93599000Y-47498000D01*
X68922910Y-62335210D02*
X68922910Y-61976000D01*
X68922910Y-65112910D02*
X68922910Y-62335210D01*
X69383000Y-65573000D02*
X68922910Y-65112910D01*
X70964000Y-65573000D02*
X69383000Y-65573000D01*
X83566000Y-61976062D02*
X83566062Y-61976000D01*
X83566000Y-64516000D02*
X83566000Y-61976062D01*
X84115000Y-65065000D02*
X83566000Y-64516000D01*
X85696000Y-65065000D02*
X84115000Y-65065000D01*
X56028790Y-61976000D02*
X56388000Y-61976000D01*
X55626000Y-61976000D02*
X56028790Y-61976000D01*
X56994000Y-65573000D02*
X55990000Y-65573000D01*
X55990000Y-65573000D02*
X55371989Y-64954989D01*
X55371989Y-64954989D02*
X55371989Y-62230011D01*
X55371989Y-62230011D02*
X55626000Y-61976000D01*
G04 #@! TO.N,Net-(J5-Pad7)*
X88290367Y-68016633D02*
X90592000Y-65715000D01*
X85217000Y-88265000D02*
X88290367Y-85191633D01*
X83820000Y-88265000D02*
X85217000Y-88265000D01*
X88290367Y-85191633D02*
X88290367Y-68016633D01*
X91596000Y-65715000D02*
X90592000Y-65715000D01*
G04 #@! TO.N,Net-(J5-Pad5)*
X83820000Y-85725000D02*
X85217000Y-85725000D01*
X85217000Y-85725000D02*
X87833156Y-83108844D01*
X87833156Y-67823844D02*
X90592000Y-65065000D01*
X87833156Y-83108844D02*
X87833156Y-67823844D01*
X91596000Y-65065000D02*
X90592000Y-65065000D01*
G04 #@! TO.N,Net-(J5-Pad3)*
X83820000Y-83185000D02*
X85217000Y-83185000D01*
X87375945Y-81026055D02*
X87375945Y-67631055D01*
X85217000Y-83185000D02*
X87375945Y-81026055D01*
X87375945Y-67631055D02*
X90592000Y-64415000D01*
X91596000Y-64415000D02*
X90592000Y-64415000D01*
G04 #@! TO.N,Net-(J5-Pad1)*
X83820000Y-80645000D02*
X85217000Y-80645000D01*
X85217000Y-80645000D02*
X86918734Y-78943266D01*
X86918734Y-78943266D02*
X86918734Y-67438266D01*
X86918734Y-67438266D02*
X90592000Y-63765000D01*
X91596000Y-63765000D02*
X90592000Y-63765000D01*
G04 #@! TO.N,Net-(J6-Pad7)*
X61890000Y-66223000D02*
X62894000Y-66223000D01*
X55372000Y-88392000D02*
X56896000Y-88392000D01*
X56896000Y-88392000D02*
X59537578Y-85750422D01*
X59537578Y-68575422D02*
X61890000Y-66223000D01*
X59537578Y-85750422D02*
X59537578Y-68575422D01*
G04 #@! TO.N,Net-(J6-Pad5)*
X61890000Y-65573000D02*
X59080367Y-68382633D01*
X56896000Y-85852000D02*
X55372000Y-85852000D01*
X59080367Y-68382633D02*
X59080367Y-83667633D01*
X62894000Y-65573000D02*
X61890000Y-65573000D01*
X59080367Y-83667633D02*
X56896000Y-85852000D01*
G04 #@! TO.N,Net-(J6-Pad3)*
X61890000Y-64923000D02*
X62894000Y-64923000D01*
X55372000Y-83312000D02*
X56896000Y-83312000D01*
X56896000Y-83312000D02*
X58623156Y-81584844D01*
X58623156Y-81584844D02*
X58623156Y-68189844D01*
X58623156Y-68189844D02*
X61890000Y-64923000D01*
G04 #@! TO.N,Net-(J6-Pad1)*
X56769000Y-80772000D02*
X55372000Y-80772000D01*
X62894000Y-64273000D02*
X61890000Y-64273000D01*
X58165945Y-67997055D02*
X58165945Y-79375055D01*
X61890000Y-64273000D02*
X58165945Y-67997055D01*
X58165945Y-79375055D02*
X56769000Y-80772000D01*
G04 #@! TO.N,Net-(J7-Pad1)*
X76864000Y-64273000D02*
X75681000Y-64273000D01*
X75681000Y-64273000D02*
X72136000Y-67818000D01*
X72136000Y-67818000D02*
X72136000Y-79184500D01*
X72136000Y-79184500D02*
X72136000Y-79502000D01*
X72136000Y-79756000D02*
X72136000Y-79184500D01*
X70993000Y-80899000D02*
X72136000Y-79756000D01*
X69532500Y-80899000D02*
X70993000Y-80899000D01*
G04 #@! TO.N,Net-(J7-Pad3)*
X75677592Y-64923000D02*
X75860000Y-64923000D01*
X69532500Y-83439000D02*
X70993000Y-83439000D01*
X70993000Y-83439000D02*
X72644000Y-81788000D01*
X72644000Y-81788000D02*
X72644000Y-67956592D01*
X75860000Y-64923000D02*
X76864000Y-64923000D01*
X72644000Y-67956592D02*
X75677592Y-64923000D01*
G04 #@! TO.N,Net-(J7-Pad5)*
X75860000Y-65573000D02*
X76864000Y-65573000D01*
X75674184Y-65573000D02*
X75860000Y-65573000D01*
X69532500Y-85979000D02*
X70993000Y-85979000D01*
X73151947Y-83820053D02*
X73151947Y-68095237D01*
X70993000Y-85979000D02*
X73151947Y-83820053D01*
X73151947Y-68095237D02*
X75674184Y-65573000D01*
G04 #@! TO.N,Net-(J7-Pad7)*
X75860000Y-66223000D02*
X76864000Y-66223000D01*
X75670776Y-66223000D02*
X75860000Y-66223000D01*
X73609158Y-68284618D02*
X75670776Y-66223000D01*
X69532500Y-88519000D02*
X70993000Y-88519000D01*
X70993000Y-88519000D02*
X73609158Y-85902842D01*
X73609158Y-85902842D02*
X73609158Y-68284618D01*
G04 #@! TO.N,Net-(R3-Pad1)*
X84692000Y-68315000D02*
X85696000Y-68315000D01*
X82920000Y-68315000D02*
X84692000Y-68315000D01*
X79375000Y-44576500D02*
X79375000Y-46863000D01*
X80772000Y-48260000D02*
X80772000Y-66167000D01*
X79375000Y-46863000D02*
X80772000Y-48260000D01*
X80772000Y-66167000D02*
X82920000Y-68315000D01*
G04 #@! TO.N,Net-(R5-Pad1)*
X83439000Y-44576500D02*
X83439000Y-46101000D01*
X82905000Y-67665000D02*
X85696000Y-67665000D01*
X81280000Y-48260000D02*
X81280000Y-66040000D01*
X83439000Y-46101000D02*
X81280000Y-48260000D01*
X81280000Y-66040000D02*
X82905000Y-67665000D01*
G04 #@! TO.N,Net-(R13-Pad1)*
X55990000Y-68823000D02*
X56994000Y-68823000D01*
X54091000Y-68823000D02*
X55990000Y-68823000D01*
X58293000Y-44577000D02*
X58293000Y-49193249D01*
X53314589Y-54171660D02*
X53314589Y-68046589D01*
X58293000Y-49193249D02*
X53314589Y-54171660D01*
X53314589Y-68046589D02*
X54091000Y-68823000D01*
G04 #@! TO.N,Net-(R15-Pad1)*
X53721000Y-54340000D02*
X62230000Y-45831000D01*
X54203000Y-68173000D02*
X53721000Y-67691000D01*
X56994000Y-68173000D02*
X54203000Y-68173000D01*
X62230000Y-45831000D02*
X62230000Y-44577000D01*
X53721000Y-67691000D02*
X53721000Y-54340000D01*
G04 #@! TO.N,Net-(R20-Pad1)*
X69960000Y-68823000D02*
X70964000Y-68823000D01*
X66294000Y-66614751D02*
X68502249Y-68823000D01*
X68502249Y-68823000D02*
X69960000Y-68823000D01*
X66294000Y-51749249D02*
X66294000Y-66614751D01*
X68072000Y-44545000D02*
X68072000Y-49971249D01*
X68072000Y-49971249D02*
X66294000Y-51749249D01*
G04 #@! TO.N,Net-(R23-Pad1)*
X72136000Y-46482000D02*
X66700411Y-51917589D01*
X66700411Y-66446411D02*
X68427000Y-68173000D01*
X72136000Y-44577000D02*
X72136000Y-46482000D01*
X68427000Y-68173000D02*
X69960000Y-68173000D01*
X66700411Y-51917589D02*
X66700411Y-66446411D01*
X69960000Y-68173000D02*
X70964000Y-68173000D01*
G04 #@! TO.N,Net-(J5-Pad15)*
X90592000Y-68315000D02*
X90170000Y-68737000D01*
X85217000Y-98425000D02*
X83820000Y-98425000D01*
X90170000Y-68737000D02*
X90170000Y-93472000D01*
X90170000Y-93472000D02*
X85217000Y-98425000D01*
X91596000Y-68315000D02*
X90592000Y-68315000D01*
G04 #@! TO.N,Net-(J5-Pad13)*
X83820000Y-95885000D02*
X85217000Y-95885000D01*
X85217000Y-95885000D02*
X89662000Y-91440000D01*
X89662000Y-68595000D02*
X90592000Y-67665000D01*
X89662000Y-91440000D02*
X89662000Y-68595000D01*
X91596000Y-67665000D02*
X90592000Y-67665000D01*
G04 #@! TO.N,Net-(J5-Pad11)*
X83820000Y-93345000D02*
X85217000Y-93345000D01*
X89204789Y-68402211D02*
X90592000Y-67015000D01*
X85217000Y-93345000D02*
X89204789Y-89357211D01*
X89204789Y-89357211D02*
X89204789Y-68402211D01*
X91596000Y-67015000D02*
X90592000Y-67015000D01*
G04 #@! TO.N,Net-(J5-Pad9)*
X83820000Y-90805000D02*
X85217000Y-90805000D01*
X85217000Y-90805000D02*
X88747578Y-87274422D01*
X88747578Y-87274422D02*
X88747578Y-68209422D01*
X88747578Y-68209422D02*
X90592000Y-66365000D01*
X91596000Y-66365000D02*
X90592000Y-66365000D01*
G04 #@! TO.N,Net-(J6-Pad15)*
X62894000Y-68823000D02*
X61890000Y-68823000D01*
X61890000Y-68823000D02*
X61468000Y-69245000D01*
X61468000Y-69245000D02*
X61468000Y-93980000D01*
X56896000Y-98552000D02*
X55372000Y-98552000D01*
X61468000Y-93980000D02*
X56896000Y-98552000D01*
G04 #@! TO.N,Net-(J6-Pad13)*
X56574081Y-96012000D02*
X55372000Y-96012000D01*
X56896000Y-96012000D02*
X56574081Y-96012000D01*
X62894000Y-68173000D02*
X61890000Y-68173000D01*
X61890000Y-68173000D02*
X60909211Y-69153789D01*
X60909211Y-91998789D02*
X56896000Y-96012000D01*
X60909211Y-69153789D02*
X60909211Y-91998789D01*
G04 #@! TO.N,Net-(J6-Pad11)*
X61890000Y-67523000D02*
X62894000Y-67523000D01*
X55372000Y-93472000D02*
X57023000Y-93472000D01*
X60452000Y-90043000D02*
X60452000Y-68961000D01*
X60452000Y-68961000D02*
X61890000Y-67523000D01*
X57023000Y-93472000D02*
X60452000Y-90043000D01*
G04 #@! TO.N,Net-(J6-Pad9)*
X56896000Y-90932000D02*
X56574081Y-90932000D01*
X56574081Y-90932000D02*
X55372000Y-90932000D01*
X62894000Y-66873000D02*
X61890000Y-66873000D01*
X61890000Y-66873000D02*
X59994789Y-68768211D01*
X59994789Y-68768211D02*
X59994789Y-87833211D01*
X59994789Y-87833211D02*
X56896000Y-90932000D01*
G04 #@! TO.N,Net-(J7-Pad9)*
X75713221Y-66873000D02*
X75860000Y-66873000D01*
X69532500Y-91059000D02*
X70993000Y-91059000D01*
X75860000Y-66873000D02*
X76864000Y-66873000D01*
X70993000Y-91059000D02*
X74066367Y-87985633D01*
X74066367Y-87985633D02*
X74066367Y-68519854D01*
X74066367Y-68519854D02*
X75713221Y-66873000D01*
G04 #@! TO.N,Net-(J7-Pad11)*
X75860000Y-67523000D02*
X76864000Y-67523000D01*
X75709814Y-67523000D02*
X75860000Y-67523000D01*
X74523578Y-68709236D02*
X75709814Y-67523000D01*
X69532500Y-93599000D02*
X69659500Y-93472000D01*
X70993000Y-93472000D02*
X74523578Y-89941422D01*
X69659500Y-93472000D02*
X70993000Y-93472000D01*
X74523578Y-89941422D02*
X74523578Y-68709236D01*
G04 #@! TO.N,Net-(J7-Pad13)*
X75706407Y-68173000D02*
X76864000Y-68173000D01*
X69532500Y-96139000D02*
X70993000Y-96139000D01*
X70993000Y-96139000D02*
X74980789Y-92151211D01*
X74980789Y-92151211D02*
X74980789Y-68898618D01*
X74980789Y-68898618D02*
X75706407Y-68173000D01*
G04 #@! TO.N,Net-(J7-Pad15)*
X75703000Y-68823000D02*
X76864000Y-68823000D01*
X75438000Y-69088000D02*
X75703000Y-68823000D01*
X75438000Y-93980000D02*
X75438000Y-69088000D01*
X75438000Y-94107000D02*
X75438000Y-93980000D01*
X75438000Y-94234000D02*
X75438000Y-93980000D01*
X70993000Y-98679000D02*
X75438000Y-94234000D01*
X69532500Y-98679000D02*
X70993000Y-98679000D01*
G04 #@! TD*
G04 #@! TO.N,GND*
G36*
X98604000Y-99273908D02*
X97241910Y-100636000D01*
X86175920Y-100636000D01*
X86105999Y-100622092D01*
X86036078Y-100636000D01*
X86036074Y-100636000D01*
X85828972Y-100677195D01*
X85594119Y-100834119D01*
X85554509Y-100893400D01*
X83271910Y-103176000D01*
X51094091Y-103176000D01*
X48811494Y-100893404D01*
X48771881Y-100834119D01*
X48537028Y-100677195D01*
X48329926Y-100636000D01*
X48329924Y-100636000D01*
X48260000Y-100622091D01*
X48190076Y-100636000D01*
X46176000Y-100636000D01*
X46176000Y-88392000D01*
X46745908Y-88392000D01*
X46861161Y-88971418D01*
X47189375Y-89462625D01*
X47487761Y-89662000D01*
X47189375Y-89861375D01*
X46861161Y-90352582D01*
X46745908Y-90932000D01*
X46861161Y-91511418D01*
X47189375Y-92002625D01*
X47487761Y-92202000D01*
X47189375Y-92401375D01*
X46861161Y-92892582D01*
X46745908Y-93472000D01*
X46861161Y-94051418D01*
X47189375Y-94542625D01*
X47487761Y-94742000D01*
X47189375Y-94941375D01*
X46861161Y-95432582D01*
X46745908Y-96012000D01*
X46861161Y-96591418D01*
X47189375Y-97082625D01*
X47487761Y-97282000D01*
X47189375Y-97481375D01*
X46861161Y-97972582D01*
X46745908Y-98552000D01*
X46861161Y-99131418D01*
X47189375Y-99622625D01*
X47680582Y-99950839D01*
X48113744Y-100037000D01*
X48406256Y-100037000D01*
X48839418Y-99950839D01*
X49330625Y-99622625D01*
X49658839Y-99131418D01*
X49703102Y-98908890D01*
X51390524Y-98908890D01*
X51560355Y-99318924D01*
X51950642Y-99747183D01*
X52475108Y-99993486D01*
X52705000Y-99872819D01*
X52705000Y-98679000D01*
X51511845Y-98679000D01*
X51390524Y-98908890D01*
X49703102Y-98908890D01*
X49774092Y-98552000D01*
X49658839Y-97972582D01*
X49330625Y-97481375D01*
X49032239Y-97282000D01*
X49330625Y-97082625D01*
X49658839Y-96591418D01*
X49703102Y-96368890D01*
X51390524Y-96368890D01*
X51560355Y-96778924D01*
X51950642Y-97207183D01*
X52109954Y-97282000D01*
X51950642Y-97356817D01*
X51560355Y-97785076D01*
X51390524Y-98195110D01*
X51511845Y-98425000D01*
X52705000Y-98425000D01*
X52705000Y-96139000D01*
X51511845Y-96139000D01*
X51390524Y-96368890D01*
X49703102Y-96368890D01*
X49774092Y-96012000D01*
X49658839Y-95432582D01*
X49330625Y-94941375D01*
X49032239Y-94742000D01*
X49330625Y-94542625D01*
X49658839Y-94051418D01*
X49703102Y-93828890D01*
X51390524Y-93828890D01*
X51560355Y-94238924D01*
X51950642Y-94667183D01*
X52109954Y-94742000D01*
X51950642Y-94816817D01*
X51560355Y-95245076D01*
X51390524Y-95655110D01*
X51511845Y-95885000D01*
X52705000Y-95885000D01*
X52705000Y-93599000D01*
X51511845Y-93599000D01*
X51390524Y-93828890D01*
X49703102Y-93828890D01*
X49774092Y-93472000D01*
X49658839Y-92892582D01*
X49330625Y-92401375D01*
X49032239Y-92202000D01*
X49330625Y-92002625D01*
X49658839Y-91511418D01*
X49703102Y-91288890D01*
X51390524Y-91288890D01*
X51560355Y-91698924D01*
X51950642Y-92127183D01*
X52109954Y-92202000D01*
X51950642Y-92276817D01*
X51560355Y-92705076D01*
X51390524Y-93115110D01*
X51511845Y-93345000D01*
X52705000Y-93345000D01*
X52705000Y-91059000D01*
X51511845Y-91059000D01*
X51390524Y-91288890D01*
X49703102Y-91288890D01*
X49774092Y-90932000D01*
X49658839Y-90352582D01*
X49330625Y-89861375D01*
X49032239Y-89662000D01*
X49330625Y-89462625D01*
X49658839Y-88971418D01*
X49703102Y-88748890D01*
X51390524Y-88748890D01*
X51560355Y-89158924D01*
X51950642Y-89587183D01*
X52109954Y-89662000D01*
X51950642Y-89736817D01*
X51560355Y-90165076D01*
X51390524Y-90575110D01*
X51511845Y-90805000D01*
X52705000Y-90805000D01*
X52705000Y-88519000D01*
X51511845Y-88519000D01*
X51390524Y-88748890D01*
X49703102Y-88748890D01*
X49774092Y-88392000D01*
X49658839Y-87812582D01*
X49330625Y-87321375D01*
X49312381Y-87309184D01*
X49357765Y-87300157D01*
X49567809Y-87159809D01*
X49708157Y-86949765D01*
X49757440Y-86702000D01*
X49757440Y-86208890D01*
X51390524Y-86208890D01*
X51560355Y-86618924D01*
X51950642Y-87047183D01*
X52109954Y-87122000D01*
X51950642Y-87196817D01*
X51560355Y-87625076D01*
X51390524Y-88035110D01*
X51511845Y-88265000D01*
X52705000Y-88265000D01*
X52705000Y-85979000D01*
X51511845Y-85979000D01*
X51390524Y-86208890D01*
X49757440Y-86208890D01*
X49757440Y-85002000D01*
X49708157Y-84754235D01*
X49567809Y-84544191D01*
X49357765Y-84403843D01*
X49110000Y-84354560D01*
X47410000Y-84354560D01*
X47162235Y-84403843D01*
X46952191Y-84544191D01*
X46811843Y-84754235D01*
X46762560Y-85002000D01*
X46762560Y-86702000D01*
X46811843Y-86949765D01*
X46952191Y-87159809D01*
X47162235Y-87300157D01*
X47207619Y-87309184D01*
X47189375Y-87321375D01*
X46861161Y-87812582D01*
X46745908Y-88392000D01*
X46176000Y-88392000D01*
X46176000Y-83668890D01*
X51390524Y-83668890D01*
X51560355Y-84078924D01*
X51950642Y-84507183D01*
X52109954Y-84582000D01*
X51950642Y-84656817D01*
X51560355Y-85085076D01*
X51390524Y-85495110D01*
X51511845Y-85725000D01*
X52705000Y-85725000D01*
X52705000Y-83439000D01*
X51511845Y-83439000D01*
X51390524Y-83668890D01*
X46176000Y-83668890D01*
X46176000Y-80772000D01*
X46745908Y-80772000D01*
X46861161Y-81351418D01*
X47189375Y-81842625D01*
X47680582Y-82170839D01*
X48113744Y-82257000D01*
X48406256Y-82257000D01*
X48839418Y-82170839D01*
X49330625Y-81842625D01*
X49658839Y-81351418D01*
X49703102Y-81128890D01*
X51390524Y-81128890D01*
X51560355Y-81538924D01*
X51950642Y-81967183D01*
X52109954Y-82042000D01*
X51950642Y-82116817D01*
X51560355Y-82545076D01*
X51390524Y-82955110D01*
X51511845Y-83185000D01*
X52705000Y-83185000D01*
X52705000Y-80899000D01*
X51511845Y-80899000D01*
X51390524Y-81128890D01*
X49703102Y-81128890D01*
X49774092Y-80772000D01*
X49703103Y-80415110D01*
X51390524Y-80415110D01*
X51511845Y-80645000D01*
X52705000Y-80645000D01*
X52705000Y-79451181D01*
X52475108Y-79330514D01*
X51950642Y-79576817D01*
X51560355Y-80005076D01*
X51390524Y-80415110D01*
X49703103Y-80415110D01*
X49658839Y-80192582D01*
X49330625Y-79701375D01*
X49011522Y-79488157D01*
X49141358Y-79427183D01*
X49531645Y-78998924D01*
X49701476Y-78588890D01*
X49580155Y-78359000D01*
X48387000Y-78359000D01*
X48387000Y-78379000D01*
X48133000Y-78379000D01*
X48133000Y-78359000D01*
X46939845Y-78359000D01*
X46818524Y-78588890D01*
X46988355Y-78998924D01*
X47378642Y-79427183D01*
X47508478Y-79488157D01*
X47189375Y-79701375D01*
X46861161Y-80192582D01*
X46745908Y-80772000D01*
X46176000Y-80772000D01*
X46176000Y-76048890D01*
X46818524Y-76048890D01*
X46988355Y-76458924D01*
X47378642Y-76887183D01*
X47537954Y-76962000D01*
X47378642Y-77036817D01*
X46988355Y-77465076D01*
X46818524Y-77875110D01*
X46939845Y-78105000D01*
X48133000Y-78105000D01*
X48133000Y-75819000D01*
X48387000Y-75819000D01*
X48387000Y-78105000D01*
X49580155Y-78105000D01*
X49701476Y-77875110D01*
X49531645Y-77465076D01*
X49141358Y-77036817D01*
X48982046Y-76962000D01*
X49141358Y-76887183D01*
X49531645Y-76458924D01*
X49701476Y-76048890D01*
X49580155Y-75819000D01*
X48387000Y-75819000D01*
X48133000Y-75819000D01*
X46939845Y-75819000D01*
X46818524Y-76048890D01*
X46176000Y-76048890D01*
X46176000Y-65532000D01*
X46745908Y-65532000D01*
X46861161Y-66111418D01*
X47189375Y-66602625D01*
X47487761Y-66802000D01*
X47189375Y-67001375D01*
X46861161Y-67492582D01*
X46745908Y-68072000D01*
X46861161Y-68651418D01*
X47189375Y-69142625D01*
X47487761Y-69342000D01*
X47189375Y-69541375D01*
X46861161Y-70032582D01*
X46745908Y-70612000D01*
X46861161Y-71191418D01*
X47189375Y-71682625D01*
X47487761Y-71882000D01*
X47189375Y-72081375D01*
X46861161Y-72572582D01*
X46745908Y-73152000D01*
X46861161Y-73731418D01*
X47189375Y-74222625D01*
X47508478Y-74435843D01*
X47378642Y-74496817D01*
X46988355Y-74925076D01*
X46818524Y-75335110D01*
X46939845Y-75565000D01*
X48133000Y-75565000D01*
X48133000Y-75545000D01*
X48387000Y-75545000D01*
X48387000Y-75565000D01*
X49580155Y-75565000D01*
X49701476Y-75335110D01*
X49531645Y-74925076D01*
X49141358Y-74496817D01*
X49011522Y-74435843D01*
X49330625Y-74222625D01*
X49658839Y-73731418D01*
X49774092Y-73152000D01*
X49658839Y-72572582D01*
X49330625Y-72081375D01*
X49032239Y-71882000D01*
X49330625Y-71682625D01*
X49494412Y-71437500D01*
X49702699Y-71437500D01*
X49784000Y-71453672D01*
X49865301Y-71437500D01*
X49865303Y-71437500D01*
X50106094Y-71389604D01*
X50379152Y-71207152D01*
X50425209Y-71138224D01*
X50818226Y-70745207D01*
X50887152Y-70699152D01*
X51069604Y-70426094D01*
X51117500Y-70185303D01*
X51117500Y-70185299D01*
X51133671Y-70104001D01*
X51117500Y-70022703D01*
X51117500Y-58109441D01*
X51542000Y-58109441D01*
X51789765Y-58060158D01*
X51999809Y-57919810D01*
X52140157Y-57709766D01*
X52189440Y-57462001D01*
X52189440Y-54262001D01*
X52140157Y-54014236D01*
X51999809Y-53804192D01*
X51866307Y-53714988D01*
X51901699Y-53700328D01*
X52080327Y-53521699D01*
X52177000Y-53288310D01*
X52177000Y-51847751D01*
X52018250Y-51689001D01*
X50419000Y-51689001D01*
X50419000Y-51709001D01*
X50165000Y-51709001D01*
X50165000Y-51689001D01*
X50145000Y-51689001D01*
X50145000Y-51435001D01*
X50165000Y-51435001D01*
X50165000Y-49485751D01*
X50419000Y-49485751D01*
X50419000Y-51435001D01*
X52018250Y-51435001D01*
X52177000Y-51276251D01*
X52177000Y-49835692D01*
X52080327Y-49602303D01*
X51901699Y-49423674D01*
X51668310Y-49327001D01*
X50577750Y-49327001D01*
X50419000Y-49485751D01*
X50165000Y-49485751D01*
X50006250Y-49327001D01*
X48915690Y-49327001D01*
X48831500Y-49361874D01*
X48831500Y-48161570D01*
X49042000Y-48203441D01*
X51542000Y-48203441D01*
X51789765Y-48154158D01*
X51999809Y-48013810D01*
X52140157Y-47803766D01*
X52189440Y-47556001D01*
X52189440Y-46781501D01*
X52982698Y-46781501D01*
X53063999Y-46797673D01*
X53145300Y-46781501D01*
X53145302Y-46781501D01*
X53386093Y-46733605D01*
X53659151Y-46551153D01*
X53705208Y-46482224D01*
X54882226Y-45305207D01*
X54951152Y-45259152D01*
X55133604Y-44986094D01*
X55181500Y-44745303D01*
X55181500Y-44745299D01*
X55197671Y-44664001D01*
X55181500Y-44582703D01*
X55181500Y-42759932D01*
X56538933Y-41402500D01*
X56795560Y-41402500D01*
X56795560Y-41577000D01*
X56844843Y-41824765D01*
X56985191Y-42034809D01*
X57195235Y-42175157D01*
X57443000Y-42224440D01*
X59143000Y-42224440D01*
X59390765Y-42175157D01*
X59600809Y-42034809D01*
X59741157Y-41824765D01*
X59790440Y-41577000D01*
X59790440Y-41402500D01*
X60732560Y-41402500D01*
X60732560Y-41577000D01*
X60781843Y-41824765D01*
X60922191Y-42034809D01*
X61132235Y-42175157D01*
X61380000Y-42224440D01*
X63080000Y-42224440D01*
X63327765Y-42175157D01*
X63537809Y-42034809D01*
X63678157Y-41824765D01*
X63727440Y-41577000D01*
X63727440Y-41402500D01*
X64071501Y-41402500D01*
X64071500Y-49462067D01*
X61449775Y-52083793D01*
X61380849Y-52129848D01*
X61334794Y-52198774D01*
X61198397Y-52402906D01*
X61187327Y-52458560D01*
X60976000Y-52458560D01*
X60728235Y-52507843D01*
X60518191Y-52648191D01*
X60377843Y-52858235D01*
X60328560Y-53106000D01*
X60328560Y-55606000D01*
X60377843Y-55853765D01*
X60518191Y-56063809D01*
X60728235Y-56204157D01*
X60976000Y-56253440D01*
X61150500Y-56253440D01*
X61150500Y-57030560D01*
X60976000Y-57030560D01*
X60728235Y-57079843D01*
X60518191Y-57220191D01*
X60377843Y-57430235D01*
X60328560Y-57678000D01*
X60328560Y-60178000D01*
X60377843Y-60425765D01*
X60518191Y-60635809D01*
X60728235Y-60776157D01*
X60976000Y-60825440D01*
X61150501Y-60825440D01*
X61150500Y-62680067D01*
X60383068Y-63447500D01*
X57979986Y-63447500D01*
X57744000Y-63400560D01*
X57490670Y-63400560D01*
X57649652Y-63241578D01*
X57784994Y-62914833D01*
X57784994Y-62561167D01*
X57649652Y-62234422D01*
X57399572Y-61984342D01*
X57277000Y-61933571D01*
X57277000Y-61799167D01*
X57141658Y-61472422D01*
X56891578Y-61222342D01*
X56564833Y-61087000D01*
X56211167Y-61087000D01*
X55904561Y-61214000D01*
X55701047Y-61214000D01*
X55626000Y-61199072D01*
X55550953Y-61214000D01*
X55550952Y-61214000D01*
X55328683Y-61258212D01*
X55076629Y-61426629D01*
X55034116Y-61490254D01*
X54886241Y-61638129D01*
X54822619Y-61680640D01*
X54780108Y-61744262D01*
X54780107Y-61744263D01*
X54654202Y-61932694D01*
X54595062Y-62230011D01*
X54609990Y-62305059D01*
X54609989Y-64879946D01*
X54595062Y-64954989D01*
X54609989Y-65030032D01*
X54609989Y-65030036D01*
X54654201Y-65252305D01*
X54822618Y-65504360D01*
X54886242Y-65546872D01*
X55398118Y-66058749D01*
X55440629Y-66122371D01*
X55609000Y-66234873D01*
X55609000Y-66350002D01*
X55679408Y-66350002D01*
X55645843Y-66400235D01*
X55631647Y-66471603D01*
X55609000Y-66494250D01*
X55609000Y-66574310D01*
X55610498Y-66577927D01*
X55596560Y-66648000D01*
X55596560Y-67098000D01*
X55616451Y-67198000D01*
X55596560Y-67298000D01*
X55596560Y-67411000D01*
X54518630Y-67411000D01*
X54483000Y-67375370D01*
X54483000Y-59213750D01*
X56341000Y-59213750D01*
X56341000Y-60304310D01*
X56437673Y-60537699D01*
X56616302Y-60716327D01*
X56849691Y-60813000D01*
X57690250Y-60813000D01*
X57849000Y-60654250D01*
X57849000Y-59055000D01*
X58103000Y-59055000D01*
X58103000Y-60654250D01*
X58261750Y-60813000D01*
X59102309Y-60813000D01*
X59335698Y-60716327D01*
X59514327Y-60537699D01*
X59611000Y-60304310D01*
X59611000Y-59213750D01*
X59452250Y-59055000D01*
X58103000Y-59055000D01*
X57849000Y-59055000D01*
X56499750Y-59055000D01*
X56341000Y-59213750D01*
X54483000Y-59213750D01*
X54483000Y-57551690D01*
X56341000Y-57551690D01*
X56341000Y-58642250D01*
X56499750Y-58801000D01*
X57849000Y-58801000D01*
X57849000Y-57201750D01*
X58103000Y-57201750D01*
X58103000Y-58801000D01*
X59452250Y-58801000D01*
X59611000Y-58642250D01*
X59611000Y-57551690D01*
X59514327Y-57318301D01*
X59335698Y-57139673D01*
X59102309Y-57043000D01*
X58261750Y-57043000D01*
X58103000Y-57201750D01*
X57849000Y-57201750D01*
X57690250Y-57043000D01*
X56849691Y-57043000D01*
X56616302Y-57139673D01*
X56437673Y-57318301D01*
X56341000Y-57551690D01*
X54483000Y-57551690D01*
X54483000Y-54655630D01*
X54496880Y-54641750D01*
X56341000Y-54641750D01*
X56341000Y-55732310D01*
X56437673Y-55965699D01*
X56616302Y-56144327D01*
X56849691Y-56241000D01*
X57690250Y-56241000D01*
X57849000Y-56082250D01*
X57849000Y-54483000D01*
X58103000Y-54483000D01*
X58103000Y-56082250D01*
X58261750Y-56241000D01*
X59102309Y-56241000D01*
X59335698Y-56144327D01*
X59514327Y-55965699D01*
X59611000Y-55732310D01*
X59611000Y-54641750D01*
X59452250Y-54483000D01*
X58103000Y-54483000D01*
X57849000Y-54483000D01*
X56499750Y-54483000D01*
X56341000Y-54641750D01*
X54496880Y-54641750D01*
X56158940Y-52979690D01*
X56341000Y-52979690D01*
X56341000Y-54070250D01*
X56499750Y-54229000D01*
X57849000Y-54229000D01*
X57849000Y-52629750D01*
X58103000Y-52629750D01*
X58103000Y-54229000D01*
X59452250Y-54229000D01*
X59611000Y-54070250D01*
X59611000Y-52979690D01*
X59514327Y-52746301D01*
X59335698Y-52567673D01*
X59102309Y-52471000D01*
X58261750Y-52471000D01*
X58103000Y-52629750D01*
X57849000Y-52629750D01*
X57690250Y-52471000D01*
X56849691Y-52471000D01*
X56616302Y-52567673D01*
X56437673Y-52746301D01*
X56341000Y-52979690D01*
X56158940Y-52979690D01*
X62715750Y-46422881D01*
X62779371Y-46380371D01*
X62847710Y-46278095D01*
X62883561Y-46224440D01*
X63080000Y-46224440D01*
X63327765Y-46175157D01*
X63537809Y-46034809D01*
X63678157Y-45824765D01*
X63727440Y-45577000D01*
X63727440Y-43577000D01*
X63678157Y-43329235D01*
X63537809Y-43119191D01*
X63327765Y-42978843D01*
X63080000Y-42929560D01*
X61380000Y-42929560D01*
X61132235Y-42978843D01*
X60922191Y-43119191D01*
X60796700Y-43307000D01*
X59726300Y-43307000D01*
X59600809Y-43119191D01*
X59390765Y-42978843D01*
X59143000Y-42929560D01*
X57443000Y-42929560D01*
X57195235Y-42978843D01*
X56985191Y-43119191D01*
X56844843Y-43329235D01*
X56795560Y-43577000D01*
X56795560Y-45577000D01*
X56844843Y-45824765D01*
X56985191Y-46034809D01*
X57195235Y-46175157D01*
X57443000Y-46224440D01*
X57531000Y-46224440D01*
X57531001Y-48877617D01*
X52828842Y-53579777D01*
X52765218Y-53622289D01*
X52596801Y-53874344D01*
X52552589Y-54096613D01*
X52552589Y-54096617D01*
X52537662Y-54171660D01*
X52552589Y-54246703D01*
X52552590Y-67971541D01*
X52537662Y-68046589D01*
X52596802Y-68343906D01*
X52718261Y-68525682D01*
X52765219Y-68595960D01*
X52828840Y-68638470D01*
X53499117Y-69308748D01*
X53541629Y-69372371D01*
X53605251Y-69414882D01*
X53654799Y-69447989D01*
X53793683Y-69540788D01*
X54015952Y-69585000D01*
X54015957Y-69585000D01*
X54091000Y-69599927D01*
X54166043Y-69585000D01*
X55904708Y-69585000D01*
X55996235Y-69646157D01*
X56244000Y-69695440D01*
X57403945Y-69695440D01*
X57403946Y-79059423D01*
X56807731Y-79655638D01*
X56679809Y-79464191D01*
X56469765Y-79323843D01*
X56222000Y-79274560D01*
X54522000Y-79274560D01*
X54274235Y-79323843D01*
X54064191Y-79464191D01*
X53923843Y-79674235D01*
X53902039Y-79783855D01*
X53713358Y-79576817D01*
X53188892Y-79330514D01*
X52959000Y-79451181D01*
X52959000Y-80645000D01*
X52979000Y-80645000D01*
X52979000Y-80899000D01*
X52959000Y-80899000D01*
X52959000Y-83185000D01*
X52979000Y-83185000D01*
X52979000Y-83439000D01*
X52959000Y-83439000D01*
X52959000Y-85725000D01*
X52979000Y-85725000D01*
X52979000Y-85979000D01*
X52959000Y-85979000D01*
X52959000Y-88265000D01*
X52979000Y-88265000D01*
X52979000Y-88519000D01*
X52959000Y-88519000D01*
X52959000Y-90805000D01*
X52979000Y-90805000D01*
X52979000Y-91059000D01*
X52959000Y-91059000D01*
X52959000Y-93345000D01*
X52979000Y-93345000D01*
X52979000Y-93599000D01*
X52959000Y-93599000D01*
X52959000Y-95885000D01*
X52979000Y-95885000D01*
X52979000Y-96139000D01*
X52959000Y-96139000D01*
X52959000Y-98425000D01*
X52979000Y-98425000D01*
X52979000Y-98679000D01*
X52959000Y-98679000D01*
X52959000Y-99872819D01*
X53188892Y-99993486D01*
X53713358Y-99747183D01*
X54100647Y-99322214D01*
X54301375Y-99622625D01*
X54792582Y-99950839D01*
X55225744Y-100037000D01*
X55518256Y-100037000D01*
X55951418Y-99950839D01*
X56442625Y-99622625D01*
X56648842Y-99314000D01*
X56820957Y-99314000D01*
X56896000Y-99328927D01*
X56971043Y-99314000D01*
X56971048Y-99314000D01*
X57193317Y-99269788D01*
X57445371Y-99101371D01*
X57487883Y-99037747D01*
X57489740Y-99035890D01*
X65551024Y-99035890D01*
X65720855Y-99445924D01*
X66111142Y-99874183D01*
X66635608Y-100120486D01*
X66865500Y-99999819D01*
X66865500Y-98806000D01*
X65672345Y-98806000D01*
X65551024Y-99035890D01*
X57489740Y-99035890D01*
X60029740Y-96495890D01*
X65551024Y-96495890D01*
X65720855Y-96905924D01*
X66111142Y-97334183D01*
X66270454Y-97409000D01*
X66111142Y-97483817D01*
X65720855Y-97912076D01*
X65551024Y-98322110D01*
X65672345Y-98552000D01*
X66865500Y-98552000D01*
X66865500Y-96266000D01*
X65672345Y-96266000D01*
X65551024Y-96495890D01*
X60029740Y-96495890D01*
X61953749Y-94571882D01*
X62017371Y-94529371D01*
X62093374Y-94415625D01*
X62185787Y-94277319D01*
X62185787Y-94277318D01*
X62185788Y-94277317D01*
X62230000Y-94055048D01*
X62230000Y-94055044D01*
X62244927Y-93980001D01*
X62240132Y-93955890D01*
X65551024Y-93955890D01*
X65720855Y-94365924D01*
X66111142Y-94794183D01*
X66270454Y-94869000D01*
X66111142Y-94943817D01*
X65720855Y-95372076D01*
X65551024Y-95782110D01*
X65672345Y-96012000D01*
X66865500Y-96012000D01*
X66865500Y-93726000D01*
X65672345Y-93726000D01*
X65551024Y-93955890D01*
X62240132Y-93955890D01*
X62230000Y-93904958D01*
X62230000Y-91415890D01*
X65551024Y-91415890D01*
X65720855Y-91825924D01*
X66111142Y-92254183D01*
X66270454Y-92329000D01*
X66111142Y-92403817D01*
X65720855Y-92832076D01*
X65551024Y-93242110D01*
X65672345Y-93472000D01*
X66865500Y-93472000D01*
X66865500Y-91186000D01*
X65672345Y-91186000D01*
X65551024Y-91415890D01*
X62230000Y-91415890D01*
X62230000Y-88875890D01*
X65551024Y-88875890D01*
X65720855Y-89285924D01*
X66111142Y-89714183D01*
X66270454Y-89789000D01*
X66111142Y-89863817D01*
X65720855Y-90292076D01*
X65551024Y-90702110D01*
X65672345Y-90932000D01*
X66865500Y-90932000D01*
X66865500Y-88646000D01*
X65672345Y-88646000D01*
X65551024Y-88875890D01*
X62230000Y-88875890D01*
X62230000Y-86335890D01*
X65551024Y-86335890D01*
X65720855Y-86745924D01*
X66111142Y-87174183D01*
X66270454Y-87249000D01*
X66111142Y-87323817D01*
X65720855Y-87752076D01*
X65551024Y-88162110D01*
X65672345Y-88392000D01*
X66865500Y-88392000D01*
X66865500Y-86106000D01*
X65672345Y-86106000D01*
X65551024Y-86335890D01*
X62230000Y-86335890D01*
X62230000Y-83795890D01*
X65551024Y-83795890D01*
X65720855Y-84205924D01*
X66111142Y-84634183D01*
X66270454Y-84709000D01*
X66111142Y-84783817D01*
X65720855Y-85212076D01*
X65551024Y-85622110D01*
X65672345Y-85852000D01*
X66865500Y-85852000D01*
X66865500Y-83566000D01*
X65672345Y-83566000D01*
X65551024Y-83795890D01*
X62230000Y-83795890D01*
X62230000Y-81255890D01*
X65551024Y-81255890D01*
X65720855Y-81665924D01*
X66111142Y-82094183D01*
X66270454Y-82169000D01*
X66111142Y-82243817D01*
X65720855Y-82672076D01*
X65551024Y-83082110D01*
X65672345Y-83312000D01*
X66865500Y-83312000D01*
X66865500Y-81026000D01*
X65672345Y-81026000D01*
X65551024Y-81255890D01*
X62230000Y-81255890D01*
X62230000Y-80542110D01*
X65551024Y-80542110D01*
X65672345Y-80772000D01*
X66865500Y-80772000D01*
X66865500Y-79578181D01*
X66635608Y-79457514D01*
X66111142Y-79703817D01*
X65720855Y-80132076D01*
X65551024Y-80542110D01*
X62230000Y-80542110D01*
X62230000Y-69695440D01*
X63644000Y-69695440D01*
X63891765Y-69646157D01*
X64101809Y-69505809D01*
X64242157Y-69295765D01*
X64291440Y-69048000D01*
X64291440Y-68598000D01*
X64271549Y-68498000D01*
X64291440Y-68398000D01*
X64291440Y-67948000D01*
X64271549Y-67848000D01*
X64291440Y-67748000D01*
X64291440Y-67298000D01*
X64271549Y-67198000D01*
X64291440Y-67098000D01*
X64291440Y-66648000D01*
X64271549Y-66548000D01*
X64291440Y-66448000D01*
X64291440Y-65998000D01*
X64271549Y-65898000D01*
X64291440Y-65798000D01*
X64291440Y-65348000D01*
X64271549Y-65248000D01*
X64291440Y-65148000D01*
X64291440Y-64698000D01*
X64271549Y-64598000D01*
X64291440Y-64498000D01*
X64291440Y-64048000D01*
X64242157Y-63800235D01*
X64101809Y-63590191D01*
X63891765Y-63449843D01*
X63644000Y-63400560D01*
X62715875Y-63400560D01*
X62753604Y-63344094D01*
X62801500Y-63103303D01*
X62801500Y-63103299D01*
X62817671Y-63022001D01*
X62801500Y-62940703D01*
X62801500Y-60825440D01*
X62976000Y-60825440D01*
X63223765Y-60776157D01*
X63433809Y-60635809D01*
X63574157Y-60425765D01*
X63623440Y-60178000D01*
X63623440Y-57678000D01*
X63574157Y-57430235D01*
X63433809Y-57220191D01*
X63223765Y-57079843D01*
X62976000Y-57030560D01*
X62801500Y-57030560D01*
X62801500Y-56253440D01*
X62976000Y-56253440D01*
X63223765Y-56204157D01*
X63433809Y-56063809D01*
X63574157Y-55853765D01*
X63623440Y-55606000D01*
X63623440Y-53106000D01*
X63574157Y-52858235D01*
X63433809Y-52648191D01*
X63305785Y-52562647D01*
X65423226Y-50445207D01*
X65492152Y-50399152D01*
X65648608Y-50165000D01*
X65674604Y-50126095D01*
X65738672Y-49804000D01*
X65722500Y-49722697D01*
X65722500Y-41402500D01*
X66574560Y-41402500D01*
X66574560Y-41545000D01*
X66623843Y-41792765D01*
X66764191Y-42002809D01*
X66974235Y-42143157D01*
X67222000Y-42192440D01*
X68922000Y-42192440D01*
X69169765Y-42143157D01*
X69379809Y-42002809D01*
X69520157Y-41792765D01*
X69569440Y-41545000D01*
X69569440Y-40862750D01*
X70651000Y-40862750D01*
X70651000Y-41703309D01*
X70747673Y-41936698D01*
X70926301Y-42115327D01*
X71159690Y-42212000D01*
X71850250Y-42212000D01*
X72009000Y-42053250D01*
X72009000Y-40704000D01*
X72263000Y-40704000D01*
X72263000Y-42053250D01*
X72421750Y-42212000D01*
X73112310Y-42212000D01*
X73345699Y-42115327D01*
X73524327Y-41936698D01*
X73621000Y-41703309D01*
X73621000Y-40862750D01*
X73462250Y-40704000D01*
X72263000Y-40704000D01*
X72009000Y-40704000D01*
X70809750Y-40704000D01*
X70651000Y-40862750D01*
X69569440Y-40862750D01*
X69569440Y-39545000D01*
X69550681Y-39450691D01*
X70651000Y-39450691D01*
X70651000Y-40291250D01*
X70809750Y-40450000D01*
X72009000Y-40450000D01*
X72009000Y-39100750D01*
X72263000Y-39100750D01*
X72263000Y-40450000D01*
X73462250Y-40450000D01*
X73621000Y-40291250D01*
X73621000Y-39450691D01*
X73524327Y-39217302D01*
X73345699Y-39038673D01*
X73112310Y-38942000D01*
X72421750Y-38942000D01*
X72263000Y-39100750D01*
X72009000Y-39100750D01*
X71850250Y-38942000D01*
X71159690Y-38942000D01*
X70926301Y-39038673D01*
X70747673Y-39217302D01*
X70651000Y-39450691D01*
X69550681Y-39450691D01*
X69520157Y-39297235D01*
X69379809Y-39087191D01*
X69169765Y-38946843D01*
X69157107Y-38944325D01*
X69175933Y-38925500D01*
X74993501Y-38925500D01*
X74993500Y-52458560D01*
X74845999Y-52458560D01*
X74598234Y-52507843D01*
X74388190Y-52648191D01*
X74247842Y-52858235D01*
X74198559Y-53106000D01*
X74198559Y-55606000D01*
X74247842Y-55853765D01*
X74388190Y-56063809D01*
X74598234Y-56204157D01*
X74845999Y-56253440D01*
X75020499Y-56253440D01*
X75020499Y-57014559D01*
X74845999Y-57014559D01*
X74598234Y-57063842D01*
X74388190Y-57204190D01*
X74247842Y-57414234D01*
X74198559Y-57661999D01*
X74198559Y-60161999D01*
X74247842Y-60409764D01*
X74388190Y-60619808D01*
X74598234Y-60760156D01*
X74845999Y-60809439D01*
X75020500Y-60809439D01*
X75020499Y-62780067D01*
X74334068Y-63466500D01*
X72271823Y-63466500D01*
X72176303Y-63447500D01*
X72176301Y-63447500D01*
X72095000Y-63431328D01*
X72013699Y-63447500D01*
X71949986Y-63447500D01*
X71714000Y-63400560D01*
X70358000Y-63400560D01*
X70358000Y-63221439D01*
X70485000Y-62914833D01*
X70485000Y-62561167D01*
X70349658Y-62234422D01*
X70099578Y-61984342D01*
X69811910Y-61865186D01*
X69811910Y-61799167D01*
X69676568Y-61472422D01*
X69426488Y-61222342D01*
X69099743Y-61087000D01*
X68746077Y-61087000D01*
X68419332Y-61222342D01*
X68169252Y-61472422D01*
X68033910Y-61799167D01*
X68033910Y-62152833D01*
X68160911Y-62459441D01*
X68160910Y-65037867D01*
X68145983Y-65112910D01*
X68160910Y-65187953D01*
X68160910Y-65187957D01*
X68205122Y-65410226D01*
X68373539Y-65662281D01*
X68437164Y-65704794D01*
X68791116Y-66058746D01*
X68833629Y-66122371D01*
X69085683Y-66290788D01*
X69307952Y-66335000D01*
X69307953Y-66335000D01*
X69383000Y-66349928D01*
X69458047Y-66335000D01*
X69579000Y-66335000D01*
X69579000Y-66350002D01*
X69649408Y-66350002D01*
X69615843Y-66400235D01*
X69601647Y-66471603D01*
X69579000Y-66494250D01*
X69579000Y-66574310D01*
X69580498Y-66577927D01*
X69566560Y-66648000D01*
X69566560Y-67098000D01*
X69586451Y-67198000D01*
X69566560Y-67298000D01*
X69566560Y-67411000D01*
X68742631Y-67411000D01*
X67462411Y-66130781D01*
X67462411Y-59197749D01*
X70210999Y-59197749D01*
X70210999Y-60288309D01*
X70307672Y-60521698D01*
X70486301Y-60700326D01*
X70719690Y-60796999D01*
X71560249Y-60796999D01*
X71718999Y-60638249D01*
X71718999Y-59038999D01*
X71972999Y-59038999D01*
X71972999Y-60638249D01*
X72131749Y-60796999D01*
X72972308Y-60796999D01*
X73205697Y-60700326D01*
X73384326Y-60521698D01*
X73480999Y-60288309D01*
X73480999Y-59197749D01*
X73322249Y-59038999D01*
X71972999Y-59038999D01*
X71718999Y-59038999D01*
X70369749Y-59038999D01*
X70210999Y-59197749D01*
X67462411Y-59197749D01*
X67462411Y-57535689D01*
X70210999Y-57535689D01*
X70210999Y-58626249D01*
X70369749Y-58784999D01*
X71718999Y-58784999D01*
X71718999Y-57185749D01*
X71972999Y-57185749D01*
X71972999Y-58784999D01*
X73322249Y-58784999D01*
X73480999Y-58626249D01*
X73480999Y-57535689D01*
X73384326Y-57302300D01*
X73205697Y-57123672D01*
X72972308Y-57026999D01*
X72131749Y-57026999D01*
X71972999Y-57185749D01*
X71718999Y-57185749D01*
X71560249Y-57026999D01*
X70719690Y-57026999D01*
X70486301Y-57123672D01*
X70307672Y-57302300D01*
X70210999Y-57535689D01*
X67462411Y-57535689D01*
X67462411Y-54641750D01*
X70210999Y-54641750D01*
X70210999Y-55732310D01*
X70307672Y-55965699D01*
X70486301Y-56144327D01*
X70719690Y-56241000D01*
X71560249Y-56241000D01*
X71718999Y-56082250D01*
X71718999Y-54483000D01*
X71972999Y-54483000D01*
X71972999Y-56082250D01*
X72131749Y-56241000D01*
X72972308Y-56241000D01*
X73205697Y-56144327D01*
X73384326Y-55965699D01*
X73480999Y-55732310D01*
X73480999Y-54641750D01*
X73322249Y-54483000D01*
X71972999Y-54483000D01*
X71718999Y-54483000D01*
X70369749Y-54483000D01*
X70210999Y-54641750D01*
X67462411Y-54641750D01*
X67462411Y-52979690D01*
X70210999Y-52979690D01*
X70210999Y-54070250D01*
X70369749Y-54229000D01*
X71718999Y-54229000D01*
X71718999Y-52629750D01*
X71972999Y-52629750D01*
X71972999Y-54229000D01*
X73322249Y-54229000D01*
X73480999Y-54070250D01*
X73480999Y-52979690D01*
X73384326Y-52746301D01*
X73205697Y-52567673D01*
X72972308Y-52471000D01*
X72131749Y-52471000D01*
X71972999Y-52629750D01*
X71718999Y-52629750D01*
X71560249Y-52471000D01*
X70719690Y-52471000D01*
X70486301Y-52567673D01*
X70307672Y-52746301D01*
X70210999Y-52979690D01*
X67462411Y-52979690D01*
X67462411Y-52233219D01*
X72621749Y-47073882D01*
X72685371Y-47031371D01*
X72740658Y-46948629D01*
X72827414Y-46818788D01*
X72853788Y-46779317D01*
X72898000Y-46557048D01*
X72898000Y-46557047D01*
X72912928Y-46482000D01*
X72898000Y-46406953D01*
X72898000Y-46224440D01*
X72986000Y-46224440D01*
X73233765Y-46175157D01*
X73443809Y-46034809D01*
X73584157Y-45824765D01*
X73633440Y-45577000D01*
X73633440Y-43577000D01*
X73584157Y-43329235D01*
X73443809Y-43119191D01*
X73233765Y-42978843D01*
X72986000Y-42929560D01*
X71286000Y-42929560D01*
X71038235Y-42978843D01*
X70828191Y-43119191D01*
X70702700Y-43307000D01*
X69522099Y-43307000D01*
X69520157Y-43297235D01*
X69379809Y-43087191D01*
X69169765Y-42946843D01*
X68922000Y-42897560D01*
X67222000Y-42897560D01*
X66974235Y-42946843D01*
X66764191Y-43087191D01*
X66623843Y-43297235D01*
X66574560Y-43545000D01*
X66574560Y-45545000D01*
X66623843Y-45792765D01*
X66764191Y-46002809D01*
X66974235Y-46143157D01*
X67222000Y-46192440D01*
X67310000Y-46192440D01*
X67310001Y-49655617D01*
X65808253Y-51157366D01*
X65744629Y-51199878D01*
X65576212Y-51451933D01*
X65532000Y-51674202D01*
X65532000Y-51674206D01*
X65517073Y-51749249D01*
X65532000Y-51824292D01*
X65532001Y-66539703D01*
X65517073Y-66614751D01*
X65576213Y-66912068D01*
X65701927Y-67100212D01*
X65744630Y-67164122D01*
X65808251Y-67206632D01*
X67910366Y-69308748D01*
X67952878Y-69372371D01*
X68016500Y-69414882D01*
X68066048Y-69447989D01*
X68204932Y-69540788D01*
X68427201Y-69585000D01*
X68427202Y-69585000D01*
X68502249Y-69599928D01*
X68577296Y-69585000D01*
X69874708Y-69585000D01*
X69966235Y-69646157D01*
X70214000Y-69695440D01*
X71374000Y-69695440D01*
X71374001Y-79109447D01*
X71374000Y-79109452D01*
X71374000Y-79440369D01*
X70986045Y-79828324D01*
X70980657Y-79801235D01*
X70840309Y-79591191D01*
X70630265Y-79450843D01*
X70382500Y-79401560D01*
X68682500Y-79401560D01*
X68434735Y-79450843D01*
X68224691Y-79591191D01*
X68084343Y-79801235D01*
X68062539Y-79910855D01*
X67873858Y-79703817D01*
X67349392Y-79457514D01*
X67119500Y-79578181D01*
X67119500Y-80772000D01*
X67139500Y-80772000D01*
X67139500Y-81026000D01*
X67119500Y-81026000D01*
X67119500Y-83312000D01*
X67139500Y-83312000D01*
X67139500Y-83566000D01*
X67119500Y-83566000D01*
X67119500Y-85852000D01*
X67139500Y-85852000D01*
X67139500Y-86106000D01*
X67119500Y-86106000D01*
X67119500Y-88392000D01*
X67139500Y-88392000D01*
X67139500Y-88646000D01*
X67119500Y-88646000D01*
X67119500Y-90932000D01*
X67139500Y-90932000D01*
X67139500Y-91186000D01*
X67119500Y-91186000D01*
X67119500Y-93472000D01*
X67139500Y-93472000D01*
X67139500Y-93726000D01*
X67119500Y-93726000D01*
X67119500Y-96012000D01*
X67139500Y-96012000D01*
X67139500Y-96266000D01*
X67119500Y-96266000D01*
X67119500Y-98552000D01*
X67139500Y-98552000D01*
X67139500Y-98806000D01*
X67119500Y-98806000D01*
X67119500Y-99999819D01*
X67349392Y-100120486D01*
X67873858Y-99874183D01*
X68261147Y-99449214D01*
X68461875Y-99749625D01*
X68953082Y-100077839D01*
X69386244Y-100164000D01*
X69678756Y-100164000D01*
X70111918Y-100077839D01*
X70603125Y-99749625D01*
X70809342Y-99441000D01*
X70917957Y-99441000D01*
X70993000Y-99455927D01*
X71068043Y-99441000D01*
X71068048Y-99441000D01*
X71290317Y-99396788D01*
X71542371Y-99228371D01*
X71584883Y-99164747D01*
X71967740Y-98781890D01*
X79838524Y-98781890D01*
X80008355Y-99191924D01*
X80398642Y-99620183D01*
X80923108Y-99866486D01*
X81153000Y-99745819D01*
X81153000Y-98552000D01*
X79959845Y-98552000D01*
X79838524Y-98781890D01*
X71967740Y-98781890D01*
X74507740Y-96241890D01*
X79838524Y-96241890D01*
X80008355Y-96651924D01*
X80398642Y-97080183D01*
X80557954Y-97155000D01*
X80398642Y-97229817D01*
X80008355Y-97658076D01*
X79838524Y-98068110D01*
X79959845Y-98298000D01*
X81153000Y-98298000D01*
X81153000Y-96012000D01*
X79959845Y-96012000D01*
X79838524Y-96241890D01*
X74507740Y-96241890D01*
X75923750Y-94825881D01*
X75987371Y-94783371D01*
X76044739Y-94697514D01*
X76155787Y-94531319D01*
X76155787Y-94531318D01*
X76155788Y-94531317D01*
X76200000Y-94309048D01*
X76200000Y-94309044D01*
X76214927Y-94234001D01*
X76200000Y-94158958D01*
X76200000Y-93701890D01*
X79838524Y-93701890D01*
X80008355Y-94111924D01*
X80398642Y-94540183D01*
X80557954Y-94615000D01*
X80398642Y-94689817D01*
X80008355Y-95118076D01*
X79838524Y-95528110D01*
X79959845Y-95758000D01*
X81153000Y-95758000D01*
X81153000Y-93472000D01*
X79959845Y-93472000D01*
X79838524Y-93701890D01*
X76200000Y-93701890D01*
X76200000Y-91161890D01*
X79838524Y-91161890D01*
X80008355Y-91571924D01*
X80398642Y-92000183D01*
X80557954Y-92075000D01*
X80398642Y-92149817D01*
X80008355Y-92578076D01*
X79838524Y-92988110D01*
X79959845Y-93218000D01*
X81153000Y-93218000D01*
X81153000Y-90932000D01*
X79959845Y-90932000D01*
X79838524Y-91161890D01*
X76200000Y-91161890D01*
X76200000Y-88621890D01*
X79838524Y-88621890D01*
X80008355Y-89031924D01*
X80398642Y-89460183D01*
X80557954Y-89535000D01*
X80398642Y-89609817D01*
X80008355Y-90038076D01*
X79838524Y-90448110D01*
X79959845Y-90678000D01*
X81153000Y-90678000D01*
X81153000Y-88392000D01*
X79959845Y-88392000D01*
X79838524Y-88621890D01*
X76200000Y-88621890D01*
X76200000Y-86081890D01*
X79838524Y-86081890D01*
X80008355Y-86491924D01*
X80398642Y-86920183D01*
X80557954Y-86995000D01*
X80398642Y-87069817D01*
X80008355Y-87498076D01*
X79838524Y-87908110D01*
X79959845Y-88138000D01*
X81153000Y-88138000D01*
X81153000Y-85852000D01*
X79959845Y-85852000D01*
X79838524Y-86081890D01*
X76200000Y-86081890D01*
X76200000Y-83541890D01*
X79838524Y-83541890D01*
X80008355Y-83951924D01*
X80398642Y-84380183D01*
X80557954Y-84455000D01*
X80398642Y-84529817D01*
X80008355Y-84958076D01*
X79838524Y-85368110D01*
X79959845Y-85598000D01*
X81153000Y-85598000D01*
X81153000Y-83312000D01*
X79959845Y-83312000D01*
X79838524Y-83541890D01*
X76200000Y-83541890D01*
X76200000Y-81001890D01*
X79838524Y-81001890D01*
X80008355Y-81411924D01*
X80398642Y-81840183D01*
X80557954Y-81915000D01*
X80398642Y-81989817D01*
X80008355Y-82418076D01*
X79838524Y-82828110D01*
X79959845Y-83058000D01*
X81153000Y-83058000D01*
X81153000Y-80772000D01*
X79959845Y-80772000D01*
X79838524Y-81001890D01*
X76200000Y-81001890D01*
X76200000Y-80288110D01*
X79838524Y-80288110D01*
X79959845Y-80518000D01*
X81153000Y-80518000D01*
X81153000Y-79324181D01*
X80923108Y-79203514D01*
X80398642Y-79449817D01*
X80008355Y-79878076D01*
X79838524Y-80288110D01*
X76200000Y-80288110D01*
X76200000Y-69695440D01*
X77614000Y-69695440D01*
X77861765Y-69646157D01*
X78071809Y-69505809D01*
X78212157Y-69295765D01*
X78261440Y-69048000D01*
X78261440Y-68598000D01*
X78241549Y-68498000D01*
X78261440Y-68398000D01*
X78261440Y-67948000D01*
X78241549Y-67848000D01*
X78261440Y-67748000D01*
X78261440Y-67298000D01*
X78241549Y-67198000D01*
X78261440Y-67098000D01*
X78261440Y-66648000D01*
X78241549Y-66548000D01*
X78261440Y-66448000D01*
X78261440Y-65998000D01*
X78241549Y-65898000D01*
X78261440Y-65798000D01*
X78261440Y-65348000D01*
X78241549Y-65248000D01*
X78261440Y-65148000D01*
X78261440Y-64698000D01*
X78241549Y-64598000D01*
X78261440Y-64498000D01*
X78261440Y-64048000D01*
X78212157Y-63800235D01*
X78071809Y-63590191D01*
X77861765Y-63449843D01*
X77614000Y-63400560D01*
X76632263Y-63400560D01*
X76671499Y-63203304D01*
X76671499Y-63203300D01*
X76687670Y-63122002D01*
X76671499Y-63040704D01*
X76671499Y-60809439D01*
X76845999Y-60809439D01*
X77093764Y-60760156D01*
X77303808Y-60619808D01*
X77444156Y-60409764D01*
X77493439Y-60161999D01*
X77493439Y-57661999D01*
X77444156Y-57414234D01*
X77303808Y-57204190D01*
X77093764Y-57063842D01*
X76845999Y-57014559D01*
X76671499Y-57014559D01*
X76671499Y-56253440D01*
X76845999Y-56253440D01*
X77093764Y-56204157D01*
X77303808Y-56063809D01*
X77444156Y-55853765D01*
X77493439Y-55606000D01*
X77493439Y-53106000D01*
X77444156Y-52858235D01*
X77303808Y-52648191D01*
X77093764Y-52507843D01*
X76845999Y-52458560D01*
X76644500Y-52458560D01*
X76644500Y-40862250D01*
X77890000Y-40862250D01*
X77890000Y-41702809D01*
X77986673Y-41936198D01*
X78165301Y-42114827D01*
X78398690Y-42211500D01*
X79089250Y-42211500D01*
X79248000Y-42052750D01*
X79248000Y-40703500D01*
X79502000Y-40703500D01*
X79502000Y-42052750D01*
X79660750Y-42211500D01*
X80351310Y-42211500D01*
X80584699Y-42114827D01*
X80763327Y-41936198D01*
X80860000Y-41702809D01*
X80860000Y-40862250D01*
X81954000Y-40862250D01*
X81954000Y-41702809D01*
X82050673Y-41936198D01*
X82229301Y-42114827D01*
X82462690Y-42211500D01*
X83153250Y-42211500D01*
X83312000Y-42052750D01*
X83312000Y-40703500D01*
X83566000Y-40703500D01*
X83566000Y-42052750D01*
X83724750Y-42211500D01*
X84415310Y-42211500D01*
X84648699Y-42114827D01*
X84827327Y-41936198D01*
X84924000Y-41702809D01*
X84924000Y-40862250D01*
X84765250Y-40703500D01*
X83566000Y-40703500D01*
X83312000Y-40703500D01*
X82112750Y-40703500D01*
X81954000Y-40862250D01*
X80860000Y-40862250D01*
X80701250Y-40703500D01*
X79502000Y-40703500D01*
X79248000Y-40703500D01*
X78048750Y-40703500D01*
X77890000Y-40862250D01*
X76644500Y-40862250D01*
X76644500Y-39450191D01*
X77890000Y-39450191D01*
X77890000Y-40290750D01*
X78048750Y-40449500D01*
X79248000Y-40449500D01*
X79248000Y-39100250D01*
X79502000Y-39100250D01*
X79502000Y-40449500D01*
X80701250Y-40449500D01*
X80860000Y-40290750D01*
X80860000Y-39450191D01*
X81954000Y-39450191D01*
X81954000Y-40290750D01*
X82112750Y-40449500D01*
X83312000Y-40449500D01*
X83312000Y-39100250D01*
X83566000Y-39100250D01*
X83566000Y-40449500D01*
X84765250Y-40449500D01*
X84924000Y-40290750D01*
X84924000Y-39450191D01*
X84827327Y-39216802D01*
X84648699Y-39038173D01*
X84415310Y-38941500D01*
X83724750Y-38941500D01*
X83566000Y-39100250D01*
X83312000Y-39100250D01*
X83153250Y-38941500D01*
X82462690Y-38941500D01*
X82229301Y-39038173D01*
X82050673Y-39216802D01*
X81954000Y-39450191D01*
X80860000Y-39450191D01*
X80763327Y-39216802D01*
X80584699Y-39038173D01*
X80351310Y-38941500D01*
X79660750Y-38941500D01*
X79502000Y-39100250D01*
X79248000Y-39100250D01*
X79089250Y-38941500D01*
X78398690Y-38941500D01*
X78165301Y-39038173D01*
X77986673Y-39216802D01*
X77890000Y-39450191D01*
X76644500Y-39450191D01*
X76644500Y-38925500D01*
X85534501Y-38925500D01*
X85534500Y-46654698D01*
X85518328Y-46736000D01*
X85534500Y-46817301D01*
X85534500Y-46817302D01*
X85582396Y-47058093D01*
X85764848Y-47331152D01*
X85833777Y-47377209D01*
X88074501Y-49617935D01*
X88074500Y-52490962D01*
X88026309Y-52471000D01*
X87185750Y-52471000D01*
X87027000Y-52629750D01*
X87027000Y-54229000D01*
X87047000Y-54229000D01*
X87047000Y-54483000D01*
X87027000Y-54483000D01*
X87027000Y-56082250D01*
X87185750Y-56241000D01*
X88026309Y-56241000D01*
X88259698Y-56144327D01*
X88438327Y-55965699D01*
X88535000Y-55732310D01*
X88535000Y-54641750D01*
X88376252Y-54483002D01*
X88478570Y-54483002D01*
X88877793Y-54882226D01*
X88923848Y-54951152D01*
X89196906Y-55133604D01*
X89252560Y-55144674D01*
X89252560Y-55606000D01*
X89301843Y-55853765D01*
X89442191Y-56063809D01*
X89652235Y-56204157D01*
X89900000Y-56253440D01*
X90074500Y-56253440D01*
X90074500Y-57030560D01*
X89900000Y-57030560D01*
X89652235Y-57079843D01*
X89442191Y-57220191D01*
X89301843Y-57430235D01*
X89252560Y-57678000D01*
X89252560Y-60178000D01*
X89301843Y-60425765D01*
X89442191Y-60635809D01*
X89652235Y-60776157D01*
X89900000Y-60825440D01*
X90074500Y-60825440D01*
X90074500Y-61912067D01*
X89047068Y-62939500D01*
X86681986Y-62939500D01*
X86446000Y-62892560D01*
X85217000Y-62892560D01*
X85217000Y-62561167D01*
X85081658Y-62234422D01*
X84831578Y-61984342D01*
X84504833Y-61849000D01*
X84455062Y-61849000D01*
X84455062Y-61799167D01*
X84319720Y-61472422D01*
X84069640Y-61222342D01*
X83742895Y-61087000D01*
X83389229Y-61087000D01*
X83062484Y-61222342D01*
X82812404Y-61472422D01*
X82677062Y-61799167D01*
X82677062Y-62152833D01*
X82804001Y-62459291D01*
X82804000Y-64440957D01*
X82789073Y-64516000D01*
X82804000Y-64591043D01*
X82804000Y-64591047D01*
X82848212Y-64813316D01*
X83016629Y-65065371D01*
X83080253Y-65107883D01*
X83523118Y-65550749D01*
X83565629Y-65614371D01*
X83629251Y-65656882D01*
X83817681Y-65782787D01*
X83817682Y-65782787D01*
X83817683Y-65782788D01*
X84039952Y-65827000D01*
X84039956Y-65827000D01*
X84114999Y-65841927D01*
X84190042Y-65827000D01*
X84311000Y-65827000D01*
X84311000Y-65842002D01*
X84381408Y-65842002D01*
X84347843Y-65892235D01*
X84333647Y-65963603D01*
X84311000Y-65986250D01*
X84311000Y-66066310D01*
X84312498Y-66069927D01*
X84298560Y-66140000D01*
X84298560Y-66590000D01*
X84318451Y-66690000D01*
X84298560Y-66790000D01*
X84298560Y-66903000D01*
X83220631Y-66903000D01*
X82042000Y-65724370D01*
X82042000Y-59213750D01*
X85265000Y-59213750D01*
X85265000Y-60304310D01*
X85361673Y-60537699D01*
X85540302Y-60716327D01*
X85773691Y-60813000D01*
X86614250Y-60813000D01*
X86773000Y-60654250D01*
X86773000Y-59055000D01*
X87027000Y-59055000D01*
X87027000Y-60654250D01*
X87185750Y-60813000D01*
X88026309Y-60813000D01*
X88259698Y-60716327D01*
X88438327Y-60537699D01*
X88535000Y-60304310D01*
X88535000Y-59213750D01*
X88376250Y-59055000D01*
X87027000Y-59055000D01*
X86773000Y-59055000D01*
X85423750Y-59055000D01*
X85265000Y-59213750D01*
X82042000Y-59213750D01*
X82042000Y-57551690D01*
X85265000Y-57551690D01*
X85265000Y-58642250D01*
X85423750Y-58801000D01*
X86773000Y-58801000D01*
X86773000Y-57201750D01*
X87027000Y-57201750D01*
X87027000Y-58801000D01*
X88376250Y-58801000D01*
X88535000Y-58642250D01*
X88535000Y-57551690D01*
X88438327Y-57318301D01*
X88259698Y-57139673D01*
X88026309Y-57043000D01*
X87185750Y-57043000D01*
X87027000Y-57201750D01*
X86773000Y-57201750D01*
X86614250Y-57043000D01*
X85773691Y-57043000D01*
X85540302Y-57139673D01*
X85361673Y-57318301D01*
X85265000Y-57551690D01*
X82042000Y-57551690D01*
X82042000Y-54641750D01*
X85265000Y-54641750D01*
X85265000Y-55732310D01*
X85361673Y-55965699D01*
X85540302Y-56144327D01*
X85773691Y-56241000D01*
X86614250Y-56241000D01*
X86773000Y-56082250D01*
X86773000Y-54483000D01*
X85423750Y-54483000D01*
X85265000Y-54641750D01*
X82042000Y-54641750D01*
X82042000Y-52979690D01*
X85265000Y-52979690D01*
X85265000Y-54070250D01*
X85423750Y-54229000D01*
X86773000Y-54229000D01*
X86773000Y-52629750D01*
X86614250Y-52471000D01*
X85773691Y-52471000D01*
X85540302Y-52567673D01*
X85361673Y-52746301D01*
X85265000Y-52979690D01*
X82042000Y-52979690D01*
X82042000Y-48575630D01*
X83924749Y-46692882D01*
X83988371Y-46650371D01*
X84040869Y-46571803D01*
X84146015Y-46414440D01*
X84156788Y-46398317D01*
X84191474Y-46223940D01*
X84289000Y-46223940D01*
X84536765Y-46174657D01*
X84746809Y-46034309D01*
X84887157Y-45824265D01*
X84936440Y-45576500D01*
X84936440Y-43576500D01*
X84887157Y-43328735D01*
X84746809Y-43118691D01*
X84536765Y-42978343D01*
X84289000Y-42929060D01*
X82589000Y-42929060D01*
X82341235Y-42978343D01*
X82131191Y-43118691D01*
X82005366Y-43307000D01*
X80808634Y-43307000D01*
X80682809Y-43118691D01*
X80472765Y-42978343D01*
X80225000Y-42929060D01*
X78525000Y-42929060D01*
X78277235Y-42978343D01*
X78067191Y-43118691D01*
X77926843Y-43328735D01*
X77877560Y-43576500D01*
X77877560Y-45576500D01*
X77926843Y-45824265D01*
X78067191Y-46034309D01*
X78277235Y-46174657D01*
X78525000Y-46223940D01*
X78613001Y-46223940D01*
X78613001Y-46787952D01*
X78598073Y-46863000D01*
X78657213Y-47160317D01*
X78723103Y-47258928D01*
X78825630Y-47412371D01*
X78889251Y-47454881D01*
X80010000Y-48575631D01*
X80010001Y-66091952D01*
X79995073Y-66167000D01*
X80054213Y-66464317D01*
X80178657Y-66650560D01*
X80222630Y-66716371D01*
X80286251Y-66758881D01*
X82328117Y-68800748D01*
X82370629Y-68864371D01*
X82622683Y-69032788D01*
X82844952Y-69077000D01*
X82844953Y-69077000D01*
X82920000Y-69091928D01*
X82995047Y-69077000D01*
X84606708Y-69077000D01*
X84698235Y-69138157D01*
X84946000Y-69187440D01*
X86156735Y-69187440D01*
X86156734Y-78627635D01*
X85255731Y-79528639D01*
X85127809Y-79337191D01*
X84917765Y-79196843D01*
X84670000Y-79147560D01*
X82970000Y-79147560D01*
X82722235Y-79196843D01*
X82512191Y-79337191D01*
X82371843Y-79547235D01*
X82350039Y-79656855D01*
X82161358Y-79449817D01*
X81636892Y-79203514D01*
X81407000Y-79324181D01*
X81407000Y-80518000D01*
X81427000Y-80518000D01*
X81427000Y-80772000D01*
X81407000Y-80772000D01*
X81407000Y-83058000D01*
X81427000Y-83058000D01*
X81427000Y-83312000D01*
X81407000Y-83312000D01*
X81407000Y-85598000D01*
X81427000Y-85598000D01*
X81427000Y-85852000D01*
X81407000Y-85852000D01*
X81407000Y-88138000D01*
X81427000Y-88138000D01*
X81427000Y-88392000D01*
X81407000Y-88392000D01*
X81407000Y-90678000D01*
X81427000Y-90678000D01*
X81427000Y-90932000D01*
X81407000Y-90932000D01*
X81407000Y-93218000D01*
X81427000Y-93218000D01*
X81427000Y-93472000D01*
X81407000Y-93472000D01*
X81407000Y-95758000D01*
X81427000Y-95758000D01*
X81427000Y-96012000D01*
X81407000Y-96012000D01*
X81407000Y-98298000D01*
X81427000Y-98298000D01*
X81427000Y-98552000D01*
X81407000Y-98552000D01*
X81407000Y-99745819D01*
X81636892Y-99866486D01*
X82161358Y-99620183D01*
X82548647Y-99195214D01*
X82749375Y-99495625D01*
X83240582Y-99823839D01*
X83673744Y-99910000D01*
X83966256Y-99910000D01*
X84399418Y-99823839D01*
X84890625Y-99495625D01*
X85096842Y-99187000D01*
X85141957Y-99187000D01*
X85217000Y-99201927D01*
X85292043Y-99187000D01*
X85292048Y-99187000D01*
X85514317Y-99142788D01*
X85766371Y-98974371D01*
X85808883Y-98910747D01*
X90655749Y-94063882D01*
X90719371Y-94021371D01*
X90887788Y-93769317D01*
X90932000Y-93547048D01*
X90932000Y-93547047D01*
X90946928Y-93472000D01*
X90932000Y-93396953D01*
X90932000Y-83312000D01*
X95005908Y-83312000D01*
X95121161Y-83891418D01*
X95449375Y-84382625D01*
X95747761Y-84582000D01*
X95449375Y-84781375D01*
X95121161Y-85272582D01*
X95005908Y-85852000D01*
X95121161Y-86431418D01*
X95449375Y-86922625D01*
X95747761Y-87122000D01*
X95449375Y-87321375D01*
X95121161Y-87812582D01*
X95005908Y-88392000D01*
X95121161Y-88971418D01*
X95449375Y-89462625D01*
X95747761Y-89662000D01*
X95449375Y-89861375D01*
X95121161Y-90352582D01*
X95005908Y-90932000D01*
X95121161Y-91511418D01*
X95449375Y-92002625D01*
X95747761Y-92202000D01*
X95449375Y-92401375D01*
X95121161Y-92892582D01*
X95005908Y-93472000D01*
X95121161Y-94051418D01*
X95449375Y-94542625D01*
X95747761Y-94742000D01*
X95449375Y-94941375D01*
X95121161Y-95432582D01*
X95005908Y-96012000D01*
X95121161Y-96591418D01*
X95449375Y-97082625D01*
X95747761Y-97282000D01*
X95449375Y-97481375D01*
X95121161Y-97972582D01*
X95005908Y-98552000D01*
X95121161Y-99131418D01*
X95449375Y-99622625D01*
X95940582Y-99950839D01*
X96373744Y-100037000D01*
X96666256Y-100037000D01*
X97099418Y-99950839D01*
X97590625Y-99622625D01*
X97918839Y-99131418D01*
X98034092Y-98552000D01*
X97918839Y-97972582D01*
X97590625Y-97481375D01*
X97292239Y-97282000D01*
X97590625Y-97082625D01*
X97918839Y-96591418D01*
X98034092Y-96012000D01*
X97918839Y-95432582D01*
X97590625Y-94941375D01*
X97292239Y-94742000D01*
X97590625Y-94542625D01*
X97918839Y-94051418D01*
X98034092Y-93472000D01*
X97918839Y-92892582D01*
X97590625Y-92401375D01*
X97292239Y-92202000D01*
X97590625Y-92002625D01*
X97918839Y-91511418D01*
X98034092Y-90932000D01*
X97918839Y-90352582D01*
X97590625Y-89861375D01*
X97292239Y-89662000D01*
X97590625Y-89462625D01*
X97918839Y-88971418D01*
X98034092Y-88392000D01*
X97918839Y-87812582D01*
X97590625Y-87321375D01*
X97292239Y-87122000D01*
X97590625Y-86922625D01*
X97918839Y-86431418D01*
X98034092Y-85852000D01*
X97918839Y-85272582D01*
X97590625Y-84781375D01*
X97292239Y-84582000D01*
X97590625Y-84382625D01*
X97918839Y-83891418D01*
X98034092Y-83312000D01*
X97918839Y-82732582D01*
X97590625Y-82241375D01*
X97572381Y-82229184D01*
X97617765Y-82220157D01*
X97827809Y-82079809D01*
X97968157Y-81869765D01*
X98017440Y-81622000D01*
X98017440Y-79922000D01*
X97968157Y-79674235D01*
X97827809Y-79464191D01*
X97617765Y-79323843D01*
X97370000Y-79274560D01*
X95670000Y-79274560D01*
X95422235Y-79323843D01*
X95212191Y-79464191D01*
X95071843Y-79674235D01*
X95022560Y-79922000D01*
X95022560Y-81622000D01*
X95071843Y-81869765D01*
X95212191Y-82079809D01*
X95422235Y-82220157D01*
X95467619Y-82229184D01*
X95449375Y-82241375D01*
X95121161Y-82732582D01*
X95005908Y-83312000D01*
X90932000Y-83312000D01*
X90932000Y-69187440D01*
X92346000Y-69187440D01*
X92593765Y-69138157D01*
X92803809Y-68997809D01*
X92944157Y-68787765D01*
X92993440Y-68540000D01*
X92993440Y-68090000D01*
X92973549Y-67990000D01*
X92993440Y-67890000D01*
X92993440Y-67440000D01*
X92973549Y-67340000D01*
X92993440Y-67240000D01*
X92993440Y-66790000D01*
X92973549Y-66690000D01*
X92993440Y-66590000D01*
X92993440Y-66140000D01*
X92973549Y-66040000D01*
X92993440Y-65940000D01*
X92993440Y-65490000D01*
X92973549Y-65390000D01*
X92993440Y-65290000D01*
X92993440Y-64840000D01*
X92973549Y-64740000D01*
X92993440Y-64640000D01*
X92993440Y-64190000D01*
X92973549Y-64090000D01*
X92989063Y-64012000D01*
X95005908Y-64012000D01*
X95121161Y-64591418D01*
X95449375Y-65082625D01*
X95747761Y-65282000D01*
X95449375Y-65481375D01*
X95121161Y-65972582D01*
X95005908Y-66552000D01*
X95121161Y-67131418D01*
X95449375Y-67622625D01*
X95747761Y-67822000D01*
X95449375Y-68021375D01*
X95121161Y-68512582D01*
X95005908Y-69092000D01*
X95121161Y-69671418D01*
X95449375Y-70162625D01*
X95747761Y-70362000D01*
X95449375Y-70561375D01*
X95121161Y-71052582D01*
X95005908Y-71632000D01*
X95121161Y-72211418D01*
X95449375Y-72702625D01*
X95747761Y-72902000D01*
X95449375Y-73101375D01*
X95121161Y-73592582D01*
X95005908Y-74172000D01*
X95121161Y-74751418D01*
X95449375Y-75242625D01*
X95747761Y-75442000D01*
X95449375Y-75641375D01*
X95121161Y-76132582D01*
X95005908Y-76712000D01*
X95121161Y-77291418D01*
X95449375Y-77782625D01*
X95940582Y-78110839D01*
X96373744Y-78197000D01*
X96666256Y-78197000D01*
X97099418Y-78110839D01*
X97590625Y-77782625D01*
X97918839Y-77291418D01*
X98034092Y-76712000D01*
X97918839Y-76132582D01*
X97590625Y-75641375D01*
X97292239Y-75442000D01*
X97590625Y-75242625D01*
X97918839Y-74751418D01*
X98034092Y-74172000D01*
X97918839Y-73592582D01*
X97590625Y-73101375D01*
X97292239Y-72902000D01*
X97590625Y-72702625D01*
X97918839Y-72211418D01*
X98034092Y-71632000D01*
X97918839Y-71052582D01*
X97590625Y-70561375D01*
X97292239Y-70362000D01*
X97590625Y-70162625D01*
X97918839Y-69671418D01*
X98034092Y-69092000D01*
X97918839Y-68512582D01*
X97590625Y-68021375D01*
X97292239Y-67822000D01*
X97590625Y-67622625D01*
X97918839Y-67131418D01*
X98034092Y-66552000D01*
X97918839Y-65972582D01*
X97590625Y-65481375D01*
X97292239Y-65282000D01*
X97590625Y-65082625D01*
X97918839Y-64591418D01*
X98034092Y-64012000D01*
X97918839Y-63432582D01*
X97590625Y-62941375D01*
X97271522Y-62728157D01*
X97401358Y-62667183D01*
X97791645Y-62238924D01*
X97961476Y-61828890D01*
X97840155Y-61599000D01*
X96647000Y-61599000D01*
X96647000Y-61619000D01*
X96393000Y-61619000D01*
X96393000Y-61599000D01*
X95199845Y-61599000D01*
X95078524Y-61828890D01*
X95248355Y-62238924D01*
X95638642Y-62667183D01*
X95768478Y-62728157D01*
X95449375Y-62941375D01*
X95121161Y-63432582D01*
X95005908Y-64012000D01*
X92989063Y-64012000D01*
X92993440Y-63990000D01*
X92993440Y-63540000D01*
X92944157Y-63292235D01*
X92803809Y-63082191D01*
X92593765Y-62941843D01*
X92346000Y-62892560D01*
X91430187Y-62892560D01*
X91495152Y-62849152D01*
X91677604Y-62576094D01*
X91725500Y-62335303D01*
X91725500Y-62335302D01*
X91741672Y-62254000D01*
X91725500Y-62172697D01*
X91725500Y-60825440D01*
X91900000Y-60825440D01*
X92147765Y-60776157D01*
X92357809Y-60635809D01*
X92498157Y-60425765D01*
X92547440Y-60178000D01*
X92547440Y-57678000D01*
X92498157Y-57430235D01*
X92357809Y-57220191D01*
X92147765Y-57079843D01*
X91900000Y-57030560D01*
X91725500Y-57030560D01*
X91725500Y-56253440D01*
X91900000Y-56253440D01*
X92147765Y-56204157D01*
X92357809Y-56063809D01*
X92498157Y-55853765D01*
X92547440Y-55606000D01*
X92547440Y-53106000D01*
X92498157Y-52858235D01*
X92357809Y-52648191D01*
X92147765Y-52507843D01*
X91900000Y-52458560D01*
X89900000Y-52458560D01*
X89725500Y-52493270D01*
X89725500Y-49357297D01*
X89741671Y-49275999D01*
X89725500Y-49194701D01*
X89725500Y-49194697D01*
X89677604Y-48953906D01*
X89495152Y-48680848D01*
X89426229Y-48634795D01*
X87185500Y-46394068D01*
X87185500Y-43767000D01*
X88037560Y-43767000D01*
X88037560Y-45767000D01*
X88086843Y-46014765D01*
X88227191Y-46224809D01*
X88437235Y-46365157D01*
X88685000Y-46414440D01*
X88881440Y-46414440D01*
X88985629Y-46570371D01*
X89049253Y-46612883D01*
X93853001Y-51416632D01*
X93853000Y-55677957D01*
X93838073Y-55753000D01*
X93853000Y-55828043D01*
X93853000Y-55828047D01*
X93897212Y-56050316D01*
X94065629Y-56302371D01*
X94129254Y-56344884D01*
X94662116Y-56877746D01*
X94704629Y-56941371D01*
X94838110Y-57030560D01*
X94956681Y-57109787D01*
X94956682Y-57109787D01*
X94956683Y-57109788D01*
X95178952Y-57154000D01*
X95178956Y-57154000D01*
X95252999Y-57168728D01*
X95449375Y-57462625D01*
X95747761Y-57662000D01*
X95449375Y-57861375D01*
X95121161Y-58352582D01*
X95005908Y-58932000D01*
X95121161Y-59511418D01*
X95449375Y-60002625D01*
X95768478Y-60215843D01*
X95638642Y-60276817D01*
X95248355Y-60705076D01*
X95078524Y-61115110D01*
X95199845Y-61345000D01*
X96393000Y-61345000D01*
X96393000Y-61325000D01*
X96647000Y-61325000D01*
X96647000Y-61345000D01*
X97840155Y-61345000D01*
X97961476Y-61115110D01*
X97791645Y-60705076D01*
X97401358Y-60276817D01*
X97271522Y-60215843D01*
X97590625Y-60002625D01*
X97918839Y-59511418D01*
X98034092Y-58932000D01*
X97918839Y-58352582D01*
X97590625Y-57861375D01*
X97292239Y-57662000D01*
X97590625Y-57462625D01*
X97918839Y-56971418D01*
X98034092Y-56392000D01*
X97918839Y-55812582D01*
X97590625Y-55321375D01*
X97572381Y-55309184D01*
X97617765Y-55300157D01*
X97827809Y-55159809D01*
X97968157Y-54949765D01*
X98017440Y-54702000D01*
X98017440Y-53002000D01*
X97968157Y-52754235D01*
X97827809Y-52544191D01*
X97617765Y-52403843D01*
X97370000Y-52354560D01*
X97282000Y-52354560D01*
X97282000Y-50494047D01*
X97296928Y-50419000D01*
X97279270Y-50330227D01*
X97237788Y-50121683D01*
X97069371Y-49869629D01*
X97005750Y-49827119D01*
X94361000Y-47182370D01*
X94361000Y-46414440D01*
X94449000Y-46414440D01*
X94696765Y-46365157D01*
X94906809Y-46224809D01*
X95047157Y-46014765D01*
X95096440Y-45767000D01*
X95096440Y-43767000D01*
X95047157Y-43519235D01*
X94906809Y-43309191D01*
X94696765Y-43168843D01*
X94449000Y-43119560D01*
X93708423Y-43119560D01*
X93688803Y-43090197D01*
X93647601Y-43062667D01*
X93599000Y-43053000D01*
X89662000Y-43053000D01*
X89613399Y-43062667D01*
X89572197Y-43090197D01*
X89552577Y-43119560D01*
X88685000Y-43119560D01*
X88437235Y-43168843D01*
X88227191Y-43309191D01*
X88086843Y-43519235D01*
X88037560Y-43767000D01*
X87185500Y-43767000D01*
X87185500Y-38925500D01*
X88304068Y-38925500D01*
X88529131Y-39150564D01*
X88437235Y-39168843D01*
X88227191Y-39309191D01*
X88086843Y-39519235D01*
X88037560Y-39767000D01*
X88037560Y-41767000D01*
X88086843Y-42014765D01*
X88227191Y-42224809D01*
X88437235Y-42365157D01*
X88685000Y-42414440D01*
X90385000Y-42414440D01*
X90632765Y-42365157D01*
X90842809Y-42224809D01*
X90983157Y-42014765D01*
X91032440Y-41767000D01*
X91032440Y-41592500D01*
X92101560Y-41592500D01*
X92101560Y-41767000D01*
X92150843Y-42014765D01*
X92291191Y-42224809D01*
X92501235Y-42365157D01*
X92749000Y-42414440D01*
X94449000Y-42414440D01*
X94696765Y-42365157D01*
X94906809Y-42224809D01*
X95047157Y-42014765D01*
X95096440Y-41767000D01*
X95096440Y-39767000D01*
X95047157Y-39519235D01*
X94906809Y-39309191D01*
X94696765Y-39168843D01*
X94449000Y-39119560D01*
X92749000Y-39119560D01*
X92501235Y-39168843D01*
X92291191Y-39309191D01*
X92150843Y-39519235D01*
X92101560Y-39767000D01*
X92101560Y-39941500D01*
X91032440Y-39941500D01*
X91032440Y-39767000D01*
X90983157Y-39519235D01*
X90842809Y-39309191D01*
X90632765Y-39168843D01*
X90385000Y-39119560D01*
X90360500Y-39119560D01*
X90360500Y-39070303D01*
X90376672Y-38989000D01*
X90312604Y-38666905D01*
X90176206Y-38462773D01*
X90130152Y-38393848D01*
X90061226Y-38347793D01*
X89287209Y-37573777D01*
X89241152Y-37504848D01*
X88968094Y-37322396D01*
X88727303Y-37274500D01*
X88727301Y-37274500D01*
X88646000Y-37258328D01*
X88564699Y-37274500D01*
X86187301Y-37274500D01*
X86106000Y-37258328D01*
X86024699Y-37274500D01*
X75900303Y-37274500D01*
X75819000Y-37258328D01*
X75737698Y-37274500D01*
X68915303Y-37274500D01*
X68834000Y-37258328D01*
X68511905Y-37322396D01*
X68375689Y-37413414D01*
X68238848Y-37504848D01*
X68192793Y-37573774D01*
X67545775Y-38220793D01*
X67476849Y-38266848D01*
X67430794Y-38335774D01*
X67294397Y-38539906D01*
X67230328Y-38862000D01*
X67237401Y-38897560D01*
X67222000Y-38897560D01*
X66974235Y-38946843D01*
X66764191Y-39087191D01*
X66623843Y-39297235D01*
X66574560Y-39545000D01*
X66574560Y-39751500D01*
X64978303Y-39751500D01*
X64897000Y-39735328D01*
X64815698Y-39751500D01*
X63727440Y-39751500D01*
X63727440Y-39577000D01*
X63678157Y-39329235D01*
X63537809Y-39119191D01*
X63327765Y-38978843D01*
X63080000Y-38929560D01*
X61380000Y-38929560D01*
X61132235Y-38978843D01*
X60922191Y-39119191D01*
X60781843Y-39329235D01*
X60732560Y-39577000D01*
X60732560Y-39751500D01*
X59790440Y-39751500D01*
X59790440Y-39577000D01*
X59741157Y-39329235D01*
X59600809Y-39119191D01*
X59390765Y-38978843D01*
X59143000Y-38929560D01*
X57443000Y-38929560D01*
X57195235Y-38978843D01*
X56985191Y-39119191D01*
X56844843Y-39329235D01*
X56795560Y-39577000D01*
X56795560Y-39751500D01*
X56278297Y-39751500D01*
X56196999Y-39735329D01*
X56115701Y-39751500D01*
X56115697Y-39751500D01*
X55874906Y-39799396D01*
X55601848Y-39981848D01*
X55555793Y-40050774D01*
X53829775Y-41776793D01*
X53760849Y-41822848D01*
X53714794Y-41891774D01*
X53578397Y-42095906D01*
X53514328Y-42418000D01*
X53530501Y-42499306D01*
X53530500Y-44322067D01*
X52722067Y-45130501D01*
X52189440Y-45130501D01*
X52189440Y-44356001D01*
X52140157Y-44108236D01*
X51999809Y-43898192D01*
X51866307Y-43808988D01*
X51901699Y-43794328D01*
X52080327Y-43615699D01*
X52177000Y-43382310D01*
X52177000Y-41941751D01*
X52018250Y-41783001D01*
X50419000Y-41783001D01*
X50419000Y-41803001D01*
X50165000Y-41803001D01*
X50165000Y-41783001D01*
X48565750Y-41783001D01*
X48407000Y-41941751D01*
X48407000Y-43382310D01*
X48503673Y-43615699D01*
X48682301Y-43794328D01*
X48717693Y-43808988D01*
X48584191Y-43898192D01*
X48443843Y-44108236D01*
X48394560Y-44356001D01*
X48394560Y-45167327D01*
X48338906Y-45178397D01*
X48065848Y-45360849D01*
X48019793Y-45429775D01*
X47479775Y-45969794D01*
X47410849Y-46015849D01*
X47357262Y-46096047D01*
X47228397Y-46288907D01*
X47164328Y-46611001D01*
X47180501Y-46692307D01*
X47180500Y-55125699D01*
X47164328Y-55207001D01*
X47180500Y-55288302D01*
X47180500Y-55288303D01*
X47228396Y-55529094D01*
X47410848Y-55802153D01*
X47479777Y-55848210D01*
X48019793Y-56388227D01*
X48065848Y-56457153D01*
X48338906Y-56639605D01*
X48394560Y-56650675D01*
X48394560Y-57462001D01*
X48443843Y-57709766D01*
X48584191Y-57919810D01*
X48794235Y-58060158D01*
X49042000Y-58109441D01*
X49466501Y-58109441D01*
X49466501Y-61616498D01*
X49357765Y-61543843D01*
X49110000Y-61494560D01*
X47410000Y-61494560D01*
X47162235Y-61543843D01*
X46952191Y-61684191D01*
X46811843Y-61894235D01*
X46762560Y-62142000D01*
X46762560Y-63842000D01*
X46811843Y-64089765D01*
X46952191Y-64299809D01*
X47162235Y-64440157D01*
X47207619Y-64449184D01*
X47189375Y-64461375D01*
X46861161Y-64952582D01*
X46745908Y-65532000D01*
X46176000Y-65532000D01*
X46176000Y-39929692D01*
X48407000Y-39929692D01*
X48407000Y-41370251D01*
X48565750Y-41529001D01*
X50165000Y-41529001D01*
X50165000Y-39579751D01*
X50419000Y-39579751D01*
X50419000Y-41529001D01*
X52018250Y-41529001D01*
X52177000Y-41370251D01*
X52177000Y-39929692D01*
X52080327Y-39696303D01*
X51901699Y-39517674D01*
X51668310Y-39421001D01*
X50577750Y-39421001D01*
X50419000Y-39579751D01*
X50165000Y-39579751D01*
X50006250Y-39421001D01*
X48915690Y-39421001D01*
X48682301Y-39517674D01*
X48503673Y-39696303D01*
X48407000Y-39929692D01*
X46176000Y-39929692D01*
X46176000Y-35508000D01*
X98604001Y-35508000D01*
X98604000Y-99273908D01*
X98604000Y-99273908D01*
G37*
X98604000Y-99273908D02*
X97241910Y-100636000D01*
X86175920Y-100636000D01*
X86105999Y-100622092D01*
X86036078Y-100636000D01*
X86036074Y-100636000D01*
X85828972Y-100677195D01*
X85594119Y-100834119D01*
X85554509Y-100893400D01*
X83271910Y-103176000D01*
X51094091Y-103176000D01*
X48811494Y-100893404D01*
X48771881Y-100834119D01*
X48537028Y-100677195D01*
X48329926Y-100636000D01*
X48329924Y-100636000D01*
X48260000Y-100622091D01*
X48190076Y-100636000D01*
X46176000Y-100636000D01*
X46176000Y-88392000D01*
X46745908Y-88392000D01*
X46861161Y-88971418D01*
X47189375Y-89462625D01*
X47487761Y-89662000D01*
X47189375Y-89861375D01*
X46861161Y-90352582D01*
X46745908Y-90932000D01*
X46861161Y-91511418D01*
X47189375Y-92002625D01*
X47487761Y-92202000D01*
X47189375Y-92401375D01*
X46861161Y-92892582D01*
X46745908Y-93472000D01*
X46861161Y-94051418D01*
X47189375Y-94542625D01*
X47487761Y-94742000D01*
X47189375Y-94941375D01*
X46861161Y-95432582D01*
X46745908Y-96012000D01*
X46861161Y-96591418D01*
X47189375Y-97082625D01*
X47487761Y-97282000D01*
X47189375Y-97481375D01*
X46861161Y-97972582D01*
X46745908Y-98552000D01*
X46861161Y-99131418D01*
X47189375Y-99622625D01*
X47680582Y-99950839D01*
X48113744Y-100037000D01*
X48406256Y-100037000D01*
X48839418Y-99950839D01*
X49330625Y-99622625D01*
X49658839Y-99131418D01*
X49703102Y-98908890D01*
X51390524Y-98908890D01*
X51560355Y-99318924D01*
X51950642Y-99747183D01*
X52475108Y-99993486D01*
X52705000Y-99872819D01*
X52705000Y-98679000D01*
X51511845Y-98679000D01*
X51390524Y-98908890D01*
X49703102Y-98908890D01*
X49774092Y-98552000D01*
X49658839Y-97972582D01*
X49330625Y-97481375D01*
X49032239Y-97282000D01*
X49330625Y-97082625D01*
X49658839Y-96591418D01*
X49703102Y-96368890D01*
X51390524Y-96368890D01*
X51560355Y-96778924D01*
X51950642Y-97207183D01*
X52109954Y-97282000D01*
X51950642Y-97356817D01*
X51560355Y-97785076D01*
X51390524Y-98195110D01*
X51511845Y-98425000D01*
X52705000Y-98425000D01*
X52705000Y-96139000D01*
X51511845Y-96139000D01*
X51390524Y-96368890D01*
X49703102Y-96368890D01*
X49774092Y-96012000D01*
X49658839Y-95432582D01*
X49330625Y-94941375D01*
X49032239Y-94742000D01*
X49330625Y-94542625D01*
X49658839Y-94051418D01*
X49703102Y-93828890D01*
X51390524Y-93828890D01*
X51560355Y-94238924D01*
X51950642Y-94667183D01*
X52109954Y-94742000D01*
X51950642Y-94816817D01*
X51560355Y-95245076D01*
X51390524Y-95655110D01*
X51511845Y-95885000D01*
X52705000Y-95885000D01*
X52705000Y-93599000D01*
X51511845Y-93599000D01*
X51390524Y-93828890D01*
X49703102Y-93828890D01*
X49774092Y-93472000D01*
X49658839Y-92892582D01*
X49330625Y-92401375D01*
X49032239Y-92202000D01*
X49330625Y-92002625D01*
X49658839Y-91511418D01*
X49703102Y-91288890D01*
X51390524Y-91288890D01*
X51560355Y-91698924D01*
X51950642Y-92127183D01*
X52109954Y-92202000D01*
X51950642Y-92276817D01*
X51560355Y-92705076D01*
X51390524Y-93115110D01*
X51511845Y-93345000D01*
X52705000Y-93345000D01*
X52705000Y-91059000D01*
X51511845Y-91059000D01*
X51390524Y-91288890D01*
X49703102Y-91288890D01*
X49774092Y-90932000D01*
X49658839Y-90352582D01*
X49330625Y-89861375D01*
X49032239Y-89662000D01*
X49330625Y-89462625D01*
X49658839Y-88971418D01*
X49703102Y-88748890D01*
X51390524Y-88748890D01*
X51560355Y-89158924D01*
X51950642Y-89587183D01*
X52109954Y-89662000D01*
X51950642Y-89736817D01*
X51560355Y-90165076D01*
X51390524Y-90575110D01*
X51511845Y-90805000D01*
X52705000Y-90805000D01*
X52705000Y-88519000D01*
X51511845Y-88519000D01*
X51390524Y-88748890D01*
X49703102Y-88748890D01*
X49774092Y-88392000D01*
X49658839Y-87812582D01*
X49330625Y-87321375D01*
X49312381Y-87309184D01*
X49357765Y-87300157D01*
X49567809Y-87159809D01*
X49708157Y-86949765D01*
X49757440Y-86702000D01*
X49757440Y-86208890D01*
X51390524Y-86208890D01*
X51560355Y-86618924D01*
X51950642Y-87047183D01*
X52109954Y-87122000D01*
X51950642Y-87196817D01*
X51560355Y-87625076D01*
X51390524Y-88035110D01*
X51511845Y-88265000D01*
X52705000Y-88265000D01*
X52705000Y-85979000D01*
X51511845Y-85979000D01*
X51390524Y-86208890D01*
X49757440Y-86208890D01*
X49757440Y-85002000D01*
X49708157Y-84754235D01*
X49567809Y-84544191D01*
X49357765Y-84403843D01*
X49110000Y-84354560D01*
X47410000Y-84354560D01*
X47162235Y-84403843D01*
X46952191Y-84544191D01*
X46811843Y-84754235D01*
X46762560Y-85002000D01*
X46762560Y-86702000D01*
X46811843Y-86949765D01*
X46952191Y-87159809D01*
X47162235Y-87300157D01*
X47207619Y-87309184D01*
X47189375Y-87321375D01*
X46861161Y-87812582D01*
X46745908Y-88392000D01*
X46176000Y-88392000D01*
X46176000Y-83668890D01*
X51390524Y-83668890D01*
X51560355Y-84078924D01*
X51950642Y-84507183D01*
X52109954Y-84582000D01*
X51950642Y-84656817D01*
X51560355Y-85085076D01*
X51390524Y-85495110D01*
X51511845Y-85725000D01*
X52705000Y-85725000D01*
X52705000Y-83439000D01*
X51511845Y-83439000D01*
X51390524Y-83668890D01*
X46176000Y-83668890D01*
X46176000Y-80772000D01*
X46745908Y-80772000D01*
X46861161Y-81351418D01*
X47189375Y-81842625D01*
X47680582Y-82170839D01*
X48113744Y-82257000D01*
X48406256Y-82257000D01*
X48839418Y-82170839D01*
X49330625Y-81842625D01*
X49658839Y-81351418D01*
X49703102Y-81128890D01*
X51390524Y-81128890D01*
X51560355Y-81538924D01*
X51950642Y-81967183D01*
X52109954Y-82042000D01*
X51950642Y-82116817D01*
X51560355Y-82545076D01*
X51390524Y-82955110D01*
X51511845Y-83185000D01*
X52705000Y-83185000D01*
X52705000Y-80899000D01*
X51511845Y-80899000D01*
X51390524Y-81128890D01*
X49703102Y-81128890D01*
X49774092Y-80772000D01*
X49703103Y-80415110D01*
X51390524Y-80415110D01*
X51511845Y-80645000D01*
X52705000Y-80645000D01*
X52705000Y-79451181D01*
X52475108Y-79330514D01*
X51950642Y-79576817D01*
X51560355Y-80005076D01*
X51390524Y-80415110D01*
X49703103Y-80415110D01*
X49658839Y-80192582D01*
X49330625Y-79701375D01*
X49011522Y-79488157D01*
X49141358Y-79427183D01*
X49531645Y-78998924D01*
X49701476Y-78588890D01*
X49580155Y-78359000D01*
X48387000Y-78359000D01*
X48387000Y-78379000D01*
X48133000Y-78379000D01*
X48133000Y-78359000D01*
X46939845Y-78359000D01*
X46818524Y-78588890D01*
X46988355Y-78998924D01*
X47378642Y-79427183D01*
X47508478Y-79488157D01*
X47189375Y-79701375D01*
X46861161Y-80192582D01*
X46745908Y-80772000D01*
X46176000Y-80772000D01*
X46176000Y-76048890D01*
X46818524Y-76048890D01*
X46988355Y-76458924D01*
X47378642Y-76887183D01*
X47537954Y-76962000D01*
X47378642Y-77036817D01*
X46988355Y-77465076D01*
X46818524Y-77875110D01*
X46939845Y-78105000D01*
X48133000Y-78105000D01*
X48133000Y-75819000D01*
X48387000Y-75819000D01*
X48387000Y-78105000D01*
X49580155Y-78105000D01*
X49701476Y-77875110D01*
X49531645Y-77465076D01*
X49141358Y-77036817D01*
X48982046Y-76962000D01*
X49141358Y-76887183D01*
X49531645Y-76458924D01*
X49701476Y-76048890D01*
X49580155Y-75819000D01*
X48387000Y-75819000D01*
X48133000Y-75819000D01*
X46939845Y-75819000D01*
X46818524Y-76048890D01*
X46176000Y-76048890D01*
X46176000Y-65532000D01*
X46745908Y-65532000D01*
X46861161Y-66111418D01*
X47189375Y-66602625D01*
X47487761Y-66802000D01*
X47189375Y-67001375D01*
X46861161Y-67492582D01*
X46745908Y-68072000D01*
X46861161Y-68651418D01*
X47189375Y-69142625D01*
X47487761Y-69342000D01*
X47189375Y-69541375D01*
X46861161Y-70032582D01*
X46745908Y-70612000D01*
X46861161Y-71191418D01*
X47189375Y-71682625D01*
X47487761Y-71882000D01*
X47189375Y-72081375D01*
X46861161Y-72572582D01*
X46745908Y-73152000D01*
X46861161Y-73731418D01*
X47189375Y-74222625D01*
X47508478Y-74435843D01*
X47378642Y-74496817D01*
X46988355Y-74925076D01*
X46818524Y-75335110D01*
X46939845Y-75565000D01*
X48133000Y-75565000D01*
X48133000Y-75545000D01*
X48387000Y-75545000D01*
X48387000Y-75565000D01*
X49580155Y-75565000D01*
X49701476Y-75335110D01*
X49531645Y-74925076D01*
X49141358Y-74496817D01*
X49011522Y-74435843D01*
X49330625Y-74222625D01*
X49658839Y-73731418D01*
X49774092Y-73152000D01*
X49658839Y-72572582D01*
X49330625Y-72081375D01*
X49032239Y-71882000D01*
X49330625Y-71682625D01*
X49494412Y-71437500D01*
X49702699Y-71437500D01*
X49784000Y-71453672D01*
X49865301Y-71437500D01*
X49865303Y-71437500D01*
X50106094Y-71389604D01*
X50379152Y-71207152D01*
X50425209Y-71138224D01*
X50818226Y-70745207D01*
X50887152Y-70699152D01*
X51069604Y-70426094D01*
X51117500Y-70185303D01*
X51117500Y-70185299D01*
X51133671Y-70104001D01*
X51117500Y-70022703D01*
X51117500Y-58109441D01*
X51542000Y-58109441D01*
X51789765Y-58060158D01*
X51999809Y-57919810D01*
X52140157Y-57709766D01*
X52189440Y-57462001D01*
X52189440Y-54262001D01*
X52140157Y-54014236D01*
X51999809Y-53804192D01*
X51866307Y-53714988D01*
X51901699Y-53700328D01*
X52080327Y-53521699D01*
X52177000Y-53288310D01*
X52177000Y-51847751D01*
X52018250Y-51689001D01*
X50419000Y-51689001D01*
X50419000Y-51709001D01*
X50165000Y-51709001D01*
X50165000Y-51689001D01*
X50145000Y-51689001D01*
X50145000Y-51435001D01*
X50165000Y-51435001D01*
X50165000Y-49485751D01*
X50419000Y-49485751D01*
X50419000Y-51435001D01*
X52018250Y-51435001D01*
X52177000Y-51276251D01*
X52177000Y-49835692D01*
X52080327Y-49602303D01*
X51901699Y-49423674D01*
X51668310Y-49327001D01*
X50577750Y-49327001D01*
X50419000Y-49485751D01*
X50165000Y-49485751D01*
X50006250Y-49327001D01*
X48915690Y-49327001D01*
X48831500Y-49361874D01*
X48831500Y-48161570D01*
X49042000Y-48203441D01*
X51542000Y-48203441D01*
X51789765Y-48154158D01*
X51999809Y-48013810D01*
X52140157Y-47803766D01*
X52189440Y-47556001D01*
X52189440Y-46781501D01*
X52982698Y-46781501D01*
X53063999Y-46797673D01*
X53145300Y-46781501D01*
X53145302Y-46781501D01*
X53386093Y-46733605D01*
X53659151Y-46551153D01*
X53705208Y-46482224D01*
X54882226Y-45305207D01*
X54951152Y-45259152D01*
X55133604Y-44986094D01*
X55181500Y-44745303D01*
X55181500Y-44745299D01*
X55197671Y-44664001D01*
X55181500Y-44582703D01*
X55181500Y-42759932D01*
X56538933Y-41402500D01*
X56795560Y-41402500D01*
X56795560Y-41577000D01*
X56844843Y-41824765D01*
X56985191Y-42034809D01*
X57195235Y-42175157D01*
X57443000Y-42224440D01*
X59143000Y-42224440D01*
X59390765Y-42175157D01*
X59600809Y-42034809D01*
X59741157Y-41824765D01*
X59790440Y-41577000D01*
X59790440Y-41402500D01*
X60732560Y-41402500D01*
X60732560Y-41577000D01*
X60781843Y-41824765D01*
X60922191Y-42034809D01*
X61132235Y-42175157D01*
X61380000Y-42224440D01*
X63080000Y-42224440D01*
X63327765Y-42175157D01*
X63537809Y-42034809D01*
X63678157Y-41824765D01*
X63727440Y-41577000D01*
X63727440Y-41402500D01*
X64071501Y-41402500D01*
X64071500Y-49462067D01*
X61449775Y-52083793D01*
X61380849Y-52129848D01*
X61334794Y-52198774D01*
X61198397Y-52402906D01*
X61187327Y-52458560D01*
X60976000Y-52458560D01*
X60728235Y-52507843D01*
X60518191Y-52648191D01*
X60377843Y-52858235D01*
X60328560Y-53106000D01*
X60328560Y-55606000D01*
X60377843Y-55853765D01*
X60518191Y-56063809D01*
X60728235Y-56204157D01*
X60976000Y-56253440D01*
X61150500Y-56253440D01*
X61150500Y-57030560D01*
X60976000Y-57030560D01*
X60728235Y-57079843D01*
X60518191Y-57220191D01*
X60377843Y-57430235D01*
X60328560Y-57678000D01*
X60328560Y-60178000D01*
X60377843Y-60425765D01*
X60518191Y-60635809D01*
X60728235Y-60776157D01*
X60976000Y-60825440D01*
X61150501Y-60825440D01*
X61150500Y-62680067D01*
X60383068Y-63447500D01*
X57979986Y-63447500D01*
X57744000Y-63400560D01*
X57490670Y-63400560D01*
X57649652Y-63241578D01*
X57784994Y-62914833D01*
X57784994Y-62561167D01*
X57649652Y-62234422D01*
X57399572Y-61984342D01*
X57277000Y-61933571D01*
X57277000Y-61799167D01*
X57141658Y-61472422D01*
X56891578Y-61222342D01*
X56564833Y-61087000D01*
X56211167Y-61087000D01*
X55904561Y-61214000D01*
X55701047Y-61214000D01*
X55626000Y-61199072D01*
X55550953Y-61214000D01*
X55550952Y-61214000D01*
X55328683Y-61258212D01*
X55076629Y-61426629D01*
X55034116Y-61490254D01*
X54886241Y-61638129D01*
X54822619Y-61680640D01*
X54780108Y-61744262D01*
X54780107Y-61744263D01*
X54654202Y-61932694D01*
X54595062Y-62230011D01*
X54609990Y-62305059D01*
X54609989Y-64879946D01*
X54595062Y-64954989D01*
X54609989Y-65030032D01*
X54609989Y-65030036D01*
X54654201Y-65252305D01*
X54822618Y-65504360D01*
X54886242Y-65546872D01*
X55398118Y-66058749D01*
X55440629Y-66122371D01*
X55609000Y-66234873D01*
X55609000Y-66350002D01*
X55679408Y-66350002D01*
X55645843Y-66400235D01*
X55631647Y-66471603D01*
X55609000Y-66494250D01*
X55609000Y-66574310D01*
X55610498Y-66577927D01*
X55596560Y-66648000D01*
X55596560Y-67098000D01*
X55616451Y-67198000D01*
X55596560Y-67298000D01*
X55596560Y-67411000D01*
X54518630Y-67411000D01*
X54483000Y-67375370D01*
X54483000Y-59213750D01*
X56341000Y-59213750D01*
X56341000Y-60304310D01*
X56437673Y-60537699D01*
X56616302Y-60716327D01*
X56849691Y-60813000D01*
X57690250Y-60813000D01*
X57849000Y-60654250D01*
X57849000Y-59055000D01*
X58103000Y-59055000D01*
X58103000Y-60654250D01*
X58261750Y-60813000D01*
X59102309Y-60813000D01*
X59335698Y-60716327D01*
X59514327Y-60537699D01*
X59611000Y-60304310D01*
X59611000Y-59213750D01*
X59452250Y-59055000D01*
X58103000Y-59055000D01*
X57849000Y-59055000D01*
X56499750Y-59055000D01*
X56341000Y-59213750D01*
X54483000Y-59213750D01*
X54483000Y-57551690D01*
X56341000Y-57551690D01*
X56341000Y-58642250D01*
X56499750Y-58801000D01*
X57849000Y-58801000D01*
X57849000Y-57201750D01*
X58103000Y-57201750D01*
X58103000Y-58801000D01*
X59452250Y-58801000D01*
X59611000Y-58642250D01*
X59611000Y-57551690D01*
X59514327Y-57318301D01*
X59335698Y-57139673D01*
X59102309Y-57043000D01*
X58261750Y-57043000D01*
X58103000Y-57201750D01*
X57849000Y-57201750D01*
X57690250Y-57043000D01*
X56849691Y-57043000D01*
X56616302Y-57139673D01*
X56437673Y-57318301D01*
X56341000Y-57551690D01*
X54483000Y-57551690D01*
X54483000Y-54655630D01*
X54496880Y-54641750D01*
X56341000Y-54641750D01*
X56341000Y-55732310D01*
X56437673Y-55965699D01*
X56616302Y-56144327D01*
X56849691Y-56241000D01*
X57690250Y-56241000D01*
X57849000Y-56082250D01*
X57849000Y-54483000D01*
X58103000Y-54483000D01*
X58103000Y-56082250D01*
X58261750Y-56241000D01*
X59102309Y-56241000D01*
X59335698Y-56144327D01*
X59514327Y-55965699D01*
X59611000Y-55732310D01*
X59611000Y-54641750D01*
X59452250Y-54483000D01*
X58103000Y-54483000D01*
X57849000Y-54483000D01*
X56499750Y-54483000D01*
X56341000Y-54641750D01*
X54496880Y-54641750D01*
X56158940Y-52979690D01*
X56341000Y-52979690D01*
X56341000Y-54070250D01*
X56499750Y-54229000D01*
X57849000Y-54229000D01*
X57849000Y-52629750D01*
X58103000Y-52629750D01*
X58103000Y-54229000D01*
X59452250Y-54229000D01*
X59611000Y-54070250D01*
X59611000Y-52979690D01*
X59514327Y-52746301D01*
X59335698Y-52567673D01*
X59102309Y-52471000D01*
X58261750Y-52471000D01*
X58103000Y-52629750D01*
X57849000Y-52629750D01*
X57690250Y-52471000D01*
X56849691Y-52471000D01*
X56616302Y-52567673D01*
X56437673Y-52746301D01*
X56341000Y-52979690D01*
X56158940Y-52979690D01*
X62715750Y-46422881D01*
X62779371Y-46380371D01*
X62847710Y-46278095D01*
X62883561Y-46224440D01*
X63080000Y-46224440D01*
X63327765Y-46175157D01*
X63537809Y-46034809D01*
X63678157Y-45824765D01*
X63727440Y-45577000D01*
X63727440Y-43577000D01*
X63678157Y-43329235D01*
X63537809Y-43119191D01*
X63327765Y-42978843D01*
X63080000Y-42929560D01*
X61380000Y-42929560D01*
X61132235Y-42978843D01*
X60922191Y-43119191D01*
X60796700Y-43307000D01*
X59726300Y-43307000D01*
X59600809Y-43119191D01*
X59390765Y-42978843D01*
X59143000Y-42929560D01*
X57443000Y-42929560D01*
X57195235Y-42978843D01*
X56985191Y-43119191D01*
X56844843Y-43329235D01*
X56795560Y-43577000D01*
X56795560Y-45577000D01*
X56844843Y-45824765D01*
X56985191Y-46034809D01*
X57195235Y-46175157D01*
X57443000Y-46224440D01*
X57531000Y-46224440D01*
X57531001Y-48877617D01*
X52828842Y-53579777D01*
X52765218Y-53622289D01*
X52596801Y-53874344D01*
X52552589Y-54096613D01*
X52552589Y-54096617D01*
X52537662Y-54171660D01*
X52552589Y-54246703D01*
X52552590Y-67971541D01*
X52537662Y-68046589D01*
X52596802Y-68343906D01*
X52718261Y-68525682D01*
X52765219Y-68595960D01*
X52828840Y-68638470D01*
X53499117Y-69308748D01*
X53541629Y-69372371D01*
X53605251Y-69414882D01*
X53654799Y-69447989D01*
X53793683Y-69540788D01*
X54015952Y-69585000D01*
X54015957Y-69585000D01*
X54091000Y-69599927D01*
X54166043Y-69585000D01*
X55904708Y-69585000D01*
X55996235Y-69646157D01*
X56244000Y-69695440D01*
X57403945Y-69695440D01*
X57403946Y-79059423D01*
X56807731Y-79655638D01*
X56679809Y-79464191D01*
X56469765Y-79323843D01*
X56222000Y-79274560D01*
X54522000Y-79274560D01*
X54274235Y-79323843D01*
X54064191Y-79464191D01*
X53923843Y-79674235D01*
X53902039Y-79783855D01*
X53713358Y-79576817D01*
X53188892Y-79330514D01*
X52959000Y-79451181D01*
X52959000Y-80645000D01*
X52979000Y-80645000D01*
X52979000Y-80899000D01*
X52959000Y-80899000D01*
X52959000Y-83185000D01*
X52979000Y-83185000D01*
X52979000Y-83439000D01*
X52959000Y-83439000D01*
X52959000Y-85725000D01*
X52979000Y-85725000D01*
X52979000Y-85979000D01*
X52959000Y-85979000D01*
X52959000Y-88265000D01*
X52979000Y-88265000D01*
X52979000Y-88519000D01*
X52959000Y-88519000D01*
X52959000Y-90805000D01*
X52979000Y-90805000D01*
X52979000Y-91059000D01*
X52959000Y-91059000D01*
X52959000Y-93345000D01*
X52979000Y-93345000D01*
X52979000Y-93599000D01*
X52959000Y-93599000D01*
X52959000Y-95885000D01*
X52979000Y-95885000D01*
X52979000Y-96139000D01*
X52959000Y-96139000D01*
X52959000Y-98425000D01*
X52979000Y-98425000D01*
X52979000Y-98679000D01*
X52959000Y-98679000D01*
X52959000Y-99872819D01*
X53188892Y-99993486D01*
X53713358Y-99747183D01*
X54100647Y-99322214D01*
X54301375Y-99622625D01*
X54792582Y-99950839D01*
X55225744Y-100037000D01*
X55518256Y-100037000D01*
X55951418Y-99950839D01*
X56442625Y-99622625D01*
X56648842Y-99314000D01*
X56820957Y-99314000D01*
X56896000Y-99328927D01*
X56971043Y-99314000D01*
X56971048Y-99314000D01*
X57193317Y-99269788D01*
X57445371Y-99101371D01*
X57487883Y-99037747D01*
X57489740Y-99035890D01*
X65551024Y-99035890D01*
X65720855Y-99445924D01*
X66111142Y-99874183D01*
X66635608Y-100120486D01*
X66865500Y-99999819D01*
X66865500Y-98806000D01*
X65672345Y-98806000D01*
X65551024Y-99035890D01*
X57489740Y-99035890D01*
X60029740Y-96495890D01*
X65551024Y-96495890D01*
X65720855Y-96905924D01*
X66111142Y-97334183D01*
X66270454Y-97409000D01*
X66111142Y-97483817D01*
X65720855Y-97912076D01*
X65551024Y-98322110D01*
X65672345Y-98552000D01*
X66865500Y-98552000D01*
X66865500Y-96266000D01*
X65672345Y-96266000D01*
X65551024Y-96495890D01*
X60029740Y-96495890D01*
X61953749Y-94571882D01*
X62017371Y-94529371D01*
X62093374Y-94415625D01*
X62185787Y-94277319D01*
X62185787Y-94277318D01*
X62185788Y-94277317D01*
X62230000Y-94055048D01*
X62230000Y-94055044D01*
X62244927Y-93980001D01*
X62240132Y-93955890D01*
X65551024Y-93955890D01*
X65720855Y-94365924D01*
X66111142Y-94794183D01*
X66270454Y-94869000D01*
X66111142Y-94943817D01*
X65720855Y-95372076D01*
X65551024Y-95782110D01*
X65672345Y-96012000D01*
X66865500Y-96012000D01*
X66865500Y-93726000D01*
X65672345Y-93726000D01*
X65551024Y-93955890D01*
X62240132Y-93955890D01*
X62230000Y-93904958D01*
X62230000Y-91415890D01*
X65551024Y-91415890D01*
X65720855Y-91825924D01*
X66111142Y-92254183D01*
X66270454Y-92329000D01*
X66111142Y-92403817D01*
X65720855Y-92832076D01*
X65551024Y-93242110D01*
X65672345Y-93472000D01*
X66865500Y-93472000D01*
X66865500Y-91186000D01*
X65672345Y-91186000D01*
X65551024Y-91415890D01*
X62230000Y-91415890D01*
X62230000Y-88875890D01*
X65551024Y-88875890D01*
X65720855Y-89285924D01*
X66111142Y-89714183D01*
X66270454Y-89789000D01*
X66111142Y-89863817D01*
X65720855Y-90292076D01*
X65551024Y-90702110D01*
X65672345Y-90932000D01*
X66865500Y-90932000D01*
X66865500Y-88646000D01*
X65672345Y-88646000D01*
X65551024Y-88875890D01*
X62230000Y-88875890D01*
X62230000Y-86335890D01*
X65551024Y-86335890D01*
X65720855Y-86745924D01*
X66111142Y-87174183D01*
X66270454Y-87249000D01*
X66111142Y-87323817D01*
X65720855Y-87752076D01*
X65551024Y-88162110D01*
X65672345Y-88392000D01*
X66865500Y-88392000D01*
X66865500Y-86106000D01*
X65672345Y-86106000D01*
X65551024Y-86335890D01*
X62230000Y-86335890D01*
X62230000Y-83795890D01*
X65551024Y-83795890D01*
X65720855Y-84205924D01*
X66111142Y-84634183D01*
X66270454Y-84709000D01*
X66111142Y-84783817D01*
X65720855Y-85212076D01*
X65551024Y-85622110D01*
X65672345Y-85852000D01*
X66865500Y-85852000D01*
X66865500Y-83566000D01*
X65672345Y-83566000D01*
X65551024Y-83795890D01*
X62230000Y-83795890D01*
X62230000Y-81255890D01*
X65551024Y-81255890D01*
X65720855Y-81665924D01*
X66111142Y-82094183D01*
X66270454Y-82169000D01*
X66111142Y-82243817D01*
X65720855Y-82672076D01*
X65551024Y-83082110D01*
X65672345Y-83312000D01*
X66865500Y-83312000D01*
X66865500Y-81026000D01*
X65672345Y-81026000D01*
X65551024Y-81255890D01*
X62230000Y-81255890D01*
X62230000Y-80542110D01*
X65551024Y-80542110D01*
X65672345Y-80772000D01*
X66865500Y-80772000D01*
X66865500Y-79578181D01*
X66635608Y-79457514D01*
X66111142Y-79703817D01*
X65720855Y-80132076D01*
X65551024Y-80542110D01*
X62230000Y-80542110D01*
X62230000Y-69695440D01*
X63644000Y-69695440D01*
X63891765Y-69646157D01*
X64101809Y-69505809D01*
X64242157Y-69295765D01*
X64291440Y-69048000D01*
X64291440Y-68598000D01*
X64271549Y-68498000D01*
X64291440Y-68398000D01*
X64291440Y-67948000D01*
X64271549Y-67848000D01*
X64291440Y-67748000D01*
X64291440Y-67298000D01*
X64271549Y-67198000D01*
X64291440Y-67098000D01*
X64291440Y-66648000D01*
X64271549Y-66548000D01*
X64291440Y-66448000D01*
X64291440Y-65998000D01*
X64271549Y-65898000D01*
X64291440Y-65798000D01*
X64291440Y-65348000D01*
X64271549Y-65248000D01*
X64291440Y-65148000D01*
X64291440Y-64698000D01*
X64271549Y-64598000D01*
X64291440Y-64498000D01*
X64291440Y-64048000D01*
X64242157Y-63800235D01*
X64101809Y-63590191D01*
X63891765Y-63449843D01*
X63644000Y-63400560D01*
X62715875Y-63400560D01*
X62753604Y-63344094D01*
X62801500Y-63103303D01*
X62801500Y-63103299D01*
X62817671Y-63022001D01*
X62801500Y-62940703D01*
X62801500Y-60825440D01*
X62976000Y-60825440D01*
X63223765Y-60776157D01*
X63433809Y-60635809D01*
X63574157Y-60425765D01*
X63623440Y-60178000D01*
X63623440Y-57678000D01*
X63574157Y-57430235D01*
X63433809Y-57220191D01*
X63223765Y-57079843D01*
X62976000Y-57030560D01*
X62801500Y-57030560D01*
X62801500Y-56253440D01*
X62976000Y-56253440D01*
X63223765Y-56204157D01*
X63433809Y-56063809D01*
X63574157Y-55853765D01*
X63623440Y-55606000D01*
X63623440Y-53106000D01*
X63574157Y-52858235D01*
X63433809Y-52648191D01*
X63305785Y-52562647D01*
X65423226Y-50445207D01*
X65492152Y-50399152D01*
X65648608Y-50165000D01*
X65674604Y-50126095D01*
X65738672Y-49804000D01*
X65722500Y-49722697D01*
X65722500Y-41402500D01*
X66574560Y-41402500D01*
X66574560Y-41545000D01*
X66623843Y-41792765D01*
X66764191Y-42002809D01*
X66974235Y-42143157D01*
X67222000Y-42192440D01*
X68922000Y-42192440D01*
X69169765Y-42143157D01*
X69379809Y-42002809D01*
X69520157Y-41792765D01*
X69569440Y-41545000D01*
X69569440Y-40862750D01*
X70651000Y-40862750D01*
X70651000Y-41703309D01*
X70747673Y-41936698D01*
X70926301Y-42115327D01*
X71159690Y-42212000D01*
X71850250Y-42212000D01*
X72009000Y-42053250D01*
X72009000Y-40704000D01*
X72263000Y-40704000D01*
X72263000Y-42053250D01*
X72421750Y-42212000D01*
X73112310Y-42212000D01*
X73345699Y-42115327D01*
X73524327Y-41936698D01*
X73621000Y-41703309D01*
X73621000Y-40862750D01*
X73462250Y-40704000D01*
X72263000Y-40704000D01*
X72009000Y-40704000D01*
X70809750Y-40704000D01*
X70651000Y-40862750D01*
X69569440Y-40862750D01*
X69569440Y-39545000D01*
X69550681Y-39450691D01*
X70651000Y-39450691D01*
X70651000Y-40291250D01*
X70809750Y-40450000D01*
X72009000Y-40450000D01*
X72009000Y-39100750D01*
X72263000Y-39100750D01*
X72263000Y-40450000D01*
X73462250Y-40450000D01*
X73621000Y-40291250D01*
X73621000Y-39450691D01*
X73524327Y-39217302D01*
X73345699Y-39038673D01*
X73112310Y-38942000D01*
X72421750Y-38942000D01*
X72263000Y-39100750D01*
X72009000Y-39100750D01*
X71850250Y-38942000D01*
X71159690Y-38942000D01*
X70926301Y-39038673D01*
X70747673Y-39217302D01*
X70651000Y-39450691D01*
X69550681Y-39450691D01*
X69520157Y-39297235D01*
X69379809Y-39087191D01*
X69169765Y-38946843D01*
X69157107Y-38944325D01*
X69175933Y-38925500D01*
X74993501Y-38925500D01*
X74993500Y-52458560D01*
X74845999Y-52458560D01*
X74598234Y-52507843D01*
X74388190Y-52648191D01*
X74247842Y-52858235D01*
X74198559Y-53106000D01*
X74198559Y-55606000D01*
X74247842Y-55853765D01*
X74388190Y-56063809D01*
X74598234Y-56204157D01*
X74845999Y-56253440D01*
X75020499Y-56253440D01*
X75020499Y-57014559D01*
X74845999Y-57014559D01*
X74598234Y-57063842D01*
X74388190Y-57204190D01*
X74247842Y-57414234D01*
X74198559Y-57661999D01*
X74198559Y-60161999D01*
X74247842Y-60409764D01*
X74388190Y-60619808D01*
X74598234Y-60760156D01*
X74845999Y-60809439D01*
X75020500Y-60809439D01*
X75020499Y-62780067D01*
X74334068Y-63466500D01*
X72271823Y-63466500D01*
X72176303Y-63447500D01*
X72176301Y-63447500D01*
X72095000Y-63431328D01*
X72013699Y-63447500D01*
X71949986Y-63447500D01*
X71714000Y-63400560D01*
X70358000Y-63400560D01*
X70358000Y-63221439D01*
X70485000Y-62914833D01*
X70485000Y-62561167D01*
X70349658Y-62234422D01*
X70099578Y-61984342D01*
X69811910Y-61865186D01*
X69811910Y-61799167D01*
X69676568Y-61472422D01*
X69426488Y-61222342D01*
X69099743Y-61087000D01*
X68746077Y-61087000D01*
X68419332Y-61222342D01*
X68169252Y-61472422D01*
X68033910Y-61799167D01*
X68033910Y-62152833D01*
X68160911Y-62459441D01*
X68160910Y-65037867D01*
X68145983Y-65112910D01*
X68160910Y-65187953D01*
X68160910Y-65187957D01*
X68205122Y-65410226D01*
X68373539Y-65662281D01*
X68437164Y-65704794D01*
X68791116Y-66058746D01*
X68833629Y-66122371D01*
X69085683Y-66290788D01*
X69307952Y-66335000D01*
X69307953Y-66335000D01*
X69383000Y-66349928D01*
X69458047Y-66335000D01*
X69579000Y-66335000D01*
X69579000Y-66350002D01*
X69649408Y-66350002D01*
X69615843Y-66400235D01*
X69601647Y-66471603D01*
X69579000Y-66494250D01*
X69579000Y-66574310D01*
X69580498Y-66577927D01*
X69566560Y-66648000D01*
X69566560Y-67098000D01*
X69586451Y-67198000D01*
X69566560Y-67298000D01*
X69566560Y-67411000D01*
X68742631Y-67411000D01*
X67462411Y-66130781D01*
X67462411Y-59197749D01*
X70210999Y-59197749D01*
X70210999Y-60288309D01*
X70307672Y-60521698D01*
X70486301Y-60700326D01*
X70719690Y-60796999D01*
X71560249Y-60796999D01*
X71718999Y-60638249D01*
X71718999Y-59038999D01*
X71972999Y-59038999D01*
X71972999Y-60638249D01*
X72131749Y-60796999D01*
X72972308Y-60796999D01*
X73205697Y-60700326D01*
X73384326Y-60521698D01*
X73480999Y-60288309D01*
X73480999Y-59197749D01*
X73322249Y-59038999D01*
X71972999Y-59038999D01*
X71718999Y-59038999D01*
X70369749Y-59038999D01*
X70210999Y-59197749D01*
X67462411Y-59197749D01*
X67462411Y-57535689D01*
X70210999Y-57535689D01*
X70210999Y-58626249D01*
X70369749Y-58784999D01*
X71718999Y-58784999D01*
X71718999Y-57185749D01*
X71972999Y-57185749D01*
X71972999Y-58784999D01*
X73322249Y-58784999D01*
X73480999Y-58626249D01*
X73480999Y-57535689D01*
X73384326Y-57302300D01*
X73205697Y-57123672D01*
X72972308Y-57026999D01*
X72131749Y-57026999D01*
X71972999Y-57185749D01*
X71718999Y-57185749D01*
X71560249Y-57026999D01*
X70719690Y-57026999D01*
X70486301Y-57123672D01*
X70307672Y-57302300D01*
X70210999Y-57535689D01*
X67462411Y-57535689D01*
X67462411Y-54641750D01*
X70210999Y-54641750D01*
X70210999Y-55732310D01*
X70307672Y-55965699D01*
X70486301Y-56144327D01*
X70719690Y-56241000D01*
X71560249Y-56241000D01*
X71718999Y-56082250D01*
X71718999Y-54483000D01*
X71972999Y-54483000D01*
X71972999Y-56082250D01*
X72131749Y-56241000D01*
X72972308Y-56241000D01*
X73205697Y-56144327D01*
X73384326Y-55965699D01*
X73480999Y-55732310D01*
X73480999Y-54641750D01*
X73322249Y-54483000D01*
X71972999Y-54483000D01*
X71718999Y-54483000D01*
X70369749Y-54483000D01*
X70210999Y-54641750D01*
X67462411Y-54641750D01*
X67462411Y-52979690D01*
X70210999Y-52979690D01*
X70210999Y-54070250D01*
X70369749Y-54229000D01*
X71718999Y-54229000D01*
X71718999Y-52629750D01*
X71972999Y-52629750D01*
X71972999Y-54229000D01*
X73322249Y-54229000D01*
X73480999Y-54070250D01*
X73480999Y-52979690D01*
X73384326Y-52746301D01*
X73205697Y-52567673D01*
X72972308Y-52471000D01*
X72131749Y-52471000D01*
X71972999Y-52629750D01*
X71718999Y-52629750D01*
X71560249Y-52471000D01*
X70719690Y-52471000D01*
X70486301Y-52567673D01*
X70307672Y-52746301D01*
X70210999Y-52979690D01*
X67462411Y-52979690D01*
X67462411Y-52233219D01*
X72621749Y-47073882D01*
X72685371Y-47031371D01*
X72740658Y-46948629D01*
X72827414Y-46818788D01*
X72853788Y-46779317D01*
X72898000Y-46557048D01*
X72898000Y-46557047D01*
X72912928Y-46482000D01*
X72898000Y-46406953D01*
X72898000Y-46224440D01*
X72986000Y-46224440D01*
X73233765Y-46175157D01*
X73443809Y-46034809D01*
X73584157Y-45824765D01*
X73633440Y-45577000D01*
X73633440Y-43577000D01*
X73584157Y-43329235D01*
X73443809Y-43119191D01*
X73233765Y-42978843D01*
X72986000Y-42929560D01*
X71286000Y-42929560D01*
X71038235Y-42978843D01*
X70828191Y-43119191D01*
X70702700Y-43307000D01*
X69522099Y-43307000D01*
X69520157Y-43297235D01*
X69379809Y-43087191D01*
X69169765Y-42946843D01*
X68922000Y-42897560D01*
X67222000Y-42897560D01*
X66974235Y-42946843D01*
X66764191Y-43087191D01*
X66623843Y-43297235D01*
X66574560Y-43545000D01*
X66574560Y-45545000D01*
X66623843Y-45792765D01*
X66764191Y-46002809D01*
X66974235Y-46143157D01*
X67222000Y-46192440D01*
X67310000Y-46192440D01*
X67310001Y-49655617D01*
X65808253Y-51157366D01*
X65744629Y-51199878D01*
X65576212Y-51451933D01*
X65532000Y-51674202D01*
X65532000Y-51674206D01*
X65517073Y-51749249D01*
X65532000Y-51824292D01*
X65532001Y-66539703D01*
X65517073Y-66614751D01*
X65576213Y-66912068D01*
X65701927Y-67100212D01*
X65744630Y-67164122D01*
X65808251Y-67206632D01*
X67910366Y-69308748D01*
X67952878Y-69372371D01*
X68016500Y-69414882D01*
X68066048Y-69447989D01*
X68204932Y-69540788D01*
X68427201Y-69585000D01*
X68427202Y-69585000D01*
X68502249Y-69599928D01*
X68577296Y-69585000D01*
X69874708Y-69585000D01*
X69966235Y-69646157D01*
X70214000Y-69695440D01*
X71374000Y-69695440D01*
X71374001Y-79109447D01*
X71374000Y-79109452D01*
X71374000Y-79440369D01*
X70986045Y-79828324D01*
X70980657Y-79801235D01*
X70840309Y-79591191D01*
X70630265Y-79450843D01*
X70382500Y-79401560D01*
X68682500Y-79401560D01*
X68434735Y-79450843D01*
X68224691Y-79591191D01*
X68084343Y-79801235D01*
X68062539Y-79910855D01*
X67873858Y-79703817D01*
X67349392Y-79457514D01*
X67119500Y-79578181D01*
X67119500Y-80772000D01*
X67139500Y-80772000D01*
X67139500Y-81026000D01*
X67119500Y-81026000D01*
X67119500Y-83312000D01*
X67139500Y-83312000D01*
X67139500Y-83566000D01*
X67119500Y-83566000D01*
X67119500Y-85852000D01*
X67139500Y-85852000D01*
X67139500Y-86106000D01*
X67119500Y-86106000D01*
X67119500Y-88392000D01*
X67139500Y-88392000D01*
X67139500Y-88646000D01*
X67119500Y-88646000D01*
X67119500Y-90932000D01*
X67139500Y-90932000D01*
X67139500Y-91186000D01*
X67119500Y-91186000D01*
X67119500Y-93472000D01*
X67139500Y-93472000D01*
X67139500Y-93726000D01*
X67119500Y-93726000D01*
X67119500Y-96012000D01*
X67139500Y-96012000D01*
X67139500Y-96266000D01*
X67119500Y-96266000D01*
X67119500Y-98552000D01*
X67139500Y-98552000D01*
X67139500Y-98806000D01*
X67119500Y-98806000D01*
X67119500Y-99999819D01*
X67349392Y-100120486D01*
X67873858Y-99874183D01*
X68261147Y-99449214D01*
X68461875Y-99749625D01*
X68953082Y-100077839D01*
X69386244Y-100164000D01*
X69678756Y-100164000D01*
X70111918Y-100077839D01*
X70603125Y-99749625D01*
X70809342Y-99441000D01*
X70917957Y-99441000D01*
X70993000Y-99455927D01*
X71068043Y-99441000D01*
X71068048Y-99441000D01*
X71290317Y-99396788D01*
X71542371Y-99228371D01*
X71584883Y-99164747D01*
X71967740Y-98781890D01*
X79838524Y-98781890D01*
X80008355Y-99191924D01*
X80398642Y-99620183D01*
X80923108Y-99866486D01*
X81153000Y-99745819D01*
X81153000Y-98552000D01*
X79959845Y-98552000D01*
X79838524Y-98781890D01*
X71967740Y-98781890D01*
X74507740Y-96241890D01*
X79838524Y-96241890D01*
X80008355Y-96651924D01*
X80398642Y-97080183D01*
X80557954Y-97155000D01*
X80398642Y-97229817D01*
X80008355Y-97658076D01*
X79838524Y-98068110D01*
X79959845Y-98298000D01*
X81153000Y-98298000D01*
X81153000Y-96012000D01*
X79959845Y-96012000D01*
X79838524Y-96241890D01*
X74507740Y-96241890D01*
X75923750Y-94825881D01*
X75987371Y-94783371D01*
X76044739Y-94697514D01*
X76155787Y-94531319D01*
X76155787Y-94531318D01*
X76155788Y-94531317D01*
X76200000Y-94309048D01*
X76200000Y-94309044D01*
X76214927Y-94234001D01*
X76200000Y-94158958D01*
X76200000Y-93701890D01*
X79838524Y-93701890D01*
X80008355Y-94111924D01*
X80398642Y-94540183D01*
X80557954Y-94615000D01*
X80398642Y-94689817D01*
X80008355Y-95118076D01*
X79838524Y-95528110D01*
X79959845Y-95758000D01*
X81153000Y-95758000D01*
X81153000Y-93472000D01*
X79959845Y-93472000D01*
X79838524Y-93701890D01*
X76200000Y-93701890D01*
X76200000Y-91161890D01*
X79838524Y-91161890D01*
X80008355Y-91571924D01*
X80398642Y-92000183D01*
X80557954Y-92075000D01*
X80398642Y-92149817D01*
X80008355Y-92578076D01*
X79838524Y-92988110D01*
X79959845Y-93218000D01*
X81153000Y-93218000D01*
X81153000Y-90932000D01*
X79959845Y-90932000D01*
X79838524Y-91161890D01*
X76200000Y-91161890D01*
X76200000Y-88621890D01*
X79838524Y-88621890D01*
X80008355Y-89031924D01*
X80398642Y-89460183D01*
X80557954Y-89535000D01*
X80398642Y-89609817D01*
X80008355Y-90038076D01*
X79838524Y-90448110D01*
X79959845Y-90678000D01*
X81153000Y-90678000D01*
X81153000Y-88392000D01*
X79959845Y-88392000D01*
X79838524Y-88621890D01*
X76200000Y-88621890D01*
X76200000Y-86081890D01*
X79838524Y-86081890D01*
X80008355Y-86491924D01*
X80398642Y-86920183D01*
X80557954Y-86995000D01*
X80398642Y-87069817D01*
X80008355Y-87498076D01*
X79838524Y-87908110D01*
X79959845Y-88138000D01*
X81153000Y-88138000D01*
X81153000Y-85852000D01*
X79959845Y-85852000D01*
X79838524Y-86081890D01*
X76200000Y-86081890D01*
X76200000Y-83541890D01*
X79838524Y-83541890D01*
X80008355Y-83951924D01*
X80398642Y-84380183D01*
X80557954Y-84455000D01*
X80398642Y-84529817D01*
X80008355Y-84958076D01*
X79838524Y-85368110D01*
X79959845Y-85598000D01*
X81153000Y-85598000D01*
X81153000Y-83312000D01*
X79959845Y-83312000D01*
X79838524Y-83541890D01*
X76200000Y-83541890D01*
X76200000Y-81001890D01*
X79838524Y-81001890D01*
X80008355Y-81411924D01*
X80398642Y-81840183D01*
X80557954Y-81915000D01*
X80398642Y-81989817D01*
X80008355Y-82418076D01*
X79838524Y-82828110D01*
X79959845Y-83058000D01*
X81153000Y-83058000D01*
X81153000Y-80772000D01*
X79959845Y-80772000D01*
X79838524Y-81001890D01*
X76200000Y-81001890D01*
X76200000Y-80288110D01*
X79838524Y-80288110D01*
X79959845Y-80518000D01*
X81153000Y-80518000D01*
X81153000Y-79324181D01*
X80923108Y-79203514D01*
X80398642Y-79449817D01*
X80008355Y-79878076D01*
X79838524Y-80288110D01*
X76200000Y-80288110D01*
X76200000Y-69695440D01*
X77614000Y-69695440D01*
X77861765Y-69646157D01*
X78071809Y-69505809D01*
X78212157Y-69295765D01*
X78261440Y-69048000D01*
X78261440Y-68598000D01*
X78241549Y-68498000D01*
X78261440Y-68398000D01*
X78261440Y-67948000D01*
X78241549Y-67848000D01*
X78261440Y-67748000D01*
X78261440Y-67298000D01*
X78241549Y-67198000D01*
X78261440Y-67098000D01*
X78261440Y-66648000D01*
X78241549Y-66548000D01*
X78261440Y-66448000D01*
X78261440Y-65998000D01*
X78241549Y-65898000D01*
X78261440Y-65798000D01*
X78261440Y-65348000D01*
X78241549Y-65248000D01*
X78261440Y-65148000D01*
X78261440Y-64698000D01*
X78241549Y-64598000D01*
X78261440Y-64498000D01*
X78261440Y-64048000D01*
X78212157Y-63800235D01*
X78071809Y-63590191D01*
X77861765Y-63449843D01*
X77614000Y-63400560D01*
X76632263Y-63400560D01*
X76671499Y-63203304D01*
X76671499Y-63203300D01*
X76687670Y-63122002D01*
X76671499Y-63040704D01*
X76671499Y-60809439D01*
X76845999Y-60809439D01*
X77093764Y-60760156D01*
X77303808Y-60619808D01*
X77444156Y-60409764D01*
X77493439Y-60161999D01*
X77493439Y-57661999D01*
X77444156Y-57414234D01*
X77303808Y-57204190D01*
X77093764Y-57063842D01*
X76845999Y-57014559D01*
X76671499Y-57014559D01*
X76671499Y-56253440D01*
X76845999Y-56253440D01*
X77093764Y-56204157D01*
X77303808Y-56063809D01*
X77444156Y-55853765D01*
X77493439Y-55606000D01*
X77493439Y-53106000D01*
X77444156Y-52858235D01*
X77303808Y-52648191D01*
X77093764Y-52507843D01*
X76845999Y-52458560D01*
X76644500Y-52458560D01*
X76644500Y-40862250D01*
X77890000Y-40862250D01*
X77890000Y-41702809D01*
X77986673Y-41936198D01*
X78165301Y-42114827D01*
X78398690Y-42211500D01*
X79089250Y-42211500D01*
X79248000Y-42052750D01*
X79248000Y-40703500D01*
X79502000Y-40703500D01*
X79502000Y-42052750D01*
X79660750Y-42211500D01*
X80351310Y-42211500D01*
X80584699Y-42114827D01*
X80763327Y-41936198D01*
X80860000Y-41702809D01*
X80860000Y-40862250D01*
X81954000Y-40862250D01*
X81954000Y-41702809D01*
X82050673Y-41936198D01*
X82229301Y-42114827D01*
X82462690Y-42211500D01*
X83153250Y-42211500D01*
X83312000Y-42052750D01*
X83312000Y-40703500D01*
X83566000Y-40703500D01*
X83566000Y-42052750D01*
X83724750Y-42211500D01*
X84415310Y-42211500D01*
X84648699Y-42114827D01*
X84827327Y-41936198D01*
X84924000Y-41702809D01*
X84924000Y-40862250D01*
X84765250Y-40703500D01*
X83566000Y-40703500D01*
X83312000Y-40703500D01*
X82112750Y-40703500D01*
X81954000Y-40862250D01*
X80860000Y-40862250D01*
X80701250Y-40703500D01*
X79502000Y-40703500D01*
X79248000Y-40703500D01*
X78048750Y-40703500D01*
X77890000Y-40862250D01*
X76644500Y-40862250D01*
X76644500Y-39450191D01*
X77890000Y-39450191D01*
X77890000Y-40290750D01*
X78048750Y-40449500D01*
X79248000Y-40449500D01*
X79248000Y-39100250D01*
X79502000Y-39100250D01*
X79502000Y-40449500D01*
X80701250Y-40449500D01*
X80860000Y-40290750D01*
X80860000Y-39450191D01*
X81954000Y-39450191D01*
X81954000Y-40290750D01*
X82112750Y-40449500D01*
X83312000Y-40449500D01*
X83312000Y-39100250D01*
X83566000Y-39100250D01*
X83566000Y-40449500D01*
X84765250Y-40449500D01*
X84924000Y-40290750D01*
X84924000Y-39450191D01*
X84827327Y-39216802D01*
X84648699Y-39038173D01*
X84415310Y-38941500D01*
X83724750Y-38941500D01*
X83566000Y-39100250D01*
X83312000Y-39100250D01*
X83153250Y-38941500D01*
X82462690Y-38941500D01*
X82229301Y-39038173D01*
X82050673Y-39216802D01*
X81954000Y-39450191D01*
X80860000Y-39450191D01*
X80763327Y-39216802D01*
X80584699Y-39038173D01*
X80351310Y-38941500D01*
X79660750Y-38941500D01*
X79502000Y-39100250D01*
X79248000Y-39100250D01*
X79089250Y-38941500D01*
X78398690Y-38941500D01*
X78165301Y-39038173D01*
X77986673Y-39216802D01*
X77890000Y-39450191D01*
X76644500Y-39450191D01*
X76644500Y-38925500D01*
X85534501Y-38925500D01*
X85534500Y-46654698D01*
X85518328Y-46736000D01*
X85534500Y-46817301D01*
X85534500Y-46817302D01*
X85582396Y-47058093D01*
X85764848Y-47331152D01*
X85833777Y-47377209D01*
X88074501Y-49617935D01*
X88074500Y-52490962D01*
X88026309Y-52471000D01*
X87185750Y-52471000D01*
X87027000Y-52629750D01*
X87027000Y-54229000D01*
X87047000Y-54229000D01*
X87047000Y-54483000D01*
X87027000Y-54483000D01*
X87027000Y-56082250D01*
X87185750Y-56241000D01*
X88026309Y-56241000D01*
X88259698Y-56144327D01*
X88438327Y-55965699D01*
X88535000Y-55732310D01*
X88535000Y-54641750D01*
X88376252Y-54483002D01*
X88478570Y-54483002D01*
X88877793Y-54882226D01*
X88923848Y-54951152D01*
X89196906Y-55133604D01*
X89252560Y-55144674D01*
X89252560Y-55606000D01*
X89301843Y-55853765D01*
X89442191Y-56063809D01*
X89652235Y-56204157D01*
X89900000Y-56253440D01*
X90074500Y-56253440D01*
X90074500Y-57030560D01*
X89900000Y-57030560D01*
X89652235Y-57079843D01*
X89442191Y-57220191D01*
X89301843Y-57430235D01*
X89252560Y-57678000D01*
X89252560Y-60178000D01*
X89301843Y-60425765D01*
X89442191Y-60635809D01*
X89652235Y-60776157D01*
X89900000Y-60825440D01*
X90074500Y-60825440D01*
X90074500Y-61912067D01*
X89047068Y-62939500D01*
X86681986Y-62939500D01*
X86446000Y-62892560D01*
X85217000Y-62892560D01*
X85217000Y-62561167D01*
X85081658Y-62234422D01*
X84831578Y-61984342D01*
X84504833Y-61849000D01*
X84455062Y-61849000D01*
X84455062Y-61799167D01*
X84319720Y-61472422D01*
X84069640Y-61222342D01*
X83742895Y-61087000D01*
X83389229Y-61087000D01*
X83062484Y-61222342D01*
X82812404Y-61472422D01*
X82677062Y-61799167D01*
X82677062Y-62152833D01*
X82804001Y-62459291D01*
X82804000Y-64440957D01*
X82789073Y-64516000D01*
X82804000Y-64591043D01*
X82804000Y-64591047D01*
X82848212Y-64813316D01*
X83016629Y-65065371D01*
X83080253Y-65107883D01*
X83523118Y-65550749D01*
X83565629Y-65614371D01*
X83629251Y-65656882D01*
X83817681Y-65782787D01*
X83817682Y-65782787D01*
X83817683Y-65782788D01*
X84039952Y-65827000D01*
X84039956Y-65827000D01*
X84114999Y-65841927D01*
X84190042Y-65827000D01*
X84311000Y-65827000D01*
X84311000Y-65842002D01*
X84381408Y-65842002D01*
X84347843Y-65892235D01*
X84333647Y-65963603D01*
X84311000Y-65986250D01*
X84311000Y-66066310D01*
X84312498Y-66069927D01*
X84298560Y-66140000D01*
X84298560Y-66590000D01*
X84318451Y-66690000D01*
X84298560Y-66790000D01*
X84298560Y-66903000D01*
X83220631Y-66903000D01*
X82042000Y-65724370D01*
X82042000Y-59213750D01*
X85265000Y-59213750D01*
X85265000Y-60304310D01*
X85361673Y-60537699D01*
X85540302Y-60716327D01*
X85773691Y-60813000D01*
X86614250Y-60813000D01*
X86773000Y-60654250D01*
X86773000Y-59055000D01*
X87027000Y-59055000D01*
X87027000Y-60654250D01*
X87185750Y-60813000D01*
X88026309Y-60813000D01*
X88259698Y-60716327D01*
X88438327Y-60537699D01*
X88535000Y-60304310D01*
X88535000Y-59213750D01*
X88376250Y-59055000D01*
X87027000Y-59055000D01*
X86773000Y-59055000D01*
X85423750Y-59055000D01*
X85265000Y-59213750D01*
X82042000Y-59213750D01*
X82042000Y-57551690D01*
X85265000Y-57551690D01*
X85265000Y-58642250D01*
X85423750Y-58801000D01*
X86773000Y-58801000D01*
X86773000Y-57201750D01*
X87027000Y-57201750D01*
X87027000Y-58801000D01*
X88376250Y-58801000D01*
X88535000Y-58642250D01*
X88535000Y-57551690D01*
X88438327Y-57318301D01*
X88259698Y-57139673D01*
X88026309Y-57043000D01*
X87185750Y-57043000D01*
X87027000Y-57201750D01*
X86773000Y-57201750D01*
X86614250Y-57043000D01*
X85773691Y-57043000D01*
X85540302Y-57139673D01*
X85361673Y-57318301D01*
X85265000Y-57551690D01*
X82042000Y-57551690D01*
X82042000Y-54641750D01*
X85265000Y-54641750D01*
X85265000Y-55732310D01*
X85361673Y-55965699D01*
X85540302Y-56144327D01*
X85773691Y-56241000D01*
X86614250Y-56241000D01*
X86773000Y-56082250D01*
X86773000Y-54483000D01*
X85423750Y-54483000D01*
X85265000Y-54641750D01*
X82042000Y-54641750D01*
X82042000Y-52979690D01*
X85265000Y-52979690D01*
X85265000Y-54070250D01*
X85423750Y-54229000D01*
X86773000Y-54229000D01*
X86773000Y-52629750D01*
X86614250Y-52471000D01*
X85773691Y-52471000D01*
X85540302Y-52567673D01*
X85361673Y-52746301D01*
X85265000Y-52979690D01*
X82042000Y-52979690D01*
X82042000Y-48575630D01*
X83924749Y-46692882D01*
X83988371Y-46650371D01*
X84040869Y-46571803D01*
X84146015Y-46414440D01*
X84156788Y-46398317D01*
X84191474Y-46223940D01*
X84289000Y-46223940D01*
X84536765Y-46174657D01*
X84746809Y-46034309D01*
X84887157Y-45824265D01*
X84936440Y-45576500D01*
X84936440Y-43576500D01*
X84887157Y-43328735D01*
X84746809Y-43118691D01*
X84536765Y-42978343D01*
X84289000Y-42929060D01*
X82589000Y-42929060D01*
X82341235Y-42978343D01*
X82131191Y-43118691D01*
X82005366Y-43307000D01*
X80808634Y-43307000D01*
X80682809Y-43118691D01*
X80472765Y-42978343D01*
X80225000Y-42929060D01*
X78525000Y-42929060D01*
X78277235Y-42978343D01*
X78067191Y-43118691D01*
X77926843Y-43328735D01*
X77877560Y-43576500D01*
X77877560Y-45576500D01*
X77926843Y-45824265D01*
X78067191Y-46034309D01*
X78277235Y-46174657D01*
X78525000Y-46223940D01*
X78613001Y-46223940D01*
X78613001Y-46787952D01*
X78598073Y-46863000D01*
X78657213Y-47160317D01*
X78723103Y-47258928D01*
X78825630Y-47412371D01*
X78889251Y-47454881D01*
X80010000Y-48575631D01*
X80010001Y-66091952D01*
X79995073Y-66167000D01*
X80054213Y-66464317D01*
X80178657Y-66650560D01*
X80222630Y-66716371D01*
X80286251Y-66758881D01*
X82328117Y-68800748D01*
X82370629Y-68864371D01*
X82622683Y-69032788D01*
X82844952Y-69077000D01*
X82844953Y-69077000D01*
X82920000Y-69091928D01*
X82995047Y-69077000D01*
X84606708Y-69077000D01*
X84698235Y-69138157D01*
X84946000Y-69187440D01*
X86156735Y-69187440D01*
X86156734Y-78627635D01*
X85255731Y-79528639D01*
X85127809Y-79337191D01*
X84917765Y-79196843D01*
X84670000Y-79147560D01*
X82970000Y-79147560D01*
X82722235Y-79196843D01*
X82512191Y-79337191D01*
X82371843Y-79547235D01*
X82350039Y-79656855D01*
X82161358Y-79449817D01*
X81636892Y-79203514D01*
X81407000Y-79324181D01*
X81407000Y-80518000D01*
X81427000Y-80518000D01*
X81427000Y-80772000D01*
X81407000Y-80772000D01*
X81407000Y-83058000D01*
X81427000Y-83058000D01*
X81427000Y-83312000D01*
X81407000Y-83312000D01*
X81407000Y-85598000D01*
X81427000Y-85598000D01*
X81427000Y-85852000D01*
X81407000Y-85852000D01*
X81407000Y-88138000D01*
X81427000Y-88138000D01*
X81427000Y-88392000D01*
X81407000Y-88392000D01*
X81407000Y-90678000D01*
X81427000Y-90678000D01*
X81427000Y-90932000D01*
X81407000Y-90932000D01*
X81407000Y-93218000D01*
X81427000Y-93218000D01*
X81427000Y-93472000D01*
X81407000Y-93472000D01*
X81407000Y-95758000D01*
X81427000Y-95758000D01*
X81427000Y-96012000D01*
X81407000Y-96012000D01*
X81407000Y-98298000D01*
X81427000Y-98298000D01*
X81427000Y-98552000D01*
X81407000Y-98552000D01*
X81407000Y-99745819D01*
X81636892Y-99866486D01*
X82161358Y-99620183D01*
X82548647Y-99195214D01*
X82749375Y-99495625D01*
X83240582Y-99823839D01*
X83673744Y-99910000D01*
X83966256Y-99910000D01*
X84399418Y-99823839D01*
X84890625Y-99495625D01*
X85096842Y-99187000D01*
X85141957Y-99187000D01*
X85217000Y-99201927D01*
X85292043Y-99187000D01*
X85292048Y-99187000D01*
X85514317Y-99142788D01*
X85766371Y-98974371D01*
X85808883Y-98910747D01*
X90655749Y-94063882D01*
X90719371Y-94021371D01*
X90887788Y-93769317D01*
X90932000Y-93547048D01*
X90932000Y-93547047D01*
X90946928Y-93472000D01*
X90932000Y-93396953D01*
X90932000Y-83312000D01*
X95005908Y-83312000D01*
X95121161Y-83891418D01*
X95449375Y-84382625D01*
X95747761Y-84582000D01*
X95449375Y-84781375D01*
X95121161Y-85272582D01*
X95005908Y-85852000D01*
X95121161Y-86431418D01*
X95449375Y-86922625D01*
X95747761Y-87122000D01*
X95449375Y-87321375D01*
X95121161Y-87812582D01*
X95005908Y-88392000D01*
X95121161Y-88971418D01*
X95449375Y-89462625D01*
X95747761Y-89662000D01*
X95449375Y-89861375D01*
X95121161Y-90352582D01*
X95005908Y-90932000D01*
X95121161Y-91511418D01*
X95449375Y-92002625D01*
X95747761Y-92202000D01*
X95449375Y-92401375D01*
X95121161Y-92892582D01*
X95005908Y-93472000D01*
X95121161Y-94051418D01*
X95449375Y-94542625D01*
X95747761Y-94742000D01*
X95449375Y-94941375D01*
X95121161Y-95432582D01*
X95005908Y-96012000D01*
X95121161Y-96591418D01*
X95449375Y-97082625D01*
X95747761Y-97282000D01*
X95449375Y-97481375D01*
X95121161Y-97972582D01*
X95005908Y-98552000D01*
X95121161Y-99131418D01*
X95449375Y-99622625D01*
X95940582Y-99950839D01*
X96373744Y-100037000D01*
X96666256Y-100037000D01*
X97099418Y-99950839D01*
X97590625Y-99622625D01*
X97918839Y-99131418D01*
X98034092Y-98552000D01*
X97918839Y-97972582D01*
X97590625Y-97481375D01*
X97292239Y-97282000D01*
X97590625Y-97082625D01*
X97918839Y-96591418D01*
X98034092Y-96012000D01*
X97918839Y-95432582D01*
X97590625Y-94941375D01*
X97292239Y-94742000D01*
X97590625Y-94542625D01*
X97918839Y-94051418D01*
X98034092Y-93472000D01*
X97918839Y-92892582D01*
X97590625Y-92401375D01*
X97292239Y-92202000D01*
X97590625Y-92002625D01*
X97918839Y-91511418D01*
X98034092Y-90932000D01*
X97918839Y-90352582D01*
X97590625Y-89861375D01*
X97292239Y-89662000D01*
X97590625Y-89462625D01*
X97918839Y-88971418D01*
X98034092Y-88392000D01*
X97918839Y-87812582D01*
X97590625Y-87321375D01*
X97292239Y-87122000D01*
X97590625Y-86922625D01*
X97918839Y-86431418D01*
X98034092Y-85852000D01*
X97918839Y-85272582D01*
X97590625Y-84781375D01*
X97292239Y-84582000D01*
X97590625Y-84382625D01*
X97918839Y-83891418D01*
X98034092Y-83312000D01*
X97918839Y-82732582D01*
X97590625Y-82241375D01*
X97572381Y-82229184D01*
X97617765Y-82220157D01*
X97827809Y-82079809D01*
X97968157Y-81869765D01*
X98017440Y-81622000D01*
X98017440Y-79922000D01*
X97968157Y-79674235D01*
X97827809Y-79464191D01*
X97617765Y-79323843D01*
X97370000Y-79274560D01*
X95670000Y-79274560D01*
X95422235Y-79323843D01*
X95212191Y-79464191D01*
X95071843Y-79674235D01*
X95022560Y-79922000D01*
X95022560Y-81622000D01*
X95071843Y-81869765D01*
X95212191Y-82079809D01*
X95422235Y-82220157D01*
X95467619Y-82229184D01*
X95449375Y-82241375D01*
X95121161Y-82732582D01*
X95005908Y-83312000D01*
X90932000Y-83312000D01*
X90932000Y-69187440D01*
X92346000Y-69187440D01*
X92593765Y-69138157D01*
X92803809Y-68997809D01*
X92944157Y-68787765D01*
X92993440Y-68540000D01*
X92993440Y-68090000D01*
X92973549Y-67990000D01*
X92993440Y-67890000D01*
X92993440Y-67440000D01*
X92973549Y-67340000D01*
X92993440Y-67240000D01*
X92993440Y-66790000D01*
X92973549Y-66690000D01*
X92993440Y-66590000D01*
X92993440Y-66140000D01*
X92973549Y-66040000D01*
X92993440Y-65940000D01*
X92993440Y-65490000D01*
X92973549Y-65390000D01*
X92993440Y-65290000D01*
X92993440Y-64840000D01*
X92973549Y-64740000D01*
X92993440Y-64640000D01*
X92993440Y-64190000D01*
X92973549Y-64090000D01*
X92989063Y-64012000D01*
X95005908Y-64012000D01*
X95121161Y-64591418D01*
X95449375Y-65082625D01*
X95747761Y-65282000D01*
X95449375Y-65481375D01*
X95121161Y-65972582D01*
X95005908Y-66552000D01*
X95121161Y-67131418D01*
X95449375Y-67622625D01*
X95747761Y-67822000D01*
X95449375Y-68021375D01*
X95121161Y-68512582D01*
X95005908Y-69092000D01*
X95121161Y-69671418D01*
X95449375Y-70162625D01*
X95747761Y-70362000D01*
X95449375Y-70561375D01*
X95121161Y-71052582D01*
X95005908Y-71632000D01*
X95121161Y-72211418D01*
X95449375Y-72702625D01*
X95747761Y-72902000D01*
X95449375Y-73101375D01*
X95121161Y-73592582D01*
X95005908Y-74172000D01*
X95121161Y-74751418D01*
X95449375Y-75242625D01*
X95747761Y-75442000D01*
X95449375Y-75641375D01*
X95121161Y-76132582D01*
X95005908Y-76712000D01*
X95121161Y-77291418D01*
X95449375Y-77782625D01*
X95940582Y-78110839D01*
X96373744Y-78197000D01*
X96666256Y-78197000D01*
X97099418Y-78110839D01*
X97590625Y-77782625D01*
X97918839Y-77291418D01*
X98034092Y-76712000D01*
X97918839Y-76132582D01*
X97590625Y-75641375D01*
X97292239Y-75442000D01*
X97590625Y-75242625D01*
X97918839Y-74751418D01*
X98034092Y-74172000D01*
X97918839Y-73592582D01*
X97590625Y-73101375D01*
X97292239Y-72902000D01*
X97590625Y-72702625D01*
X97918839Y-72211418D01*
X98034092Y-71632000D01*
X97918839Y-71052582D01*
X97590625Y-70561375D01*
X97292239Y-70362000D01*
X97590625Y-70162625D01*
X97918839Y-69671418D01*
X98034092Y-69092000D01*
X97918839Y-68512582D01*
X97590625Y-68021375D01*
X97292239Y-67822000D01*
X97590625Y-67622625D01*
X97918839Y-67131418D01*
X98034092Y-66552000D01*
X97918839Y-65972582D01*
X97590625Y-65481375D01*
X97292239Y-65282000D01*
X97590625Y-65082625D01*
X97918839Y-64591418D01*
X98034092Y-64012000D01*
X97918839Y-63432582D01*
X97590625Y-62941375D01*
X97271522Y-62728157D01*
X97401358Y-62667183D01*
X97791645Y-62238924D01*
X97961476Y-61828890D01*
X97840155Y-61599000D01*
X96647000Y-61599000D01*
X96647000Y-61619000D01*
X96393000Y-61619000D01*
X96393000Y-61599000D01*
X95199845Y-61599000D01*
X95078524Y-61828890D01*
X95248355Y-62238924D01*
X95638642Y-62667183D01*
X95768478Y-62728157D01*
X95449375Y-62941375D01*
X95121161Y-63432582D01*
X95005908Y-64012000D01*
X92989063Y-64012000D01*
X92993440Y-63990000D01*
X92993440Y-63540000D01*
X92944157Y-63292235D01*
X92803809Y-63082191D01*
X92593765Y-62941843D01*
X92346000Y-62892560D01*
X91430187Y-62892560D01*
X91495152Y-62849152D01*
X91677604Y-62576094D01*
X91725500Y-62335303D01*
X91725500Y-62335302D01*
X91741672Y-62254000D01*
X91725500Y-62172697D01*
X91725500Y-60825440D01*
X91900000Y-60825440D01*
X92147765Y-60776157D01*
X92357809Y-60635809D01*
X92498157Y-60425765D01*
X92547440Y-60178000D01*
X92547440Y-57678000D01*
X92498157Y-57430235D01*
X92357809Y-57220191D01*
X92147765Y-57079843D01*
X91900000Y-57030560D01*
X91725500Y-57030560D01*
X91725500Y-56253440D01*
X91900000Y-56253440D01*
X92147765Y-56204157D01*
X92357809Y-56063809D01*
X92498157Y-55853765D01*
X92547440Y-55606000D01*
X92547440Y-53106000D01*
X92498157Y-52858235D01*
X92357809Y-52648191D01*
X92147765Y-52507843D01*
X91900000Y-52458560D01*
X89900000Y-52458560D01*
X89725500Y-52493270D01*
X89725500Y-49357297D01*
X89741671Y-49275999D01*
X89725500Y-49194701D01*
X89725500Y-49194697D01*
X89677604Y-48953906D01*
X89495152Y-48680848D01*
X89426229Y-48634795D01*
X87185500Y-46394068D01*
X87185500Y-43767000D01*
X88037560Y-43767000D01*
X88037560Y-45767000D01*
X88086843Y-46014765D01*
X88227191Y-46224809D01*
X88437235Y-46365157D01*
X88685000Y-46414440D01*
X88881440Y-46414440D01*
X88985629Y-46570371D01*
X89049253Y-46612883D01*
X93853001Y-51416632D01*
X93853000Y-55677957D01*
X93838073Y-55753000D01*
X93853000Y-55828043D01*
X93853000Y-55828047D01*
X93897212Y-56050316D01*
X94065629Y-56302371D01*
X94129254Y-56344884D01*
X94662116Y-56877746D01*
X94704629Y-56941371D01*
X94838110Y-57030560D01*
X94956681Y-57109787D01*
X94956682Y-57109787D01*
X94956683Y-57109788D01*
X95178952Y-57154000D01*
X95178956Y-57154000D01*
X95252999Y-57168728D01*
X95449375Y-57462625D01*
X95747761Y-57662000D01*
X95449375Y-57861375D01*
X95121161Y-58352582D01*
X95005908Y-58932000D01*
X95121161Y-59511418D01*
X95449375Y-60002625D01*
X95768478Y-60215843D01*
X95638642Y-60276817D01*
X95248355Y-60705076D01*
X95078524Y-61115110D01*
X95199845Y-61345000D01*
X96393000Y-61345000D01*
X96393000Y-61325000D01*
X96647000Y-61325000D01*
X96647000Y-61345000D01*
X97840155Y-61345000D01*
X97961476Y-61115110D01*
X97791645Y-60705076D01*
X97401358Y-60276817D01*
X97271522Y-60215843D01*
X97590625Y-60002625D01*
X97918839Y-59511418D01*
X98034092Y-58932000D01*
X97918839Y-58352582D01*
X97590625Y-57861375D01*
X97292239Y-57662000D01*
X97590625Y-57462625D01*
X97918839Y-56971418D01*
X98034092Y-56392000D01*
X97918839Y-55812582D01*
X97590625Y-55321375D01*
X97572381Y-55309184D01*
X97617765Y-55300157D01*
X97827809Y-55159809D01*
X97968157Y-54949765D01*
X98017440Y-54702000D01*
X98017440Y-53002000D01*
X97968157Y-52754235D01*
X97827809Y-52544191D01*
X97617765Y-52403843D01*
X97370000Y-52354560D01*
X97282000Y-52354560D01*
X97282000Y-50494047D01*
X97296928Y-50419000D01*
X97279270Y-50330227D01*
X97237788Y-50121683D01*
X97069371Y-49869629D01*
X97005750Y-49827119D01*
X94361000Y-47182370D01*
X94361000Y-46414440D01*
X94449000Y-46414440D01*
X94696765Y-46365157D01*
X94906809Y-46224809D01*
X95047157Y-46014765D01*
X95096440Y-45767000D01*
X95096440Y-43767000D01*
X95047157Y-43519235D01*
X94906809Y-43309191D01*
X94696765Y-43168843D01*
X94449000Y-43119560D01*
X93708423Y-43119560D01*
X93688803Y-43090197D01*
X93647601Y-43062667D01*
X93599000Y-43053000D01*
X89662000Y-43053000D01*
X89613399Y-43062667D01*
X89572197Y-43090197D01*
X89552577Y-43119560D01*
X88685000Y-43119560D01*
X88437235Y-43168843D01*
X88227191Y-43309191D01*
X88086843Y-43519235D01*
X88037560Y-43767000D01*
X87185500Y-43767000D01*
X87185500Y-38925500D01*
X88304068Y-38925500D01*
X88529131Y-39150564D01*
X88437235Y-39168843D01*
X88227191Y-39309191D01*
X88086843Y-39519235D01*
X88037560Y-39767000D01*
X88037560Y-41767000D01*
X88086843Y-42014765D01*
X88227191Y-42224809D01*
X88437235Y-42365157D01*
X88685000Y-42414440D01*
X90385000Y-42414440D01*
X90632765Y-42365157D01*
X90842809Y-42224809D01*
X90983157Y-42014765D01*
X91032440Y-41767000D01*
X91032440Y-41592500D01*
X92101560Y-41592500D01*
X92101560Y-41767000D01*
X92150843Y-42014765D01*
X92291191Y-42224809D01*
X92501235Y-42365157D01*
X92749000Y-42414440D01*
X94449000Y-42414440D01*
X94696765Y-42365157D01*
X94906809Y-42224809D01*
X95047157Y-42014765D01*
X95096440Y-41767000D01*
X95096440Y-39767000D01*
X95047157Y-39519235D01*
X94906809Y-39309191D01*
X94696765Y-39168843D01*
X94449000Y-39119560D01*
X92749000Y-39119560D01*
X92501235Y-39168843D01*
X92291191Y-39309191D01*
X92150843Y-39519235D01*
X92101560Y-39767000D01*
X92101560Y-39941500D01*
X91032440Y-39941500D01*
X91032440Y-39767000D01*
X90983157Y-39519235D01*
X90842809Y-39309191D01*
X90632765Y-39168843D01*
X90385000Y-39119560D01*
X90360500Y-39119560D01*
X90360500Y-39070303D01*
X90376672Y-38989000D01*
X90312604Y-38666905D01*
X90176206Y-38462773D01*
X90130152Y-38393848D01*
X90061226Y-38347793D01*
X89287209Y-37573777D01*
X89241152Y-37504848D01*
X88968094Y-37322396D01*
X88727303Y-37274500D01*
X88727301Y-37274500D01*
X88646000Y-37258328D01*
X88564699Y-37274500D01*
X86187301Y-37274500D01*
X86106000Y-37258328D01*
X86024699Y-37274500D01*
X75900303Y-37274500D01*
X75819000Y-37258328D01*
X75737698Y-37274500D01*
X68915303Y-37274500D01*
X68834000Y-37258328D01*
X68511905Y-37322396D01*
X68375689Y-37413414D01*
X68238848Y-37504848D01*
X68192793Y-37573774D01*
X67545775Y-38220793D01*
X67476849Y-38266848D01*
X67430794Y-38335774D01*
X67294397Y-38539906D01*
X67230328Y-38862000D01*
X67237401Y-38897560D01*
X67222000Y-38897560D01*
X66974235Y-38946843D01*
X66764191Y-39087191D01*
X66623843Y-39297235D01*
X66574560Y-39545000D01*
X66574560Y-39751500D01*
X64978303Y-39751500D01*
X64897000Y-39735328D01*
X64815698Y-39751500D01*
X63727440Y-39751500D01*
X63727440Y-39577000D01*
X63678157Y-39329235D01*
X63537809Y-39119191D01*
X63327765Y-38978843D01*
X63080000Y-38929560D01*
X61380000Y-38929560D01*
X61132235Y-38978843D01*
X60922191Y-39119191D01*
X60781843Y-39329235D01*
X60732560Y-39577000D01*
X60732560Y-39751500D01*
X59790440Y-39751500D01*
X59790440Y-39577000D01*
X59741157Y-39329235D01*
X59600809Y-39119191D01*
X59390765Y-38978843D01*
X59143000Y-38929560D01*
X57443000Y-38929560D01*
X57195235Y-38978843D01*
X56985191Y-39119191D01*
X56844843Y-39329235D01*
X56795560Y-39577000D01*
X56795560Y-39751500D01*
X56278297Y-39751500D01*
X56196999Y-39735329D01*
X56115701Y-39751500D01*
X56115697Y-39751500D01*
X55874906Y-39799396D01*
X55601848Y-39981848D01*
X55555793Y-40050774D01*
X53829775Y-41776793D01*
X53760849Y-41822848D01*
X53714794Y-41891774D01*
X53578397Y-42095906D01*
X53514328Y-42418000D01*
X53530501Y-42499306D01*
X53530500Y-44322067D01*
X52722067Y-45130501D01*
X52189440Y-45130501D01*
X52189440Y-44356001D01*
X52140157Y-44108236D01*
X51999809Y-43898192D01*
X51866307Y-43808988D01*
X51901699Y-43794328D01*
X52080327Y-43615699D01*
X52177000Y-43382310D01*
X52177000Y-41941751D01*
X52018250Y-41783001D01*
X50419000Y-41783001D01*
X50419000Y-41803001D01*
X50165000Y-41803001D01*
X50165000Y-41783001D01*
X48565750Y-41783001D01*
X48407000Y-41941751D01*
X48407000Y-43382310D01*
X48503673Y-43615699D01*
X48682301Y-43794328D01*
X48717693Y-43808988D01*
X48584191Y-43898192D01*
X48443843Y-44108236D01*
X48394560Y-44356001D01*
X48394560Y-45167327D01*
X48338906Y-45178397D01*
X48065848Y-45360849D01*
X48019793Y-45429775D01*
X47479775Y-45969794D01*
X47410849Y-46015849D01*
X47357262Y-46096047D01*
X47228397Y-46288907D01*
X47164328Y-46611001D01*
X47180501Y-46692307D01*
X47180500Y-55125699D01*
X47164328Y-55207001D01*
X47180500Y-55288302D01*
X47180500Y-55288303D01*
X47228396Y-55529094D01*
X47410848Y-55802153D01*
X47479777Y-55848210D01*
X48019793Y-56388227D01*
X48065848Y-56457153D01*
X48338906Y-56639605D01*
X48394560Y-56650675D01*
X48394560Y-57462001D01*
X48443843Y-57709766D01*
X48584191Y-57919810D01*
X48794235Y-58060158D01*
X49042000Y-58109441D01*
X49466501Y-58109441D01*
X49466501Y-61616498D01*
X49357765Y-61543843D01*
X49110000Y-61494560D01*
X47410000Y-61494560D01*
X47162235Y-61543843D01*
X46952191Y-61684191D01*
X46811843Y-61894235D01*
X46762560Y-62142000D01*
X46762560Y-63842000D01*
X46811843Y-64089765D01*
X46952191Y-64299809D01*
X47162235Y-64440157D01*
X47207619Y-64449184D01*
X47189375Y-64461375D01*
X46861161Y-64952582D01*
X46745908Y-65532000D01*
X46176000Y-65532000D01*
X46176000Y-39929692D01*
X48407000Y-39929692D01*
X48407000Y-41370251D01*
X48565750Y-41529001D01*
X50165000Y-41529001D01*
X50165000Y-39579751D01*
X50419000Y-39579751D01*
X50419000Y-41529001D01*
X52018250Y-41529001D01*
X52177000Y-41370251D01*
X52177000Y-39929692D01*
X52080327Y-39696303D01*
X51901699Y-39517674D01*
X51668310Y-39421001D01*
X50577750Y-39421001D01*
X50419000Y-39579751D01*
X50165000Y-39579751D01*
X50006250Y-39421001D01*
X48915690Y-39421001D01*
X48682301Y-39517674D01*
X48503673Y-39696303D01*
X48407000Y-39929692D01*
X46176000Y-39929692D01*
X46176000Y-35508000D01*
X98604001Y-35508000D01*
X98604000Y-99273908D01*
G04 #@! TD*
M02*
